<?xml version="1.0" encoding="UTF-8"?>
<svg id="katman_1" data-name="katman 1" xmlns="http://www.w3.org/2000/svg" viewBox="0 0 706 185.17">
  <defs>
    <style>
      .cls-1 {
        fill: #374151;
      }
    </style>
  </defs>
  <g>
    <path class="cls-1" d="M139.46,45.9c9.03-.75,18.9,1.02,27.1,4.87,10.17,4.77,34.97,29.11,42.52,38.42,4.65,5.74,4.67,9.79,0,15.54-16.24,20.02-40.99,38.07-58,58-9.57,7.38-21.95-2.67-16.22-13.52l51.23-52.01c.16-.82-.55-1.11-.94-1.61-3.83-4.99-16.56-17.44-21.59-21.58-6.79-5.58-15.52-7.68-24.22-6.66-17.89,2.11-32.14,27.75-45.94,37.69-10.96,7.9-23.06-4.22-15.17-15.17,4.9-6.79,23.78-24.77,30.7-30.67,8.52-7.27,19.26-12.36,30.53-13.31Z"/>
    <path class="cls-1" d="M47.43,131.79c-7.25-6.59-21.53-20-27.21-27.27-7.11-9.12-.11-15.02,6.03-21.4,13.53-14.06,28.69-29,42.76-42.58,2.4-2.32,10.9-10.77,13.23-11.38,9.65-2.54,17.08,6.61,12.75,15.44l-51.79,52.12c-.16.82.55,1.11.94,1.61,4.19,5.45,21.64,22.3,27.42,25.19,29.53,14.73,47.42-21.02,66.89-36.13,10.38-4.78,20.16,6.99,12.96,16.34-6,7.79-24.23,25.42-32.04,32.03-22.83,19.3-50.82,15.23-71.94-3.95Z"/>
  </g>
  <g>
    <path class="cls-1" d="M287.01,148.42c-8.16,0-15.22-1.74-21.15-5.23s-10.52-8.36-13.74-14.61c-3.22-6.25-4.83-13.51-4.83-21.78s1.61-15.64,4.83-21.89c3.22-6.25,7.8-11.12,13.74-14.61,5.94-3.49,12.99-5.23,21.15-5.23s15.22,1.74,21.15,5.23c5.94,3.49,10.52,8.36,13.74,14.61,3.22,6.25,4.84,13.55,4.84,21.89s-1.61,15.53-4.84,21.78c-3.22,6.25-7.8,11.12-13.74,14.61-5.94,3.49-12.99,5.23-21.15,5.23ZM287.12,131.08c3.71,0,6.81-1.06,9.3-3.18,2.49-2.12,4.37-5.02,5.65-8.7,1.28-3.68,1.92-7.87,1.92-12.56s-.64-8.88-1.92-12.56c-1.28-3.68-3.16-6.59-5.65-8.72-2.49-2.14-5.59-3.21-9.3-3.21s-6.89,1.07-9.43,3.21c-2.54,2.14-4.45,5.05-5.73,8.72-1.28,3.68-1.92,7.87-1.92,12.56s.64,8.88,1.92,12.56c1.28,3.68,3.19,6.58,5.73,8.7,2.54,2.12,5.68,3.18,9.43,3.18Z"/>
    <path class="cls-1" d="M384.29,66.12v16.82h-48.62v-16.82h48.62ZM346.71,46.78h22.39v75.26c0,2.07.31,3.67.95,4.81.63,1.14,1.52,1.94,2.65,2.39,1.14.46,2.46.68,3.97.68,1.05,0,2.1-.1,3.15-.29s1.86-.34,2.42-.45l3.52,16.66c-1.12.35-2.7.76-4.73,1.24-2.03.47-4.5.76-7.41.87-5.4.21-10.12-.51-14.16-2.15s-7.19-4.21-9.43-7.67c-2.24-3.47-3.35-7.85-3.31-13.14V46.78Z"/>
    <path class="cls-1" d="M435.32,148.42c-8.16,0-15.21-1.74-21.15-5.23-5.94-3.49-10.52-8.36-13.74-14.61-3.22-6.25-4.84-13.51-4.84-21.78s1.61-15.64,4.84-21.89c3.22-6.25,7.8-11.12,13.74-14.61,5.94-3.49,12.99-5.23,21.15-5.23s15.21,1.74,21.15,5.23c5.94,3.49,10.52,8.36,13.74,14.61,3.22,6.25,4.83,13.55,4.83,21.89s-1.61,15.53-4.83,21.78c-3.22,6.25-7.8,11.12-13.74,14.61-5.94,3.49-12.99,5.23-21.15,5.23ZM435.43,131.08c3.71,0,6.81-1.06,9.3-3.18,2.49-2.12,4.37-5.02,5.65-8.7,1.28-3.68,1.92-7.87,1.92-12.56s-.64-8.88-1.92-12.56c-1.28-3.68-3.16-6.59-5.65-8.72-2.49-2.14-5.59-3.21-9.3-3.21s-6.89,1.07-9.43,3.21c-2.54,2.14-4.45,5.05-5.73,8.72-1.28,3.68-1.92,7.87-1.92,12.56s.64,8.88,1.92,12.56c1.28,3.68,3.19,6.58,5.73,8.7,2.54,2.12,5.68,3.18,9.43,3.18Z"/>
    <path class="cls-1" d="M490.09,146.85V39.21h22.39v40.47h.68c.98-2.17,2.41-4.39,4.28-6.65,1.87-2.26,4.33-4.15,7.36-5.68,3.03-1.52,6.81-2.29,11.33-2.29,5.89,0,11.32,1.53,16.29,4.6,4.97,3.07,8.95,7.67,11.93,13.82,2.98,6.15,4.47,13.85,4.47,23.1s-1.45,16.6-4.34,22.78c-2.89,6.18-6.81,10.86-11.77,14.03s-10.5,4.76-16.63,4.76c-4.35,0-8.03-.72-11.06-2.15-3.03-1.44-5.51-3.25-7.44-5.44-1.93-2.19-3.4-4.41-4.42-6.65h-1v12.93h-22.07ZM512,106.48c0,4.8.67,8.99,2,12.56,1.33,3.57,3.26,6.35,5.78,8.33,2.52,1.98,5.59,2.97,9.2,2.97s6.73-1.01,9.25-3.02,4.44-4.82,5.75-8.41c1.31-3.59,1.97-7.73,1.97-12.43s-.65-8.76-1.94-12.3c-1.3-3.54-3.21-6.31-5.73-8.3s-5.62-3-9.3-3-6.72.96-9.22,2.89c-2.51,1.93-4.42,4.66-5.75,8.2-1.33,3.54-2,7.71-2,12.51Z"/>
    <path class="cls-1" d="M594.94,55.71c-3.33,0-6.17-1.1-8.54-3.31-2.37-2.21-3.55-4.87-3.55-7.99s1.19-5.79,3.57-8.02c2.38-2.22,5.22-3.34,8.51-3.34s6.18,1.1,8.54,3.31c2.36,2.21,3.55,4.87,3.55,7.99s-1.18,5.79-3.55,8.02c-2.37,2.23-5.21,3.34-8.54,3.34ZM583.69,146.85v-80.73h22.39v80.73h-22.39Z"/>
    <path class="cls-1" d="M646.97,148.37c-5.15,0-9.74-.9-13.77-2.71-4.03-1.8-7.21-4.48-9.54-8.04-2.33-3.56-3.5-8-3.5-13.32,0-4.48.82-8.25,2.47-11.3,1.65-3.05,3.89-5.5,6.73-7.36,2.84-1.86,6.07-3.26,9.7-4.21,3.63-.95,7.44-1.61,11.43-2,4.7-.49,8.48-.95,11.35-1.39,2.87-.44,4.96-1.09,6.25-1.97,1.3-.88,1.95-2.17,1.95-3.89v-.32c0-3.33-1.04-5.9-3.13-7.73-2.08-1.82-5.04-2.73-8.86-2.73-4.03,0-7.24.89-9.62,2.65-2.38,1.77-3.96,3.99-4.73,6.65l-20.71-1.68c1.05-4.9,3.12-9.15,6.2-12.75,3.08-3.59,7.07-6.36,11.96-8.3,4.89-1.94,10.55-2.92,17-2.92,4.48,0,8.79.53,12.9,1.58s7.78,2.68,10.98,4.89,5.74,5.04,7.59,8.49c1.86,3.45,2.79,7.58,2.79,12.38v54.45h-21.23v-11.19h-.63c-1.3,2.52-3.03,4.74-5.2,6.65-2.17,1.91-4.78,3.4-7.83,4.47-3.05,1.07-6.57,1.6-10.56,1.6ZM653.38,132.92c3.29,0,6.2-.66,8.72-1.97s4.5-3.09,5.94-5.33c1.44-2.24,2.15-4.78,2.15-7.62v-8.57c-.7.46-1.66.87-2.86,1.23-1.21.37-2.57.7-4.07,1-1.51.3-3.01.56-4.52.79-1.51.23-2.87.43-4.1.6-2.63.39-4.92,1-6.88,1.84-1.96.84-3.49,1.97-4.57,3.39-1.09,1.42-1.63,3.18-1.63,5.28,0,3.05,1.11,5.37,3.34,6.96,2.22,1.59,5.05,2.39,8.49,2.39Z"/>
  </g>
</svg>