<svg xmlns="http://www.w3.org/2000/svg" xmlns:xlink="http://www.w3.org/1999/xlink" width="512" zoomAndPan="magnify" viewBox="0 0 384 383.999986" height="512" preserveAspectRatio="xMidYMid meet" version="1.0"><defs><clipPath id="3412347709"><path d="M 71.027344 60 L 313.277344 60 L 313.277344 324.476562 L 71.027344 324.476562 Z M 71.027344 60 " clip-rule="nonzero"/></clipPath></defs><g clip-path="url(#3412347709)"><path fill="#8c9091" d="M 313.277344 108.328125 C 308.644531 104.460938 297.527344 94.703125 293.664062 72.554688 L 262.199219 60.160156 C 262.199219 60.160156 261.746094 59.953125 261.597656 60.074219 C 261.457031 60.199219 261.460938 60.335938 261.308594 60.492188 C 252.90625 69.183594 223.300781 62.761719 192.832031 62.761719 L 191.46875 62.761719 C 161 62.761719 131.394531 69.183594 122.992188 60.5 C 122.839844 60.339844 122.851562 60.203125 122.703125 60.078125 C 122.5625 59.960938 122.101562 60.167969 122.101562 60.167969 L 90.636719 72.5625 C 86.777344 94.710938 75.660156 104.460938 71.027344 108.328125 C 78.574219 113.835938 86.570312 122.101562 86.570312 133.785156 C 86.570312 143.78125 75.742188 175.140625 75.742188 201.460938 C 75.742188 272.707031 131.964844 299.941406 166.601562 308.578125 C 175.300781 310.742188 186.078125 319.164062 191.46875 323.972656 C 191.46875 323.972656 191.785156 324.246094 192.144531 324.246094 C 192.503906 324.246094 192.832031 323.972656 192.832031 323.972656 C 198.230469 319.164062 209.003906 310.742188 217.703125 308.578125 C 252.339844 299.941406 308.558594 272.707031 308.558594 201.460938 C 308.558594 175.140625 297.730469 143.78125 297.730469 133.785156 C 297.730469 122.105469 305.726562 113.84375 313.273438 108.328125 Z M 313.277344 108.328125 " fill-opacity="1" fill-rule="nonzero"/></g><path fill="#231f20" d="M 287.984375 79.398438 C 287.789062 78.40625 287.585938 77.128906 287.652344 76.234375 L 262.253906 66.898438 C 262.253906 66.898438 262.023438 72.03125 235.359375 70.808594 C 234.351562 70.820312 229.539062 70.628906 228.183594 70.539062 C 217.183594 69.800781 205.835938 69.117188 194.421875 69.066406 L 189.65625 69.066406 C 178.242188 69.113281 166.894531 69.800781 155.894531 70.539062 C 154.539062 70.632812 149.726562 70.820312 148.71875 70.808594 C 122.054688 72.03125 121.824219 66.898438 121.824219 66.898438 L 96.425781 76.234375 C 96.492188 77.128906 96.296875 78.40625 96.097656 79.398438 C 92.964844 93.792969 86.28125 101.640625 80.902344 108.226562 L 303.183594 108.226562 C 297.796875 101.640625 291.117188 93.792969 287.984375 79.398438 Z M 287.984375 79.398438 " fill-opacity="1" fill-rule="nonzero"/><path fill="#ffcd00" d="M 293.042969 146.558594 C 291.789062 141.910156 291.148438 137.558594 291.148438 133.609375 C 291.148438 126.929688 292.90625 121.734375 295.484375 117.480469 L 88.722656 117.480469 C 91.296875 121.734375 93.054688 126.929688 93.054688 133.609375 C 93.054688 137.554688 92.421875 141.910156 91.160156 146.558594 C 85.097656 168.949219 82.152344 187.457031 82.152344 203.121094 C 82.152344 206.902344 82.3125 210.59375 82.652344 214.101562 C 83.996094 228.214844 88.050781 240.542969 95.269531 252.230469 L 294.828125 153.386719 C 294.265625 151.152344 293.675781 148.882812 293.050781 146.5625 Z M 293.042969 146.558594 " fill-opacity="1" fill-rule="nonzero"/><path fill="#d7282f" d="M 96.675781 254.390625 C 98.019531 256.453125 99.433594 258.492188 100.984375 260.523438 C 119.203125 282.988281 138.167969 294.742188 168.597656 302.445312 C 176.96875 304.554688 186.367188 311.429688 192.097656 316.136719 C 198.246094 311.0625 207.339844 304.527344 215.59375 302.441406 C 246.019531 294.742188 264.988281 282.980469 283.238281 260.492188 C 294.070312 246.332031 299.886719 231.585938 301.550781 214.101562 C 301.882812 210.582031 302.054688 206.890625 302.054688 203.117188 C 302.054688 189.730469 299.871094 174.238281 295.464844 156.070312 Z M 96.675781 254.390625 " fill-opacity="1" fill-rule="nonzero"/><path fill="#ffffff" d="M 276.257812 82.347656 C 276.25 85.050781 276.246094 86.867188 276.242188 89.566406 C 269.980469 88.90625 266.84375 88.605469 260.5625 88.058594 C 260.578125 85.027344 260.585938 83.226562 260.59375 80.195312 C 248.058594 78.695312 234.5625 77.550781 221.484375 76.644531 C 221.472656 78.175781 221.472656 78.945312 221.46875 80.480469 C 220.648438 78.039062 218.6875 76.464844 214.679688 76.273438 C 207.164062 75.90625 199.644531 75.695312 192.117188 75.644531 C 192.117188 83.46875 192.105469 91.300781 192.101562 99.121094 C 188.097656 91.304688 184.097656 83.496094 180.0625 75.695312 C 176.171875 75.753906 174.230469 75.804688 170.339844 75.933594 C 166.792969 83.03125 163.21875 90.117188 159.605469 97.167969 C 159.722656 96.542969 159.789062 95.839844 159.789062 95.035156 C 159.777344 91.21875 158.5625 89.417969 155.304688 89.101562 L 155.304688 89 C 157.390625 88.3125 158.894531 87.425781 158.875 83.085938 C 158.863281 78.117188 155.964844 76.574219 150.011719 77 C 142.84375 77.511719 135.683594 78.164062 128.542969 78.960938 L 128.652344 100.410156 C 124.632812 93.617188 120.433594 86.964844 115.996094 80.515625 C 112.121094 81.039062 110.191406 81.324219 106.320312 81.914062 C 102.132812 88.710938 97.933594 95.40625 93.222656 101.761719 L 101.550781 101.761719 C 102.425781 100.414062 102.859375 99.722656 103.722656 98.324219 C 109.765625 98.15625 112.789062 98.078125 118.824219 97.945312 C 119.757812 99.449219 120.21875 100.210938 121.152344 101.761719 L 152.390625 101.761719 C 154.714844 101.761719 156.707031 101.417969 158.039062 100.203125 C 157.714844 100.828125 157.550781 101.140625 157.226562 101.761719 L 165.550781 101.761719 C 166.421875 99.949219 166.855469 99.039062 167.726562 97.210938 C 173.769531 97.175781 176.789062 97.15625 182.835938 97.148438 C 183.761719 98.992188 184.234375 99.917969 185.15625 101.761719 L 199.550781 101.761719 C 199.550781 99.054688 199.550781 97.710938 199.554688 95.003906 C 204.25 95.03125 206.601562 95.046875 211.289062 95.101562 C 213.601562 95.128906 214.34375 96.019531 214.335938 98.695312 C 214.335938 99.921875 214.335938 100.535156 214.328125 101.761719 L 221.789062 101.761719 C 221.789062 100.054688 221.789062 99.203125 221.800781 97.496094 C 221.816406 93.371094 219.972656 92.324219 217.75 91.855469 L 217.75 91.785156 C 221.183594 91.015625 221.929688 89.074219 221.941406 85.714844 C 221.941406 85.078125 221.953125 84.761719 221.953125 84.121094 C 221.953125 83.703125 221.9375 83.296875 221.902344 82.90625 C 225.921875 83.089844 227.929688 83.199219 231.9375 83.445312 C 231.90625 90.769531 231.890625 94.429688 231.863281 101.757812 L 239.316406 101.757812 C 239.351562 94.628906 239.359375 91.066406 239.394531 83.9375 C 244.882812 84.328125 247.632812 84.546875 253.125 85.042969 C 253.089844 91.730469 253.074219 95.070312 253.046875 101.757812 L 260.496094 101.757812 C 260.511719 98.53125 260.519531 96.917969 260.535156 93.699219 C 266.820312 94.023438 269.953125 94.195312 276.230469 94.589844 C 276.21875 97.457031 276.21875 98.886719 276.207031 101.757812 L 283.664062 101.757812 L 283.664062 83.898438 C 280.921875 83.308594 279.21875 82.828125 276.246094 82.34375 Z M 106.5 93.96875 C 108.367188 90.871094 109.304688 89.265625 111.167969 85.964844 C 113.105469 88.839844 114.082031 90.339844 116.023438 93.425781 C 112.214844 93.628906 110.308594 93.738281 106.5 93.96875 Z M 136.035156 83.855469 C 141.3125 83.460938 143.957031 83.292969 149.234375 83 C 150.617188 82.921875 151.425781 83.398438 151.429688 84.835938 C 151.429688 86.242188 150.632812 86.792969 149.253906 86.855469 C 143.96875 87.089844 141.328125 87.226562 136.050781 87.535156 C 136.039062 86.0625 136.039062 85.328125 136.027344 83.855469 Z M 149.460938 95.820312 C 144.113281 95.914062 141.4375 95.96875 136.09375 96.09375 C 136.082031 94.621094 136.082031 93.886719 136.074219 92.414062 C 141.421875 92.207031 144.09375 92.117188 149.441406 91.960938 C 151.054688 91.917969 152.128906 92.265625 152.140625 93.949219 C 152.144531 95.394531 151.074219 95.792969 149.464844 95.820312 Z M 170.511719 91.632812 C 172.390625 87.726562 173.328125 85.765625 175.207031 81.820312 C 177.144531 85.6875 178.121094 87.636719 180.058594 91.539062 C 176.242188 91.5625 174.332031 91.582031 170.511719 91.632812 Z M 214.683594 86.128906 C 214.683594 87.960938 213.941406 88.785156 211.921875 88.738281 C 206.984375 88.628906 204.515625 88.582031 199.582031 88.535156 C 199.582031 85.910156 199.582031 84.652344 199.589844 82.214844 C 204.261719 82.285156 206.597656 82.246094 211.261719 82.394531 C 213.625 82.46875 214.695312 82.933594 214.6875 85.1875 C 214.6875 85.523438 214.6875 85.785156 214.683594 86.125 Z M 214.683594 86.128906 " fill-opacity="1" fill-rule="nonzero"/><path fill="#8c9091" d="M 171.460938 132.035156 L 212.003906 148.882812 C 210.804688 149.390625 188.085938 158.957031 188.085938 158.957031 L 230.476562 163.414062 C 231.066406 163.476562 231.65625 163.289062 232.09375 162.890625 C 232.09375 162.890625 241.253906 154.621094 242.664062 153.355469 C 242.957031 153.949219 247.824219 163.800781 248.097656 164.363281 C 247.441406 164.546875 207.53125 175.9375 207.53125 175.9375 C 207.53125 175.9375 210.4375 186.5 210.941406 188.328125 C 209.582031 186.925781 200.140625 177.175781 200.140625 177.175781 C 200.140625 177.175781 192.304688 186.839844 192.132812 187.042969 L 179.308594 187.335938 C 179.308594 187.335938 181.433594 200.949219 181.726562 202.875 C 180.570312 201.375 173.820312 192.597656 173.820312 192.597656 C 173.820312 192.597656 140.597656 217.308594 140.050781 217.710938 C 139.765625 217.144531 134.910156 207.308594 134.605469 206.6875 C 135.308594 206.550781 148.832031 203.917969 148.832031 203.917969 L 171.570312 166.542969 C 171.570312 166.542969 151.171875 178.558594 150.046875 179.21875 C 150.382812 177.921875 160.707031 137.542969 160.707031 137.542969 L 115.980469 181.457031 L 127.417969 238.957031 C 127.417969 238.957031 177.652344 214.167969 179.679688 213.167969 C 178.703125 214.5 172.542969 222.902344 172.390625 223.105469 C 172.140625 223.128906 163.789062 223.796875 163.789062 223.796875 L 177.339844 231.101562 C 177.339844 231.101562 188.28125 219.570312 188.734375 219.101562 C 188.976562 219.417969 189.390625 219.96875 189.5625 220.203125 C 189.273438 220.53125 179.824219 231.386719 179.675781 231.554688 C 179.453125 231.570312 171.472656 232.238281 171.472656 232.238281 L 184.015625 239.734375 C 184.015625 239.734375 194.96875 228.488281 195.414062 227.992188 C 195.59375 228.234375 196.101562 228.902344 196.269531 229.121094 C 195.992188 229.4375 186.960938 239.726562 186.8125 239.890625 C 186.601562 239.917969 179.4375 240.792969 179.4375 240.792969 L 190.769531 248.265625 C 190.769531 248.265625 201.648438 237.351562 202.09375 236.871094 C 202.355469 237.222656 202.949219 238.011719 203.140625 238.261719 C 202.851562 238.597656 194.480469 248.328125 194.332031 248.496094 C 194.109375 248.519531 185.988281 249.347656 185.988281 249.347656 L 198.652344 257.167969 C 198.652344 257.167969 207.320312 247.835938 208.222656 246.871094 C 208.222656 248.164062 208.210938 260.566406 208.210938 260.761719 C 208.082031 260.921875 197.710938 273.472656 197.707031 273.472656 C 197.695312 273.4375 184.296875 278.824219 183.582031 279.113281 C 183.347656 278.980469 166.109375 269.273438 166.109375 269.273438 L 159.164062 229.035156 L 145.144531 278.351562 L 156.761719 273.773438 C 157.023438 273.984375 182.1875 294.652344 182.1875 294.652344 L 209.15625 288.710938 L 229.503906 265.40625 C 229.503906 265.40625 229.40625 236.878906 229.40625 236.371094 C 229.910156 236.316406 243.996094 234.886719 243.996094 234.886719 L 245.109375 220.734375 C 245.109375 220.734375 240.011719 225.992188 239.867188 226.136719 C 239.65625 226.148438 226.601562 226.863281 226.15625 226.898438 C 226.066406 226.589844 225.800781 225.648438 225.679688 225.222656 C 226.339844 225.164062 241.554688 223.515625 241.554688 223.515625 L 242.53125 209.730469 C 242.53125 209.730469 237.640625 215.015625 237.5 215.152344 C 237.296875 215.167969 223.484375 215.851562 223.058594 215.878906 C 222.980469 215.578125 222.734375 214.691406 222.679688 214.503906 C 223.332031 214.445312 239.023438 212.699219 239.023438 212.699219 L 240.316406 198.457031 C 240.316406 198.457031 235.371094 204.179688 235.222656 204.335938 C 235.011719 204.355469 220.5 205.09375 220.054688 205.128906 C 219.964844 204.796875 219.683594 203.742188 219.683594 203.722656 C 220.335938 203.667969 236.234375 202.140625 236.234375 202.140625 L 238.117188 187.375 C 238.117188 187.375 232.757812 193.144531 232.582031 193.332031 C 232.347656 193.332031 222.210938 193.105469 220.273438 193.070312 C 222.292969 192.070312 272.054688 167.421875 272.054688 167.421875 L 233.882812 123.769531 L 171.457031 132.011719 Z M 171.460938 132.035156 " fill-opacity="1" fill-rule="nonzero"/><path fill="#231f20" d="M 210.34375 245.691406 L 219.1875 244.738281 L 227.261719 239.015625 L 227.273438 263.113281 L 215.269531 264.390625 L 210.34375 261.324219 Z M 210.34375 245.691406 " fill-opacity="1" fill-rule="nonzero"/><path fill="#231f20" d="M 209.53125 262.765625 L 214.832031 266.136719 L 226.847656 265.035156 L 208.378906 286.09375 L 201.148438 279.890625 L 199.5625 274.957031 Z M 209.53125 262.765625 " fill-opacity="1" fill-rule="nonzero"/><path fill="#231f20" d="M 198.269531 275.746094 L 199.730469 280.742188 L 206.628906 287.070312 L 184.738281 291.832031 L 182.484375 285.554688 L 184.265625 281.21875 Z M 198.269531 275.746094 " fill-opacity="1" fill-rule="nonzero"/><path fill="#231f20" d="M 182.722656 281.371094 L 180.925781 285.554688 L 183.015625 292.476562 L 159.097656 272.839844 L 164.613281 270.621094 Z M 173.398438 195.460938 L 139.210938 220.875 L 131.445312 205.15625 L 147.144531 202.144531 L 164.980469 172.9375 L 146.03125 184.128906 L 156.953125 144.257812 L 118.734375 182.4375 L 129.382812 235.578125 L 183.578125 208.820312 Z M 210.023438 177.375 L 250.996094 165.675781 L 243.226562 149.960938 L 230.613281 161.339844 L 196.566406 157.75 L 217.652344 148.761719 L 179.335938 133.207031 L 232.894531 126.066406 L 268.660156 166.804688 L 214.460938 193.566406 Z M 200.253906 180.191406 L 193.074219 189.097656 L 181.628906 189.390625 L 184.609375 208.308594 L 213.472656 194.054688 Z M 242.78125 225.347656 L 240.445312 228.007812 L 224.527344 229.101562 L 222.925781 223.394531 L 239.847656 221.785156 L 240.367188 214.292969 L 238.035156 216.953125 L 221.433594 218.085938 L 219.917969 212.660156 L 237.167969 211.199219 L 238.085938 203.492188 L 235.753906 206.152344 L 218.421875 207.34375 L 216.921875 201.976562 L 234.402344 200.4375 L 235.671875 192.757812 L 233.34375 195.417969 L 215.21875 195.171875 L 184.234375 210.597656 L 173.617188 224.90625 L 170.09375 225.136719 L 176.972656 228.800781 L 188.8125 215.855469 L 192.167969 220.308594 L 180.683594 233.34375 L 177.160156 233.578125 L 183.839844 237.527344 L 195.484375 224.726562 L 198.875 229.238281 L 187.882812 241.722656 L 184.347656 241.949219 L 190.621094 246.085938 L 202.179688 233.632812 L 205.75 238.371094 L 195.195312 250.355469 L 191.671875 250.585938 L 198 254.566406 L 209.050781 242.761719 L 210.035156 244.105469 L 218.738281 242.90625 L 226.96875 236.949219 L 226.007812 234.386719 L 242.101562 232.792969 Z M 163.292969 268.628906 L 148.554688 274.695312 L 158.851562 237.105469 Z M 163.292969 268.628906 " fill-opacity="1" fill-rule="nonzero"/><path fill="#ffffff" d="M 231.90625 109.8125 L 151.925781 109.8125 L 151.925781 115.726562 L 231.867188 115.726562 Z M 231.90625 109.8125 " fill-opacity="1" fill-rule="nonzero"/><path fill="#d7282f" d="M 301.660156 109.8125 L 231.90625 109.8125 L 231.867188 115.726562 L 296.570312 115.726562 C 298.109375 113.515625 299.855469 111.574219 301.660156 109.8125 Z M 301.660156 109.8125 " fill-opacity="1" fill-rule="nonzero"/><path fill="#00833e" d="M 151.925781 109.8125 L 82.460938 109.8125 C 84.273438 111.574219 86.015625 113.515625 87.554688 115.726562 L 151.925781 115.726562 Z M 151.925781 109.8125 " fill-opacity="1" fill-rule="nonzero"/></svg>