<svg xmlns="http://www.w3.org/2000/svg" xmlns:xlink="http://www.w3.org/1999/xlink" width="512" zoomAndPan="magnify" viewBox="0 0 384 383.999986" height="512" preserveAspectRatio="xMidYMid meet" version="1.0"><defs><clipPath id="9e1945daa8"><path d="M 133 145.402344 L 272 145.402344 L 272 244.402344 L 133 244.402344 Z M 133 145.402344 " clip-rule="nonzero"/></clipPath><clipPath id="913bee31bf"><path d="M 62.515625 220 L 105 220 L 105 244 L 62.515625 244 Z M 62.515625 220 " clip-rule="nonzero"/></clipPath><clipPath id="a2028c0465"><path d="M 117 221 L 321.265625 221 L 321.265625 244 L 117 244 Z M 117 221 " clip-rule="nonzero"/></clipPath></defs><g clip-path="url(#9e1945daa8)"><path fill="#006fba" d="M 227.960938 145.402344 L 179.839844 185.515625 L 159.285156 185.515625 L 166.671875 169.886719 L 133.074219 193.292969 L 170.511719 193.292969 L 152.816406 208.046875 L 167.929688 208.046875 L 185 193.292969 L 211.078125 193.292969 L 205.96875 208.046875 L 218.175781 208.046875 L 223.261719 193.292969 L 241.660156 193.292969 L 250.707031 185.84375 L 250.707031 185.515625 L 225.945312 185.515625 L 239.773438 145.402344 Z M 222.222656 161.125 L 213.773438 185.515625 L 193.996094 185.515625 Z M 234.738281 221.667969 L 234.738281 243.789062 L 240.230469 243.789062 L 240.230469 227.410156 L 271.097656 244.402344 L 271.136719 221.667969 L 265.539062 221.667969 L 265.539062 235.355469 L 240.746094 221.667969 Z M 209.738281 221.667969 L 215.691406 221.667969 L 215.691406 243.789062 L 209.738281 243.789062 Z M 209.738281 221.667969 " fill-opacity="1" fill-rule="nonzero"/></g><path fill="#006fba" d="M 158.660156 221.664062 L 158.660156 243.792969 L 164.613281 243.792969 L 164.625 240.097656 L 164.640625 236.402344 L 175.1875 236.382812 C 186.367188 236.363281 186.097656 236.371094 187.457031 236.113281 C 189.023438 235.816406 190.085938 235.414062 191.15625 234.710938 C 191.820312 234.277344 192.59375 233.5 192.9375 232.921875 C 193.144531 232.570312 193.414062 232.035156 193.382812 232.035156 C 193.363281 232.035156 193.375 232.003906 193.40625 231.96875 C 193.492188 231.863281 193.65625 231.359375 193.773438 230.835938 C 194.089844 229.417969 194.019531 227.777344 193.589844 226.507812 C 193.292969 225.625 192.746094 224.742188 192.125 224.132812 C 191.652344 223.667969 190.914062 223.140625 190.308594 222.835938 C 189.96875 222.664062 188.699219 222.191406 188.421875 222.132812 C 188.300781 222.105469 187.984375 222.039062 187.714844 221.980469 C 186.324219 221.679688 187.304688 221.699219 172.351562 221.683594 Z M 164.613281 225.617188 L 174.40625 225.636719 C 182.84375 225.652344 184.253906 225.667969 184.609375 225.734375 C 186.691406 226.125 187.46875 226.941406 187.546875 228.828125 C 187.578125 229.578125 187.492188 230.035156 187.222656 230.578125 C 186.78125 231.472656 185.84375 232.035156 184.300781 232.332031 C 183.941406 232.402344 182.703125 232.414062 174.289062 232.433594 C 169.007812 232.441406 164.667969 232.433594 164.648438 232.414062 C 164.628906 232.394531 164.613281 230.855469 164.613281 228.996094 Z M 164.613281 225.617188 " fill-opacity="1" fill-rule="nonzero"/><g clip-path="url(#913bee31bf)"><path fill="#006fba" d="M 83.398438 220.976562 L 62.558594 243.789062 L 69.53125 243.789062 L 73.25 239.582031 L 93.554688 239.582031 L 97.242188 243.789062 L 104.257812 243.789062 Z M 83.402344 228.210938 L 89.992188 235.628906 L 76.820312 235.628906 Z M 83.402344 228.210938 " fill-opacity="1" fill-rule="nonzero"/></g><g clip-path="url(#a2028c0465)"><path fill="#006fba" d="M 290.179688 221.667969 L 290.179688 243.789062 L 320.136719 243.789062 L 321.222656 239.839844 L 296.136719 239.839844 L 296.136719 234.550781 L 320.417969 234.550781 L 320.417969 230.546875 L 296.136719 230.546875 L 296.136719 225.621094 L 320.417969 225.621094 L 320.417969 221.667969 Z M 117.230469 221.667969 L 117.230469 243.789062 L 144.402344 243.765625 L 146.0625 239.863281 L 123.1875 239.839844 L 123.1875 221.667969 Z M 117.230469 221.667969 " fill-opacity="1" fill-rule="nonzero"/></g></svg>