<svg xmlns="http://www.w3.org/2000/svg" xmlns:xlink="http://www.w3.org/1999/xlink" width="512" zoomAndPan="magnify" viewBox="0 0 384 383.999986" height="512" preserveAspectRatio="xMidYMid meet" version="1.0"><rect x="-38.4" width="460.8" fill="#ffffff" y="-38.399999" height="460.799983" fill-opacity="1"/><path stroke-linecap="butt" transform="matrix(1.992156, 0, 0, 1.992156, 0.0000072, 0)" fill="none" stroke-linejoin="round" d="M 105.560502 74.624719 L 87.195504 74.624719 C 87.430802 72.975673 86.960206 71.797223 86.254312 70.618773 C 85.077823 69.440323 83.428777 68.732468 81.309136 68.732468 L 10.206041 68.732468 C 9.027591 68.49717 8.558956 69.205025 9.027591 70.383475 L 11.382531 74.154123 C 11.617829 74.389421 11.853126 74.624719 12.55902 74.624719 L 13.972768 74.624719 L 14.208066 75.567871 L 16.561045 79.101261 C 16.798303 79.573817 17.268899 79.809115 17.974793 79.573817 L 19.151282 79.573817 L 21.035626 83.344466 C 21.035626 83.579764 21.741519 83.815061 23.155267 84.285657 L 53.998896 92.770106 L 56.116577 96.540754 C 56.353836 97.246648 57.059729 97.954502 58.000921 98.1898 L 87.195504 105.731097 L 96.378003 97.954502 L 105.560502 105.731097 L 134.755085 98.1898 C 135.696277 97.954502 136.404131 97.246648 136.639429 96.540754 L 138.75711 92.770106 L 169.6027 84.285657 C 171.014487 83.815061 171.720381 83.579764 171.720381 83.344466 L 173.604724 79.573817 L 174.781214 79.573817 C 175.487107 79.809115 175.957703 79.573817 176.193001 79.101261 L 178.549901 75.567871 L 178.783238 74.624719 L 180.195025 74.624719 C 180.90288 74.624719 181.138178 74.389421 181.373476 74.154123 L 183.728415 70.383475 C 184.199011 69.205025 183.728415 68.49717 182.549965 68.732468 L 111.44491 68.732468 C 109.091931 68.732468 107.442885 69.440323 106.501694 70.618773 C 105.797761 71.797223 105.323244 72.975673 105.560502 74.624719 Z M 22.449374 84.050359 L 62.238243 80.279711 M 36.810387 88.058266 L 60.589197 82.636611 M 46.69878 90.885762 L 62.002945 84.522916 M 53.998896 93.007365 L 64.122587 86.644518 M 56.353836 97.248609 L 67.18342 88.999458 M 62.7108 99.368251 L 70.244253 91.12106 M 68.595207 100.783959 L 73.775682 93.242663 M 74.481576 102.434966 L 77.777707 94.891709 M 80.83854 104.082051 L 82.250327 96.307417 M 87.195504 105.262462 L 87.195504 97.719205 M 96.376042 97.954502 L 96.376042 84.287618 M 170.308593 84.050359 L 130.282465 80.279711 M 156.180917 88.058266 L 131.92955 82.636611 M 146.057226 90.885762 L 130.517763 84.287618 M 138.75711 93.007365 L 128.63538 86.644518 M 136.404131 97.248609 L 125.574547 88.999458 M 130.047167 99.368251 L 122.276455 90.885762 M 124.160799 100.783959 L 118.745026 93.242663 M 118.27247 102.434966 L 114.9783 94.891709 M 111.917467 104.082051 L 110.503719 96.307417 M 105.560502 105.731097 L 105.560502 97.717244 M 174.781214 79.573817 L 130.280504 77.452215 M 65.771633 87.58571 L 68.124612 84.522916 M 68.595207 89.94261 L 72.361934 84.287618 M 71.891338 92.29951 L 75.893363 84.522916 M 75.658065 93.950517 L 79.66205 84.522916 M 80.132646 96.070159 L 84.134671 84.758214 M 85.546458 97.483907 L 88.136695 84.522916 M 90.726933 98.427059 L 91.903422 84.522916 M 126.986334 87.58571 L 124.631395 84.522916 M 124.160799 89.94261 L 120.62937 84.522916 M 120.864668 92.29951 L 116.860683 84.522916 M 117.097941 93.950517 L 112.860619 84.522916 M 112.62336 96.070159 L 108.621336 84.758214 M 107.209548 97.483907 L 104.619311 84.522916 M 102.029074 98.427059 L 100.850623 84.522916 M 180.195025 74.624719 L 105.560502 74.624719 M 17.974793 79.573817 L 62.238243 77.452215 M 12.560981 74.624719 L 87.195504 74.624719 " stroke="#d0d1d3" stroke-width="1.334" stroke-opacity="1" stroke-miterlimit="2.613"/><path fill="#000000" d="M 123.988281 148.664062 L 259.539062 148.664062 L 259.539062 167.914062 L 123.988281 167.914062 Z M 123.988281 148.664062 " fill-opacity="1" fill-rule="evenodd"/><path stroke-linecap="butt" transform="matrix(1.992156, 0, 0, 1.992156, 0.0000072, 0)" fill="none" stroke-linejoin="round" d="M 130.280504 84.287618 L 130.280504 74.624719 L 62.238243 74.624719 L 62.238243 84.287618 Z M 130.280504 84.287618 " stroke="#d0d1d3" stroke-width="1.334" stroke-opacity="1" stroke-miterlimit="2.613"/><path stroke-linecap="butt" transform="matrix(1.992156, 0, 0, 1.992156, 0.0000072, 0)" fill="none" stroke-linejoin="round" d="M 51.408659 68.49717 C 55.175386 77.454176 61.061754 84.522916 69.065803 89.94261 C 77.307111 95.599563 86.487649 98.427059 96.376042 98.427059 C 106.264435 98.427059 115.211637 95.599563 123.454905 90.179869 C 127.45693 87.587671 130.753061 84.287618 133.811933 80.752268 C 136.874727 77.216917 139.227706 73.210971 141.11205 68.732468 " stroke="#d0d1d3" stroke-width="1.334" stroke-opacity="1" stroke-miterlimit="2.613"/><path fill="#000000" d="M 76.144531 222.191406 L 86.9375 247.074219 L 83.183594 247.074219 L 79.429688 237.683594 L 70.519531 237.683594 L 66.765625 247.074219 L 64.421875 247.074219 L 75.210938 222.191406 Z M 78.960938 235.804688 L 74.738281 226.882812 L 70.988281 235.804688 Z M 101.007812 245.195312 C 99.601562 246.601562 97.253906 247.542969 94.910156 247.542969 L 91.625 247.074219 L 89.28125 245.195312 L 89.75 242.378906 L 90.21875 242.378906 C 91.625 244.726562 93.5 246.136719 95.847656 246.136719 C 97.253906 246.136719 98.191406 245.667969 99.128906 244.261719 C 100.066406 243.320312 100.535156 241.910156 100.535156 240.503906 C 100.535156 239.09375 100.066406 238.152344 99.128906 237.21875 L 95.378906 235.339844 C 93.5 234.875 92.09375 233.929688 91.625 233.464844 C 90.21875 232.054688 89.75 230.648438 89.75 229.238281 C 89.75 226.886719 90.6875 225.480469 92.09375 224.070312 C 93.503906 222.664062 94.910156 222.195312 97.253906 222.195312 C 99.601562 222.195312 101.007812 222.664062 102.414062 224.070312 L 101.476562 226.886719 C 100.539062 224.542969 99.132812 223.605469 96.785156 223.605469 C 95.378906 223.605469 94.441406 224.070312 93.972656 225.015625 C 93.035156 225.480469 92.566406 226.421875 92.566406 227.832031 C 92.566406 229.238281 93.035156 230.648438 93.972656 231.585938 L 98.195312 232.996094 C 99.605469 233.933594 101.011719 234.875 101.949219 235.339844 C 102.886719 236.285156 103.355469 237.691406 103.355469 239.566406 C 103.363281 240.625 103.160156 241.644531 102.753906 242.621094 C 102.347656 243.597656 101.761719 244.453125 101.007812 245.195312 Z M 123.988281 223.597656 L 124.457031 225.007812 L 116.953125 224.539062 L 116.953125 247.074219 L 113.671875 247.074219 L 113.671875 224.539062 L 105.695312 225.007812 L 106.164062 223.597656 L 105.695312 222.65625 L 124.457031 222.65625 Z M 131.492188 243.320312 C 133.367188 245.195312 135.714844 246.132812 138.058594 246.132812 C 141.339844 246.132812 144.15625 244.722656 146.03125 241.90625 C 147.441406 239.5625 148.378906 237.214844 147.90625 234.871094 C 147.90625 231.582031 147.4375 228.765625 146.03125 226.882812 C 144.15625 224.539062 141.8125 223.128906 138.527344 223.128906 C 135.242188 223.128906 132.898438 224.539062 131.023438 226.882812 C 129.449219 229.480469 128.667969 232.300781 128.675781 235.335938 C 128.679688 238.621094 129.617188 241.4375 131.492188 243.320312 Z M 124.925781 234.867188 C 124.925781 231.109375 126.335938 227.824219 128.675781 225.472656 C 131.023438 223.128906 134.308594 222.191406 138.058594 222.191406 C 141.8125 222.191406 145.09375 223.128906 147.4375 225.007812 C 150.253906 227.355469 151.660156 230.171875 151.660156 234.398438 C 151.660156 238.621094 150.253906 241.4375 147.90625 243.785156 C 145.5625 246.132812 142.28125 247.542969 138.058594 247.542969 C 134.308594 247.542969 131.023438 246.601562 128.675781 244.257812 C 126.335938 241.90625 124.925781 238.621094 124.925781 234.867188 Z M 177.460938 247.074219 L 176.050781 247.074219 L 159.164062 227.824219 L 158.695312 227.824219 L 158.695312 247.074219 L 156.824219 247.074219 L 156.824219 222.65625 L 158.230469 222.65625 L 175.113281 240.96875 L 175.113281 222.65625 L 177.460938 222.65625 Z M 196.21875 222.660156 C 200.441406 230.644531 203.726562 236.742188 206.542969 241.441406 L 216.863281 222.660156 L 217.328125 222.660156 L 220.140625 247.074219 L 216.863281 247.074219 L 214.988281 228.765625 C 210.765625 236.746094 207.480469 242.851562 206.074219 246.605469 L 205.601562 246.605469 L 203.257812 242.851562 L 196.222656 228.765625 L 194.816406 247.074219 L 192 247.074219 L 195.753906 222.660156 Z M 243.59375 247.074219 L 241.71875 247.074219 L 237.964844 237.683594 L 228.582031 237.683594 L 225.300781 247.074219 L 222.488281 247.074219 L 233.742188 222.191406 L 234.6875 222.191406 L 245 247.074219 Z M 237.027344 235.804688 L 233.277344 226.882812 L 229.519531 235.804688 Z M 252.039062 224.066406 L 252.039062 233.925781 L 256.730469 233.460938 C 258.132812 232.992188 259.074219 232.519531 260.011719 232.050781 L 261.421875 228.765625 C 261.421875 225.949219 260.011719 224.539062 257.199219 224.070312 L 252.039062 224.070312 Z M 256.726562 222.660156 C 261.886719 222.660156 264.234375 224.539062 264.234375 228.292969 C 264.234375 230.171875 263.296875 231.582031 261.886719 232.988281 C 260.480469 233.925781 259.074219 234.398438 257.199219 234.867188 L 266.574219 247.074219 L 262.824219 247.074219 L 253.441406 235.332031 L 252.039062 235.332031 L 252.039062 247.074219 L 249.222656 247.074219 L 249.222656 222.65625 L 256.726562 222.65625 Z M 274.550781 247.074219 L 274.550781 224.539062 L 267.042969 225.007812 L 267.042969 222.65625 L 284.867188 222.65625 L 284.867188 225.007812 L 277.835938 224.539062 L 277.835938 247.074219 Z M 292.375 222.660156 L 292.375 247.074219 L 289.09375 247.074219 L 289.09375 222.660156 Z M 320.046875 247.074219 L 318.640625 247.074219 L 301.753906 227.824219 L 301.285156 227.824219 L 301.285156 247.074219 L 299.410156 247.074219 L 299.410156 222.65625 L 300.347656 222.65625 L 317.703125 240.96875 L 317.703125 222.65625 L 320.050781 222.65625 L 320.050781 247.074219 Z M 320.046875 247.074219 " fill-opacity="1" fill-rule="evenodd"/><path fill="#ffffff" d="M 133.238281 152.292969 L 138.652344 164.78125 L 136.765625 164.78125 L 134.886719 160.070312 L 130.414062 160.070312 L 128.53125 164.78125 L 127.355469 164.78125 L 132.765625 152.292969 Z M 134.648438 159.125 L 132.53125 154.648438 L 130.648438 159.125 Z M 145.710938 163.835938 C 145.007812 164.542969 143.828125 165.015625 142.652344 165.015625 L 141.003906 164.777344 L 139.828125 163.835938 L 140.066406 162.421875 L 140.300781 162.421875 C 141.003906 163.601562 141.945312 164.308594 143.121094 164.308594 C 143.828125 164.308594 144.300781 164.070312 144.769531 163.363281 C 145.238281 162.894531 145.476562 162.1875 145.476562 161.480469 C 145.476562 160.773438 145.238281 160.304688 144.769531 159.832031 L 142.886719 158.886719 C 141.945312 158.652344 141.238281 158.179688 141.003906 157.945312 C 140.300781 157.242188 140.066406 156.535156 140.066406 155.828125 C 140.066406 154.648438 140.53125 153.945312 141.238281 153.234375 C 141.945312 152.53125 142.652344 152.292969 143.828125 152.292969 C 145.007812 152.292969 145.710938 152.527344 146.417969 153.234375 L 145.949219 154.648438 C 145.480469 153.472656 144.773438 153 143.597656 153 C 142.890625 153 142.417969 153.234375 142.183594 153.707031 C 141.714844 153.945312 141.480469 154.414062 141.480469 155.121094 C 141.480469 155.824219 141.714844 156.535156 142.183594 157.003906 L 144.300781 157.710938 C 145.007812 158.179688 145.714844 158.652344 146.183594 158.886719 C 146.65625 159.359375 146.890625 160.0625 146.890625 161.007812 C 146.890625 162.1875 146.417969 163.128906 145.710938 163.835938 Z M 157.246094 153 L 157.480469 153.707031 L 153.714844 153.472656 L 153.714844 164.777344 L 152.066406 164.777344 L 152.066406 153.472656 L 148.066406 153.707031 L 148.300781 153 L 148.066406 152.53125 L 157.480469 152.53125 Z M 161.011719 162.894531 C 161.953125 163.835938 163.128906 164.308594 164.304688 164.308594 C 165.953125 164.308594 167.363281 163.601562 168.304688 162.1875 C 169.011719 161.011719 169.484375 159.832031 169.246094 158.652344 C 169.246094 157.003906 169.011719 155.589844 168.304688 154.648438 C 167.363281 153.472656 166.1875 152.765625 164.539062 152.765625 C 162.894531 152.765625 161.714844 153.472656 160.773438 154.648438 C 160.066406 155.828125 159.597656 157.242188 159.597656 158.886719 C 159.597656 160.535156 160.070312 161.953125 161.011719 162.894531 Z M 157.714844 158.65625 C 157.714844 156.769531 158.421875 155.121094 159.597656 153.945312 C 160.773438 152.765625 162.421875 152.292969 164.304688 152.292969 C 166.191406 152.292969 167.835938 152.765625 169.011719 153.707031 C 170.421875 154.882812 171.128906 156.296875 171.128906 158.417969 C 171.128906 160.539062 170.425781 161.953125 169.246094 163.128906 C 168.070312 164.308594 166.425781 165.015625 164.304688 165.015625 C 162.421875 165.015625 160.773438 164.542969 159.597656 163.367188 C 158.421875 162.1875 157.714844 160.539062 157.714844 158.65625 Z M 184.074219 164.777344 L 183.367188 164.777344 L 174.894531 155.121094 L 174.660156 155.121094 L 174.660156 164.777344 L 173.71875 164.777344 L 173.71875 152.53125 L 174.421875 152.53125 L 182.894531 161.71875 L 182.894531 152.53125 L 184.070312 152.53125 L 184.070312 164.777344 Z M 193.488281 152.53125 C 195.605469 156.535156 197.253906 159.59375 198.667969 161.953125 L 203.847656 152.53125 L 204.082031 152.53125 L 205.492188 164.777344 L 203.847656 164.777344 L 202.90625 155.589844 C 200.785156 159.59375 199.136719 162.660156 198.429688 164.542969 L 198.199219 164.542969 L 197.019531 162.660156 L 193.488281 155.589844 L 192.785156 164.777344 L 191.371094 164.777344 L 193.257812 152.53125 Z M 217.257812 164.777344 L 216.320312 164.777344 L 214.4375 160.066406 L 209.730469 160.066406 L 208.082031 164.777344 L 206.667969 164.777344 L 212.316406 152.292969 L 212.789062 152.292969 L 217.96875 164.777344 Z M 213.964844 159.125 L 212.082031 154.648438 L 210.199219 159.125 Z M 221.496094 153.234375 L 221.496094 158.179688 L 223.851562 157.945312 C 224.558594 157.710938 225.027344 157.476562 225.496094 157.242188 L 226.203125 155.589844 C 226.203125 154.179688 225.496094 153.472656 224.085938 153.234375 Z M 223.847656 152.53125 C 226.4375 152.53125 227.617188 153.472656 227.617188 155.355469 C 227.617188 156.296875 227.144531 157.003906 226.4375 157.714844 C 225.730469 158.183594 225.023438 158.417969 224.085938 158.65625 L 228.789062 164.78125 L 226.90625 164.78125 L 222.203125 158.890625 L 221.496094 158.890625 L 221.496094 164.78125 L 220.082031 164.78125 L 220.082031 152.53125 Z M 232.792969 164.777344 L 232.792969 153.472656 L 229.027344 153.707031 L 229.027344 152.53125 L 237.96875 152.53125 L 237.96875 153.707031 L 234.4375 153.472656 L 234.4375 164.777344 Z M 241.734375 152.53125 L 241.734375 164.777344 L 240.089844 164.777344 L 240.089844 152.53125 Z M 255.621094 164.777344 L 254.914062 164.777344 L 246.445312 155.121094 L 246.207031 155.121094 L 246.207031 164.777344 L 245.265625 164.777344 L 245.265625 152.53125 L 245.734375 152.53125 L 254.441406 161.71875 L 254.441406 152.53125 L 255.621094 152.53125 Z M 255.621094 164.777344 " fill-opacity="1" fill-rule="evenodd"/></svg>