<svg xmlns="http://www.w3.org/2000/svg" xmlns:xlink="http://www.w3.org/1999/xlink" width="512" zoomAndPan="magnify" viewBox="0 0 384 383.999986" height="512" preserveAspectRatio="xMidYMid meet" version="1.0"><path fill="#000000" d="M 79.265625 136.023438 C 68.214844 137.203125 57.992188 141.394531 49.382812 148.257812 C 46.828125 150.296875 42.699219 154.394531 40.691406 156.902344 C 35.167969 163.800781 31.335938 171.703125 29.449219 180.070312 C 26.027344 195.261719 28.878906 211.0625 37.332031 223.921875 C 46.726562 238.191406 61.765625 247.40625 78.96875 249.425781 C 82.015625 249.796875 88.976562 249.738281 92.101562 249.328125 C 101.910156 248.050781 110.757812 244.582031 118.640625 238.9375 C 119.703125 238.171875 120.683594 237.46875 120.824219 237.367188 C 121.019531 237.230469 121.351562 237.386719 121.941406 237.878906 C 123.515625 239.152344 126.523438 241.113281 128.804688 242.386719 C 146.59375 252.246094 167.867188 252.1875 185.265625 242.191406 C 187.40625 240.976562 190.003906 239.25 191.417969 238.132812 C 191.851562 237.800781 192.320312 237.449219 192.441406 237.367188 C 192.597656 237.289062 193.601562 237.878906 194.996094 238.878906 C 197.765625 240.859375 199.261719 241.78125 202.191406 243.328125 C 208.128906 246.445312 215.480469 248.679688 222.378906 249.445312 C 225.546875 249.777344 232.308594 249.738281 235.414062 249.328125 C 245.324219 248.050781 254.050781 244.621094 261.953125 238.9375 C 263.015625 238.171875 264 237.46875 264.136719 237.367188 C 264.3125 237.25 264.765625 237.46875 265.570312 238.074219 C 269.226562 240.898438 274.75 243.996094 279.195312 245.738281 C 286.210938 248.484375 292.523438 249.660156 300.230469 249.660156 C 305.027344 249.660156 307.917969 249.386719 312.0625 248.503906 C 331.859375 244.347656 348.136719 229.800781 354.46875 210.613281 C 357.75 200.730469 358.242188 190.363281 355.941406 180.050781 C 354.191406 172.210938 350.300781 164.097656 345.011719 157.3125 C 342.949219 154.6875 338.703125 150.394531 336.007812 148.257812 C 316.429688 132.652344 289.261719 131.496094 268.382812 145.375 C 267.242188 146.121094 265.90625 147.101562 265.394531 147.511719 C 264.804688 148.003906 264.371094 148.238281 264.214844 148.140625 C 264.078125 148.0625 263.429688 147.570312 262.757812 147.0625 C 259.515625 144.511719 252.949219 140.90625 248.917969 139.4375 C 242.316406 137.023438 237.027344 135.984375 230.046875 135.769531 C 217.289062 135.398438 204.785156 139.277344 194.640625 146.804688 L 192.695312 148.257812 L 190.847656 146.90625 C 180.546875 139.257812 168.140625 135.378906 155.34375 135.769531 C 148.128906 136.003906 142.367188 137.164062 135.429688 139.828125 C 131.890625 141.179688 126.328125 144.296875 122.691406 147.003906 L 120.980469 148.257812 L 119.054688 146.824219 C 110.738281 140.652344 100.710938 136.886719 89.976562 135.90625 C 87.089844 135.652344 82.273438 135.691406 79.265625 136.023438 Z M 90.804688 147.964844 C 97.78125 148.882812 104.367188 151.316406 110.070312 155.097656 L 112.46875 156.6875 L 110.738281 159.058594 C 104.957031 166.957031 101.339844 176.074219 100.0625 185.894531 C 99.667969 188.953125 99.730469 197.105469 100.160156 200.203125 C 101.085938 206.75 102.953125 212.730469 105.902344 218.53125 C 107.296875 221.296875 109.871094 225.390625 111.5625 227.527344 L 112.46875 228.683594 L 112.035156 229.019531 C 110.582031 230.15625 107.472656 231.996094 104.917969 233.253906 C 100.535156 235.371094 95.933594 236.78125 90.960938 237.488281 C 88.679688 237.820312 81.644531 237.820312 79.363281 237.488281 C 66.113281 235.605469 54.53125 228.351562 47.359375 217.453125 C 45.824219 215.121094 43.601562 210.730469 42.679688 208.238281 C 41.851562 205.964844 40.832031 201.949219 40.417969 199.222656 C 39.867188 195.753906 39.925781 189.03125 40.515625 185.5 C 43.679688 166.898438 57.71875 152.316406 76.019531 148.550781 C 80.445312 147.648438 86.460938 147.414062 90.804688 147.964844 Z M 164.878906 148.335938 C 169.164062 149.160156 172.210938 150.121094 176.101562 151.882812 C 177.953125 152.726562 182.316406 155.3125 183.359375 156.175781 L 184.105469 156.804688 L 182.925781 158.371094 C 175.433594 168.171875 171.445312 180.109375 171.445312 192.65625 C 171.425781 201.027344 172.996094 208.476562 176.359375 216.042969 C 177.910156 219.550781 180.917969 224.570312 183.199219 227.488281 C 183.691406 228.097656 184.027344 228.683594 183.96875 228.785156 C 183.808594 229.058594 180.839844 230.980469 178.875 232.117188 C 174.453125 234.644531 168.988281 236.488281 163.34375 237.386719 C 160.003906 237.917969 153.160156 237.859375 149.742188 237.289062 C 144.492188 236.410156 139.65625 234.742188 135.191406 232.292969 C 133.128906 231.175781 129.550781 228.824219 129.628906 228.644531 C 129.667969 228.585938 130.316406 227.683594 131.085938 226.667969 C 143.195312 210.554688 145.691406 189.03125 137.671875 170.113281 C 136.058594 166.332031 133.03125 161.195312 130.515625 157.980469 C 130.003906 157.351562 129.648438 156.746094 129.707031 156.667969 C 129.964844 156.234375 134.210938 153.628906 136.453125 152.492188 C 140.757812 150.335938 144.746094 149.023438 149.289062 148.277344 C 152.828125 147.6875 152.691406 147.707031 157.605469 147.765625 C 161.535156 147.804688 162.480469 147.882812 164.878906 148.335938 Z M 234.117188 147.964844 C 239.308594 148.648438 243.828125 150 248.429688 152.257812 C 251.023438 153.53125 255.386719 156.175781 255.683594 156.667969 C 255.742188 156.746094 255.386719 157.351562 254.875 157.980469 C 254.386719 158.605469 253.246094 160.234375 252.359375 161.585938 C 242.253906 176.855469 240.25 196.617188 247.050781 213.730469 C 248.742188 217.960938 251.59375 223.039062 254.304688 226.667969 C 255.074219 227.683594 255.722656 228.585938 255.761719 228.644531 C 255.839844 228.824219 252.261719 231.175781 250.199219 232.292969 C 245.734375 234.742188 240.898438 236.410156 235.648438 237.289062 C 232.25 237.859375 225.386719 237.917969 222.085938 237.386719 C 217.542969 236.664062 213.808594 235.566406 209.757812 233.722656 C 207.421875 232.664062 203.113281 230.175781 201.835938 229.15625 L 201.246094 228.664062 L 202.367188 227.234375 C 208.167969 219.628906 211.980469 210.535156 213.4375 200.890625 C 214.105469 196.441406 214.125 189.421875 213.457031 184.71875 C 212.136719 175.367188 208.304688 166.074219 202.644531 158.605469 L 201.285156 156.804688 L 202.054688 156.15625 C 203.09375 155.292969 207.398438 152.746094 209.289062 151.882812 C 213.925781 149.785156 218.703125 148.433594 223.519531 147.863281 C 225.878906 147.589844 231.660156 147.648438 234.117188 147.964844 Z M 307.699219 148.238281 C 314.246094 149.433594 320.046875 151.707031 325.097656 155.078125 C 336.066406 162.410156 342.929688 173.171875 344.992188 186.285156 C 345.523438 189.695312 345.464844 196.300781 344.894531 199.714844 C 342.101562 215.964844 331.78125 228.722656 316.546875 234.78125 C 311.414062 236.800781 306.382812 237.722656 300.328125 237.742188 C 295.945312 237.742188 294.117188 237.546875 290.398438 236.722656 C 284.34375 235.390625 277.820312 232.429688 273.355469 229.019531 L 272.941406 228.683594 L 274.339844 226.804688 C 280.078125 219.160156 283.875 209.925781 285.191406 200.398438 C 285.703125 196.753906 285.78125 190.851562 285.40625 187.070312 C 284.265625 176.035156 280.355469 166.371094 273.316406 157.253906 L 272.921875 156.765625 L 273.847656 156.078125 C 279.351562 152 286.902344 149.023438 294.429688 147.964844 C 297.417969 147.550781 304.75 147.6875 307.699219 148.238281 Z M 122.925781 167.917969 C 124.539062 170.347656 126.5625 174.289062 127.507812 176.777344 C 129.609375 182.425781 130.515625 188.050781 130.316406 194.222656 C 130.101562 201.027344 128.46875 207.378906 125.441406 213.238281 C 123.8125 216.394531 121.234375 220.277344 120.902344 220.078125 C 120.804688 220.019531 120.015625 218.902344 119.152344 217.589844 C 115.238281 211.710938 112.703125 204.730469 111.878906 197.476562 C 111.542969 194.5 111.742188 187.972656 112.269531 185.109375 C 113.058594 180.71875 114.472656 176.445312 116.359375 172.679688 C 118.148438 169.113281 120.742188 165.175781 121.15625 165.410156 C 121.253906 165.488281 122.0625 166.605469 122.925781 167.917969 Z M 194.425781 167.664062 C 198.398438 173.601562 200.734375 179.855469 201.757812 187.265625 C 202.132812 190.011719 202.09375 196.066406 201.660156 198.929688 C 200.914062 203.847656 199.457031 208.535156 197.316406 212.808594 C 196.15625 215.140625 192.992188 220.199219 192.695312 220.199219 C 192.617188 220.199219 191.792969 219.039062 190.847656 217.609375 C 181.765625 203.867188 180.839844 186.617188 188.390625 171.957031 C 189.492188 169.839844 192.402344 165.3125 192.675781 165.3125 C 192.773438 165.3125 193.558594 166.371094 194.425781 167.664062 Z M 266.238281 167.839844 C 269.621094 172.957031 272 178.914062 273.121094 185.109375 C 273.632812 187.992188 273.847656 194.519531 273.511719 197.457031 C 272.6875 204.730469 270.171875 211.710938 266.238281 217.589844 C 265.375 218.902344 264.566406 220.019531 264.488281 220.078125 C 264.390625 220.136719 263.917969 219.628906 263.429688 218.960938 C 259.535156 213.570312 256.824219 207.042969 255.585938 200.105469 C 255.191406 197.910156 255.132812 196.890625 255.132812 192.753906 C 255.113281 188.597656 255.171875 187.617188 255.566406 185.441406 C 256.863281 178.25 259.398438 172.132812 263.390625 166.566406 C 264.15625 165.488281 264.332031 165.332031 264.589844 165.546875 C 264.746094 165.664062 265.492188 166.703125 266.238281 167.839844 Z M 266.238281 167.839844 " fill-opacity="1" fill-rule="nonzero"/></svg>