<svg xmlns="http://www.w3.org/2000/svg" xmlns:xlink="http://www.w3.org/1999/xlink" width="512" zoomAndPan="magnify" viewBox="0 0 384 383.999986" height="512" preserveAspectRatio="xMidYMid meet" version="1.0"><defs><clipPath id="91178548e7"><path d="M 115.199219 115.199219 L 268.949219 115.199219 L 268.949219 268.949219 L 115.199219 268.949219 Z M 115.199219 115.199219 " clip-rule="nonzero"/></clipPath><clipPath id="d29e1274f9"><path d="M 4.734375 9.472656 L 378.984375 9.472656 L 378.984375 383.722656 L 4.734375 383.722656 Z M 4.734375 9.472656 " clip-rule="nonzero"/></clipPath></defs><g clip-path="url(#91178548e7)"><path fill="#ffffff" d="M 115.199219 115.199219 L 268.949219 115.199219 L 268.949219 268.949219 L 115.199219 268.949219 Z M 115.199219 115.199219 " fill-opacity="1" fill-rule="evenodd"/></g><path stroke-linecap="butt" transform="matrix(0.79764, 0, 0, 0.79764, 115.200005, 115.199991)" fill-opacity="1" fill="#ffffff" fill-rule="evenodd" stroke-linejoin="miter" d="M 95.808944 124.4824 C 114.790711 124.4824 130.177892 111.70056 130.177892 95.936291 C 130.177892 80.172022 114.790711 67.395079 95.808944 67.395079 C 76.827177 67.395079 61.435099 80.172022 61.435099 95.936291 C 61.435099 111.70056 76.827177 124.4824 95.808944 124.4824 Z M 95.808944 124.4824 " stroke="#000000" stroke-width="0.351" stroke-opacity="1" stroke-miterlimit="2.613"/><path stroke-linecap="butt" transform="matrix(0.79764, 0, 0, 0.79764, 115.200005, 115.199991)" fill-opacity="1" fill="#ffffff" fill-rule="evenodd" stroke-linejoin="miter" d="M 95.808944 122.62634 C 113.767185 122.62634 128.331626 110.677034 128.331626 95.936291 C 128.331626 81.200445 113.772082 69.251139 95.808944 69.251139 C 77.845807 69.251139 63.281365 81.200445 63.281365 95.936291 C 63.281365 110.677034 77.845807 122.62634 95.808944 122.62634 Z M 95.808944 122.62634 " stroke="#000000" stroke-width="0.351" stroke-opacity="1" stroke-miterlimit="2.613"/><path fill="#000000" d="M 174.445312 197.875 C 173.277344 198.53125 170.023438 199.445312 169.113281 197.351562 C 167.8125 198.007812 165.078125 198.53125 163.777344 196.828125 C 161.566406 197.351562 159.09375 198.398438 158.183594 195.914062 C 156.230469 196.4375 151.417969 197.613281 150.898438 194.472656 C 148.035156 194.867188 143.871094 195.128906 143.351562 192.117188 C 140.878906 192.117188 136.585938 191.722656 136.585938 188.84375 C 134.113281 188.84375 129.820312 187.144531 130.339844 185.179688 C 128.128906 184.917969 125.136719 182.5625 125.136719 180.992188 C 122.925781 180.335938 120.453125 178.632812 120.972656 176.410156 C 119.671875 175.625 117.460938 174.707031 117.460938 173.398438 C 117.460938 172.089844 118.503906 171.042969 119.671875 171.042969 C 120.84375 171.042969 125.269531 171.699219 126.828125 171.699219 C 128.390625 171.699219 147.253906 171.304688 151.679688 171.566406 C 156.101562 171.828125 161.695312 171.699219 164.429688 171.4375 C 167.160156 171.171875 178.816406 170.539062 180.429688 173.792969 C 181.601562 176.148438 180.691406 176.933594 179.648438 177.847656 C 178.609375 178.765625 175.097656 180.46875 175.097656 185.964844 C 175.097656 191.460938 175.746094 194.34375 174.445312 197.875 Z M 174.445312 197.875 " fill-opacity="1" fill-rule="evenodd"/><path fill="#ffffff" d="M 121.625 172.351562 C 125.65625 172.351562 135.023438 172.613281 136.847656 172.613281 C 138.667969 172.613281 151.546875 174.054688 153.5625 174.707031 C 154.476562 174.96875 154.671875 175.886719 153.5625 175.953125 C 152.457031 176.015625 139.1875 176.214844 137.238281 176.214844 C 135.285156 176.214844 121.921875 176.398438 120.128906 174.054688 C 118.828125 172.351562 120.453125 172.417969 121.625 172.351562 Z M 124.03125 177.457031 C 126.375 177.523438 138.082031 177.585938 139.449219 177.523438 C 140.816406 177.457031 151.417969 176.867188 152.65625 176.800781 C 153.890625 176.738281 155.0625 177.0625 155.0625 177.457031 C 155.0625 177.847656 154.800781 178.175781 153.371094 178.503906 C 151.9375 178.832031 138.734375 180.335938 128.714844 180.140625 C 126.828125 180.207031 124.292969 179.222656 123.640625 178.308594 C 122.992188 177.390625 123.707031 177.457031 124.03125 177.457031 Z M 128.585938 181.777344 C 130.210938 181.777344 149.402344 180.335938 153.433594 179.484375 C 154.800781 179.355469 155.710938 179.289062 155.839844 179.878906 C 155.972656 180.46875 155.90625 180.730469 154.734375 181.054688 C 153.566406 181.382812 139.320312 184.066406 132.097656 184.199219 C 129.691406 184.132812 126.894531 181.84375 128.585938 181.777344 Z M 133.464844 185.835938 C 135.738281 185.574219 150.898438 183.152344 154.996094 182.039062 C 156.621094 181.644531 157.402344 181.84375 157.597656 182.300781 C 157.792969 182.757812 157.792969 183.542969 156.621094 183.9375 C 155.453125 184.328125 142.050781 187.46875 139.578125 187.601562 C 137.105469 187.730469 134.179688 187.144531 133.398438 186.554688 C 132.617188 185.964844 133.464844 185.835938 133.464844 185.835938 Z M 139.578125 189.238281 C 141.203125 188.910156 154.410156 185.898438 158.183594 184.460938 C 159.289062 184.132812 159.679688 184.460938 159.875 184.851562 C 160.070312 185.246094 160.132812 185.835938 159.417969 186.160156 C 158.703125 186.488281 148.554688 190.742188 143.742188 191.003906 C 141.984375 191.003906 140.566406 190.355469 139.773438 189.957031 C 139.253906 189.695312 139.449219 189.695312 139.578125 189.238281 Z M 161.109375 186.488281 C 159.613281 187.207031 150.507812 191.070312 146.996094 191.855469 C 146.019531 192.117188 145.5 192.835938 146.667969 193.230469 C 147.839844 193.621094 150.574219 193.425781 152.199219 192.96875 C 153.824219 192.507812 160.429688 190.351562 162.964844 187.863281 C 162.445312 187.601562 161.242188 186.75 161.109375 186.488281 Z M 163.84375 188.714844 C 162.867188 189.367188 156.492188 192.707031 153.5625 193.621094 C 152.589844 193.949219 153.042969 194.867188 154.019531 194.996094 C 154.996094 195.128906 157.46875 195.128906 160.394531 193.359375 C 162.152344 192.3125 164.753906 190.414062 165.535156 189.695312 C 165.144531 189.5 164.296875 188.976562 163.84375 188.714844 Z M 166.835938 190.480469 C 165.167969 191.628906 161.332031 194.179688 160.71875 194.605469 C 159.875 195.191406 159.417969 196.175781 161.109375 196.042969 C 162.800781 195.914062 165.925781 194.667969 168.394531 191.070312 C 168.070312 190.972656 167.226562 190.675781 166.835938 190.480469 Z M 169.761719 191.460938 C 168.722656 192.507812 167.160156 194.210938 166.054688 195.128906 C 165.339844 195.847656 165.859375 197.15625 167.097656 196.566406 C 168.332031 195.980469 170.578125 193.949219 171.160156 191.921875 C 170.707031 191.789062 170.183594 191.660156 169.761719 191.460938 Z M 172.363281 193.097656 C 171.519531 194.144531 170.671875 194.996094 170.152344 195.652344 C 169.632812 196.304688 170.28125 196.960938 170.800781 197.15625 C 171.324219 197.351562 172.300781 197.875 173.46875 195.519531 Z M 172.363281 193.097656 " fill-opacity="1" fill-rule="evenodd"/><path fill="#ffffff" d="M 147.125 172.089844 C 148.816406 172.089844 154.539062 172.484375 156.621094 172.484375 C 158.703125 172.484375 163.519531 172.351562 165.273438 172.222656 C 167.03125 172.089844 171.648438 172.027344 173.46875 172.222656 C 175.292969 172.417969 179.324219 172.679688 180.039062 174.578125 C 180.753906 176.476562 179.195312 177.523438 178.21875 178.242188 C 177.242188 178.960938 174.25 180.730469 174.121094 185.3125 C 173.339844 184.984375 172.234375 184.789062 173.015625 183.152344 C 173.46875 182.234375 175.683594 179.226562 175.160156 177.851562 C 174.640625 176.476562 172.949219 175.363281 169.113281 175.234375 C 165.273438 175.101562 159.875 175.234375 157.988281 174.90625 C 156.101562 174.578125 148.816406 172.746094 147.320312 172.550781 C 146.667969 172.484375 146.667969 172.15625 147.125 172.089844 Z M 147.125 172.089844 " fill-opacity="1" fill-rule="evenodd"/><path fill="#ffffff" d="M 162.476562 175.753906 C 163.84375 175.753906 168.851562 175.625 170.28125 175.886719 C 171.714844 176.148438 173.496094 176.5625 174.25 177.847656 C 174.902344 178.960938 173.796875 180.730469 173.277344 181.449219 C 172.753906 182.167969 171.257812 183.609375 170.671875 184.132812 C 170.152344 184.523438 169.175781 183.871094 170.023438 182.886719 C 168.917969 183.542969 167.550781 183.414062 168.203125 181.90625 C 167.226562 182.691406 165.597656 182.757812 166.574219 180.730469 C 165.925781 181.25 164.101562 181.1875 165.273438 179.617188 C 164.296875 179.941406 163.191406 179.355469 163.90625 178.371094 C 162.671875 178.570312 161.957031 177.652344 163.257812 176.933594 C 162.023438 177.261719 161.695312 175.820312 162.476562 175.753906 Z M 156.859375 175.316406 C 155.152344 175.316406 155.117188 177.171875 157.0625 177.070312 C 158.597656 176.988281 160.445312 176.625 160.410156 176.003906 C 160.375 175.386719 158.121094 175.351562 156.859375 175.316406 Z M 157.097656 177.320312 C 156.140625 177.492188 156.109375 177.9375 156.246094 178.28125 C 156.378906 178.625 156.894531 179.210938 158.566406 178.96875 C 160.242188 178.726562 161.164062 178.042969 161.164062 177.457031 C 161.164062 176.871094 158.121094 177.25 157.097656 177.320312 Z M 158.738281 179.382812 C 158.089844 179.484375 157.484375 179.964844 157.679688 180.550781 C 157.917969 181.273438 159.386719 181.476562 161.023438 180.652344 C 162.664062 179.828125 162.5625 179.621094 162.390625 179.175781 C 162.222656 178.730469 160.511719 179.074219 158.738281 179.382812 Z M 161.8125 180.445312 C 161.023438 180.722656 160.171875 181.132812 159.523438 181.546875 C 158.875 181.957031 158.359375 183.4375 160.855469 182.78125 C 163.347656 182.128906 163.484375 181.269531 163.144531 180.6875 C 162.800781 180.101562 162.015625 180.414062 161.8125 180.445312 Z M 161.035156 183.304688 C 160.179688 183.820312 160.589844 185.8125 162.46875 184.921875 C 164.347656 184.027344 165.644531 183.0625 165.371094 182.410156 C 165.097656 181.757812 162.949219 182.273438 161.035156 183.304688 Z M 165.984375 183.785156 C 165.09375 184.199219 162.191406 185.160156 163.148438 186.398438 C 163.628906 187.015625 164.550781 186.5 164.925781 186.261719 C 165.300781 186.019531 167.351562 184.613281 166.835938 183.855469 C 166.613281 183.523438 166.1875 183.683594 165.984375 183.785156 Z M 165.785156 186.09375 C 163.90625 187.296875 166.023438 188.328125 167.21875 187.296875 C 167.867188 186.738281 169.195312 185.730469 168.585938 184.996094 C 168.074219 184.375 166.367188 185.785156 165.785156 186.09375 Z M 168.761719 186.582031 C 168.183594 187.234375 166.824219 188.21875 167.875 188.953125 C 168.761719 189.570312 169.308594 188.917969 169.71875 188.472656 C 170.128906 188.023438 171.699219 186.445312 171.121094 185.792969 C 170.539062 185.140625 169.273438 186.273438 168.761719 186.582031 Z M 172.734375 186.835938 C 172.121094 186.351562 170.890625 187.660156 170.449219 188.449219 C 170.003906 189.238281 170.34375 189.6875 170.789062 189.890625 C 171.234375 190.097656 172.019531 189.652344 172.1875 189.203125 C 172.359375 188.757812 173.351562 187.453125 172.734375 186.835938 Z M 172.734375 186.835938 " fill-opacity="1" fill-rule="evenodd"/><path stroke-linecap="butt" transform="matrix(0.79764, 0, 0, 0.79764, 115.200005, 115.199991)" fill="none" stroke-linejoin="miter" d="M 77.703786 73.129766 C 78.844847 73.702745 80.147517 74.520587 80.230771 75.343326 C 80.314024 76.166066 80.069161 76.983907 78.683237 77.968256 " stroke="#000000" stroke-width="1" stroke-opacity="1" stroke-miterlimit="2.613"/><path fill="#000000" d="M 209.703125 197.875 C 210.875 198.53125 214.128906 199.445312 215.039062 197.351562 C 216.339844 198.007812 219.070312 198.53125 220.375 196.828125 C 222.582031 197.351562 225.054688 198.398438 225.964844 195.914062 C 227.917969 196.4375 232.730469 197.613281 233.253906 194.472656 C 236.113281 194.867188 240.28125 195.128906 240.800781 192.117188 C 243.273438 192.117188 247.5625 191.722656 247.5625 188.84375 C 250.035156 188.84375 254.328125 187.144531 253.808594 185.179688 C 256.019531 184.917969 259.011719 182.5625 259.011719 180.992188 C 261.222656 180.335938 263.695312 178.632812 263.175781 176.410156 C 264.476562 175.625 266.691406 174.707031 266.691406 173.398438 C 266.691406 172.089844 265.648438 171.042969 264.476562 171.042969 C 263.308594 171.042969 258.882812 171.699219 257.320312 171.699219 C 255.761719 171.699219 236.894531 171.304688 232.472656 171.566406 C 228.050781 171.828125 222.453125 171.699219 219.722656 171.4375 C 216.988281 171.171875 205.335938 170.539062 203.71875 173.792969 C 202.546875 176.148438 203.460938 176.933594 204.5 177.847656 C 205.542969 178.765625 209.054688 180.46875 209.054688 185.964844 C 209.054688 191.460938 208.402344 194.34375 209.703125 197.875 Z M 209.703125 197.875 " fill-opacity="1" fill-rule="evenodd"/><path fill="#ffffff" d="M 262.523438 172.351562 C 258.492188 172.351562 249.125 172.613281 247.304688 172.613281 C 245.480469 172.613281 232.601562 174.054688 230.585938 174.707031 C 229.675781 174.96875 229.480469 175.886719 230.585938 175.953125 C 231.691406 176.015625 244.960938 176.214844 246.914062 176.214844 C 248.867188 176.214844 262.230469 176.398438 264.023438 174.054688 C 265.324219 172.351562 263.695312 172.417969 262.523438 172.351562 Z M 260.117188 177.457031 C 257.777344 177.523438 246.066406 177.585938 244.703125 177.523438 C 243.335938 177.457031 232.730469 176.867188 231.496094 176.800781 C 230.257812 176.738281 229.089844 177.0625 229.089844 177.457031 C 229.089844 177.847656 229.347656 178.175781 230.78125 178.503906 C 232.210938 178.832031 245.417969 180.335938 255.433594 180.140625 C 257.320312 180.207031 259.859375 179.222656 260.507812 178.308594 C 261.160156 177.390625 260.445312 177.457031 260.117188 177.457031 Z M 255.566406 181.777344 C 253.941406 181.777344 234.75 180.335938 230.714844 179.484375 C 229.351562 179.355469 228.4375 179.289062 228.308594 179.878906 C 228.179688 180.46875 228.242188 180.730469 229.414062 181.054688 C 230.585938 181.382812 244.832031 184.066406 252.054688 184.199219 C 254.457031 184.132812 257.257812 181.84375 255.566406 181.777344 Z M 250.6875 185.835938 C 248.410156 185.574219 233.253906 183.152344 229.15625 182.039062 C 227.527344 181.644531 226.746094 181.84375 226.550781 182.300781 C 226.355469 182.757812 226.355469 183.542969 227.527344 183.9375 C 228.699219 184.328125 242.101562 187.46875 244.570312 187.601562 C 247.042969 187.730469 249.96875 187.144531 250.75 186.554688 C 251.53125 185.964844 250.6875 185.835938 250.6875 185.835938 Z M 244.570312 189.238281 C 242.945312 188.910156 229.738281 185.898438 225.964844 184.460938 C 224.859375 184.132812 224.46875 184.460938 224.277344 184.851562 C 224.082031 185.246094 224.015625 185.835938 224.730469 186.160156 C 225.445312 186.488281 235.59375 190.742188 240.40625 191.003906 C 242.164062 191.003906 243.582031 190.355469 244.375 189.957031 C 244.894531 189.695312 244.699219 189.695312 244.570312 189.238281 Z M 223.039062 186.488281 C 224.535156 187.207031 233.644531 191.070312 237.15625 191.855469 C 238.132812 192.117188 238.652344 192.835938 237.480469 193.230469 C 236.308594 193.621094 233.578125 193.425781 231.949219 192.96875 C 230.324219 192.507812 223.722656 190.351562 221.183594 187.863281 C 221.703125 187.601562 222.910156 186.75 223.039062 186.488281 Z M 220.308594 188.714844 C 221.28125 189.367188 227.65625 192.707031 230.585938 193.621094 C 231.5625 193.949219 231.105469 194.867188 230.128906 194.996094 C 229.15625 195.128906 226.683594 195.128906 223.753906 193.359375 C 222 192.3125 219.398438 190.414062 218.617188 189.695312 C 219.003906 189.5 219.851562 188.976562 220.308594 188.714844 Z M 217.316406 190.480469 C 218.980469 191.628906 222.820312 194.179688 223.429688 194.605469 C 224.277344 195.191406 224.730469 196.175781 223.039062 196.042969 C 221.347656 195.914062 218.226562 194.667969 215.753906 191.070312 C 216.078125 190.972656 216.925781 190.675781 217.316406 190.480469 Z M 214.386719 191.460938 C 215.429688 192.507812 216.988281 194.210938 218.09375 195.128906 C 218.808594 195.847656 218.289062 197.15625 217.054688 196.566406 C 215.820312 195.980469 213.574219 193.949219 212.988281 191.921875 C 213.445312 191.789062 213.964844 191.660156 214.386719 191.460938 Z M 211.785156 193.097656 C 212.632812 194.144531 213.476562 194.996094 213.996094 195.652344 C 214.515625 196.304688 213.867188 196.960938 213.347656 197.15625 C 212.828125 197.351562 211.851562 197.875 210.679688 195.519531 Z M 211.785156 193.097656 " fill-opacity="1" fill-rule="evenodd"/><path fill="#ffffff" d="M 237.023438 172.089844 C 235.332031 172.089844 229.609375 172.484375 227.527344 172.484375 C 225.445312 172.484375 220.632812 172.351562 218.875 172.222656 C 217.121094 172.089844 212.5 172.027344 210.679688 172.222656 C 208.859375 172.417969 204.824219 172.679688 204.109375 174.578125 C 203.394531 176.476562 204.957031 177.523438 205.929688 178.242188 C 206.90625 178.960938 209.898438 180.730469 210.027344 185.3125 C 210.808594 184.984375 211.914062 184.789062 211.136719 183.152344 C 210.679688 182.234375 208.46875 179.226562 208.988281 177.851562 C 209.507812 176.476562 211.199219 175.363281 215.039062 175.234375 C 218.878906 175.101562 224.277344 175.234375 226.164062 174.90625 C 228.050781 174.578125 235.335938 172.746094 236.832031 172.550781 C 237.480469 172.484375 237.480469 172.15625 237.023438 172.089844 Z M 237.023438 172.089844 " fill-opacity="1" fill-rule="evenodd"/><path fill="#ffffff" d="M 221.675781 175.753906 C 220.308594 175.753906 215.300781 175.625 213.867188 175.886719 C 212.4375 176.148438 210.652344 176.5625 209.898438 177.847656 C 209.25 178.960938 210.355469 180.730469 210.875 181.449219 C 211.394531 182.167969 212.890625 183.609375 213.476562 184.132812 C 213.996094 184.523438 214.972656 183.871094 214.128906 182.886719 C 215.234375 183.542969 216.601562 183.414062 215.949219 181.90625 C 216.925781 182.691406 218.550781 182.757812 217.574219 180.730469 C 218.222656 181.25 220.046875 181.1875 218.875 179.617188 C 219.851562 179.941406 220.957031 179.355469 220.242188 178.371094 C 221.476562 178.570312 222.195312 177.652344 220.890625 176.933594 C 222.128906 177.261719 222.453125 175.820312 221.671875 175.753906 Z M 227.292969 175.316406 C 229 175.316406 229.035156 177.171875 227.085938 177.070312 C 225.550781 176.988281 223.707031 176.625 223.738281 176.003906 C 223.773438 175.386719 226.027344 175.351562 227.292969 175.316406 Z M 227.050781 177.320312 C 228.007812 177.492188 228.042969 177.9375 227.90625 178.28125 C 227.769531 178.625 227.257812 179.210938 225.585938 178.96875 C 223.910156 178.726562 222.988281 178.042969 222.988281 177.457031 C 222.988281 176.871094 226.027344 177.25 227.050781 177.320312 Z M 225.414062 179.382812 C 226.0625 179.484375 226.664062 179.964844 226.472656 180.550781 C 226.230469 181.273438 224.765625 181.476562 223.125 180.652344 C 221.484375 179.828125 221.589844 179.621094 221.757812 179.175781 C 221.929688 178.730469 223.636719 179.074219 225.414062 179.382812 Z M 222.339844 180.445312 C 223.125 180.722656 223.976562 181.132812 224.628906 181.546875 C 225.273438 181.957031 225.789062 183.4375 223.296875 182.78125 C 220.804688 182.128906 220.664062 181.269531 221.007812 180.6875 C 221.347656 180.101562 222.136719 180.414062 222.339844 180.445312 Z M 223.113281 183.304688 C 223.96875 183.820312 223.558594 185.8125 221.683594 184.921875 C 219.800781 184.027344 218.503906 183.0625 218.777344 182.410156 C 219.050781 181.757812 221.203125 182.273438 223.113281 183.304688 Z M 218.164062 183.785156 C 219.054688 184.199219 221.957031 185.160156 221 186.398438 C 220.523438 187.015625 219.601562 186.5 219.226562 186.261719 C 218.847656 186.019531 216.800781 184.613281 217.3125 183.855469 C 217.539062 183.523438 217.960938 183.683594 218.164062 183.785156 Z M 218.363281 186.09375 C 220.242188 187.296875 218.125 188.328125 216.929688 187.296875 C 216.28125 186.738281 214.957031 185.730469 215.5625 184.996094 C 216.078125 184.375 217.785156 185.785156 218.363281 186.09375 Z M 215.386719 186.582031 C 215.96875 187.234375 217.328125 188.21875 216.273438 188.953125 C 215.386719 189.570312 214.839844 188.917969 214.429688 188.472656 C 214.019531 188.023438 212.449219 186.445312 213.03125 185.792969 C 213.609375 185.140625 214.875 186.273438 215.386719 186.582031 Z M 211.414062 186.835938 C 212.027344 186.351562 213.257812 187.660156 213.703125 188.449219 C 214.148438 189.238281 213.804688 189.6875 213.359375 189.890625 C 212.917969 190.097656 212.128906 189.652344 211.960938 189.203125 C 211.789062 188.757812 210.796875 187.453125 211.414062 186.835938 Z M 211.414062 186.835938 " fill-opacity="1" fill-rule="evenodd"/><path stroke-linecap="butt" transform="matrix(0.79764, 0, 0, 0.79764, 115.200005, 115.199991)" fill="none" stroke-linejoin="miter" d="M 115.055163 73.129766 C 113.914102 73.702745 112.606535 74.520587 112.528179 75.343326 C 112.444925 76.166066 112.689788 76.983907 114.075712 77.968256 " stroke="#000000" stroke-width="1" stroke-opacity="1" stroke-miterlimit="2.613"/><path stroke-linecap="butt" transform="matrix(0.79764, 0, 0, 0.79764, 115.200005, 115.199991)" fill-opacity="1" fill="#ffffff" fill-rule="evenodd" stroke-linejoin="miter" d="M 95.750177 125.363906 C 94.501377 125.39329 93.517028 124.53627 93.649254 122.543087 L 94.276103 114.531175 C 94.300589 113.82597 95.358397 113.331347 95.808944 113.331347 C 96.254595 113.331347 97.317299 113.82597 97.341786 114.531175 L 97.963737 122.543087 C 98.10086 124.53627 97.111614 125.329626 95.750177 125.363906 Z M 95.750177 125.363906 " stroke="#000000" stroke-width="0.351" stroke-opacity="1" stroke-miterlimit="2.613"/><path stroke-linecap="butt" transform="matrix(0.79764, 0, 0, 0.79764, 115.200005, 115.199991)" fill-opacity="1" fill="#ffffff" fill-rule="evenodd" stroke-linejoin="miter" d="M 95.867711 125.363906 C 97.111614 125.39329 98.10086 124.53627 97.963737 122.543087 L 97.341786 114.531175 C 97.317299 113.82597 96.254595 113.331347 95.808944 113.331347 C 95.358397 113.331347 94.295692 113.82597 94.271206 114.531175 L 93.649254 122.543087 C 93.512131 124.53627 94.501377 125.329626 95.867711 125.363906 Z M 95.867711 125.363906 " stroke="#000000" stroke-width="0.351" stroke-opacity="1" stroke-miterlimit="2.613"/><path stroke-linecap="butt" transform="matrix(0.79764, 0, 0, 0.79764, 115.200005, 115.199991)" fill-opacity="1" fill="#ffffff" fill-rule="evenodd" stroke-linejoin="miter" d="M 100.573975 125.177811 C 101.812981 125.025996 102.665104 124.031853 102.234145 122.077847 L 100.436852 114.252031 C 100.309523 113.551723 99.188051 113.223607 98.742401 113.292169 C 98.301648 113.355833 97.327094 114.002271 97.40545 114.707476 L 97.968634 122.719388 C 98.125347 124.712571 99.222332 125.349215 100.573975 125.177811 Z M 100.573975 125.177811 " stroke="#000000" stroke-width="0.351" stroke-opacity="1" stroke-miterlimit="2.613"/><path stroke-linecap="butt" transform="matrix(0.79764, 0, 0, 0.79764, 115.200005, 115.199991)" fill-opacity="1" fill="#ffffff" fill-rule="evenodd" stroke-linejoin="miter" d="M 105.319417 124.291407 C 106.514347 123.933908 107.185272 122.807538 106.440888 120.956375 L 103.380103 113.537032 C 103.140137 112.871005 101.979488 112.733881 101.553426 112.871005 C 101.127365 113.013025 100.270345 113.811278 100.466235 114.491997 L 102.341885 122.303121 C 102.826713 124.242435 104.011849 124.688085 105.319417 124.291407 Z M 105.319417 124.291407 " stroke="#000000" stroke-width="0.351" stroke-opacity="1" stroke-miterlimit="2.613"/><path stroke-linecap="butt" transform="matrix(0.79764, 0, 0, 0.79764, 115.200005, 115.199991)" fill-opacity="1" fill="#ffffff" fill-rule="evenodd" stroke-linejoin="miter" d="M 109.819996 122.944662 C 110.951262 122.425552 111.465474 121.21593 110.471331 119.482301 L 106.411505 112.567375 C 106.083389 111.940526 104.912944 111.965012 104.511369 112.1658 C 104.104897 112.36169 103.370309 113.27258 103.659247 113.923915 L 106.597601 121.392231 C 107.346881 123.243394 108.576092 123.517641 109.819996 122.944662 Z M 91.039016 125.177811 C 89.804907 125.025996 88.952785 124.031853 89.378846 122.077847 L 91.176139 114.252031 C 91.303468 113.551723 92.42494 113.223607 92.87059 113.292169 C 93.311343 113.355833 94.285897 114.002271 94.207541 114.707476 L 93.644357 122.719388 C 93.487644 124.712571 92.395556 125.349215 91.039016 125.177811 Z M 91.039016 125.177811 " stroke="#000000" stroke-width="0.351" stroke-opacity="1" stroke-miterlimit="2.613"/><path stroke-linecap="butt" transform="matrix(0.79764, 0, 0, 0.79764, 115.200005, 115.199991)" fill-opacity="1" fill="#ffffff" fill-rule="evenodd" stroke-linejoin="miter" d="M 86.293574 124.291407 C 85.098644 123.933908 84.422822 122.807538 85.172103 120.956375 L 88.232888 113.537032 C 88.472854 112.871005 89.633503 112.733881 90.059565 112.871005 C 90.485626 113.013025 91.342646 113.811278 91.146756 114.491997 L 89.271106 122.303121 C 88.786278 124.242435 87.606039 124.688085 86.293574 124.291407 Z M 86.293574 124.291407 " stroke="#000000" stroke-width="0.351" stroke-opacity="1" stroke-miterlimit="2.613"/><path stroke-linecap="butt" transform="matrix(0.79764, 0, 0, 0.79764, 115.200005, 115.199991)" fill-opacity="1" fill="#ffffff" fill-rule="evenodd" stroke-linejoin="miter" d="M 81.792995 122.944662 C 80.661729 122.425552 80.147517 121.21593 81.14166 119.482301 L 85.201486 112.567375 C 85.5345 111.940526 86.700047 111.965012 87.101622 112.1658 C 87.503197 112.36169 88.242683 113.27258 87.953744 113.923915 L 85.01539 121.392231 C 84.271007 123.243394 83.036899 123.517641 81.792995 122.944662 Z M 81.792995 122.944662 " stroke="#000000" stroke-width="0.351" stroke-opacity="1" stroke-miterlimit="2.613"/><path fill="#000000" d="M 191.621094 206.53125 C 202.59375 206.53125 211.492188 199.902344 211.492188 191.722656 C 211.492188 183.546875 202.59375 176.914062 191.621094 176.914062 C 180.644531 176.914062 171.75 183.546875 171.75 191.722656 C 171.75 199.902344 180.644531 206.53125 191.621094 206.53125 Z M 191.621094 206.53125 " fill-opacity="1" fill-rule="evenodd"/><path fill="#ffffff" d="M 200.335938 186.292969 C 200.335938 184.132812 198.058594 180.859375 191.425781 180.859375 C 187.519531 180.859375 184.269531 181.84375 182.316406 183.675781 C 182.773438 184.066406 183.292969 184.65625 183.292969 185.308594 L 183.292969 197.285156 C 183.226562 198.007812 182.902344 198.59375 182.382812 199.25 C 184.203125 200.691406 187.328125 202.066406 192.140625 201.933594 C 196.953125 201.804688 201.441406 200.230469 201.441406 195.78125 C 201.441406 193.882812 199.6875 191.984375 197.734375 191.332031 C 197.214844 191.199219 197.296875 190.683594 197.703125 190.480469 C 198.09375 190.285156 200.367188 188.515625 200.335938 186.292969 Z M 200.335938 186.292969 " fill-opacity="1" fill-rule="evenodd"/><path fill="#000000" d="M 191.683594 190.015625 C 193.363281 190.015625 194.722656 188.523438 194.722656 186.683594 C 194.722656 184.84375 193.363281 183.351562 191.683594 183.351562 C 190.007812 183.351562 188.648438 184.84375 188.648438 186.683594 C 188.648438 188.523438 190.007812 190.015625 191.683594 190.015625 Z M 191.683594 190.015625 " fill-opacity="1" fill-rule="evenodd"/><path stroke-linecap="butt" transform="matrix(0.79764, 0, 0, 0.79764, 115.200005, 115.199991)" fill-opacity="1" fill="#000000" fill-rule="evenodd" stroke-linejoin="miter" d="M 96.377026 105.353716 C 98.732606 105.353716 100.647434 103.380121 100.647434 100.946185 C 100.647434 98.507351 98.732606 96.533756 96.377026 96.533756 C 94.021445 96.533756 92.111515 98.507351 92.111515 100.946185 C 92.111515 103.380121 94.021445 105.353716 96.377026 105.353716 Z M 96.377026 105.353716 " stroke="#000000" stroke-width="0.351" stroke-opacity="1" stroke-miterlimit="2.613"/><g clip-path="url(#d29e1274f9)"><path fill="#ffffff" d="M 4.734375 9.472656 L 378.984375 9.472656 L 378.984375 383.722656 L 4.734375 383.722656 Z M 4.734375 9.472656 " fill-opacity="1" fill-rule="evenodd"/></g><path stroke-linecap="butt" transform="matrix(1.941574, 0, 0, 1.941574, 4.735491, 9.470976)" fill-opacity="1" fill="#ffffff" fill-rule="evenodd" stroke-linejoin="miter" d="M 95.806047 124.481069 C 114.788313 124.481069 130.177327 111.7035 130.177327 95.938261 C 130.177327 80.173022 114.788313 67.39344 95.806047 67.39344 C 76.825794 67.39344 61.43678 80.173022 61.43678 95.938261 C 61.43678 111.7035 76.825794 124.481069 95.806047 124.481069 Z M 95.806047 124.481069 " stroke="#000000" stroke-width="0.351" stroke-opacity="1" stroke-miterlimit="2.613"/><path stroke-linecap="butt" transform="matrix(1.941574, 0, 0, 1.941574, 4.735491, 9.470976)" fill-opacity="1" fill="#ffffff" fill-rule="evenodd" stroke-linejoin="miter" d="M 95.806047 122.624087 C 113.76828 122.624087 128.332415 110.677431 128.332415 95.938261 C 128.332415 81.19909 113.770292 69.250423 95.806047 69.250423 C 77.843815 69.250423 63.281691 81.19909 63.281691 95.938261 C 63.281691 110.677431 77.843815 122.624087 95.806047 122.624087 Z M 95.806047 122.624087 " stroke="#000000" stroke-width="0.351" stroke-opacity="1" stroke-miterlimit="2.613"/><path fill="#000000" d="M 148.949219 210.714844 C 146.097656 212.308594 138.183594 214.539062 135.964844 209.441406 C 132.796875 211.035156 126.144531 212.308594 122.980469 208.167969 C 117.59375 209.441406 111.578125 211.992188 109.359375 205.9375 C 104.609375 207.210938 92.894531 210.082031 91.625 202.433594 C 84.660156 203.390625 74.523438 204.027344 73.257812 196.695312 C 67.242188 196.695312 56.792969 195.742188 56.792969 188.734375 C 50.777344 188.734375 40.324219 184.589844 41.59375 179.8125 C 36.207031 179.175781 28.921875 173.4375 28.921875 169.617188 C 23.542969 168.023438 17.523438 163.878906 18.789062 158.464844 C 15.625 156.554688 10.238281 154.324219 10.238281 151.136719 C 10.238281 147.953125 12.773438 145.402344 15.625 145.402344 C 18.472656 145.402344 29.242188 146.996094 33.042969 146.996094 C 36.84375 146.996094 82.761719 146.039062 93.53125 146.675781 C 104.296875 147.3125 117.914062 146.996094 124.566406 146.359375 C 131.214844 145.71875 159.582031 144.171875 163.515625 152.089844 C 166.367188 157.828125 164.148438 159.738281 161.617188 161.96875 C 159.082031 164.199219 150.53125 168.339844 150.53125 181.722656 C 150.53125 195.101562 152.117188 202.117188 148.949219 210.714844 Z M 148.949219 210.714844 " fill-opacity="1" fill-rule="evenodd"/><path fill="#ffffff" d="M 20.371094 148.589844 C 30.191406 148.589844 52.992188 149.226562 57.425781 149.226562 C 61.859375 149.226562 93.214844 152.730469 98.121094 154.320312 C 100.339844 154.957031 100.8125 157.191406 98.121094 157.347656 C 95.429688 157.507812 63.125 157.984375 58.375 157.984375 C 53.625 157.984375 21.097656 158.441406 16.730469 152.730469 C 13.5625 148.589844 17.523438 148.746094 20.371094 148.589844 Z M 26.234375 161.011719 C 31.933594 161.171875 60.433594 161.332031 63.761719 161.171875 C 67.085938 161.011719 92.898438 159.578125 95.90625 159.421875 C 98.914062 159.261719 101.765625 160.058594 101.765625 161.011719 C 101.765625 161.96875 101.128906 162.765625 97.648438 163.5625 C 94.164062 164.359375 62.019531 168.023438 37.636719 167.542969 C 33.042969 167.703125 26.867188 165.316406 25.285156 163.085938 C 23.699219 160.855469 25.441406 161.011719 26.234375 161.011719 Z M 37.316406 171.527344 C 41.277344 171.527344 87.984375 168.023438 97.804688 165.953125 C 101.128906 165.632812 103.347656 165.472656 103.664062 166.90625 C 103.980469 168.339844 103.820312 168.976562 100.972656 169.773438 C 98.121094 170.570312 63.445312 177.101562 45.867188 177.421875 C 40.007812 177.261719 33.199219 171.6875 37.316406 171.527344 Z M 49.191406 181.40625 C 54.734375 180.769531 91.628906 174.875 101.605469 172.164062 C 105.5625 171.210938 107.464844 171.6875 107.9375 172.800781 C 108.414062 173.917969 108.414062 175.828125 105.5625 176.785156 C 102.714844 177.738281 70.09375 185.386719 64.078125 185.707031 C 58.0625 186.023438 50.933594 184.589844 49.035156 183.15625 C 47.132812 181.722656 49.191406 181.40625 49.191406 181.40625 Z M 64.074219 189.6875 C 68.035156 188.890625 100.175781 181.5625 109.363281 178.058594 C 112.054688 177.265625 113.003906 178.058594 113.480469 179.015625 C 113.953125 179.96875 114.113281 181.40625 112.371094 182.199219 C 110.628906 183 85.925781 193.351562 74.207031 193.988281 C 69.933594 193.988281 66.476562 192.40625 64.550781 191.441406 C 63.285156 190.804688 63.757812 190.804688 64.074219 189.6875 Z M 116.488281 183 C 112.847656 184.75 90.679688 194.148438 82.128906 196.058594 C 79.753906 196.695312 78.484375 198.449219 81.335938 199.40625 C 84.1875 200.359375 90.839844 199.886719 94.796875 198.769531 C 98.757812 197.652344 114.828125 192.398438 121.003906 186.34375 C 119.734375 185.707031 116.804688 183.632812 116.488281 183 Z M 123.136719 188.414062 C 120.765625 190.007812 105.246094 198.128906 98.121094 200.359375 C 95.746094 201.15625 96.851562 203.390625 99.226562 203.710938 C 101.605469 204.027344 107.621094 204.027344 114.746094 199.722656 C 119.019531 197.175781 125.355469 192.558594 127.253906 190.804688 C 126.304688 190.324219 124.246094 189.050781 123.136719 188.414062 Z M 130.421875 192.714844 C 126.371094 195.507812 117.023438 201.71875 115.539062 202.753906 C 113.480469 204.1875 112.371094 206.574219 116.488281 206.257812 C 120.605469 205.9375 128.207031 202.910156 134.222656 194.148438 C 133.433594 193.910156 131.371094 193.191406 130.421875 192.714844 Z M 137.550781 195.105469 C 135.015625 197.652344 131.214844 201.792969 128.523438 204.027344 C 126.78125 205.777344 128.046875 208.964844 131.058594 207.53125 C 134.066406 206.097656 139.527344 201.15625 140.953125 196.21875 C 139.84375 195.902344 138.578125 195.582031 137.550781 195.105469 Z M 143.882812 199.085938 C 141.824219 201.632812 139.765625 203.707031 138.5 205.300781 C 137.230469 206.890625 138.816406 208.484375 140.082031 208.964844 C 141.347656 209.441406 143.722656 210.714844 146.574219 204.980469 Z M 143.882812 199.085938 " fill-opacity="1" fill-rule="evenodd"/><path fill="#ffffff" d="M 82.445312 147.953125 C 86.5625 147.953125 100.496094 148.90625 105.5625 148.90625 C 110.632812 148.90625 122.347656 148.589844 126.625 148.269531 C 130.898438 147.953125 142.140625 147.792969 146.574219 148.269531 C 151.007812 148.746094 160.824219 149.382812 162.566406 154.003906 C 164.308594 158.625 160.507812 161.175781 158.132812 162.925781 C 155.757812 164.679688 148.472656 168.980469 148.15625 180.132812 C 146.253906 179.335938 143.5625 178.859375 145.464844 174.875 C 146.574219 172.644531 151.957031 165.316406 150.691406 161.972656 C 149.421875 158.625 145.308594 155.921875 135.964844 155.601562 C 126.621094 155.28125 113.480469 155.601562 108.886719 154.804688 C 104.296875 154.007812 86.558594 149.546875 82.917969 149.066406 C 81.335938 148.90625 81.335938 148.109375 82.445312 147.953125 Z M 82.445312 147.953125 " fill-opacity="1" fill-rule="evenodd"/><path fill="#ffffff" d="M 119.816406 156.871094 C 123.136719 156.871094 135.332031 156.554688 138.816406 157.191406 C 142.296875 157.828125 146.640625 158.835938 148.472656 161.96875 C 150.054688 164.675781 147.367188 168.976562 146.097656 170.730469 C 144.832031 172.484375 141.191406 175.988281 139.765625 177.261719 C 138.5 178.21875 136.121094 176.625 138.183594 174.234375 C 135.488281 175.828125 132.164062 175.511719 133.75 171.84375 C 131.371094 173.757812 127.414062 173.917969 129.789062 168.976562 C 128.207031 170.25 123.773438 170.09375 126.625 166.269531 C 124.246094 167.066406 121.554688 165.632812 123.296875 163.242188 C 120.289062 163.71875 118.546875 161.488281 121.714844 159.738281 C 118.707031 160.535156 117.914062 157.03125 119.816406 156.871094 Z M 106.136719 155.808594 C 101.980469 155.808594 101.898438 160.324219 106.636719 160.074219 C 110.371094 159.875 114.867188 158.984375 114.785156 157.480469 C 114.699219 155.976562 109.214844 155.890625 106.136719 155.808594 Z M 106.71875 160.679688 C 104.394531 161.097656 104.3125 162.183594 104.644531 163.023438 C 104.976562 163.859375 106.222656 165.28125 110.296875 164.695312 C 114.371094 164.109375 116.613281 162.4375 116.613281 161.011719 C 116.613281 159.589844 109.214844 160.515625 106.71875 160.679688 Z M 110.710938 165.699219 C 109.132812 165.949219 107.664062 167.121094 108.136719 168.542969 C 108.714844 170.300781 112.292969 170.800781 116.28125 168.792969 C 120.273438 166.785156 120.023438 166.285156 119.605469 165.195312 C 119.191406 164.109375 115.035156 164.945312 110.710938 165.699219 Z M 118.191406 168.292969 C 116.28125 168.960938 114.203125 169.964844 112.621094 170.96875 C 111.042969 171.972656 109.796875 175.566406 115.867188 173.976562 C 121.933594 172.386719 122.265625 170.296875 121.4375 168.875 C 120.605469 167.453125 118.691406 168.207031 118.191406 168.292969 Z M 116.304688 175.25 C 114.226562 176.503906 115.222656 181.355469 119.796875 179.179688 C 124.367188 177.003906 127.527344 174.660156 126.863281 173.074219 C 126.195312 171.484375 120.960938 172.738281 116.304688 175.25 Z M 128.351562 176.421875 C 126.1875 177.425781 119.121094 179.765625 121.449219 182.777344 C 122.613281 184.28125 124.859375 183.027344 125.773438 182.441406 C 126.6875 181.859375 131.675781 178.429688 130.425781 176.589844 C 129.882812 175.78125 128.847656 176.167969 128.351562 176.421875 Z M 127.867188 182.039062 C 123.296875 184.96875 128.449219 187.476562 131.359375 184.96875 C 132.9375 183.605469 136.164062 181.152344 134.683594 179.363281 C 133.4375 177.859375 129.28125 181.285156 127.867188 182.039062 Z M 135.117188 183.226562 C 133.703125 184.816406 130.390625 187.210938 132.957031 188.996094 C 135.117188 190.5 136.449219 188.914062 137.445312 187.824219 C 138.441406 186.738281 142.265625 182.890625 140.851562 181.300781 C 139.4375 179.714844 136.363281 182.472656 135.117188 183.226562 Z M 144.785156 183.839844 C 143.289062 182.667969 140.296875 185.84375 139.214844 187.769531 C 138.136719 189.695312 138.96875 190.78125 140.046875 191.28125 C 141.128906 191.78125 143.042969 190.695312 143.457031 189.609375 C 143.871094 188.523438 146.28125 185.34375 144.785156 183.839844 Z M 144.785156 183.839844 " fill-opacity="1" fill-rule="evenodd"/><path stroke-linecap="butt" transform="matrix(1.941574, 0, 0, 1.941574, 4.735491, 9.470976)" fill="none" stroke-linejoin="miter" d="M 77.702982 73.127352 C 78.843728 73.702755 80.149451 74.52361 80.229927 75.342453 C 80.312414 76.163307 80.066963 76.984162 78.680764 77.969992 " stroke="#000000" stroke-width="1" stroke-opacity="1" stroke-miterlimit="2.613"/><path fill="#000000" d="M 234.769531 210.714844 C 237.625 212.308594 245.542969 214.539062 247.757812 209.441406 C 250.921875 211.035156 257.574219 212.308594 260.742188 208.167969 C 266.125 209.441406 272.144531 211.992188 274.359375 205.9375 C 279.109375 207.210938 290.828125 210.082031 292.09375 202.433594 C 299.0625 203.390625 309.199219 204.027344 310.464844 196.695312 C 316.480469 196.695312 326.929688 195.742188 326.929688 188.734375 C 332.945312 188.734375 343.394531 184.589844 342.128906 179.8125 C 347.515625 179.175781 354.796875 173.4375 354.796875 169.617188 C 360.179688 168.023438 366.199219 163.878906 364.933594 158.464844 C 368.097656 156.554688 373.484375 154.324219 373.484375 151.136719 C 373.484375 147.953125 370.949219 145.402344 368.097656 145.402344 C 365.25 145.402344 354.480469 146.996094 350.679688 146.996094 C 346.882812 146.996094 300.960938 146.039062 290.195312 146.675781 C 279.425781 147.3125 265.808594 146.996094 259.160156 146.359375 C 252.507812 145.71875 224.144531 144.171875 220.207031 152.089844 C 217.355469 157.828125 219.574219 159.738281 222.109375 161.96875 C 224.640625 164.199219 233.191406 168.339844 233.191406 181.722656 C 233.191406 195.101562 231.605469 202.117188 234.769531 210.714844 Z M 234.769531 210.714844 " fill-opacity="1" fill-rule="evenodd"/><path fill="#ffffff" d="M 363.347656 148.589844 C 353.53125 148.589844 330.730469 149.226562 326.292969 149.226562 C 321.859375 149.226562 290.511719 152.730469 285.601562 154.320312 C 283.382812 154.957031 282.90625 157.191406 285.601562 157.347656 C 288.292969 157.507812 320.59375 157.984375 325.34375 157.984375 C 330.097656 157.984375 362.625 158.4375 366.992188 152.726562 C 370.15625 148.589844 366.199219 148.746094 363.347656 148.589844 Z M 357.488281 161.011719 C 351.789062 161.171875 323.289062 161.332031 319.960938 161.171875 C 316.636719 161.011719 290.828125 159.578125 287.820312 159.421875 C 284.808594 159.261719 281.960938 160.058594 281.960938 161.011719 C 281.960938 161.96875 282.59375 162.765625 286.074219 163.5625 C 289.558594 164.359375 321.707031 168.023438 346.085938 167.542969 C 350.679688 167.703125 356.851562 165.316406 358.4375 163.085938 C 360.019531 160.855469 358.28125 161.011719 357.488281 161.011719 Z M 346.402344 171.527344 C 342.449219 171.527344 295.738281 168.023438 285.921875 165.953125 C 282.59375 165.632812 280.375 165.472656 280.058594 166.90625 C 279.742188 168.339844 279.902344 168.976562 282.753906 169.773438 C 285.601562 170.570312 320.28125 177.101562 337.855469 177.421875 C 343.710938 177.261719 350.523438 171.6875 346.402344 171.527344 Z M 334.527344 181.40625 C 328.984375 180.769531 292.09375 174.875 282.117188 172.164062 C 278.160156 171.210938 276.257812 171.6875 275.78125 172.800781 C 275.308594 173.917969 275.308594 175.828125 278.160156 176.785156 C 281.007812 177.738281 313.628906 185.386719 319.644531 185.707031 C 325.660156 186.023438 332.785156 184.589844 334.6875 183.15625 C 336.589844 181.722656 334.527344 181.40625 334.527344 181.40625 Z M 319.644531 189.6875 C 315.6875 188.890625 283.539062 181.5625 274.355469 178.058594 C 271.667969 177.265625 270.714844 178.058594 270.242188 179.015625 C 269.769531 179.96875 269.609375 181.40625 271.347656 182.199219 C 273.089844 183 297.789062 193.351562 309.507812 193.988281 C 313.785156 193.988281 317.238281 192.40625 319.167969 191.441406 C 320.433594 190.804688 319.960938 190.804688 319.644531 189.6875 Z M 267.230469 183 C 270.875 184.75 293.042969 194.148438 301.59375 196.058594 C 303.96875 196.695312 305.234375 198.449219 302.382812 199.40625 C 299.535156 200.359375 292.882812 199.886719 288.921875 198.769531 C 284.964844 197.652344 268.894531 192.398438 262.714844 186.34375 C 263.984375 185.707031 266.914062 183.632812 267.230469 183 Z M 260.582031 188.414062 C 262.957031 190.007812 278.472656 198.128906 285.601562 200.359375 C 287.972656 201.15625 286.867188 203.390625 284.492188 203.710938 C 282.121094 204.027344 276.101562 204.027344 268.976562 199.722656 C 264.699219 197.175781 258.363281 192.558594 256.464844 190.804688 C 257.414062 190.324219 259.472656 189.050781 260.582031 188.414062 Z M 253.296875 192.714844 C 257.351562 195.507812 266.699219 201.71875 268.183594 202.753906 C 270.242188 204.1875 271.347656 206.574219 267.230469 206.257812 C 263.117188 205.9375 255.511719 202.910156 249.496094 194.148438 C 250.292969 193.910156 252.347656 193.191406 253.296875 192.714844 Z M 246.175781 195.105469 C 248.707031 197.652344 252.507812 201.792969 255.199219 204.027344 C 256.9375 205.777344 255.671875 208.964844 252.664062 207.53125 C 249.65625 206.097656 244.195312 201.15625 242.765625 196.21875 C 243.875 195.902344 245.140625 195.582031 246.175781 195.105469 Z M 239.839844 199.085938 C 241.902344 201.632812 243.953125 203.707031 245.222656 205.300781 C 246.488281 206.890625 244.90625 208.484375 243.640625 208.964844 C 242.375 209.441406 239.996094 210.714844 237.148438 204.980469 Z M 239.839844 199.085938 " fill-opacity="1" fill-rule="evenodd"/><path fill="#ffffff" d="M 301.277344 147.953125 C 297.15625 147.953125 283.226562 148.90625 278.160156 148.90625 C 273.089844 148.90625 261.371094 148.589844 257.097656 148.269531 C 252.820312 147.953125 241.582031 147.792969 237.148438 148.269531 C 232.714844 148.746094 222.898438 149.382812 221.152344 154.003906 C 219.414062 158.625 223.214844 161.175781 225.589844 162.925781 C 227.964844 164.679688 235.25 168.980469 235.5625 180.132812 C 237.464844 179.335938 240.15625 178.859375 238.257812 174.875 C 237.148438 172.644531 231.765625 165.316406 233.03125 161.972656 C 234.296875 158.625 238.414062 155.921875 247.761719 155.601562 C 257.101562 155.28125 270.242188 155.601562 274.835938 154.804688 C 279.425781 154.007812 297.160156 149.546875 300.804688 149.066406 C 302.382812 148.90625 302.382812 148.109375 301.277344 147.953125 Z M 301.277344 147.953125 " fill-opacity="1" fill-rule="evenodd"/><path fill="#ffffff" d="M 263.910156 156.871094 C 260.582031 156.871094 248.390625 156.554688 244.90625 157.191406 C 241.421875 157.828125 237.078125 158.835938 235.246094 161.96875 C 233.664062 164.675781 236.355469 168.976562 237.621094 170.730469 C 238.886719 172.484375 242.527344 175.988281 243.953125 177.261719 C 245.222656 178.21875 247.597656 176.625 245.539062 174.234375 C 248.230469 175.828125 251.558594 175.511719 249.972656 171.84375 C 252.347656 173.757812 256.304688 173.917969 253.929688 168.976562 C 255.511719 170.25 259.949219 170.09375 257.097656 166.269531 C 259.472656 167.066406 262.164062 165.632812 260.421875 163.242188 C 263.429688 163.71875 265.175781 161.488281 262.003906 159.738281 C 265.015625 160.535156 265.808594 157.03125 263.910156 156.871094 Z M 277.582031 155.808594 C 281.738281 155.808594 281.824219 160.324219 277.082031 160.074219 C 273.347656 159.875 268.855469 158.984375 268.9375 157.480469 C 269.019531 155.976562 274.507812 155.890625 277.582031 155.808594 Z M 277 160.679688 C 279.328125 161.097656 279.410156 162.183594 279.078125 163.023438 C 278.746094 163.859375 277.5 165.28125 273.429688 164.695312 C 269.351562 164.109375 267.105469 162.4375 267.105469 161.011719 C 267.105469 159.589844 274.507812 160.515625 277 160.679688 Z M 273.011719 165.699219 C 274.589844 165.949219 276.058594 167.121094 275.589844 168.542969 C 275.003906 170.300781 271.433594 170.800781 267.441406 168.792969 C 263.449219 166.785156 263.699219 166.285156 264.113281 165.195312 C 264.53125 164.109375 268.6875 164.945312 273.011719 165.699219 Z M 265.527344 168.292969 C 267.4375 168.960938 269.519531 169.964844 271.097656 170.96875 C 272.675781 171.972656 273.921875 175.566406 267.855469 173.976562 C 261.789062 172.386719 261.453125 170.296875 262.285156 168.875 C 263.117188 167.453125 265.03125 168.207031 265.527344 168.292969 Z M 267.417969 175.25 C 269.496094 176.503906 268.5 181.355469 263.929688 179.179688 C 259.351562 177.003906 256.191406 174.660156 256.859375 173.074219 C 257.523438 171.484375 262.761719 172.738281 267.417969 175.25 Z M 255.371094 176.421875 C 257.53125 177.425781 264.597656 179.765625 262.273438 182.777344 C 261.105469 184.28125 258.863281 183.027344 257.949219 182.441406 C 257.035156 181.859375 252.042969 178.429688 253.292969 176.589844 C 253.839844 175.78125 254.871094 176.167969 255.371094 176.421875 Z M 255.855469 182.039062 C 260.425781 184.96875 255.269531 187.476562 252.363281 184.96875 C 250.785156 183.605469 247.554688 181.152344 249.035156 179.363281 C 250.285156 177.859375 254.4375 181.285156 255.855469 182.039062 Z M 248.605469 183.226562 C 250.019531 184.816406 253.332031 187.210938 250.765625 188.996094 C 248.605469 190.5 247.277344 188.914062 246.277344 187.824219 C 245.277344 186.738281 241.457031 182.890625 242.871094 181.300781 C 244.28125 179.714844 247.355469 182.472656 248.605469 183.226562 Z M 238.933594 183.839844 C 240.429688 182.667969 243.421875 185.84375 244.503906 187.769531 C 245.585938 189.695312 244.75 190.78125 243.671875 191.28125 C 242.59375 191.78125 240.675781 190.695312 240.265625 189.609375 C 239.847656 188.523438 237.4375 185.34375 238.933594 183.839844 Z M 238.933594 183.839844 " fill-opacity="1" fill-rule="evenodd"/><path stroke-linecap="butt" transform="matrix(1.941574, 0, 0, 1.941574, 4.735491, 9.470976)" fill="none" stroke-linejoin="miter" d="M 115.055895 73.127352 C 113.911125 73.702755 112.607414 74.52361 112.526938 75.342453 C 112.44445 76.163307 112.689902 76.984162 114.0761 77.969992 " stroke="#000000" stroke-width="1" stroke-opacity="1" stroke-miterlimit="2.613"/><path stroke-linecap="butt" transform="matrix(1.941574, 0, 0, 1.941574, 4.735491, 9.470976)" fill-opacity="1" fill="#ffffff" fill-rule="evenodd" stroke-linejoin="miter" d="M 95.747702 125.362281 C 94.502337 125.392459 93.514494 124.537402 93.651304 122.543611 L 94.274992 114.53223 C 94.299135 113.824041 95.359406 113.331126 95.808059 113.331126 C 96.256713 113.331126 97.316983 113.824041 97.343138 114.53223 L 97.966827 122.543611 C 98.099612 124.537402 97.113781 125.328079 95.747702 125.362281 Z M 95.747702 125.362281 " stroke="#000000" stroke-width="0.351" stroke-opacity="1" stroke-miterlimit="2.613"/><path stroke-linecap="butt" transform="matrix(1.941574, 0, 0, 1.941574, 4.735491, 9.470976)" fill-opacity="1" fill="#ffffff" fill-rule="evenodd" stroke-linejoin="miter" d="M 95.866404 125.362281 C 97.11177 125.392459 98.099612 124.537402 97.964815 122.543611 L 97.341126 114.53223 C 97.316983 113.824041 96.256713 113.331126 95.806047 113.331126 C 95.357394 113.331126 94.297123 113.824041 94.27298 114.53223 L 93.649292 122.543611 C 93.514494 124.537402 94.500325 125.328079 95.866404 125.362281 Z M 95.866404 125.362281 " stroke="#000000" stroke-width="0.351" stroke-opacity="1" stroke-miterlimit="2.613"/><path stroke-linecap="butt" transform="matrix(1.941574, 0, 0, 1.941574, 4.735491, 9.470976)" fill-opacity="1" fill="#ffffff" fill-rule="evenodd" stroke-linejoin="miter" d="M 100.576259 125.179198 C 101.811565 125.024282 102.66461 124.032416 102.234064 122.07685 L 100.43945 114.250564 C 100.310689 113.552435 99.188049 113.222483 98.74342 113.290888 C 98.300802 113.357281 97.325031 114.001088 97.405507 114.707265 L 97.968838 122.720658 C 98.127778 124.712438 99.22024 125.35021 100.576259 125.179198 Z M 100.576259 125.179198 " stroke="#000000" stroke-width="0.351" stroke-opacity="1" stroke-miterlimit="2.613"/><path stroke-linecap="butt" transform="matrix(1.941574, 0, 0, 1.941574, 4.735491, 9.470976)" fill-opacity="1" fill="#ffffff" fill-rule="evenodd" stroke-linejoin="miter" d="M 105.320317 124.291951 C 106.513373 123.931821 107.187359 122.809181 106.442956 120.954211 L 103.382858 113.534328 C 103.139418 112.868389 101.980565 112.73158 101.554042 112.870401 C 101.125508 113.011234 100.270451 113.809958 100.463593 114.491992 L 102.342706 122.300171 C 102.827574 124.239641 104.010571 124.686283 105.320317 124.291951 Z M 105.320317 124.291951 " stroke="#000000" stroke-width="0.351" stroke-opacity="1" stroke-miterlimit="2.613"/><path stroke-linecap="butt" transform="matrix(1.941574, 0, 0, 1.941574, 4.735491, 9.470976)" fill-opacity="1" fill="#ffffff" fill-rule="evenodd" stroke-linejoin="miter" d="M 109.820934 122.94599 C 110.951622 122.424909 111.464656 121.215758 110.47279 119.483513 L 106.412778 112.566604 C 106.080815 111.940904 104.913913 111.965047 104.509522 112.166237 C 104.107142 112.363403 103.370787 113.274793 103.656476 113.922624 L 106.595861 121.392805 C 107.346299 123.243752 108.577581 123.519382 109.820934 122.94599 Z M 91.037847 125.179198 C 89.802541 125.024282 88.951508 124.032416 89.380042 122.07685 L 91.174656 114.250564 C 91.30543 113.552435 92.424045 113.222483 92.868675 113.290888 C 93.311293 113.357281 94.287064 114.001088 94.2086 114.707265 L 93.645268 122.720658 C 93.486328 124.712438 92.395879 125.35021 91.037847 125.179198 Z M 91.037847 125.179198 " stroke="#000000" stroke-width="0.351" stroke-opacity="1" stroke-miterlimit="2.613"/><path stroke-linecap="butt" transform="matrix(1.941574, 0, 0, 1.941574, 4.735491, 9.470976)" fill-opacity="1" fill="#ffffff" fill-rule="evenodd" stroke-linejoin="miter" d="M 86.29379 124.291951 C 85.100734 123.931821 84.424736 122.809181 85.169138 120.954211 L 88.231248 113.534328 C 88.474688 112.868389 89.633542 112.73158 90.060064 112.870401 C 90.486587 113.011234 91.343656 113.809958 91.148501 114.491992 L 89.2714 122.300171 C 88.786532 124.239641 87.603536 124.686283 86.29379 124.291951 Z M 86.29379 124.291951 " stroke="#000000" stroke-width="0.351" stroke-opacity="1" stroke-miterlimit="2.613"/><path stroke-linecap="butt" transform="matrix(1.941574, 0, 0, 1.941574, 4.735491, 9.470976)" fill-opacity="1" fill="#ffffff" fill-rule="evenodd" stroke-linejoin="miter" d="M 81.793172 122.94599 C 80.662485 122.424909 80.147439 121.215758 81.141317 119.483513 L 85.199317 112.566604 C 85.533292 111.940904 86.700193 111.965047 87.102573 112.166237 C 87.504953 112.363403 88.24332 113.274793 87.955618 113.922624 L 85.016234 121.392805 C 84.269819 123.243752 83.036525 123.519382 81.793172 122.94599 Z M 81.793172 122.94599 " stroke="#000000" stroke-width="0.351" stroke-opacity="1" stroke-miterlimit="2.613"/><path fill="#000000" d="M 190.75 231.789062 C 217.464844 231.789062 239.121094 215.652344 239.121094 195.742188 C 239.121094 175.835938 217.46875 159.695312 190.75 159.695312 C 164.039062 159.695312 142.382812 175.835938 142.382812 195.742188 C 142.382812 215.648438 164.039062 231.789062 190.75 231.789062 Z M 190.75 231.789062 " fill-opacity="1" fill-rule="evenodd"/><path fill="#ffffff" d="M 211.972656 182.519531 C 211.972656 177.261719 206.429688 169.296875 190.277344 169.296875 C 180.777344 169.296875 172.859375 171.6875 168.109375 176.148438 C 169.21875 177.101562 170.484375 178.535156 170.484375 180.128906 L 170.484375 209.28125 C 170.328125 211.035156 169.535156 212.46875 168.265625 214.058594 C 172.699219 217.566406 180.300781 220.914062 192.019531 220.59375 C 203.734375 220.277344 214.660156 216.449219 214.660156 205.617188 C 214.660156 201 210.386719 196.375 205.636719 194.785156 C 204.371094 194.464844 204.570312 193.207031 205.554688 192.710938 C 206.507812 192.238281 212.046875 187.933594 211.972656 182.519531 Z M 211.972656 182.519531 " fill-opacity="1" fill-rule="evenodd"/><path fill="#000000" d="M 190.910156 191.585938 C 194.992188 191.585938 198.300781 187.953125 198.300781 183.476562 C 198.300781 178.996094 194.992188 175.363281 190.910156 175.363281 C 186.828125 175.363281 183.519531 178.996094 183.519531 183.476562 C 183.519531 187.953125 186.828125 191.585938 190.910156 191.585938 Z M 190.910156 191.585938 " fill-opacity="1" fill-rule="evenodd"/><path stroke-linecap="butt" transform="matrix(1.941574, 0, 0, 1.941574, 4.735491, 9.470976)" fill-opacity="1" fill="#000000" fill-rule="evenodd" stroke-linejoin="miter" d="M 96.377426 105.351935 C 98.73336 105.351935 100.644664 103.378263 100.644664 100.943865 C 100.644664 98.509467 98.735372 96.533783 96.377426 96.533783 C 94.021493 96.533783 92.110189 98.509467 92.110189 100.943865 C 92.110189 103.378263 94.021493 105.351935 96.377426 105.351935 Z M 96.377426 105.351935 " stroke="#000000" stroke-width="0.351" stroke-opacity="1" stroke-miterlimit="2.613"/></svg>