<svg xmlns="http://www.w3.org/2000/svg" xmlns:xlink="http://www.w3.org/1999/xlink" width="512" zoomAndPan="magnify" viewBox="0 0 384 383.999986" height="512" preserveAspectRatio="xMidYMid meet" version="1.0"><defs><clipPath id="f0bb183b81"><path d="M 62.515625 62.515625 L 321.265625 62.515625 L 321.265625 321.265625 L 62.515625 321.265625 Z M 62.515625 62.515625 " clip-rule="nonzero"/></clipPath></defs><g clip-path="url(#f0bb183b81)"><path fill="#6a6d6d" d="M 62.644531 191.890625 C 62.644531 120.5 120.5 62.644531 191.890625 62.644531 C 263.28125 62.644531 321.136719 120.527344 321.136719 191.890625 C 321.136719 263.28125 263.253906 321.136719 191.890625 321.136719 C 120.5 321.136719 62.644531 263.28125 62.644531 191.890625 Z M 191.890625 312.726562 C 258.648438 312.726562 312.726562 258.621094 312.726562 191.890625 C 312.726562 125.160156 258.621094 71.054688 191.890625 71.054688 C 125.160156 71.054688 71.054688 125.160156 71.054688 191.890625 C 71.054688 258.621094 125.132812 312.726562 191.890625 312.726562 Z M 191.890625 312.726562 " fill-opacity="1" fill-rule="evenodd"/></g><path fill="#6a6d6d" d="M 191.890625 119.441406 L 191.890625 115.222656 C 234.222656 115.222656 268.53125 149.535156 268.53125 191.863281 L 264.339844 191.863281 C 264.339844 151.941406 231.839844 119.441406 191.890625 119.441406 Z M 119.441406 191.890625 C 119.441406 231.839844 151.941406 264.339844 191.890625 264.339844 L 191.890625 268.53125 C 149.558594 268.53125 115.25 234.222656 115.25 191.890625 C 115.25 191.890625 119.441406 191.890625 119.441406 191.890625 Z M 119.441406 191.890625 " fill-opacity="1" fill-rule="evenodd"/><path fill="#6a6d6d" d="M 254.535156 137.0625 C 256.292969 138.949219 258.828125 141.976562 260.253906 143.839844 L 286.410156 127.203125 C 284.808594 125.105469 283.152344 123.0625 281.46875 121.070312 L 264.882812 132.042969 L 263.746094 133.023438 L 264.597656 131.78125 L 271.921875 117.164062 L 266.746094 111.988281 L 252.128906 119.3125 L 250.886719 120.164062 L 251.867188 119.027344 L 262.839844 102.464844 C 260.820312 100.757812 258.777344 99.101562 256.679688 97.5 L 240.070312 123.632812 C 242.164062 125.261719 244.960938 127.617188 246.71875 129.246094 L 262.347656 121.121094 L 263.355469 120.398438 L 262.605469 121.40625 C 262.632812 121.382812 254.535156 137.0625 254.535156 137.0625 Z M 195.152344 103.914062 L 202.292969 87.898438 L 202.757812 86.476562 L 202.628906 87.949219 L 203.378906 109.347656 C 205.890625 109.582031 208.476562 109.945312 211.039062 110.359375 L 209.875 78.660156 C 206.328125 78.273438 202.757812 77.988281 199.1875 77.832031 L 192.148438 95.324219 L 191.890625 96.617188 L 191.632812 95.324219 L 184.59375 77.832031 C 181.023438 77.988281 177.453125 78.273438 173.90625 78.660156 L 172.742188 110.359375 C 175.277344 109.945312 177.839844 109.609375 180.402344 109.347656 L 181.152344 87.949219 L 181.023438 86.476562 L 181.488281 87.898438 L 188.628906 103.914062 C 188.628906 103.914062 195.152344 103.914062 195.152344 103.914062 Z M 195.152344 103.914062 " fill-opacity="1" fill-rule="nonzero"/><path fill="#6a6d6d" d="M 137.292969 129.167969 C 141.433594 124.824219 143.761719 119.777344 139.625 114.988281 C 137.371094 112.375 133.59375 111.808594 130.464844 113.101562 L 130.152344 113.230469 L 130.257812 112.972656 C 130.722656 111.730469 131.007812 107.769531 127.644531 105.054688 C 126.011719 103.761719 123.917969 103.191406 121.847656 103.449219 C 117.964844 103.839844 114.988281 106.503906 106.839844 115.558594 C 104.019531 118.742188 101.277344 122.027344 98.664062 125.417969 L 120.992188 146.609375 C 126.839844 140.140625 129.945312 136.878906 133.878906 132.765625 C 133.929688 132.714844 137.292969 129.167969 137.292969 129.167969 Z M 108.160156 123.996094 C 112.660156 118.484375 117.449219 113.488281 119.597656 111.523438 C 120.269531 110.902344 121.019531 110.28125 121.925781 110.023438 C 123.398438 109.632812 124.898438 110.667969 125.238281 112.167969 C 125.574219 113.671875 124.640625 115.121094 123.582031 116.308594 C 121.199219 119 112.480469 128.109375 112.480469 128.109375 C 112.480469 128.109375 108.160156 123.996094 108.160156 123.996094 Z M 128.1875 120.449219 C 125.417969 123.320312 116.90625 132.300781 116.90625 132.300781 L 121.433594 136.597656 L 132.6875 124.539062 C 133.542969 123.605469 134.601562 122.390625 134.886719 121.097656 C 135.121094 120.011719 134.679688 118.898438 133.75 118.300781 C 132.792969 117.65625 131.707031 117.757812 130.746094 118.25 C 129.972656 118.613281 129.273438 119.3125 128.1875 120.449219 Z M 128.1875 120.449219 " fill-opacity="1" fill-rule="evenodd"/><path fill="#0066b1" d="M 191.890625 115.25 L 191.890625 191.890625 L 115.25 191.890625 C 115.25 149.535156 149.535156 115.25 191.890625 115.25 Z M 268.53125 191.890625 C 268.53125 234.246094 234.246094 268.53125 191.890625 268.53125 L 191.890625 191.890625 Z M 268.53125 191.890625 " fill-opacity="1" fill-rule="nonzero"/></svg>