<svg xmlns="http://www.w3.org/2000/svg" xmlns:xlink="http://www.w3.org/1999/xlink" width="512" zoomAndPan="magnify" viewBox="0 0 384 383.999986" height="512" preserveAspectRatio="xMidYMid meet" version="1.0"><defs><clipPath id="5afd15b204"><path d="M 62.515625 158.269531 L 321.265625 158.269531 L 321.265625 207.769531 L 62.515625 207.769531 Z M 62.515625 158.269531 " clip-rule="nonzero"/></clipPath></defs><g clip-path="url(#5afd15b204)"><path fill="#e91b21" d="M 136.289062 165.585938 C 132.34375 159.675781 125.585938 158.515625 121.007812 158.414062 C 116.992188 158.328125 99.535156 158.300781 89.371094 158.300781 C 69.351562 158.285156 80.800781 158.300781 62.769531 158.300781 L 62.769531 167.804688 C 84.171875 167.804688 109.589844 167.761719 120.707031 167.917969 C 122.691406 167.949219 124.652344 168.148438 126.222656 169.523438 C 127.675781 170.8125 128.195312 172.828125 127.546875 174.574219 C 126.496094 177.410156 123.601562 178.109375 120.71875 178.152344 C 116.3125 178.226562 104.203125 178.253906 95.15625 178.253906 C 72.980469 178.296875 82.570312 178.28125 62.769531 178.28125 L 62.769531 187.757812 C 84.15625 187.757812 109.617188 187.714844 120.707031 187.875 C 124.160156 187.917969 127.820312 189.117188 127.820312 192.941406 C 127.820312 196.761719 124.160156 198.023438 120.707031 198.082031 C 109.644531 198.25 84.171875 198.210938 62.769531 198.210938 L 62.769531 207.699219 C 84.242188 207.699219 112.339844 207.769531 121.007812 207.570312 C 125.585938 207.46875 132.34375 206.3125 136.289062 200.398438 C 139.988281 194.84375 139.082031 187.617188 134.226562 182.992188 C 139.082031 178.355469 139.988281 171.140625 136.289062 165.585938 Z M 311.046875 164.011719 C 304.507812 159.359375 297.421875 158.6875 291.660156 158.558594 C 285.988281 158.429688 277.449219 158.371094 269.886719 158.34375 C 251.453125 158.269531 262.542969 158.300781 244.972656 158.300781 L 244.972656 167.832031 C 263.652344 167.832031 276.757812 167.675781 291.1875 168.089844 C 295.421875 168.207031 299.972656 168.648438 304.0625 171.484375 C 307.933594 174.160156 310.238281 178.425781 310.238281 183.019531 C 310.238281 187.617188 308.007812 191.894531 304.132812 194.558594 C 300.042969 197.378906 295.492188 197.824219 291.257812 197.9375 C 276.828125 198.335938 263.722656 198.179688 245.046875 198.179688 L 244.988281 207.699219 C 263.78125 207.699219 277.289062 207.769531 291.675781 207.441406 C 297.421875 207.3125 304.523438 206.65625 311.058594 201.988281 C 317.253906 197.566406 321.011719 190.621094 321.011719 182.992188 C 320.996094 175.363281 317.238281 168.421875 311.046875 164.011719 Z M 167.753906 179.628906 C 162.742188 179.527344 161.160156 177.910156 161.117188 172.945312 C 161.085938 168.363281 161.101562 162.9375 161.101562 158.285156 L 150.070312 158.285156 C 150.070312 162.980469 149.984375 172.515625 150.171875 177.109375 C 150.53125 186.054688 153.484375 188.832031 162.671875 189.148438 C 169.035156 189.363281 174.105469 189.289062 182.90625 189.277344 L 182.90625 179.699219 C 175.832031 179.714844 172.96875 179.730469 167.753906 179.628906 Z M 222.464844 173.128906 C 222.433594 177.953125 220.851562 179.542969 215.824219 179.628906 C 213.433594 179.671875 207.140625 179.699219 201.972656 179.714844 L 201.929688 179.714844 C 196.644531 179.714844 190.996094 179.699219 187.683594 179.699219 L 187.683594 207.699219 L 200.660156 207.699219 L 200.660156 189.277344 L 201.972656 189.277344 L 201.972656 189.289062 C 208.726562 189.289062 217.148438 189.261719 220.347656 189.160156 C 230.097656 188.863281 233.0625 186.128906 233.421875 177.109375 C 233.464844 175.90625 233.496094 174.375 233.523438 172.699219 L 233.523438 158.300781 L 222.492188 158.300781 C 222.480469 163.066406 222.492188 168.421875 222.464844 173.128906 Z M 222.464844 173.128906 " fill-opacity="1" fill-rule="nonzero"/></g></svg>