<svg xmlns="http://www.w3.org/2000/svg" xmlns:xlink="http://www.w3.org/1999/xlink" width="512" zoomAndPan="magnify" viewBox="0 0 384 383.999986" height="512" preserveAspectRatio="xMidYMid meet" version="1.0"><defs><clipPath id="20b6986251"><path d="M 63 143.503906 L 321 143.503906 L 321 240 L 63 240 Z M 63 143.503906 " clip-rule="nonzero"/></clipPath></defs><g clip-path="url(#20b6986251)"><path fill="#000000" d="M 119.558594 187.402344 L 97.40625 187.402344 L 95.792969 177.265625 L 190.621094 177.265625 L 190.621094 187.402344 L 187.851562 187.402344 L 187.851562 179.570312 L 118.636719 179.570312 Z M 95.332031 174.960938 L 190.621094 174.960938 L 190.621094 167.589844 L 94.175781 167.589844 Z M 154.859375 199.839844 L 190.621094 199.839844 L 190.621094 194.542969 L 154.859375 194.542969 Z M 93.023438 165.289062 L 115.636719 165.289062 L 111.480469 157.917969 L 187.851562 157.917969 L 187.851562 165.289062 L 190.390625 165.289062 L 190.390625 155.382812 L 86.101562 155.382812 Z M 229.382812 155.152344 L 193.390625 155.152344 L 193.390625 170.125 L 229.382812 170.125 Z M 102.484375 212.742188 C 103.175781 213.664062 104.097656 214.585938 107.789062 215.734375 C 109.636719 216.195312 111.480469 216.65625 114.25 217.117188 L 152.550781 217.117188 L 152.550781 211.820312 L 102.023438 211.820312 C 102.253906 212.050781 102.253906 212.28125 102.484375 212.742188 Z M 100.40625 204.679688 L 152.320312 204.679688 L 152.320312 189.707031 L 97.871094 189.707031 Z M 154.859375 225.410156 C 168.242188 227.945312 181.160156 230.480469 190.621094 231.859375 L 190.621094 206.980469 L 154.859375 206.980469 Z M 231.691406 187.402344 L 286.375 187.402344 L 288.910156 172.429688 L 231.691406 172.429688 Z M 231.691406 159.988281 L 231.691406 165.289062 L 290.527344 165.289062 L 294.21875 159.988281 Z M 320.519531 143.402344 L 303.214844 167.820312 C 301.371094 178.1875 296.292969 204.910156 295.832031 207.441406 C 294.21875 214.8125 293.527344 219.421875 278.757812 222.875 C 259.148438 227.484375 214.386719 236.46875 192.007812 239.921875 C 169.625 236.46875 124.863281 227.484375 105.253906 222.875 C 90.484375 219.421875 89.792969 214.8125 88.179688 207.441406 C 87.488281 204.910156 82.410156 178.1875 80.566406 167.820312 L 63.261719 143.402344 Z M 306.90625 148.011719 L 76.875 148.011719 L 90.484375 167.589844 C 93.945312 187.863281 96.023438 200.761719 96.945312 205.371094 C 98.5625 213.203125 98.792969 216.65625 106.867188 218.960938 C 123.019531 222.875 170.085938 232.550781 191.773438 235.777344 C 213.464844 232.550781 260.53125 222.875 276.683594 218.960938 C 284.757812 216.65625 285.21875 213.433594 286.605469 205.371094 C 287.527344 200.761719 289.605469 187.863281 293.066406 167.589844 Z M 193.390625 199.839844 L 195.929688 199.839844 L 195.929688 192.238281 L 263.992188 192.238281 C 263.992188 192.929688 263.300781 198 262.839844 199.839844 L 284.296875 199.839844 L 285.910156 189.707031 L 193.390625 189.707031 Z M 193.390625 209.515625 L 282.449219 209.515625 L 283.835938 202.144531 L 193.390625 202.144531 Z M 229.382812 177.265625 L 193.390625 177.265625 L 193.390625 182.5625 L 229.382812 182.5625 Z M 193.390625 211.820312 L 281.988281 211.820312 C 281.757812 212.050781 281.757812 212.511719 281.527344 212.742188 C 280.835938 213.664062 279.914062 214.8125 276.222656 215.503906 C 260.300781 219.421875 216.230469 228.175781 193.390625 231.859375 Z M 195.929688 228.867188 C 200.082031 228.175781 210.003906 226.332031 213.464844 225.640625 C 249.6875 218.730469 255.917969 217.578125 258.917969 214.125 L 195.929688 214.125 Z M 195.929688 228.867188 " fill-opacity="1" fill-rule="nonzero"/></g></svg>