<svg xmlns="http://www.w3.org/2000/svg" xmlns:xlink="http://www.w3.org/1999/xlink" width="512" zoomAndPan="magnify" viewBox="0 0 384 383.999986" height="512" preserveAspectRatio="xMidYMid meet" version="1.0"><defs><clipPath id="b6e7976aa1"><path d="M 62.515625 62.515625 L 321.265625 62.515625 L 321.265625 321.265625 L 62.515625 321.265625 Z M 62.515625 62.515625 " clip-rule="nonzero"/></clipPath></defs><g clip-path="url(#b6e7976aa1)"><path fill="#ffffff" d="M 62.515625 62.515625 L 321.265625 62.515625 L 321.265625 321.265625 L 62.515625 321.265625 Z M 62.515625 62.515625 " fill-opacity="1" fill-rule="evenodd"/></g><path fill="#000000" d="M 127.15625 217.636719 L 117.960938 217.636719 L 117.960938 205.339844 L 111.546875 205.339844 L 111.546875 236.078125 L 117.960938 236.078125 L 117.960938 222.328125 L 127.152344 222.328125 L 127.15625 236.078125 L 133.574219 236.078125 L 133.574219 205.339844 L 127.15625 205.339844 Z M 280.226562 205.339844 L 280.226562 210.03125 L 288.941406 210.03125 L 288.941406 236.078125 L 295.355469 236.078125 L 295.355469 210.03125 L 304.070312 210.03125 L 304.070312 205.339844 Z M 246.355469 205.339844 L 239.9375 205.339844 L 239.9375 236.078125 L 258.289062 236.078125 L 258.289062 231.382812 L 246.351562 231.382812 Z M 172.945312 230.964844 C 172.851562 231.285156 172.617188 231.371094 172.277344 231.371094 C 171.953125 231.371094 171.703125 231.246094 171.601562 230.949219 L 164.847656 205.339844 L 157.363281 205.339844 L 165.125 233.378906 C 165.5 235.226562 166.730469 236.082031 168.472656 236.082031 L 174.390625 236.082031 C 176.132812 236.082031 177.257812 235.191406 177.695312 233.425781 L 185.269531 205.339844 L 179.601562 205.339844 Z M 89.953125 210.140625 L 89.949219 231.273438 C 89.949219 234.695312 91.707031 236.082031 94.742188 236.082031 L 109.085938 236.078125 L 109.085938 231.375 L 98.710938 231.375 C 96.933594 231.375 96.363281 230.945312 96.363281 229.027344 L 96.371094 212.375 C 96.371094 210.527344 96.796875 210.03125 98.714844 210.03125 L 109.085938 210.03125 L 109.085938 205.339844 L 94.753906 205.339844 C 91.476562 205.339844 89.953125 207.03125 89.953125 210.140625 Z M 143.839844 229.027344 L 143.84375 222.328125 L 156.589844 222.328125 L 156.589844 217.636719 L 143.851562 217.636719 L 143.847656 212.375 C 143.847656 210.597656 144.242188 210.03125 146.195312 210.03125 L 156.726562 210.03125 L 156.726562 205.339844 L 142.230469 205.34375 C 138.914062 205.34375 137.433594 207 137.433594 210.140625 L 137.429688 231.273438 C 137.429688 234.519531 139.011719 236.082031 142.222656 236.082031 L 158.0625 236.078125 L 158.0625 231.375 L 146.191406 231.375 C 144.410156 231.375 143.839844 230.976562 143.839844 229.027344 Z M 203.988281 223.089844 C 206.957031 223.089844 208.78125 221.738281 208.78125 218.28125 L 208.777344 210.140625 C 208.777344 206.929688 207.261719 205.339844 203.980469 205.339844 L 186.101562 205.339844 L 186.101562 236.078125 L 192.515625 236.078125 L 192.515625 210.03125 L 200.011719 210.03125 C 202 210.03125 202.359375 210.597656 202.359375 212.375 L 202.367188 216.121094 C 202.367188 217.933594 201.867188 218.472656 200.019531 218.472656 L 196.515625 218.476562 C 195.152344 218.476562 194.386719 219.296875 194.386719 220.621094 C 194.386719 221.285156 194.726562 221.769531 194.992188 222.246094 L 203.089844 236.078125 L 211.03125 236.078125 L 202.550781 223.101562 Z M 231.253906 205.34375 L 217.121094 205.34375 C 213.738281 205.34375 212.328125 207.066406 212.328125 210.140625 L 212.320312 231.273438 C 212.320312 234.761719 214.179688 236.078125 217.113281 236.078125 L 231.257812 236.078125 C 234.332031 236.078125 236.054688 234.625 236.054688 231.273438 L 236.050781 210.140625 C 236.050781 207 234.570312 205.34375 231.253906 205.34375 Z M 227.292969 231.375 L 221.082031 231.375 C 219.234375 231.375 218.734375 230.875 218.734375 229.027344 L 218.734375 212.375 C 218.734375 210.769531 218.953125 210.03125 221.082031 210.03125 L 227.296875 210.03125 C 228.972656 210.03125 229.636719 210.320312 229.636719 212.375 L 229.644531 229.027344 C 229.644531 231.011719 229.039062 231.375 227.292969 231.375 Z M 265.945312 229.027344 L 265.949219 222.328125 L 278.699219 222.328125 L 278.699219 217.636719 L 265.957031 217.636719 L 265.957031 212.375 C 265.957031 210.597656 266.347656 210.03125 268.300781 210.03125 L 278.832031 210.03125 L 278.832031 205.339844 L 264.335938 205.34375 C 261.019531 205.34375 259.539062 207 259.539062 210.140625 L 259.535156 231.273438 C 259.535156 234.519531 261.117188 236.082031 264.328125 236.082031 L 280.167969 236.078125 L 280.167969 231.375 L 268.296875 231.375 C 266.515625 231.375 265.945312 230.976562 265.945312 229.027344 Z M 253.152344 149.515625 L 218.988281 149.519531 C 218.113281 149.519531 217.542969 149.257812 217.542969 148.058594 L 217.542969 142.992188 C 217.542969 141.53125 216.753906 140.757812 215.328125 140.757812 L 176.214844 140.757812 C 174.753906 140.757812 174 141.582031 174 142.980469 L 174 148.046875 C 174 149.117188 173.492188 149.503906 172.554688 149.503906 L 150.164062 149.511719 C 148.449219 149.511719 147.449219 150.328125 146.929688 151.402344 L 136.027344 172.714844 C 135.882812 172.996094 135.808594 173.296875 135.804688 173.617188 C 135.804688 174.460938 136.359375 175.550781 137.886719 175.550781 L 172.550781 175.546875 C 173.621094 175.546875 173.996094 176.03125 173.996094 177.003906 L 173.992188 182.074219 C 173.992188 183.597656 174.878906 184.292969 176.210938 184.292969 L 215.324219 184.292969 C 216.65625 184.292969 217.539062 183.648438 217.539062 182.085938 L 217.539062 177.019531 C 217.539062 175.980469 217.976562 175.558594 218.980469 175.558594 L 240.71875 175.554688 C 242.21875 175.554688 243.296875 175.160156 244.046875 173.761719 L 254.828125 152.703125 C 255.0625 152.25 255.226562 151.988281 255.226562 151.449219 C 255.230469 150.019531 254 149.515625 253.152344 149.515625 Z M 244.542969 158.003906 L 239.347656 168.167969 C 239.023438 168.757812 238.441406 168.78125 238.035156 168.78125 L 212.242188 168.78125 C 211.171875 168.78125 210.78125 169.269531 210.78125 170.238281 L 210.777344 176.085938 C 210.777344 177.058594 210.351562 177.523438 209.3125 177.523438 L 182.222656 177.523438 C 181.316406 177.523438 180.761719 177.207031 180.761719 176.070312 L 180.757812 170.226562 C 180.757812 169.15625 180.269531 168.773438 179.300781 168.773438 L 147.675781 168.773438 C 146.898438 168.773438 146.363281 168.285156 146.363281 167.605469 C 146.363281 167.410156 146.414062 167.222656 146.5 167.0625 L 151.695312 156.898438 C 151.894531 156.535156 152.21875 156.289062 153.003906 156.289062 L 179.300781 156.289062 C 180.207031 156.289062 180.769531 155.925781 180.769531 154.824219 L 180.769531 148.980469 C 180.769531 147.941406 181.222656 147.523438 182.226562 147.523438 L 209.320312 147.523438 C 210.292969 147.523438 210.777344 147.957031 210.777344 148.992188 L 210.773438 154.835938 C 210.773438 155.839844 211.242188 156.285156 212.246094 156.285156 L 243.367188 156.285156 C 244.355469 156.285156 244.679688 156.9375 244.679688 157.457031 C 244.679688 157.648438 244.632812 157.832031 244.542969 158.003906 Z M 244.542969 158.003906 " fill-opacity="1" fill-rule="evenodd"/><path fill="#000000" d="M 222.625 145.25 C 222.625 144.730469 222.203125 144.613281 221.765625 144.613281 L 220.722656 144.613281 L 220.722656 147.019531 L 221.058594 147.019531 L 221.058594 145.964844 L 221.527344 145.964844 L 222.214844 147.019531 L 222.589844 147.019531 L 221.875 145.929688 C 222.304688 145.917969 222.625 145.722656 222.625 145.25 Z M 221.6875 145.679688 L 221.058594 145.679688 L 221.058594 144.902344 L 221.703125 144.902344 C 221.953125 144.902344 222.289062 144.929688 222.289062 145.242188 C 222.285156 145.480469 222.175781 145.679688 221.6875 145.679688 Z M 221.6875 145.679688 " fill-opacity="1" fill-rule="evenodd"/><path fill="#000000" d="M 221.519531 143.667969 C 221.234375 143.667969 220.960938 143.722656 220.699219 143.828125 C 220.433594 143.9375 220.199219 144.09375 220 144.292969 C 219.796875 144.496094 219.640625 144.726562 219.53125 144.992188 C 219.421875 145.253906 219.367188 145.527344 219.367188 145.8125 C 219.367188 146.996094 220.316406 147.957031 221.519531 147.957031 C 222.707031 147.957031 223.664062 147.007812 223.664062 145.8125 C 223.664062 144.628906 222.707031 143.667969 221.519531 143.667969 Z M 221.519531 147.621094 C 221.285156 147.613281 221.058594 147.5625 220.84375 147.46875 C 220.628906 147.375 220.4375 147.242188 220.273438 147.074219 C 220.109375 146.902344 219.984375 146.710938 219.894531 146.492188 C 219.804688 146.273438 219.761719 146.046875 219.761719 145.8125 C 219.761719 145.578125 219.804688 145.347656 219.894531 145.132812 C 219.984375 144.914062 220.109375 144.71875 220.273438 144.550781 C 220.4375 144.382812 220.628906 144.25 220.84375 144.15625 C 221.058594 144.0625 221.285156 144.011719 221.519531 144.003906 C 221.757812 144.003906 221.988281 144.050781 222.207031 144.140625 C 222.425781 144.234375 222.621094 144.363281 222.789062 144.53125 C 222.957031 144.699219 223.089844 144.894531 223.179688 145.113281 C 223.269531 145.332031 223.316406 145.5625 223.316406 145.800781 C 223.316406 146.808594 222.515625 147.621094 221.519531 147.621094 Z M 308.808594 207.050781 C 308.808594 206.535156 308.386719 206.417969 307.953125 206.417969 L 306.90625 206.417969 L 306.90625 208.816406 L 307.246094 208.816406 L 307.246094 207.765625 L 307.710938 207.765625 L 308.398438 208.816406 L 308.777344 208.816406 L 308.0625 207.730469 C 308.488281 207.722656 308.808594 207.523438 308.808594 207.050781 Z M 307.871094 207.476562 L 307.242188 207.476562 L 307.242188 206.703125 L 307.886719 206.703125 C 308.136719 206.703125 308.472656 206.730469 308.472656 207.046875 C 308.472656 207.28125 308.359375 207.476562 307.871094 207.476562 Z M 307.871094 207.476562 " fill-opacity="1" fill-rule="evenodd"/><path fill="#000000" d="M 307.703125 205.46875 C 306.511719 205.46875 305.550781 206.433594 305.550781 207.613281 C 305.550781 208.796875 306.503906 209.761719 307.703125 209.761719 C 308.894531 209.761719 309.851562 208.808594 309.851562 207.613281 C 309.851562 206.433594 308.894531 205.46875 307.703125 205.46875 Z M 307.703125 209.421875 C 307.464844 209.421875 307.234375 209.375 307.011719 209.285156 C 306.792969 209.191406 306.597656 209.0625 306.425781 208.894531 C 306.257812 208.722656 306.128906 208.527344 306.035156 208.304688 C 305.945312 208.085938 305.898438 207.855469 305.898438 207.613281 C 305.898438 207.375 305.945312 207.144531 306.035156 206.921875 C 306.128906 206.703125 306.257812 206.507812 306.425781 206.335938 C 306.597656 206.167969 306.792969 206.039062 307.011719 205.945312 C 307.234375 205.855469 307.464844 205.808594 307.703125 205.808594 C 307.941406 205.808594 308.171875 205.855469 308.390625 205.945312 C 308.613281 206.035156 308.804688 206.167969 308.972656 206.335938 C 309.140625 206.503906 309.273438 206.699219 309.363281 206.917969 C 309.453125 207.136719 309.5 207.367188 309.5 207.605469 C 309.5 208.609375 308.699219 209.421875 307.703125 209.421875 Z M 307.703125 209.421875 " fill-opacity="1" fill-rule="evenodd"/></svg>