<svg xmlns="http://www.w3.org/2000/svg" xmlns:xlink="http://www.w3.org/1999/xlink" width="512" zoomAndPan="magnify" viewBox="0 0 384 383.999986" height="512" preserveAspectRatio="xMidYMid meet" version="1.0"><defs><clipPath id="07b5870db1"><path d="M 62.515625 62.515625 L 321.265625 62.515625 L 321.265625 321.265625 L 62.515625 321.265625 Z M 62.515625 62.515625 " clip-rule="nonzero"/></clipPath></defs><g clip-path="url(#07b5870db1)"><path fill="#ffffff" d="M 62.515625 62.515625 L 321.265625 62.515625 L 321.265625 321.265625 L 62.515625 321.265625 Z M 62.515625 62.515625 " fill-opacity="1" fill-rule="evenodd"/></g><path fill="#ffffff" d="M 281.050781 198.335938 C 277.5 201.507812 269.101562 203 259.019531 202.816406 C 254.535156 206.363281 242.585938 207.109375 229.328125 207.109375 C 208.605469 207.109375 211.402344 219.433594 191.238281 219.433594 C 171.074219 219.433594 173.6875 207.109375 153.148438 207.109375 C 139.890625 207.109375 127.941406 206.363281 123.460938 202.816406 C 113.375 203 104.972656 201.507812 101.425781 198.335938 C 87.046875 197.960938 83.5 195.160156 82.195312 192.917969 C 90.96875 193.664062 133.167969 195.160156 162.296875 195.160156 C 172.566406 195.160156 177.234375 188.625 191.238281 188.625 C 205.242188 188.625 209.722656 195.160156 220.179688 195.160156 C 249.308594 195.160156 291.507812 193.664062 300.285156 192.917969 C 298.972656 195.15625 295.425781 197.957031 281.050781 198.335938 Z M 281.050781 198.335938 " fill-opacity="1" fill-rule="evenodd"/><path fill="#0c0e0f" d="M 191.238281 191.050781 C 180.21875 191.050781 171.070312 196.277344 171.070312 203 C 171.070312 209.535156 180.222656 215.511719 191.238281 215.511719 C 202.4375 215.511719 211.402344 209.535156 211.402344 203 C 211.402344 196.277344 202.4375 191.050781 191.238281 191.050781 Z M 191.238281 191.050781 " fill-opacity="1" fill-rule="evenodd"/><path fill="#9b895d" d="M 209.160156 203 C 209.160156 209.160156 201.132812 214.203125 191.238281 214.203125 C 181.339844 214.203125 173.5 209.160156 173.5 203 C 173.5 197.023438 181.339844 191.984375 191.238281 191.984375 C 201.132812 191.984375 209.160156 197.023438 209.160156 203 Z M 191.238281 193.105469 C 185.636719 193.105469 181.15625 197.585938 181.15625 203 C 181.15625 208.601562 185.636719 212.898438 191.238281 212.898438 C 197.023438 212.898438 201.507812 208.601562 201.507812 203 C 201.507812 197.585938 197.023438 193.105469 191.238281 193.105469 Z M 200.574219 194.972656 C 202.628906 197.023438 203.746094 200.015625 203.746094 203 C 203.746094 206.175781 202.628906 209.160156 200.574219 211.214844 C 204.683594 209.535156 207.480469 206.363281 207.480469 203 C 207.480469 199.640625 204.679688 196.652344 200.574219 194.972656 Z M 178.914062 203 C 178.914062 200.011719 180.035156 197.023438 182.085938 194.972656 C 177.976562 196.652344 175.179688 199.640625 175.179688 203 C 175.179688 206.359375 177.976562 209.535156 182.085938 211.214844 C 180.035156 209.160156 178.914062 206.175781 178.914062 203 Z M 178.914062 203 " fill-opacity="1" fill-rule="evenodd"/><path fill="#9b895d" d="M 205.328125 208.007812 C 204.957031 209.039062 204.472656 210.015625 203.875 210.9375 C 200.628906 212.957031 196.167969 214.203125 191.238281 214.203125 C 186.0625 214.203125 181.449219 212.828125 178.226562 210.632812 C 177.574219 209.574219 177.066406 208.453125 176.710938 207.261719 C 177.929688 208.894531 179.808594 210.285156 182.089844 211.21875 C 180.035156 209.164062 178.914062 206.175781 178.914062 203 C 178.914062 200.015625 180.035156 197.027344 182.089844 194.972656 C 179.875 195.878906 178.039062 197.167969 176.820312 198.683594 C 177.1875 197.546875 177.6875 196.476562 178.308594 195.480469 C 181.527344 193.34375 186.109375 191.984375 191.238281 191.984375 C 196.125 191.984375 200.558594 193.21875 203.792969 195.183594 C 204.367188 196.058594 204.847656 197 205.226562 197.992188 C 204.039062 196.777344 202.441406 195.738281 200.570312 194.972656 C 202.625 197.027344 203.746094 200.015625 203.746094 203 C 203.746094 206.175781 202.625 209.164062 200.570312 211.21875 C 202.496094 210.429688 204.132812 209.316406 205.328125 208.007812 Z M 191.238281 193.105469 C 185.636719 193.105469 181.15625 197.585938 181.15625 203 C 181.15625 208.601562 185.636719 212.898438 191.238281 212.898438 C 197.023438 212.898438 201.507812 208.601562 201.507812 203 C 201.507812 197.585938 197.023438 193.105469 191.238281 193.105469 Z M 191.238281 193.105469 " fill-opacity="1" fill-rule="evenodd"/><path fill="#d0b26f" d="M 181.941406 206.910156 C 181.417969 205.722656 181.15625 204.484375 181.15625 203.1875 L 181.15625 203.097656 C 181.164062 204.421875 181.425781 205.691406 181.941406 206.910156 Z M 181.941406 206.910156 " fill-opacity="1" fill-rule="evenodd"/><path fill="#325e9e" d="M 194.226562 209.722656 C 194.410156 209.722656 194.039062 209.722656 194.226562 209.722656 C 195.34375 209.160156 196.09375 209.351562 196.839844 208.414062 C 197.773438 207.667969 197.773438 206.734375 198.144531 205.800781 C 198.144531 205.613281 198.335938 205.429688 198.335938 205.242188 L 199.824219 205.988281 L 198.890625 211.589844 L 197.773438 210.84375 L 197.210938 213.269531 Z M 194.226562 209.722656 " fill-opacity="1" fill-rule="evenodd"/><path fill="#9b895d" d="M 183.769531 204.496094 C 183.582031 204.121094 183.394531 203.746094 183.394531 203.1875 C 183.394531 202.066406 184.140625 201.507812 184.515625 200.386719 C 184.886719 199.265625 184.886719 198.519531 185.820312 197.585938 C 186.566406 196.839844 187.316406 197.023438 188.433594 196.464844 C 189.554688 196.09375 190.117188 195.53125 191.234375 195.53125 C 192.355469 195.53125 192.914062 196.09375 194.035156 196.464844 C 195.15625 196.839844 195.90625 196.839844 196.652344 197.398438 Z M 191.421875 210.65625 C 190.117188 210.65625 189.742188 210.09375 188.433594 209.722656 C 187.5 209.351562 186.757812 209.351562 186.007812 208.601562 L 198.703125 201.507812 C 198.890625 201.878906 199.265625 202.4375 199.265625 203 C 199.265625 203.933594 198.703125 204.496094 198.332031 205.242188 C 198.332031 205.429688 198.144531 205.613281 198.144531 205.800781 C 197.957031 206.175781 197.957031 206.363281 197.957031 206.546875 C 197.769531 206.734375 197.769531 206.921875 197.769531 206.921875 C 197.582031 207.480469 197.398438 208.042969 196.835938 208.414062 C 196.277344 209.160156 195.527344 209.160156 194.59375 209.535156 C 194.410156 209.535156 194.222656 209.535156 194.222656 209.722656 L 194.035156 209.722656 C 193.105469 210.09375 192.542969 210.65625 191.421875 210.65625 Z M 191.421875 210.65625 " fill-opacity="1" fill-rule="evenodd"/><path fill="#eece79" d="M 196.09375 203 C 196.09375 205.613281 194.039062 207.855469 191.238281 207.855469 C 188.625 207.855469 186.382812 205.613281 186.382812 203 C 186.382812 200.570312 188.625 198.332031 191.238281 198.332031 C 194.039062 198.335938 196.09375 200.574219 196.09375 203 Z M 191.238281 197.398438 C 188.0625 197.398438 185.449219 199.824219 185.449219 203 C 185.449219 206.175781 188.0625 208.789062 191.238281 208.789062 C 194.597656 208.789062 197.210938 206.175781 197.210938 203 C 197.210938 199.824219 194.597656 197.398438 191.238281 197.398438 Z M 191.238281 197.398438 " fill-opacity="1" fill-rule="evenodd"/><path fill="#9b895d" d="M 190.675781 197.398438 C 190.863281 197.398438 191.238281 197.398438 191.238281 197.585938 L 191.796875 198.144531 C 191.609375 198.335938 191.421875 198.335938 191.238281 198.144531 Z M 189.742188 197.585938 L 190.300781 197.585938 L 191.050781 198.144531 C 190.863281 198.335938 190.492188 198.519531 190.492188 198.335938 Z M 188.808594 198.144531 C 188.808594 197.773438 189.183594 197.773438 189.371094 197.773438 L 190.117188 198.335938 C 189.929688 198.519531 189.746094 198.707031 189.558594 198.519531 Z M 187.875 198.519531 C 187.875 198.332031 188.25 198.144531 188.433594 198.332031 L 189.183594 198.519531 C 189.183594 198.890625 188.996094 198.890625 188.808594 198.890625 Z M 187.128906 199.265625 C 187.128906 198.890625 187.503906 198.890625 187.503906 198.890625 L 188.4375 199.078125 C 188.429688 199.179688 188.390625 199.265625 188.320312 199.335938 C 188.25 199.40625 188.164062 199.445312 188.0625 199.453125 Z M 186.570312 200.015625 C 186.570312 199.640625 186.757812 199.453125 186.941406 199.453125 L 187.875 199.453125 C 187.875 199.824219 187.6875 200.015625 187.503906 200.015625 Z M 186.007812 200.761719 C 186.007812 200.570312 186.195312 200.386719 186.382812 200.386719 L 187.128906 200.199219 C 187.316406 200.386719 187.128906 200.570312 186.941406 200.761719 Z M 185.636719 201.695312 C 185.636719 201.507812 185.820312 201.320312 185.820312 201.320312 L 186.757812 200.949219 C 186.941406 201.136719 186.757812 201.320312 186.566406 201.507812 Z M 185.449219 202.816406 C 185.449219 202.441406 185.449219 202.253906 185.636719 202.253906 L 186.382812 201.695312 C 186.570312 201.882812 186.570312 202.066406 186.382812 202.253906 Z M 185.636719 203.746094 C 185.449219 203.5625 185.449219 203.1875 185.636719 203.1875 L 186.195312 202.628906 C 186.382812 202.816406 186.382812 203 186.382812 203.1875 Z M 185.820312 204.679688 C 185.636719 204.496094 185.636719 204.308594 185.636719 204.121094 L 186.195312 203.371094 C 186.382812 203.5625 186.566406 203.746094 186.382812 203.933594 Z M 186.195312 205.613281 C 186.007812 205.429688 185.820312 205.242188 186.007812 205.054688 L 186.382812 204.308594 C 186.566406 204.308594 186.753906 204.679688 186.566406 204.679688 Z M 186.757812 206.363281 C 186.382812 206.363281 186.382812 205.988281 186.382812 205.988281 L 186.757812 205.054688 C 186.941406 205.054688 187.128906 205.429688 186.941406 205.613281 Z M 187.316406 207.109375 C 187.128906 207.109375 186.941406 206.921875 186.941406 206.734375 L 187.128906 205.800781 C 187.316406 205.800781 187.503906 205.992188 187.503906 206.175781 Z M 188.0625 207.855469 C 187.875 207.855469 187.691406 207.480469 187.691406 207.292969 L 187.691406 206.546875 C 187.875 206.546875 188.0625 206.546875 188.0625 206.734375 Z M 188.996094 208.230469 C 188.808594 208.230469 188.4375 208.042969 188.4375 207.855469 L 188.25 207.109375 C 188.625 206.921875 188.808594 207.109375 188.808594 207.296875 Z M 189.929688 208.601562 C 189.742188 208.601562 189.371094 208.414062 189.371094 208.414062 L 188.996094 207.480469 C 189.371094 207.292969 189.554688 207.480469 189.554688 207.671875 Z M 191.050781 208.601562 C 190.675781 208.789062 190.492188 208.789062 190.300781 208.601562 L 189.929688 207.855469 C 190.117188 207.667969 190.300781 207.667969 190.488281 207.855469 Z M 191.984375 208.601562 C 191.796875 208.789062 191.425781 208.789062 191.425781 208.601562 L 190.863281 208.042969 C 190.863281 207.855469 191.238281 207.855469 191.425781 207.855469 Z M 192.917969 208.414062 C 192.730469 208.605469 192.542969 208.605469 192.359375 208.605469 L 191.609375 208.042969 C 191.796875 207.855469 191.984375 207.671875 192.167969 207.855469 Z M 193.851562 208.042969 C 193.851562 208.230469 193.480469 208.414062 193.292969 208.230469 L 192.542969 207.855469 C 192.542969 207.671875 192.917969 207.480469 193.105469 207.671875 Z M 194.785156 207.671875 C 194.597656 207.855469 194.410156 207.855469 194.226562 207.855469 L 193.292969 207.480469 C 193.480469 207.296875 193.664062 207.109375 193.851562 207.296875 Z M 195.53125 206.921875 C 195.53125 207.109375 195.160156 207.292969 194.972656 207.292969 L 194.039062 207.109375 C 194.226562 206.921875 194.410156 206.734375 194.597656 206.734375 Z M 196.09375 206.175781 C 196.09375 206.363281 195.90625 206.546875 195.71875 206.546875 L 194.785156 206.546875 C 194.785156 206.363281 194.972656 206.175781 195.160156 206.175781 Z M 196.652344 205.242188 C 196.652344 205.613281 196.464844 205.800781 196.277344 205.800781 L 195.347656 205.988281 C 195.347656 205.800781 195.53125 205.613281 195.71875 205.429688 Z M 197.023438 204.308594 C 197.023438 204.679688 196.839844 204.867188 196.652344 204.867188 L 195.90625 205.242188 C 195.714844 205.054688 195.90625 204.867188 196.09375 204.679688 Z M 197.023438 203.375 C 197.210938 203.5625 197.023438 203.933594 197.023438 203.933594 L 196.09375 204.496094 C 196.09375 204.308594 196.09375 203.933594 196.277344 203.933594 Z M 197.023438 202.4375 C 197.210938 202.628906 197.210938 203 197.023438 203 L 196.277344 203.5625 C 196.089844 203.371094 196.089844 203.1875 196.277344 203 Z M 196.839844 201.507812 C 197.023438 201.695312 197.023438 201.878906 197.023438 202.066406 L 196.277344 202.816406 C 196.089844 202.628906 196.089844 202.441406 196.277344 202.253906 Z M 196.464844 200.574219 C 196.652344 200.761719 196.839844 200.949219 196.652344 201.132812 L 196.277344 201.882812 C 196.09375 201.882812 195.90625 201.507812 195.90625 201.320312 Z M 195.90625 199.640625 C 196.277344 199.824219 196.277344 200.011719 196.277344 200.199219 L 195.90625 201.132812 C 195.714844 200.945312 195.53125 200.761719 195.53125 200.570312 Z M 195.34375 199.078125 C 195.53125 199.078125 195.714844 199.265625 195.714844 199.453125 L 195.53125 200.386719 C 195.429688 200.378906 195.34375 200.339844 195.273438 200.269531 C 195.203125 200.199219 195.164062 200.113281 195.15625 200.011719 Z M 194.597656 198.335938 C 194.785156 198.335938 194.972656 198.707031 194.972656 198.707031 L 194.972656 199.640625 C 194.785156 199.640625 194.597656 199.453125 194.597656 199.265625 Z M 193.664062 197.957031 C 193.851562 197.957031 194.039062 198.144531 194.039062 198.144531 L 194.226562 199.078125 C 194.039062 199.078125 193.851562 199.078125 193.851562 198.890625 Z M 192.730469 197.585938 C 192.917969 197.585938 193.105469 197.585938 193.292969 197.773438 L 193.480469 198.707031 C 193.292969 198.707031 193.105469 198.707031 192.917969 198.519531 Z M 191.609375 197.398438 C 191.796875 197.398438 192.167969 197.398438 192.167969 197.585938 L 192.730469 198.335938 C 192.542969 198.519531 192.167969 198.519531 192.167969 198.335938 Z M 191.609375 197.398438 " fill-opacity="1" fill-rule="evenodd"/><path fill="#eece79" d="M 199.078125 205.613281 C 199.640625 204.683594 200.011719 204.121094 200.011719 203 C 200.011719 201.695312 199.453125 201.132812 198.890625 200.015625 C 198.332031 198.707031 198.332031 197.960938 197.398438 197.023438 C 196.464844 196.09375 195.53125 196.09375 194.410156 195.71875 C 193.105469 195.15625 192.542969 194.597656 191.234375 194.597656 C 189.929688 194.597656 189.367188 195.15625 188.246094 195.71875 C 186.941406 196.277344 186.007812 196.277344 185.074219 197.023438 C 184.140625 197.957031 184.140625 198.890625 183.765625 200.015625 C 183.207031 201.320312 182.644531 201.882812 182.644531 203.1875 C 182.644531 204.496094 183.207031 205.054688 183.765625 206.175781 C 184.324219 207.296875 184.324219 208.230469 185.074219 209.164062 C 186.191406 210.097656 187.125 209.910156 188.246094 210.472656 C 189.554688 210.84375 190.113281 211.589844 191.421875 211.589844 C 192.730469 211.589844 193.289062 210.84375 194.410156 210.472656 L 194.597656 210.472656 L 197.210938 213.644531 L 197.773438 211.21875 L 198.890625 211.777344 L 200.199219 205.988281 Z M 183.769531 204.496094 C 183.582031 204.121094 183.394531 203.746094 183.394531 203.1875 C 183.394531 202.066406 184.140625 201.507812 184.515625 200.386719 C 184.886719 199.265625 184.886719 198.519531 185.820312 197.585938 C 186.566406 196.839844 187.316406 197.023438 188.433594 196.464844 C 189.554688 196.09375 190.117188 195.53125 191.234375 195.53125 C 192.355469 195.53125 192.914062 196.09375 194.035156 196.464844 C 195.15625 196.839844 195.90625 196.839844 196.652344 197.398438 Z M 191.421875 210.65625 C 190.117188 210.65625 189.742188 210.09375 188.433594 209.722656 C 187.5 209.351562 186.757812 209.351562 186.007812 208.601562 L 198.703125 201.507812 C 198.890625 201.878906 199.265625 202.4375 199.265625 203 C 199.265625 203.933594 198.703125 204.492188 198.332031 205.242188 C 198.332031 205.429688 198.144531 205.613281 198.144531 205.800781 C 197.957031 206.175781 197.957031 206.363281 197.957031 206.546875 C 197.769531 206.734375 197.769531 206.921875 197.769531 206.921875 C 197.582031 207.480469 197.398438 208.042969 196.835938 208.414062 C 196.277344 209.160156 195.527344 209.160156 194.59375 209.535156 C 194.410156 209.535156 194.222656 209.535156 194.222656 209.722656 L 194.035156 209.722656 C 193.105469 210.09375 192.542969 210.65625 191.421875 210.65625 Z M 196.839844 212.335938 L 195.15625 210.09375 C 196.089844 209.90625 196.839844 209.722656 197.585938 208.976562 C 197.773438 208.789062 197.957031 208.601562 197.957031 208.414062 Z M 198.519531 210.84375 L 197.957031 210.46875 L 198.890625 207.109375 L 198.519531 206.921875 C 198.707031 206.734375 198.707031 206.363281 198.890625 206.175781 L 199.453125 206.363281 Z M 198.519531 210.84375 " fill-opacity="1" fill-rule="evenodd"/><path fill="#c82e37" d="M 191.238281 199.078125 C 189.183594 199.078125 187.503906 200.761719 187.316406 202.628906 L 192.917969 199.453125 C 192.386719 199.195312 191.828125 199.070312 191.238281 199.078125 Z M 189.554688 206.546875 C 190.117188 206.921875 190.675781 207.109375 191.238281 207.109375 C 191.75 207.113281 192.25 207.023438 192.730469 206.839844 C 193.210938 206.65625 193.640625 206.394531 194.023438 206.046875 C 194.402344 205.699219 194.707031 205.296875 194.9375 204.835938 C 195.164062 204.375 195.300781 203.886719 195.34375 203.375 Z M 189.554688 206.546875 " fill-opacity="1" fill-rule="evenodd"/><path fill="#325e9e" d="M 185.449219 208.230469 C 185.074219 207.480469 184.890625 206.734375 184.515625 205.800781 C 184.328125 205.613281 184.328125 205.429688 184.140625 205.242188 L 197.027344 197.957031 C 197.585938 198.707031 197.585938 199.265625 198.144531 200.386719 C 198.144531 200.574219 198.335938 200.761719 198.519531 200.949219 Z M 185.449219 208.230469 " fill-opacity="1" fill-rule="evenodd"/><path fill="#eece79" d="M 188.4375 201.695312 L 188.996094 200.386719 L 189.183594 200.949219 L 190.492188 199.453125 L 190.675781 199.824219 L 191.238281 199.265625 L 190.675781 200.386719 L 190.492188 200.015625 L 189.183594 201.320312 L 188.996094 201.132812 Z M 191.421875 206.921875 L 191.984375 205.613281 L 192.359375 205.988281 L 193.664062 204.679688 L 193.851562 205.054688 L 194.410156 204.496094 L 193.851562 205.613281 L 193.664062 205.242188 L 192.359375 206.546875 L 191.984375 206.175781 Z M 187.316406 203.746094 L 187.691406 203.5625 L 187.691406 204.867188 L 188.25 204.496094 L 188.25 203.1875 L 188.625 203 L 188.625 205.988281 L 188.25 206.175781 L 188.25 204.867188 L 187.691406 205.242188 L 187.691406 206.546875 L 187.316406 206.734375 Z M 189.371094 204.121094 L 189.371094 203 L 189.554688 202.8125 C 189.742188 202.8125 189.742188 202.8125 189.742188 203 L 189.742188 203.5625 C 189.742188 203.746094 189.742188 203.746094 189.554688 203.933594 Z M 189.929688 203.933594 C 190.117188 203.746094 190.117188 203.746094 190.117188 203.5625 L 190.117188 202.816406 C 190.117188 202.441406 189.929688 202.253906 189.554688 202.441406 L 188.996094 202.816406 L 188.996094 205.800781 L 189.371094 205.613281 L 189.371094 204.308594 L 189.554688 204.308594 L 189.929688 205.429688 L 190.300781 205.054688 Z M 190.675781 203.5625 L 190.117188 202.253906 L 190.492188 202.066406 L 190.863281 203 L 191.238281 201.507812 L 191.609375 201.320312 L 191.050781 203.375 L 191.050781 204.679688 L 190.675781 204.867188 Z M 192.167969 202.628906 C 191.984375 202.816406 191.796875 202.628906 191.796875 202.4375 L 191.796875 201.695312 C 191.796875 201.320312 191.796875 201.320312 192.167969 201.132812 L 192.542969 200.945312 C 192.730469 200.757812 192.917969 200.757812 192.917969 201.132812 L 192.917969 201.503906 L 192.542969 201.695312 L 192.542969 201.132812 L 192.167969 201.320312 L 192.167969 202.4375 L 192.542969 202.253906 C 192.730469 202.066406 192.917969 202.066406 192.917969 202.4375 L 192.917969 203.1875 C 192.917969 203.5625 192.917969 203.746094 192.542969 203.933594 L 192.167969 204.121094 C 191.984375 204.121094 191.796875 204.121094 191.796875 203.933594 L 191.796875 203.375 L 191.984375 203.1875 L 191.984375 203.746094 L 192.730469 203.5625 L 192.730469 202.4375 Z M 193.292969 200.386719 L 193.664062 200.199219 L 193.664062 203 L 194.226562 202.628906 L 194.226562 203 L 193.292969 203.5625 Z M 194.410156 199.824219 L 195.53125 199.265625 L 195.53125 199.453125 L 194.785156 199.824219 L 194.785156 200.949219 L 195.34375 200.574219 L 195.34375 200.949219 L 194.785156 201.132812 L 194.785156 202.253906 L 195.53125 201.878906 L 195.53125 202.253906 L 194.410156 202.816406 Z M 196.09375 200.199219 L 196.09375 199.265625 L 196.277344 199.078125 C 196.464844 198.890625 196.652344 199.078125 196.652344 199.078125 L 196.652344 199.824219 C 196.652344 200.015625 196.464844 200.015625 196.464844 200.015625 Z M 196.652344 200.199219 C 196.839844 200.011719 197.023438 200.011719 197.023438 199.640625 L 197.023438 198.890625 C 197.023438 198.703125 196.652344 198.519531 196.464844 198.703125 L 195.714844 199.078125 L 195.714844 202.066406 L 196.089844 201.878906 L 196.089844 200.570312 L 196.277344 200.382812 L 196.652344 201.503906 L 197.023438 201.316406 Z M 186.570312 205.242188 L 186.570312 204.496094 L 186.007812 204.867188 L 186.007812 207.109375 L 186.570312 206.734375 L 186.570312 206.175781 L 186.941406 205.988281 L 186.941406 206.546875 C 186.941406 206.921875 186.941406 207.109375 186.570312 207.109375 L 186.195312 207.292969 C 186.007812 207.480469 185.636719 207.480469 185.636719 207.109375 L 185.636719 205.054688 C 185.636719 204.679688 185.824219 204.496094 186.195312 204.308594 L 186.570312 204.117188 C 186.757812 204.117188 186.941406 204.117188 186.941406 204.492188 L 186.941406 205.054688 Z M 186.570312 205.242188 " fill-opacity="1" fill-rule="evenodd"/><path fill="#0c0e0f" d="M 300.09375 192.167969 C 291.503906 192.730469 249.679688 194.226562 220.179688 194.226562 C 215.511719 194.226562 211.964844 192.917969 208.230469 191.421875 C 203.933594 189.746094 198.890625 187.875 191.238281 187.875 C 183.582031 187.875 178.539062 189.742188 174.246094 191.421875 C 170.511719 192.917969 166.964844 194.226562 162.296875 194.226562 C 132.792969 194.226562 90.96875 192.730469 82.378906 192.167969 L 80.882812 191.984375 L 81.445312 193.292969 C 82.75 195.71875 86.113281 198.707031 101.050781 199.078125 C 105.90625 203.1875 116.921875 203.75 123.082031 203.5625 C 127.191406 206.550781 136.152344 207.855469 153.144531 207.855469 C 163.230469 207.855469 167.523438 210.84375 171.816406 214.019531 C 176.300781 217.003906 180.964844 220.179688 191.238281 220.179688 C 201.507812 220.179688 206.175781 217.003906 210.46875 214.019531 C 214.953125 210.84375 219.246094 207.855469 229.328125 207.855469 C 246.132812 207.855469 255.28125 206.546875 259.207031 203.5625 C 265.554688 203.75 276.570312 203.1875 281.425781 199.078125 C 296.363281 198.707031 299.722656 195.71875 300.84375 193.292969 L 301.589844 191.984375 Z M 281.050781 198.335938 C 277.5 201.507812 269.101562 203 259.019531 202.816406 C 254.535156 206.363281 242.585938 207.109375 229.328125 207.109375 C 208.605469 207.109375 211.402344 219.433594 191.238281 219.433594 C 171.074219 219.433594 173.6875 207.109375 153.148438 207.109375 C 139.890625 207.109375 127.941406 206.363281 123.460938 202.816406 C 113.375 203 104.972656 201.507812 101.425781 198.335938 C 87.046875 197.960938 83.5 195.160156 82.195312 192.917969 C 90.96875 193.664062 133.167969 195.160156 162.296875 195.160156 C 172.566406 195.160156 177.234375 188.625 191.238281 188.625 C 205.242188 188.625 209.722656 195.160156 220.179688 195.160156 C 249.308594 195.160156 291.507812 193.664062 300.285156 192.917969 C 298.972656 195.15625 295.425781 197.957031 281.050781 198.335938 Z M 281.050781 198.335938 " fill-opacity="1" fill-rule="evenodd"/><path fill="#0c0e0f" d="M 298.789062 193.105469 L 299.351562 192.917969 C 299.351562 192.917969 299.160156 193.289062 298.789062 193.664062 L 297.855469 193.664062 C 298.414062 193.480469 298.789062 193.105469 298.789062 193.105469 Z M 298.789062 193.105469 " fill-opacity="1" fill-rule="evenodd"/><path fill="#0c0e0f" d="M 297.855469 193.664062 C 293.183594 195.53125 277.5 197.398438 222.042969 197.398438 C 216.070312 197.398438 214.578125 196.652344 213.640625 196.652344 C 212.707031 196.652344 212.523438 197.398438 212.894531 198.144531 C 213.269531 198.703125 213.640625 199.636719 213.828125 200.199219 C 213.640625 198.890625 214.761719 199.265625 219.429688 199.265625 C 259.015625 199.265625 267.601562 198.519531 279.554688 197.210938 C 274.511719 200.570312 245.570312 200.761719 222.605469 200.761719 C 219.992188 200.949219 217.191406 200.949219 215.136719 200.949219 C 214.386719 200.949219 214.015625 201.132812 214.203125 201.878906 C 214.203125 202.4375 214.390625 203.5625 214.203125 204.308594 C 214.949219 203.375 214.761719 202.628906 219.429688 202.628906 C 242.957031 202.628906 253.414062 201.878906 257.710938 201.320312 C 253.976562 203.371094 248.1875 204.308594 221.859375 204.308594 C 210.65625 204.308594 209.347656 216.632812 191.238281 216.632812 C 173.125 216.632812 171.816406 204.308594 160.613281 204.308594 C 134.285156 204.308594 128.5 203.375 124.765625 201.320312 C 129.058594 201.878906 139.515625 202.628906 163.042969 202.628906 C 167.710938 202.628906 167.523438 203.375 168.269531 204.308594 C 168.082031 203.5625 168.269531 202.4375 168.269531 201.878906 C 168.457031 201.132812 168.082031 200.949219 167.335938 200.949219 C 165.28125 200.949219 162.480469 200.949219 159.867188 200.761719 C 136.902344 200.761719 107.960938 200.570312 102.917969 197.210938 C 114.871094 198.519531 123.457031 199.265625 163.042969 199.265625 C 167.710938 199.265625 168.832031 198.890625 168.644531 200.199219 C 168.832031 199.636719 169.203125 198.703125 169.578125 198.144531 C 169.953125 197.398438 169.765625 196.652344 168.832031 196.652344 C 167.898438 196.652344 166.40625 197.398438 160.429688 197.398438 C 104.785156 197.398438 89.289062 195.53125 84.621094 193.664062 L 83.6875 193.664062 C 85.929688 195.15625 89.847656 196.277344 101.984375 197.210938 C 104.972656 200.015625 112.628906 200.761719 123.644531 201.320312 C 127.191406 204.683594 136.714844 205.242188 157.253906 205.242188 C 172.753906 205.242188 172.378906 217.75 191.238281 217.75 C 210.097656 217.75 209.722656 205.242188 225.222656 205.242188 C 245.761719 205.242188 255.097656 204.683594 258.832031 201.320312 C 269.660156 200.761719 277.503906 200.015625 280.492188 197.210938 C 292.628906 196.277344 296.546875 195.160156 298.789062 193.664062 Z M 297.855469 193.664062 " fill-opacity="1" fill-rule="evenodd"/><path fill="#0c0e0f" d="M 83.6875 193.105469 L 83.125 192.917969 C 83.125 192.917969 83.3125 193.289062 83.6875 193.664062 L 84.617188 193.664062 C 84.058594 193.480469 83.6875 193.105469 83.6875 193.105469 Z M 229.886719 177.417969 L 252.484375 177.417969 L 252.484375 174.992188 L 236.796875 174.992188 L 236.796875 164.164062 L 229.886719 164.164062 Z M 99.371094 164.164062 L 99.371094 177.417969 L 106.277344 177.417969 L 106.277344 172.003906 L 118.414062 172.003906 L 118.414062 177.417969 L 125.324219 177.417969 L 125.324219 164.164062 L 118.414062 164.164062 L 118.414062 169.578125 L 106.277344 169.578125 L 106.277344 164.164062 Z M 186.007812 164.164062 L 179.472656 169.765625 L 172.9375 164.164062 L 164.910156 164.164062 L 174.617188 172.003906 L 174.617188 177.417969 L 181.527344 177.417969 L 181.527344 172.003906 C 181.714844 171.816406 190.675781 164.164062 190.675781 164.164062 Z M 260.136719 177.417969 L 283.105469 177.417969 L 283.105469 175.179688 L 267.046875 175.179688 L 267.046875 171.816406 L 282.542969 171.816406 L 282.542969 169.578125 L 267.046875 169.578125 L 267.046875 166.402344 L 282.917969 166.402344 L 282.917969 164.164062 L 260.136719 164.164062 Z M 196.464844 167.710938 C 196.464844 170.699219 200.015625 171.445312 205.050781 172.003906 C 210.09375 172.753906 212.523438 172.9375 212.523438 174.058594 C 212.523438 174.992188 211.027344 175.550781 206.734375 175.550781 C 201.695312 175.550781 197.398438 174.433594 196.839844 174.246094 C 196.839844 174.433594 196.277344 177.046875 196.277344 177.046875 C 196.839844 177.230469 200.949219 178.164062 206.921875 178.164062 C 213.640625 178.164062 219.992188 177.046875 219.992188 173.496094 C 219.992188 171.070312 217.378906 169.761719 209.90625 169.015625 C 206.921875 168.640625 203.746094 168.457031 203.746094 167.335938 C 203.746094 166.402344 204.496094 166.027344 208.976562 166.027344 C 213.269531 166.027344 217.003906 166.960938 217.5625 166.960938 L 218.125 164.535156 C 217.378906 164.347656 213.085938 163.601562 207.296875 163.601562 C 202.628906 163.601562 196.464844 164.164062 196.464844 167.710938 Z M 66.320312 170.886719 C 66.320312 175.179688 70.988281 178.167969 80.699219 178.167969 C 84.433594 178.167969 88.355469 177.605469 89.101562 177.417969 L 89.660156 174.621094 C 88.910156 174.804688 85.550781 175.179688 82.191406 175.179688 C 76.777344 175.179688 73.042969 173.871094 73.042969 170.886719 C 73.042969 167.710938 76.589844 166.402344 82.191406 166.402344 C 85.367188 166.402344 88.914062 166.777344 89.660156 166.960938 L 89.101562 164.164062 C 88.167969 163.976562 84.617188 163.601562 80.882812 163.601562 C 70.988281 163.601562 66.320312 166.402344 66.320312 170.886719 Z M 135.96875 177.417969 L 142.875 177.417969 L 142.875 166.589844 C 143.808594 166.402344 144.929688 166.402344 146.421875 166.402344 C 148.101562 166.402344 149.410156 166.402344 150.34375 166.589844 C 152.398438 166.777344 153.144531 167.523438 153.144531 168.457031 C 153.144531 169.203125 152.210938 170.136719 150.15625 170.324219 C 148.664062 170.511719 147.730469 170.699219 146.609375 170.699219 C 145.859375 170.699219 145.300781 170.699219 144.367188 170.511719 L 152.210938 177.417969 L 160.988281 177.417969 L 153.144531 172.003906 C 154.636719 171.816406 155.199219 171.816406 156.878906 171.257812 C 158.933594 170.699219 159.867188 169.578125 160.050781 168.457031 C 160.050781 166.777344 158.933594 165.46875 155.011719 164.535156 C 152.957031 164.164062 150.15625 163.976562 146.609375 163.976562 C 141.566406 163.976562 136.527344 164.164062 135.964844 164.164062 L 135.964844 177.417969 Z M 292.253906 177.417969 L 299.160156 177.417969 L 299.160156 166.589844 C 300.28125 166.402344 301.214844 166.402344 302.898438 166.402344 C 304.578125 166.402344 305.695312 166.402344 306.816406 166.589844 C 308.871094 166.777344 309.621094 167.523438 309.429688 168.457031 C 309.429688 169.203125 308.496094 170.136719 306.441406 170.324219 C 305.132812 170.511719 304.203125 170.699219 302.894531 170.699219 C 302.148438 170.699219 301.585938 170.699219 300.839844 170.511719 L 308.683594 177.417969 L 317.460938 177.417969 L 309.429688 172.003906 C 311.109375 171.816406 311.671875 171.816406 313.164062 171.257812 C 315.21875 170.699219 316.335938 169.578125 316.335938 168.457031 C 316.335938 166.777344 315.40625 165.46875 311.484375 164.535156 C 309.242188 164.164062 306.628906 163.976562 302.898438 163.976562 C 298.042969 163.976562 292.8125 164.164062 292.25 164.164062 L 292.25 177.417969 Z M 292.253906 177.417969 " fill-opacity="1" fill-rule="evenodd"/></svg>