<svg xmlns="http://www.w3.org/2000/svg" xmlns:xlink="http://www.w3.org/1999/xlink" width="512" zoomAndPan="magnify" viewBox="0 0 384 383.999986" height="512" preserveAspectRatio="xMidYMid meet" version="1.0"><defs><clipPath id="ab166f1ded"><path d="M 116 106.539062 L 268 106.539062 L 268 276 L 116 276 Z M 116 106.539062 " clip-rule="nonzero"/></clipPath><clipPath id="112f16eaa6"><path d="M 62.515625 251 L 321.265625 251 L 321.265625 277 L 62.515625 277 Z M 62.515625 251 " clip-rule="nonzero"/></clipPath></defs><g clip-path="url(#ab166f1ded)"><path fill="#000000" d="M 116.15625 106.539062 C 140.910156 115.160156 165.527344 124.179688 190.339844 132.625 C 191.214844 132.964844 192.085938 132.964844 192.960938 132.625 C 217.730469 124.136719 242.332031 115.195312 267.042969 106.539062 C 258.277344 120.53125 249.429688 134.472656 240.472656 148.339844 C 236.332031 146.558594 232.070312 145.074219 227.898438 143.367188 C 230.3125 139.105469 232.914062 134.945312 235.363281 130.703125 C 227.382812 134.722656 219.261719 138.460938 211.339844 142.597656 C 216.878906 144.710938 222.425781 146.78125 227.921875 149.011719 C 230.984375 150.265625 234.269531 152.675781 234.476562 156.273438 C 234.964844 160.269531 232.242188 163.535156 230.3125 166.734375 C 218.375 185.433594 206.503906 204.183594 194.511719 222.851562 C 194.578125 217.925781 194.015625 212.953125 194.59375 208.0625 C 199.3125 193.066406 203.972656 178.058594 208.269531 162.9375 C 209.113281 160.691406 206.605469 159.488281 204.992188 158.703125 C 200.4375 156.6875 196.175781 154.019531 191.515625 152.296875 C 186.789062 154.34375 182.25 156.820312 177.613281 159.066406 C 176.183594 159.730469 174.164062 161.039062 174.984375 162.914062 C 179.246094 178.039062 183.957031 193.042969 188.640625 208.046875 C 189.164062 212.945312 188.667969 217.917969 188.691406 222.851562 C 176.886719 204.347656 165.105469 185.824219 153.320312 167.316406 C 151.265625 163.90625 148.285156 160.425781 148.796875 156.175781 C 149.070312 152.601562 152.339844 150.230469 155.40625 148.988281 C 160.851562 146.765625 166.382812 144.734375 171.871094 142.589844 C 163.964844 138.46875 155.875 134.699219 147.90625 130.710938 C 150.347656 134.953125 152.945312 139.105469 155.355469 143.375 C 151.15625 145.050781 146.910156 146.601562 142.730469 148.316406 C 133.808594 134.433594 124.972656 120.480469 116.15625 106.539062 Z M 168.609375 275.832031 C 168.691406 267.660156 168.550781 259.496094 168.683594 251.324219 C 182.109375 251.414062 195.546875 251.296875 208.972656 251.371094 C 211.597656 251.28125 214.660156 252.597656 215.179688 255.433594 C 215.503906 258.210938 215.429688 261.027344 215.230469 263.804688 C 215.066406 266.871094 211.851562 268.730469 209.023438 268.53125 C 198.070312 268.554688 187.117188 268.511719 176.15625 268.539062 C 176.167969 270.992188 176.175781 273.4375 176.207031 275.890625 C 173.675781 275.957031 171.140625 275.925781 168.609375 275.832031 M 176.132812 256.867188 C 176.167969 258.773438 176.183594 260.679688 176.222656 262.59375 C 186.621094 262.496094 197.019531 262.6875 207.417969 262.503906 C 209.304688 261.410156 208.019531 258.78125 208.375 257.023438 C 197.640625 256.660156 186.878906 256.949219 176.132812 256.867188 Z M 176.132812 256.867188 " fill-opacity="1" fill-rule="nonzero"/></g><g clip-path="url(#112f16eaa6)"><path fill="#010101" d="M 63.417969 255.09375 C 64.492188 252.65625 67.285156 251.296875 69.875 251.355469 C 83.035156 251.324219 96.199219 251.371094 109.371094 251.339844 C 109.394531 253.59375 109.402344 255.855469 109.417969 258.109375 C 96.523438 258.203125 83.609375 257.996094 70.71875 258.210938 C 70.480469 258.402344 70.007812 258.789062 69.765625 258.988281 C 69.617188 262.230469 69.800781 265.488281 69.667969 268.738281 C 70.835938 269.027344 72.019531 269.324219 73.234375 269.277344 C 85.289062 269.242188 97.339844 269.292969 109.394531 269.242188 C 109.402344 271.421875 109.410156 273.601562 109.410156 275.78125 C 96.785156 276.148438 84.144531 275.832031 71.523438 275.964844 C 68.425781 276.089844 64.585938 275.492188 63.359375 272.175781 C 62.6875 269.242188 63.152344 266.199219 63.027344 263.226562 C 63.070312 260.523438 62.671875 257.738281 63.417969 255.09375 Z M 115.695312 269.882812 C 115.667969 263.699219 115.652344 257.515625 115.726562 251.339844 C 118.425781 251.347656 121.132812 251.332031 123.839844 251.378906 C 123.929688 257.308594 123.742188 263.242188 123.957031 269.167969 C 133.972656 269.367188 143.996094 269.25 154.015625 269.234375 C 154.429688 263.285156 154.113281 257.316406 154.203125 251.363281 C 156.9375 251.347656 159.667969 251.355469 162.398438 251.324219 C 162.457031 257.496094 162.472656 263.679688 162.417969 269.863281 C 162.449219 273.179688 159.3125 275.949219 156.074219 275.890625 C 146.671875 276.171875 137.257812 275.800781 127.847656 275.964844 C 125.132812 275.957031 122.367188 276.121094 119.710938 275.453125 C 117.457031 274.605469 115.570312 272.375 115.695312 269.882812 Z M 221.597656 251.339844 C 234.785156 251.371094 247.972656 251.339844 261.160156 251.347656 C 264.007812 251.289062 267.359375 252.773438 268.070312 255.78125 C 268.269531 258.542969 268.261719 261.328125 268.0625 264.085938 C 267.648438 266.410156 265.605469 267.625 263.734375 268.703125 C 265.519531 270.976562 267.109375 273.386719 268.714844 275.792969 C 265.453125 275.585938 260.503906 277.539062 258.683594 273.84375 C 257.589844 272.101562 256.554688 270.328125 255.496094 268.570312 C 246.777344 268.496094 238.0625 268.539062 229.34375 268.546875 C 229.363281 270.949219 229.371094 273.355469 229.394531 275.765625 C 226.789062 276 224.171875 276.007812 221.570312 275.832031 C 221.613281 267.667969 221.539062 259.503906 221.597656 251.339844 M 229.429688 256.59375 C 229.363281 258.582031 229.363281 260.582031 229.371094 262.570312 C 239.667969 262.496094 249.972656 262.710938 260.265625 262.472656 C 260.519531 262.289062 261.035156 261.914062 261.300781 261.726562 C 261.148438 260.050781 262.152344 257.523438 260.148438 256.695312 C 249.917969 256.476562 239.667969 256.683594 229.429688 256.59375 Z M 274.527344 257.429688 C 274.417969 253.691406 278.320312 251.089844 281.777344 251.347656 C 294.84375 251.339844 307.90625 251.371094 320.96875 251.332031 C 321.007812 259.496094 321.109375 267.667969 320.867188 275.832031 C 318.601562 275.933594 316.308594 276.148438 314.046875 275.867188 C 313.019531 273.71875 313.890625 270.917969 313.640625 268.539062 C 303.144531 268.53125 292.648438 268.539062 282.152344 268.53125 C 282.136719 270.984375 282.152344 273.445312 282.167969 275.90625 C 279.625 275.972656 277.09375 275.941406 274.5625 275.832031 C 274.636719 269.699219 274.402344 263.566406 274.527344 257.429688 M 282.183594 256.941406 C 282.152344 258.824219 282.160156 260.707031 282.191406 262.59375 C 292.65625 262.539062 303.128906 262.578125 313.601562 262.570312 C 313.617188 260.671875 313.625 258.78125 313.648438 256.882812 C 303.160156 256.882812 292.671875 256.777344 282.183594 256.941406 Z M 282.183594 256.941406 " fill-opacity="1" fill-rule="nonzero"/></g></svg>