<svg xmlns="http://www.w3.org/2000/svg" xmlns:xlink="http://www.w3.org/1999/xlink" width="512" zoomAndPan="magnify" viewBox="0 0 384 383.999986" height="512" preserveAspectRatio="xMidYMid meet" version="1.0"><defs><clipPath id="04cc2f5d37"><path d="M 64.617188 68.554688 L 319.617188 68.554688 L 319.617188 315.304688 L 64.617188 315.304688 Z M 64.617188 68.554688 " clip-rule="nonzero"/></clipPath></defs><g clip-path="url(#04cc2f5d37)"><path fill="#000000" d="M 98.78125 314.855469 L 78.183594 314.855469 C 74.871094 314.855469 71.503906 313.507812 68.976562 311.210938 C 66.285156 308.800781 64.824219 305.609375 64.824219 302.1875 C 64.824219 298.769531 66.285156 295.632812 68.976562 293.167969 C 71.503906 290.867188 74.871094 289.523438 78.183594 289.523438 L 98.78125 289.523438 L 98.78125 294.511719 L 78.464844 294.511719 C 74.027344 294.511719 70.550781 298.097656 70.550781 302.132812 C 70.550781 306.222656 73.972656 309.753906 78.464844 309.753906 L 98.78125 309.753906 Z M 154.34375 289.582031 L 120.050781 289.582031 L 120.050781 294.566406 L 134.476562 294.566406 L 134.476562 314.855469 L 139.917969 314.855469 L 139.917969 294.566406 L 154.34375 294.566406 Z M 107.984375 289.582031 L 113.429688 289.582031 L 113.429688 314.796875 L 107.984375 314.796875 Z M 226.746094 315.304688 L 215.6875 315.304688 C 208.617188 315.304688 202.332031 310.316406 202.332031 302.46875 C 202.332031 294.566406 208.785156 289.132812 216.136719 289.132812 L 226.238281 289.132812 C 233.59375 289.132812 240.046875 294.121094 240.046875 302.46875 C 240.101562 310.316406 233.871094 315.304688 226.746094 315.304688 Z M 216.191406 294.0625 C 211.589844 294.0625 208.054688 297.816406 208.054688 302.414062 C 208.054688 306.730469 211.367188 310.316406 215.6875 310.316406 L 226.746094 310.316406 C 231.066406 310.316406 234.378906 306.785156 234.378906 302.414062 C 234.378906 297.816406 230.84375 294.0625 226.238281 294.0625 Z M 259.691406 286.664062 L 251.832031 286.664062 C 250.765625 286.664062 249.925781 285.824219 249.925781 284.761719 C 249.925781 283.695312 250.765625 282.855469 251.832031 282.855469 L 259.691406 282.855469 C 260.757812 282.855469 261.597656 283.695312 261.597656 284.761719 C 261.542969 285.824219 260.699219 286.664062 259.691406 286.664062 Z M 273.945312 286.664062 L 266.089844 286.664062 C 265.023438 286.664062 264.179688 285.824219 264.179688 284.761719 C 264.179688 283.695312 265.023438 282.855469 266.089844 282.855469 L 273.945312 282.855469 C 275.011719 282.855469 275.855469 283.695312 275.855469 284.761719 C 275.855469 285.824219 274.957031 286.664062 273.945312 286.664062 Z M 278.265625 294.566406 L 278.265625 289.582031 L 247.511719 289.582031 L 247.511719 314.855469 L 278.265625 314.855469 L 278.265625 309.867188 L 252.957031 309.867188 L 252.957031 304.710938 L 275.066406 304.710938 L 275.066406 299.722656 L 252.957031 299.722656 L 252.957031 294.566406 Z M 182.238281 304.824219 L 187.121094 304.824219 C 191.328125 304.824219 195.425781 302.917969 195.425781 297.425781 C 195.425781 292.496094 191.328125 289.578125 187.121094 289.578125 L 160.855469 289.578125 L 160.855469 314.796875 L 166.296875 314.796875 L 166.296875 294.566406 L 186.839844 294.566406 C 188.523438 294.566406 189.703125 296.25 189.703125 297.648438 C 189.703125 299.050781 188.46875 300.730469 186.839844 300.730469 L 171.179688 300.730469 L 171.179688 302.46875 L 188.523438 314.742188 L 196.550781 314.742188 Z M 308.292969 289.578125 L 286.011719 289.578125 L 286.011719 314.796875 L 291.457031 314.796875 L 291.457031 294.566406 L 307.394531 294.566406 C 311.15625 294.566406 314.1875 297.59375 314.1875 301.347656 L 314.1875 314.855469 L 319.40625 314.855469 L 319.40625 300.730469 C 319.40625 294.566406 314.410156 289.578125 308.292969 289.578125 Z M 245.660156 96.347656 C 231.402344 78.417969 212.433594 68.554688 192.117188 68.554688 C 171.796875 68.554688 152.828125 78.417969 138.574219 96.347656 C 124.597656 114.003906 116.851562 137.429688 116.851562 162.253906 C 116.851562 187.082031 124.542969 210.503906 138.574219 228.160156 C 152.828125 246.09375 171.796875 255.957031 192.117188 255.957031 C 212.433594 255.957031 231.402344 246.09375 245.660156 228.160156 C 259.632812 210.503906 267.378906 187.082031 267.378906 162.253906 C 267.378906 137.429688 259.632812 114.003906 245.660156 96.347656 Z M 192.117188 76.960938 C 228.261719 76.960938 257.78125 113.835938 258.847656 159.675781 L 192.117188 109.855469 L 125.382812 159.675781 C 126.449219 113.835938 155.972656 76.960938 192.117188 76.960938 Z M 257.445312 180.132812 C 256.601562 185.289062 255.367188 190.273438 253.796875 195.09375 L 192.117188 149.085938 L 130.433594 195.09375 C 128.863281 190.332031 127.628906 185.289062 126.785156 180.132812 L 192.117188 131.375 Z M 192.117188 247.605469 C 169.554688 247.605469 149.574219 233.257812 137.507812 211.289062 L 192.117188 170.492188 L 246.726562 211.289062 C 234.660156 233.257812 214.679688 247.605469 192.117188 247.605469 Z M 192.117188 247.605469 " fill-opacity="1" fill-rule="nonzero"/></g></svg>