<svg xmlns="http://www.w3.org/2000/svg" xmlns:xlink="http://www.w3.org/1999/xlink" width="512" zoomAndPan="magnify" viewBox="0 0 384 383.999986" height="512" preserveAspectRatio="xMidYMid meet" version="1.0"><defs><clipPath id="59c45534ac"><path d="M 62.515625 121.320312 L 311 121.320312 L 311 262.320312 L 62.515625 262.320312 Z M 62.515625 121.320312 " clip-rule="nonzero"/></clipPath><clipPath id="c3df57092e"><path d="M 119 235 L 174 235 L 174 262.320312 L 119 262.320312 Z M 119 235 " clip-rule="nonzero"/></clipPath><clipPath id="610d500f53"><path d="M 179 235 L 231 235 L 231 262.320312 L 179 262.320312 Z M 179 235 " clip-rule="nonzero"/></clipPath><clipPath id="33e11e7d94"><path d="M 246 235 L 321.265625 235 L 321.265625 262.320312 L 246 262.320312 Z M 246 235 " clip-rule="nonzero"/></clipPath></defs><g clip-path="url(#59c45534ac)"><path fill="#000000" d="M 77.066406 121.320312 L 77.066406 143.050781 L 157.480469 143.050781 L 157.480469 164.960938 L 77.066406 164.960938 L 77.066406 186.6875 L 165.851562 186.6875 C 167.890625 186.6875 169.230469 186.121094 170.621094 184.726562 L 193.996094 161.988281 L 217.371094 184.726562 C 218.757812 186.121094 220.101562 186.6875 222.136719 186.6875 L 310.921875 186.6875 L 310.921875 164.960938 L 230.511719 164.960938 L 230.511719 143.050781 L 310.921875 143.050781 L 310.921875 121.320312 L 222.136719 121.320312 C 220.101562 121.320312 218.757812 121.886719 217.371094 123.28125 L 193.996094 146.019531 L 170.621094 123.28125 C 169.230469 121.886719 167.890625 121.320312 165.851562 121.320312 Z M 62.523438 235.480469 L 62.523438 244.457031 L 95.570312 244.671875 C 96.359375 244.671875 96.796875 244.851562 97.296875 245.351562 L 100.8125 248.390625 C 101.070312 248.648438 101.1875 248.8125 101.1875 249.074219 C 101.1875 249.339844 101.070312 249.507812 100.8125 249.761719 L 97.296875 252.800781 C 96.796875 253.300781 96.359375 253.484375 95.570312 253.484375 L 62.523438 253.695312 L 62.523438 262.671875 L 99.707031 262.671875 C 101.035156 262.671875 101.691406 262.457031 102.542969 261.605469 L 113.167969 250.621094 C 113.566406 250.222656 113.832031 249.597656 113.832031 249.078125 C 113.832031 248.554688 113.566406 247.929688 113.167969 247.53125 L 102.542969 236.546875 C 101.691406 235.695312 101.035156 235.480469 99.707031 235.480469 Z M 62.523438 235.480469 " fill-opacity="1" fill-rule="evenodd"/></g><g clip-path="url(#c3df57092e)"><path fill="#000000" d="M 146.414062 235.480469 C 145.828125 235.480469 145.5 235.597656 145.269531 235.824219 L 119.183594 262.019531 C 118.910156 262.292969 119.03125 262.671875 119.457031 262.671875 L 132.140625 262.671875 L 145.59375 248.71875 C 145.875 248.4375 146.082031 248.324219 146.414062 248.324219 C 146.746094 248.324219 146.957031 248.4375 147.234375 248.71875 L 160.6875 262.671875 L 173.371094 262.671875 C 173.796875 262.671875 173.921875 262.292969 173.648438 262.019531 L 147.558594 235.828125 C 147.332031 235.597656 147 235.480469 146.414062 235.480469 Z M 146.414062 235.480469 " fill-opacity="1" fill-rule="nonzero"/></g><g clip-path="url(#610d500f53)"><path fill="#000000" d="M 230.523438 235.480469 L 230.523438 244.457031 L 197.476562 244.671875 C 196.6875 244.671875 196.25 244.851562 195.75 245.351562 L 192.234375 248.390625 C 191.976562 248.648438 191.859375 248.8125 191.859375 249.074219 C 191.859375 249.339844 191.976562 249.507812 192.234375 249.761719 L 195.75 252.800781 C 196.25 253.300781 196.6875 253.484375 197.476562 253.484375 L 230.523438 253.695312 L 230.523438 262.671875 L 193.339844 262.671875 C 192.011719 262.671875 191.355469 262.457031 190.503906 261.605469 L 179.878906 250.621094 C 179.480469 250.222656 179.214844 249.597656 179.214844 249.074219 C 179.214844 248.554688 179.480469 247.929688 179.878906 247.53125 L 190.503906 236.546875 C 191.355469 235.695312 192.011719 235.480469 193.339844 235.480469 Z M 230.523438 235.480469 " fill-opacity="1" fill-rule="evenodd"/></g><g clip-path="url(#33e11e7d94)"><path fill="#000000" d="M 246.046875 235.480469 L 256.441406 235.480469 L 256.441406 262.671875 L 246.046875 262.671875 Z M 293.960938 235.480469 C 293.378906 235.480469 293.046875 235.597656 292.816406 235.824219 L 266.730469 262.019531 C 266.457031 262.292969 266.578125 262.671875 267.003906 262.671875 L 279.6875 262.671875 L 293.140625 248.71875 C 293.421875 248.4375 293.632812 248.324219 293.960938 248.324219 C 294.292969 248.324219 294.503906 248.4375 294.78125 248.71875 L 308.234375 262.671875 L 320.917969 262.671875 C 321.34375 262.671875 321.46875 262.292969 321.195312 262.019531 L 295.109375 235.828125 C 294.878906 235.597656 294.546875 235.480469 293.960938 235.480469 Z M 293.960938 235.480469 " fill-opacity="1" fill-rule="nonzero"/></g></svg>