<svg xmlns="http://www.w3.org/2000/svg" xmlns:xlink="http://www.w3.org/1999/xlink" width="512" zoomAndPan="magnify" viewBox="0 0 384 383.999986" height="512" preserveAspectRatio="xMidYMid meet" version="1.0"><defs><clipPath id="09a0033342"><path d="M 104 184 L 127 184 L 127 214.898438 L 104 214.898438 Z M 104 184 " clip-rule="nonzero"/></clipPath><clipPath id="3d91045613"><path d="M 101 175 L 122 175 L 122 214.898438 L 101 214.898438 Z M 101 175 " clip-rule="nonzero"/></clipPath><clipPath id="114043bdaa"><path d="M 81 169.148438 L 112 169.148438 L 112 214.898438 L 81 214.898438 Z M 81 169.148438 " clip-rule="nonzero"/></clipPath><clipPath id="62f18b81ed"><path d="M 72 175 L 93 175 L 93 214.898438 L 72 214.898438 Z M 72 175 " clip-rule="nonzero"/></clipPath><clipPath id="55e2f2cfc8"><path d="M 67 177 L 261 177 L 261 214.898438 L 67 214.898438 Z M 67 177 " clip-rule="nonzero"/></clipPath><clipPath id="6bf495882c"><path d="M 288 176 L 321.265625 176 L 321.265625 205 L 288 205 Z M 288 176 " clip-rule="nonzero"/></clipPath></defs><g clip-path="url(#09a0033342)"><path fill="#0c479c" d="M 104.222656 214.160156 C 102.875 198.519531 113.160156 185.847656 124.402344 184.359375 C 131.28125 198.304688 118.5 211.640625 104.222656 214.160156 Z M 104.222656 214.160156 " fill-opacity="1" fill-rule="evenodd"/></g><g clip-path="url(#3d91045613)"><path fill="#0c479c" d="M 116.289062 175.09375 C 117.984375 176.15625 120.671875 178.714844 121.597656 179.972656 C 107.226562 187.648438 102.808594 201.683594 103.179688 214.335938 C 102.558594 214.453125 101.871094 214.5 101.296875 214.609375 C 100.234375 196.363281 108.242188 183.230469 116.289062 175.09375 Z M 116.289062 175.09375 " fill-opacity="1" fill-rule="evenodd"/></g><g clip-path="url(#114043bdaa)"><path fill="#0c479c" d="M 105.046875 170.1875 C 107.105469 170.558594 110.164062 171.648438 111.859375 172.535156 C 103.832031 188.085938 99.832031 196.898438 100.40625 214.699219 L 98.558594 214.816406 C 98.710938 189.789062 101.007812 184.796875 105.046875 170.1875 Z M 100.222656 169.449219 C 98.15625 169.253906 95.804688 169.1875 93.363281 169.382812 C 95.554688 184.605469 95.804688 191.046875 96.214844 214.851562 C 96.730469 214.863281 97.105469 214.863281 97.734375 214.832031 C 97.640625 191.183594 98.15625 184.808594 100.222656 169.449219 Z M 88.753906 170.1875 C 86.695312 170.558594 83.640625 171.648438 81.949219 172.535156 C 89.96875 188.085938 93.976562 196.898438 93.394531 214.699219 L 95.25 214.816406 C 95.085938 189.789062 92.789062 184.796875 88.753906 170.1875 Z M 88.753906 170.1875 " fill-opacity="1" fill-rule="evenodd"/></g><g clip-path="url(#62f18b81ed)"><path fill="#0c479c" d="M 77.519531 175.09375 C 75.824219 176.15625 73.144531 178.714844 72.207031 179.972656 C 86.578125 187.648438 90.992188 201.683594 90.617188 214.335938 C 91.25 214.453125 91.949219 214.5 92.511719 214.609375 C 93.574219 196.363281 85.574219 183.230469 77.519531 175.09375 Z M 77.519531 175.09375 " fill-opacity="1" fill-rule="evenodd"/></g><g clip-path="url(#55e2f2cfc8)"><path fill="#0c479c" d="M 89.585938 214.160156 C 90.925781 198.519531 80.648438 185.847656 69.40625 184.359375 C 62.515625 198.304688 75.300781 211.640625 89.585938 214.160156 Z M 134.484375 177.902344 L 147.738281 177.902344 C 150.554688 177.902344 152.933594 178 154.425781 178.335938 C 156.519531 178.746094 158.300781 179.589844 159.792969 180.652344 C 161.285156 181.808594 162.460938 183.183594 163.207031 184.773438 C 163.953125 186.363281 164.410156 188.367188 164.410156 190.800781 C 164.410156 192.800781 163.953125 194.585938 163.207031 196.179688 C 162.316406 197.984375 161.140625 199.457031 159.503906 200.613281 C 158.15625 201.457031 156.519531 202.109375 154.425781 202.640625 C 152.792969 202.953125 150.722656 203.144531 148.027344 203.144531 L 134.484375 203.144531 Z M 143.121094 196.78125 L 147.136719 196.78125 C 149.785156 196.78125 151.851562 196.25 153.320312 195.117188 C 154.8125 193.984375 155.582031 192.417969 155.582031 190.4375 C 155.582031 188.484375 154.8125 186.917969 153.222656 185.785156 C 151.566406 184.652344 149.398438 184.050781 146.5625 184.050781 L 143.121094 184.050781 Z M 251.042969 202.324219 L 243.847656 202.324219 L 238.964844 192.175781 L 234.464844 202.300781 L 226.792969 202.300781 L 219.71875 184.796875 L 204.035156 184.796875 L 204.035156 188.027344 L 217.9375 188.027344 L 217.9375 193.550781 L 204.035156 193.550781 L 204.035156 196.632812 L 219.71875 196.632812 L 219.71875 202.351562 L 175.765625 202.351562 L 172.375 196.683594 L 169.871094 202.351562 L 160.296875 202.351562 L 171.554688 178.675781 L 184.761719 178.675781 L 195.613281 202.351562 L 195.613281 178.675781 L 225.566406 178.675781 L 231.507812 193.308594 L 235.621094 185.039062 L 232.710938 178.675781 L 245.4375 178.675781 L 242.332031 185.039062 L 246.445312 193.308594 L 252.511719 178.675781 L 260.808594 178.675781 Z M 177.929688 184.386719 L 172.566406 196.34375 L 183.875 196.34375 Z M 177.929688 184.386719 " fill-opacity="1" fill-rule="evenodd"/></g><path fill="#0c479c" d="M 272.886719 176.84375 C 281.789062 176.84375 289.054688 182.988281 289.054688 190.464844 C 289.054688 197.9375 281.789062 204.0625 272.886719 204.0625 C 263.984375 204.0625 256.742188 197.9375 256.742188 190.464844 C 256.742188 182.988281 263.984375 176.84375 272.886719 176.84375 Z M 265.789062 190.464844 C 265.789062 194.921875 268.988281 198.5625 272.886719 198.5625 C 276.785156 198.5625 279.984375 194.921875 279.984375 190.464844 C 279.984375 186.003906 276.785156 182.363281 272.886719 182.363281 C 268.988281 182.363281 265.789062 186.003906 265.789062 190.464844 Z M 265.789062 190.464844 " fill-opacity="1" fill-rule="evenodd"/><g clip-path="url(#6bf495882c)"><path fill="#0c479c" d="M 305.101562 176.84375 C 314 176.84375 321.265625 182.988281 321.265625 190.464844 C 321.265625 197.9375 314 204.0625 305.101562 204.0625 C 296.199219 204.0625 288.957031 197.9375 288.957031 190.464844 C 288.957031 182.988281 296.199219 176.84375 305.101562 176.84375 Z M 298.003906 190.464844 C 298.003906 194.921875 301.203125 198.5625 305.097656 198.5625 C 308.996094 198.5625 312.195312 194.921875 312.195312 190.464844 C 312.195312 186.003906 308.996094 182.363281 305.097656 182.363281 C 301.203125 182.363281 298.003906 186.003906 298.003906 190.464844 Z M 298.003906 190.464844 " fill-opacity="1" fill-rule="evenodd"/></g></svg>