<svg xmlns="http://www.w3.org/2000/svg" xmlns:xlink="http://www.w3.org/1999/xlink" width="512" zoomAndPan="magnify" viewBox="0 0 384 383.999986" height="512" preserveAspectRatio="xMidYMid meet" version="1.0"><defs><clipPath id="da6d2280a2"><path d="M 62.515625 62.515625 L 321.265625 62.515625 L 321.265625 321.265625 L 62.515625 321.265625 Z M 62.515625 62.515625 " clip-rule="nonzero"/></clipPath></defs><g clip-path="url(#da6d2280a2)"><path fill="#ffffff" d="M 62.515625 62.515625 L 321.265625 62.515625 L 321.265625 321.265625 L 62.515625 321.265625 Z M 62.515625 62.515625 " fill-opacity="1" fill-rule="evenodd"/></g><path fill="#000000" d="M 142.949219 159.136719 C 189.90625 159.136719 255.773438 163.40625 286.875 176.214844 C 289.925781 177.433594 292.0625 178.347656 292.0625 180.484375 C 292.0625 183.53125 285.65625 185.363281 279.863281 187.191406 C 256.691406 194.511719 215.523438 203.046875 154.839844 207.320312 L 99.039062 151.210938 C 93.546875 151.210938 88.976562 151.515625 85.621094 151.820312 L 143.558594 209.757812 L 127.699219 232.628906 C 221.316406 217.6875 263.703125 203.046875 282.609375 194.511719 C 286.574219 192.375 298.160156 187.496094 298.160156 180.484375 C 298.160156 176.214844 294.195312 173.773438 289.320312 171.640625 C 269.800781 163.40625 237.476562 157.917969 205.460938 155.171875 C 172.222656 151.816406 128.007812 150.902344 103.609375 151.207031 L 155.753906 203.351562 C 165.816406 202.742188 175.574219 201.828125 184.722656 200.914062 Z M 142.949219 159.136719 " fill-opacity="1" fill-rule="evenodd"/></svg>