<svg xmlns="http://www.w3.org/2000/svg" xmlns:xlink="http://www.w3.org/1999/xlink" width="512" zoomAndPan="magnify" viewBox="0 0 384 383.999986" height="512" preserveAspectRatio="xMidYMid meet" version="1.0"><path fill="#ed3729" d="M 284.46875 175.0625 L 255.238281 208.9375 L 269.472656 208.9375 L 298.703125 175.0625 Z M 284.46875 175.0625 " fill-opacity="1" fill-rule="nonzero"/><path fill="#ed3729" d="M 304.414062 175.0625 L 275.183594 208.9375 L 289.421875 208.9375 L 318.34375 175.410156 L 318.34375 175.0625 Z M 304.414062 175.0625 " fill-opacity="1" fill-rule="nonzero"/><path fill="#000000" d="M 66.910156 196.796875 C 66.652344 196.792969 66.433594 196.699219 66.25 196.515625 C 66.070312 196.328125 65.984375 196.109375 65.988281 195.851562 L 65.988281 184.210938 C 65.984375 183.953125 66.070312 183.730469 66.25 183.546875 C 66.433594 183.359375 66.652344 183.265625 66.910156 183.261719 L 91.644531 183.261719 C 94.75 183.21875 97.671875 183.921875 100.414062 185.375 C 102.667969 186.652344 103.925781 188.304688 103.925781 190.042969 C 103.925781 191.78125 102.644531 193.445312 100.414062 194.710938 C 97.65625 196.15625 94.722656 196.851562 91.605469 196.796875 Z M 75.4375 185.859375 C 75.300781 185.863281 75.171875 185.890625 75.046875 185.941406 C 74.921875 185.996094 74.8125 186.074219 74.71875 186.167969 C 74.625 186.265625 74.554688 186.378906 74.507812 186.503906 C 74.457031 186.628906 74.433594 186.761719 74.4375 186.894531 L 74.4375 193.175781 C 74.433594 193.457031 74.53125 193.699219 74.722656 193.898438 C 74.917969 194.101562 75.15625 194.207031 75.4375 194.214844 L 88.113281 194.214844 C 91.953125 194.214844 94.910156 192.359375 94.910156 190.042969 C 94.910156 187.726562 91.925781 185.847656 88.113281 185.847656 Z M 75.4375 185.859375 " fill-opacity="1" fill-rule="nonzero"/><path fill="#000000" d="M 156.855469 196.796875 C 156.59375 196.792969 156.375 196.699219 156.191406 196.515625 C 156.011719 196.332031 155.917969 196.109375 155.917969 195.851562 L 155.917969 184.210938 C 155.917969 183.949219 156.011719 183.730469 156.191406 183.546875 C 156.375 183.359375 156.59375 183.265625 156.855469 183.261719 L 181.578125 183.328125 C 184.679688 183.261719 187.609375 183.945312 190.359375 185.375 C 192.613281 186.652344 193.855469 188.304688 193.855469 190.042969 C 193.855469 191.78125 192.574219 193.445312 190.359375 194.710938 C 187.609375 196.140625 184.679688 196.824219 181.578125 196.757812 Z M 165.367188 185.859375 C 165.234375 185.863281 165.105469 185.890625 164.984375 185.945312 C 164.859375 186 164.753906 186.078125 164.660156 186.175781 C 164.566406 186.269531 164.496094 186.382812 164.449219 186.507812 C 164.402344 186.632812 164.378906 186.761719 164.382812 186.894531 L 164.382812 193.164062 C 164.378906 193.300781 164.398438 193.429688 164.445312 193.554688 C 164.492188 193.683594 164.5625 193.796875 164.65625 193.894531 C 164.75 193.992188 164.855469 194.070312 164.980469 194.125 C 165.105469 194.179688 165.234375 194.210938 165.367188 194.214844 L 178.042969 194.214844 C 181.886719 194.214844 184.855469 192.382812 184.855469 190.070312 C 184.855469 187.753906 181.859375 185.925781 178.042969 185.925781 Z M 165.367188 185.859375 " fill-opacity="1" fill-rule="nonzero"/><path fill="#000000" d="M 129.914062 197.207031 C 127.90625 197.207031 126.457031 197.207031 125.0625 197.117188 L 124.972656 197.117188 C 121.148438 197.085938 117.464844 196.34375 113.921875 194.890625 C 111.070312 193.613281 109.492188 191.886719 109.492188 190.09375 C 109.492188 186.410156 116.292969 183.316406 124.972656 183.058594 C 126.597656 183.058594 128.328125 182.96875 129.914062 182.96875 C 131.503906 182.96875 133.246094 182.96875 134.871094 183.058594 C 143.550781 183.316406 150.335938 186.410156 150.335938 190.09375 C 150.335938 191.886719 148.761719 193.585938 145.917969 194.890625 C 142.378906 196.339844 138.695312 197.082031 134.871094 197.117188 L 134.769531 197.117188 C 133.371094 197.117188 131.925781 197.207031 129.914062 197.207031 M 129.914062 185.539062 C 129.03125 185.539062 128.097656 185.539062 127.214844 185.539062 C 122.09375 185.695312 118.25 187.585938 118.25 190.03125 C 118.25 192.472656 122.003906 194.339844 127.214844 194.519531 C 128.019531 194.519531 128.777344 194.519531 129.878906 194.519531 C 130.976562 194.519531 131.746094 194.519531 132.539062 194.519531 C 137.660156 194.339844 141.503906 192.460938 141.503906 190.03125 C 141.503906 187.601562 137.75 185.695312 132.539062 185.539062 C 131.65625 185.539062 130.722656 185.539062 129.824219 185.539062 " fill-opacity="1" fill-rule="nonzero"/><path fill="#000000" d="M 213.535156 196.824219 L 213.136719 196.824219 C 203.90625 196.824219 199.054688 194.441406 199.054688 190.042969 C 199.054688 186.5 205.25 183.519531 213.136719 183.277344 L 237.671875 183.277344 C 237.816406 183.253906 237.945312 183.296875 238.054688 183.398438 C 238.160156 183.5 238.210938 183.625 238.195312 183.773438 L 238.195312 185.375 C 238.203125 185.519531 238.15625 185.640625 238.046875 185.742188 C 237.941406 185.839844 237.816406 185.878906 237.671875 185.859375 L 217.851562 185.859375 C 217.082031 185.859375 216.300781 185.859375 215.496094 185.925781 C 213.664062 185.925781 207.695312 186.550781 207.695312 190.054688 C 207.695312 192.539062 210.910156 194.035156 215.496094 194.226562 C 216.199219 194.226562 216.863281 194.226562 217.824219 194.226562 L 228.617188 194.226562 C 229.167969 194.226562 229.628906 194.097656 229.628906 193.496094 L 229.628906 192 C 229.628906 191.398438 229.167969 191.195312 228.617188 191.195312 L 217.773438 191.195312 C 217.644531 191.195312 217.535156 191.148438 217.445312 191.054688 C 217.359375 190.960938 217.316406 190.847656 217.324219 190.722656 L 217.324219 189.351562 C 217.324219 189.210938 217.375 189.09375 217.476562 188.996094 C 217.578125 188.898438 217.695312 188.851562 217.835938 188.851562 L 237.300781 188.851562 C 237.558594 188.851562 237.78125 188.945312 237.964844 189.125 C 238.148438 189.308594 238.242188 189.527344 238.246094 189.785156 L 238.246094 195.835938 C 238.242188 196.097656 238.148438 196.316406 237.964844 196.5 C 237.78125 196.679688 237.558594 196.769531 237.300781 196.769531 L 213.535156 196.769531 " fill-opacity="1" fill-rule="nonzero"/><path fill="#000000" d="M 245.492188 196.796875 C 245.238281 196.796875 245.019531 196.707031 244.839844 196.527344 C 244.660156 196.347656 244.570312 196.128906 244.570312 195.875 L 244.570312 184.183594 C 244.570312 183.929688 244.660156 183.714844 244.84375 183.539062 C 245.023438 183.359375 245.238281 183.273438 245.492188 183.277344 L 279.011719 183.277344 C 279.433594 183.277344 279.539062 183.722656 279.539062 183.8125 L 279.539062 185.308594 C 279.539062 185.457031 279.488281 185.582031 279.386719 185.683594 C 279.28125 185.789062 279.160156 185.84375 279.011719 185.847656 L 254.480469 185.847656 C 254.324219 185.828125 254.167969 185.839844 254.015625 185.886719 C 253.859375 185.929688 253.722656 186.007812 253.601562 186.109375 C 253.480469 186.210938 253.382812 186.335938 253.316406 186.480469 C 253.246094 186.625 253.207031 186.773438 253.199219 186.933594 L 253.199219 187.828125 C 253.199219 188.535156 253.777344 188.839844 254.480469 188.839844 L 277.769531 188.839844 C 277.917969 188.839844 278.046875 188.894531 278.152344 188.996094 C 278.257812 189.101562 278.308594 189.230469 278.308594 189.378906 L 278.308594 190.65625 C 278.316406 190.808594 278.265625 190.9375 278.160156 191.042969 C 278.050781 191.152344 277.921875 191.203125 277.769531 191.195312 L 254.441406 191.195312 C 253.726562 191.195312 253.164062 191.578125 253.164062 192.292969 L 253.164062 193.214844 C 253.164062 193.917969 253.738281 194.226562 254.441406 194.226562 L 279.460938 194.226562 C 279.613281 194.214844 279.742188 194.261719 279.847656 194.367188 C 279.957031 194.472656 280.007812 194.597656 280 194.75 L 280 196.285156 C 280 196.433594 279.945312 196.558594 279.839844 196.660156 C 279.734375 196.761719 279.609375 196.8125 279.460938 196.808594 Z M 245.492188 196.796875 " fill-opacity="1" fill-rule="nonzero"/></svg>