<svg xmlns="http://www.w3.org/2000/svg" xmlns:xlink="http://www.w3.org/1999/xlink" width="512" zoomAndPan="magnify" viewBox="0 0 384 383.999986" height="512" preserveAspectRatio="xMidYMid meet" version="1.0"><defs><clipPath id="63ffbe6233"><path d="M 62.515625 62.515625 L 321.265625 62.515625 L 321.265625 321.265625 L 62.515625 321.265625 Z M 62.515625 62.515625 " clip-rule="nonzero"/></clipPath></defs><g clip-path="url(#63ffbe6233)"><path fill="#ffffff" d="M 62.515625 62.515625 L 321.265625 62.515625 L 321.265625 321.265625 L 62.515625 321.265625 Z M 62.515625 62.515625 " fill-opacity="1" fill-rule="evenodd"/></g><path fill="#000000" d="M 183.558594 275.476562 C 178.84375 272.949219 173.097656 269.734375 169.191406 267.320312 C 168.5 266.859375 167.921875 266.285156 167.464844 265.59375 C 166.773438 264.445312 166.546875 263.296875 166.660156 261.800781 C 167.121094 254.558594 168.957031 247.777344 170.796875 240.769531 C 173.671875 230.078125 177.003906 220.882812 183.554688 212.835938 C 184.359375 211.917969 185.050781 211.113281 185.855469 210.308594 C 190.335938 205.367188 195.394531 202.03125 202.058594 200.425781 C 222.058594 195.59375 241.484375 195.25 261.140625 192.496094 C 258.265625 192.148438 256.882812 192.03125 254.816406 191.804688 C 249.183594 191.113281 243.667969 190.769531 238.035156 190.195312 C 233.550781 189.734375 226.3125 189.390625 220.679688 189.160156 C 220.5625 189.160156 219.988281 189.160156 219.988281 188.699219 C 219.875 188.011719 221.140625 187.320312 222.171875 186.746094 C 225.164062 185.136719 232.632812 181.460938 238.148438 179.273438 C 245.734375 176.285156 253.207031 174.101562 261.480469 172.265625 C 265.042969 171.457031 268.839844 170.882812 272.285156 172.492188 C 277.800781 175.136719 278.609375 181.917969 277.460938 187.550781 C 277.34375 187.78125 277.6875 187.894531 277.917969 187.78125 C 279.296875 186.976562 279.988281 185.710938 280.792969 184.445312 C 285.046875 177.667969 287.113281 170.769531 288.722656 162.953125 C 289.414062 160.195312 289.414062 157.667969 288.722656 155.023438 C 288.148438 152.726562 287 150.769531 285.160156 149.046875 C 284.011719 148.011719 283.09375 147.09375 279.644531 146.519531 C 265.046875 144.21875 249.300781 142.726562 238.152344 142.035156 C 233.785156 141.691406 230.335938 137.898438 223.785156 135.945312 C 222.359375 135.507812 220.902344 135.242188 219.417969 135.140625 C 209.535156 134.449219 199.761719 134.679688 189.992188 134.679688 L 183.558594 134.679688 C 150.226562 135.140625 117.125 137.4375 83.445312 140.886719 C 82.640625 141 81.605469 140.3125 81.492188 139.277344 C 81.144531 135.601562 81.492188 132.382812 82.296875 128.703125 C 82.523438 127.554688 83.90625 126.980469 84.824219 126.75 C 112.292969 122.613281 138.84375 120.542969 165.972656 119.855469 C 171.832031 119.738281 177.695312 119.507812 183.558594 119.394531 C 193.246094 119.046875 202.941406 118.933594 212.636719 119.050781 C 241.253906 119.507812 268.957031 121.464844 298.035156 126.636719 C 299.414062 126.863281 301.140625 127.09375 301.367188 128.472656 C 304.011719 141.808594 302.628906 161.574219 297.113281 177.09375 C 278.957031 228.011719 214.246094 269.617188 191.488281 279.84375 C 191.488281 279.84375 188.039062 278.007812 183.558594 275.476562 Z M 283.554688 154.21875 C 282.058594 152.265625 279.53125 152.035156 277.347656 151.691406 C 261.714844 149.277344 245.621094 149.046875 234.589844 147.898438 C 232.289062 147.667969 227.234375 145.023438 224.476562 143.183594 C 224.246094 145.253906 223.097656 147.09375 221.714844 148.703125 C 219.417969 151.578125 215.855469 152.957031 212.40625 151.578125 C 208.152344 149.851562 204.589844 147.207031 200.453125 145.023438 C 198.730469 143.988281 196.890625 142.957031 194.933594 142.726562 C 191.15625 142.265625 187.363281 142.035156 183.558594 142.035156 C 174.476562 142.035156 165.398438 142.957031 156.203125 143.414062 C 132.410156 144.792969 91.492188 149.277344 85.746094 151.230469 C 79.769531 153.300781 82.183594 161.230469 83.332031 166.402344 C 84.023438 169.507812 87.355469 172.265625 90.226562 171.34375 C 100.800781 168.359375 117.8125 166.746094 117.8125 166.746094 C 108.964844 169.851562 99.308594 173.070312 90.917969 177.78125 C 90.167969 178.179688 89.589844 178.753906 89.191406 179.507812 C 87.8125 183.070312 89.996094 186.402344 91.835938 189.503906 C 92.527344 190.425781 93.675781 191 94.710938 191.230469 C 95.972656 191.34375 97.355469 191.574219 98.503906 191 C 105.515625 187.667969 112.640625 185.484375 119.882812 182.726562 C 120.457031 182.609375 121.03125 182.496094 120.917969 182.496094 C 112.753906 187.554688 103.332031 192.722656 99.191406 197.09375 C 98.617188 197.78125 98.273438 199.046875 98.390625 200.082031 C 98.390625 200.539062 98.503906 200.886719 98.734375 201.230469 C 100.226562 203.875 102.871094 208.699219 106.203125 208.242188 C 109.996094 207.78125 114.710938 203.644531 120.113281 200.082031 C 122.640625 198.585938 125.167969 197.09375 127.929688 196.058594 C 128.273438 195.945312 128.15625 195.945312 128.042969 196.058594 C 126.367188 197.367188 124.71875 198.707031 123.097656 200.082031 C 118.273438 203.992188 113.445312 208.128906 110.226562 213.1875 C 108.386719 216.175781 111.492188 219.046875 113.675781 221.230469 C 115.054688 222.496094 117.238281 222.609375 118.5 221.460938 C 121.949219 218.703125 124.824219 215.828125 128.273438 212.957031 C 130.109375 211.460938 131.71875 209.964844 135.167969 207.667969 C 131.257812 213.300781 125.972656 219.390625 122.867188 225.480469 C 122.40625 226.402344 121.949219 227.4375 121.949219 228.472656 C 121.949219 229.160156 122.179688 230.082031 122.523438 230.769531 C 123.449219 232.421875 124.753906 233.6875 126.429688 234.566406 C 128.730469 235.828125 131.257812 235.023438 132.753906 232.839844 C 136.199219 228.011719 139.304688 223.1875 142.867188 218.703125 C 141.375 223.644531 135.742188 234.105469 134.820312 239.738281 C 134.363281 242.382812 137.121094 244.101562 139.074219 245.023438 C 139.417969 245.253906 140.109375 245.484375 140.453125 245.484375 C 141.257812 245.253906 142.175781 245.371094 142.867188 244.910156 C 145.394531 243.1875 146.773438 240.65625 148.269531 237.441406 C 149.648438 234.449219 151.488281 231.003906 153.097656 228.015625 C 153.441406 227.441406 152.292969 231.691406 149.1875 242.609375 C 148.269531 245.714844 147.578125 248.933594 148.613281 252.035156 C 149.535156 254.796875 152.175781 256.175781 154.589844 257.667969 C 155.164062 257.898438 156.085938 258.011719 156.316406 257.554688 C 160.796875 246.980469 163.902344 234.792969 168.382812 225.484375 C 169.878906 222.496094 171.027344 220.3125 173.441406 216.867188 C 175.050781 214.335938 176.542969 212.382812 178.382812 210.199219 C 180.105469 208.246094 181.832031 206.289062 183.554688 204.566406 C 185.050781 202.957031 186.546875 201.578125 188.152344 200.082031 C 189.648438 198.703125 191.257812 197.324219 192.863281 195.945312 C 198.957031 191.347656 205.164062 188.128906 211.832031 184.910156 C 219.1875 181.347656 226.542969 178.359375 234.359375 175.832031 C 239.988281 174.109375 246.542969 171.925781 251.140625 170.542969 C 256.769531 168.820312 263.667969 167.210938 267.804688 167.441406 C 269.644531 167.554688 271.714844 167.671875 273.550781 168.363281 C 274.929688 168.820312 275.964844 169.511719 277 170.429688 C 278.722656 171.808594 279.527344 173.878906 280.101562 175.714844 C 280.5625 176.175781 280.90625 175.945312 281.136719 175.371094 C 282.972656 170.773438 284.351562 165.488281 284.925781 160.660156 C 285.277344 158.011719 285.164062 156.289062 283.554688 154.21875 Z M 317.460938 140.65625 C 317.460938 126.519531 315.277344 112.613281 312.171875 98.820312 C 285.507812 92.152344 258.152344 90.199219 230.683594 88.589844 C 214.820312 87.667969 199.1875 87.898438 183.558594 88.359375 C 181.03125 88.359375 178.5 88.472656 175.972656 88.472656 C 157.054688 88.933594 138.164062 89.96875 119.308594 91.578125 C 110.230469 92.378906 101.492188 93.300781 92.414062 94.910156 C 85.746094 95.945312 79.308594 96.632812 72.875 98.242188 C 69.3125 112.148438 66.667969 126.289062 66.320312 140.65625 L 66.320312 146.632812 C 66.445312 152.5 67.019531 158.324219 68.046875 164.105469 C 72.300781 188.699219 83.332031 209.386719 99.652344 227.894531 C 123.675781 255.019531 151.144531 278.121094 183.558594 292.488281 C 186.203125 293.636719 188.617188 294.785156 191.257812 295.820312 C 199.652344 291.914062 207.695312 287.660156 216.085938 282.832031 C 224.359375 278.234375 231.832031 273.753906 239.535156 267.890625 C 248.039062 261.453125 255.855469 255.707031 263.441406 248.347656 C 269.765625 242.144531 275.855469 236.628906 281.832031 229.84375 C 297.347656 212.144531 308.609375 192.949219 314.128906 169.964844 C 316.429688 160.195312 317.460938 150.539062 317.460938 140.882812 Z M 183.558594 285.824219 C 186.203125 286.972656 188.617188 288.007812 191.257812 288.929688 C 208.382812 281.339844 224.128906 272.375 239.761719 260.535156 C 261.027344 244.332031 278.957031 227.894531 293.09375 205.253906 C 299.761719 194.332031 305.277344 184.21875 308.035156 171.460938 C 310.21875 161.230469 311.597656 151.578125 311.597656 141.347656 C 311.484375 129.855469 310.449219 118.820312 308.035156 107.097656 C 307.6875 105.601562 307.6875 103.878906 306.542969 103.53125 C 264.242188 92.152344 192.40625 93.761719 192.292969 93.761719 C 192.292969 93.761719 189.074219 93.878906 183.558594 93.992188 C 162.296875 94.566406 107.699219 96.523438 78.503906 102.957031 C 73.90625 115.027344 72.414062 128.707031 72.183594 141.691406 C 71.953125 155.484375 74.136719 169.390625 79.078125 182.492188 C 79.308594 183.070312 79.652344 183.875 79.882812 184.449219 C 80.574219 186.863281 81.609375 189.160156 82.757812 191.574219 C 91.261719 209.964844 103.675781 225.367188 118.5 239.503906 C 138.273438 258.125 159.191406 275.136719 183.558594 285.824219 Z M 183.558594 285.824219 " fill-opacity="1" fill-rule="evenodd"/><path fill="#000000" d="M 129.882812 116.632812 C 123.445312 117.324219 105.515625 119.164062 99.191406 119.855469 C 97.699219 119.96875 95.746094 118.476562 95.746094 117.09375 C 95.746094 116.292969 95.628906 115.371094 95.859375 114.566406 C 96.433594 111.003906 96.664062 106.75 99.882812 104.796875 C 102.410156 103.1875 105.398438 103.1875 108.273438 102.84375 C 116.890625 102.039062 123.097656 101.347656 131.949219 100.890625 L 131.492188 104.109375 C 131.492188 104.109375 117.238281 105.027344 110.226562 106.0625 C 109.308594 106.175781 109.539062 108.589844 109.421875 108.589844 L 127.699219 106.753906 L 127.351562 110.085938 L 110.113281 111.695312 C 109.078125 111.921875 108.503906 111.578125 108.386719 112.726562 C 108.160156 114.566406 107.351562 115.371094 109.191406 115.140625 C 116.777344 114.335938 130.457031 112.957031 130.457031 112.957031 Z M 289.644531 117.09375 L 289.761719 120.429688 C 282.519531 118.933594 260.105469 117.09375 257.003906 115.714844 C 254.242188 114.453125 255.394531 104.105469 255.511719 103.300781 C 255.738281 100.886719 259.1875 100.660156 262.636719 101.003906 C 270.222656 101.691406 280.222656 102.957031 287.921875 104.683594 L 288.039062 107.671875 C 281.027344 106.75 269.417969 104.796875 267.582031 105.144531 C 267.464844 105.144531 266.890625 105.601562 266.890625 105.832031 C 266.773438 106.40625 267.117188 107.441406 267.582031 107.554688 C 273.328125 108.128906 279.070312 108.707031 284.589844 109.96875 L 284.707031 112.84375 C 281.027344 112.269531 270.683594 110.546875 268.039062 110.773438 C 266.777344 110.890625 267.003906 113.535156 268.039062 113.761719 C 270.335938 114.335938 289.644531 117.09375 289.644531 117.09375 Z M 153.328125 107.324219 C 155.855469 107.097656 158.617188 106.980469 160.800781 106.867188 L 160.800781 103.304688 C 160.800781 102.84375 160.109375 102.5 159.652344 102.5 C 157.582031 102.152344 155.515625 102.382812 153.328125 102.613281 L 152.871094 102.613281 C 151.261719 102.726562 149.539062 102.613281 147.929688 103.074219 C 146.089844 103.648438 145.859375 105.601562 145.742188 107.554688 C 147.925781 107.554688 150.570312 107.4375 153.328125 107.324219 Z M 153.328125 99.511719 C 156.890625 99.28125 160.570312 99.164062 164.132812 99.164062 C 166.546875 99.050781 169.535156 99.738281 169.878906 102.382812 C 170.339844 106.40625 169.996094 114.566406 169.996094 114.566406 L 160.683594 114.796875 L 160.683594 109.851562 L 153.328125 110.199219 L 145.511719 110.425781 L 145.398438 115.601562 L 138.734375 115.945312 C 139.078125 112.265625 139.652344 108.703125 139.996094 105.027344 C 140.113281 103.761719 140.800781 102.613281 141.722656 101.808594 C 142.984375 100.773438 144.59375 100.3125 146.089844 100.085938 C 148.5 99.855469 150.917969 99.738281 153.328125 99.511719 Z M 248.613281 115.140625 C 245.621094 115.140625 231.945312 114.566406 228.15625 114.335938 C 224.128906 113.992188 222.292969 112.957031 221.71875 111.003906 C 220.796875 108.476562 221.601562 98.246094 221.601562 98.246094 C 221.601562 98.246094 230.914062 98.359375 232.175781 98.589844 C 232.175781 98.589844 232.175781 104.109375 232.523438 107.785156 C 232.636719 109.855469 233.210938 111.117188 234.589844 111.117188 C 239.074219 111.347656 245.855469 111.578125 248.613281 111.695312 Z M 211.488281 98.246094 C 202.75 98.246094 192.410156 97.902344 184.019531 98.707031 C 182.179688 98.933594 180.226562 100.085938 179.765625 101.808594 C 178.847656 105.371094 178.617188 110.773438 180.339844 112.613281 C 181.261719 113.417969 182.066406 113.878906 182.871094 113.878906 C 188.386719 114.222656 201.257812 114.222656 207.582031 113.878906 C 212.0625 113.53125 211.605469 107.210938 211.605469 103.992188 L 192.753906 103.992188 L 192.753906 107.210938 L 204.246094 107.210938 C 204.820312 107.554688 204.359375 110.085938 203.785156 110.316406 C 202.40625 110.890625 191.71875 110.773438 189.992188 110.660156 C 189.535156 110.546875 189.304688 109.855469 189.304688 109.511719 L 189.304688 103.074219 C 189.304688 101.695312 190.453125 101.347656 193.210938 101.347656 L 211.488281 101.347656 Z M 211.488281 98.246094 " fill-opacity="1" fill-rule="evenodd"/></svg>