<svg xmlns="http://www.w3.org/2000/svg" xmlns:xlink="http://www.w3.org/1999/xlink" width="512" zoomAndPan="magnify" viewBox="0 0 384 383.999986" height="512" preserveAspectRatio="xMidYMid meet" version="1.0"><defs><clipPath id="c64d2f353f"><path d="M 62.515625 62.515625 L 321.265625 62.515625 L 321.265625 321.265625 L 62.515625 321.265625 Z M 62.515625 62.515625 " clip-rule="nonzero"/></clipPath></defs><g clip-path="url(#c64d2f353f)"><path fill="#ffffff" d="M 62.515625 62.515625 L 321.265625 62.515625 L 321.265625 321.265625 L 62.515625 321.265625 Z M 62.515625 62.515625 " fill-opacity="1" fill-rule="evenodd"/></g><path fill="#ffffff" d="M 279.105469 93.910156 L 279.105469 98.40625 L 191.886719 83.121094 L 104.675781 98.40625 L 104.675781 93.910156 L 191.886719 78.523438 Z M 279.105469 93.910156 " fill-opacity="1" fill-rule="evenodd"/><path fill="#33a457" d="M 279.105469 89.3125 L 279.105469 93.910156 L 191.886719 78.523438 L 104.675781 93.910156 L 104.675781 89.3125 L 191.886719 73.929688 Z M 279.105469 89.3125 " fill-opacity="1" fill-rule="evenodd"/><path fill="#cc2131" d="M 279.105469 98.40625 L 191.886719 83.121094 L 104.675781 98.40625 L 104.675781 113.917969 L 105.433594 113.488281 C 105.738281 113.316406 136.6875 96.15625 192.054688 96.15625 C 247.429688 96.15625 278.015625 113.320312 278.324219 113.492188 L 279.070312 113.921875 Z M 279.105469 98.40625 " fill-opacity="1" fill-rule="evenodd"/><path fill="#fff22d" d="M 192.058594 99.15625 C 242.058594 99.15625 271.335938 113.226562 276.082031 115.695312 L 276.082031 160.34375 C 276.082031 184.6875 270.347656 208.9375 259.046875 232.433594 C 234.3125 283.753906 197.09375 303.90625 191.890625 306.535156 C 186.679688 303.90625 149.433594 283.753906 124.703125 232.433594 C 113.40625 208.9375 107.671875 184.6875 107.671875 160.34375 L 107.671875 115.699219 C 112.460938 113.234375 142.046875 99.15625 192.058594 99.15625 Z M 192.058594 99.15625 " fill-opacity="1" fill-rule="evenodd"/><path fill="#000000" d="M 105.433594 113.488281 L 104.679688 113.914062 L 104.679688 160.34375 C 104.679688 185.140625 110.507812 209.832031 122.007812 233.726562 C 149 289.769531 190.851562 309.375 191.269531 309.566406 L 191.890625 309.851562 L 192.507812 309.566406 C 192.929688 309.375 234.746094 289.765625 261.738281 233.726562 C 273.242188 209.832031 279.074219 185.140625 279.074219 160.34375 L 279.074219 113.917969 L 278.324219 113.488281 C 278.015625 113.320312 247.429688 96.15625 192.058594 96.15625 C 136.6875 96.15625 105.742188 113.316406 105.433594 113.488281 Z M 192.058594 99.15625 C 242.058594 99.15625 271.335938 113.226562 276.082031 115.695312 L 276.082031 160.34375 C 276.082031 184.6875 270.347656 208.9375 259.046875 232.433594 C 234.3125 283.753906 197.09375 303.90625 191.890625 306.535156 C 186.679688 303.90625 149.433594 283.753906 124.703125 232.433594 C 113.40625 208.9375 107.671875 184.6875 107.671875 160.34375 L 107.671875 115.699219 C 112.460938 113.234375 142.046875 99.15625 192.058594 99.15625 Z M 192.058594 99.15625 " fill-opacity="1" fill-rule="evenodd"/><path fill="#000000" d="M 205.152344 263.269531 C 206.605469 264.273438 205.550781 266.015625 204.476562 266.289062 C 203.355469 266.59375 202.398438 265.351562 201.859375 266.714844 C 201.554688 267.445312 202.378906 272.988281 208.050781 272.988281 C 213.34375 272.988281 215.867188 266.191406 216.367188 265.167969 C 216.867188 264.148438 217.1875 262.847656 216.6875 262.847656 C 214.367188 262.847656 213.6875 264.226562 213.6875 264.226562 C 213.6875 264.226562 213.511719 262.898438 214.667969 261.898438 C 215.621094 261.082031 216.867188 261.277344 217.320312 261.277344 C 218.265625 261.277344 218.117188 260.574219 218.6875 259.179688 C 219.992188 255.898438 220.886719 255.75 221.734375 254.253906 C 222.4375 253.035156 221.113281 252.554688 218.496094 252.3125 C 215.871094 252.0625 214.464844 252.167969 213.292969 252.335938 C 212.117188 252.503906 210.949219 252.980469 210.21875 254.777344 C 209.828125 255.75 210.546875 256.710938 211.921875 256.460938 C 213.292969 256.203125 214.617188 255.164062 214.617188 255.164062 C 214.617188 255.164062 213.996094 257.625 211.945312 258.132812 C 210.046875 258.601562 207.800781 257.453125 208.105469 255.53125 C 208.496094 253.035156 210.222656 251.207031 213.367188 250.589844 C 216.519531 249.957031 219.660156 250.441406 222.464844 251.128906 C 225.253906 251.835938 227.308594 251.410156 229.90625 251.257812 C 235.503906 250.957031 238.972656 249.636719 238.972656 249.636719 C 238.972656 249.636719 236.449219 251.683594 232.953125 252.628906 C 229.457031 253.585938 226.339844 253.1875 225.328125 253.585938 C 224.515625 253.933594 223.363281 255.550781 222.414062 257.398438 C 221.539062 259.097656 220.613281 261.058594 221.011719 261.058594 C 224.265625 261.179688 225.457031 260.46875 225.457031 260.46875 C 225.457031 260.46875 224.8125 261.871094 223.261719 262.535156 C 222.1875 262.96875 220.363281 262.96875 220.363281 262.96875 C 220.363281 262.96875 219.542969 265.046875 218.621094 266.921875 C 217.691406 268.792969 216.167969 271.71875 213.421875 273.164062 C 210.671875 274.609375 205.40625 276.410156 202.089844 271.640625 C 198.582031 266.640625 201.785156 260.949219 205.152344 263.269531 Z M 164.445312 263.921875 C 165.09375 265.578125 163.71875 266.441406 162.917969 266.441406 C 162.117188 266.441406 161.121094 265.847656 160.914062 266.847656 C 160.722656 267.839844 163.039062 272.964844 168.433594 272.964844 C 173.832031 272.964844 176.332031 269.84375 175.953125 267.042969 C 175.527344 263.921875 170.570312 262.683594 166.613281 260.601562 C 164.679688 259.585938 160.308594 258.910156 160.308594 254.816406 C 160.308594 246.078125 173.609375 251.660156 173.609375 251.660156 C 173.609375 251.660156 173.636719 250.566406 174.253906 250.515625 C 174.554688 250.488281 175.15625 250.367188 175.355469 251.355469 C 175.550781 252.351562 176.433594 257.601562 176.433594 257.601562 C 176.433594 257.601562 174.476562 253.605469 169.113281 251.859375 C 168.164062 251.527344 164.015625 250.738281 164.039062 254.023438 C 164.089844 255.972656 166.464844 256.847656 170.585938 258.449219 C 176.003906 260.570312 178.777344 262.550781 177.5 268.242188 C 176.28125 273.710938 170.9375 274.609375 168.335938 274.609375 C 165.742188 274.609375 159.777344 272.792969 159.777344 266.792969 C 159.777344 262.550781 163.9375 262.648438 164.445312 263.921875 Z M 192.863281 231.0625 L 195.046875 232.097656 C 196.304688 232.585938 197.109375 232.371094 197.398438 232.25 C 197.703125 232.117188 198.855469 230.878906 199.105469 229.824219 C 199.226562 229.398438 199.164062 229.023438 198.933594 228.75 C 198.085938 227.742188 196.578125 223.117188 196.019531 220.617188 C 195.8125 219.691406 196.066406 217.128906 196.261719 215.070312 C 196.429688 213.300781 196.535156 212.199219 196.445312 211.917969 C 196.296875 211.480469 195.644531 211.058594 194.890625 210.582031 L 193.703125 209.769531 C 193.066406 209.25 193.039062 208.542969 193.003906 207.78125 L 192.878906 206.601562 C 192.601562 205.503906 187.011719 199.796875 186.148438 199.746094 C 184.890625 199.664062 184.566406 201.039062 184.484375 201.867188 C 184.433594 202.351562 184.996094 204.515625 185.5 206.433594 L 186.058594 208.75 C 186.628906 212.382812 190.496094 218.789062 192.144531 221.523438 L 192.925781 222.851562 C 193.265625 223.621094 193.132812 224.230469 192.53125 224.570312 C 191.945312 224.90625 186.921875 224.382812 184.523438 223.828125 C 183.492188 223.59375 182.21875 223.078125 180.976562 222.574219 C 179.554688 222.007812 178.207031 221.457031 177.429688 221.417969 C 176.519531 221.371094 176.089844 221.554688 175.753906 221.710938 L 175.210938 221.863281 L 174.667969 221.6875 C 174.003906 221.394531 172.757812 220.859375 169.359375 220.550781 C 164.410156 220.085938 164.035156 221.082031 163.835938 221.621094 C 163.589844 222.304688 166.617188 225.523438 167.15625 225.953125 C 167.847656 226.511719 170.074219 227.355469 171.433594 227.132812 C 172.988281 226.882812 175.523438 226.566406 175.835938 226.632812 L 176.347656 226.941406 L 176.820312 227.277344 C 177.25 227.453125 180.015625 227.605469 180.855469 227.648438 C 181.820312 227.703125 184.351562 228.226562 186.207031 228.613281 L 188.277344 229.03125 C 189.085938 229.183594 191.175781 230.210938 192.863281 231.0625 Z M 192.863281 231.0625 " fill-opacity="1" fill-rule="evenodd"/><path fill="#000000" d="M 244.089844 166.839844 C 243.980469 166.703125 243.890625 166.695312 243.832031 166.710938 C 243.777344 166.726562 243.707031 166.777344 243.6875 166.9375 C 243.597656 167.628906 242.730469 169.402344 242.042969 169.664062 C 240.652344 170.203125 239.929688 171.835938 239.40625 173.023438 C 239.140625 173.636719 238.878906 174.222656 238.671875 174.230469 C 238.585938 174.238281 238.488281 174.140625 238.378906 173.941406 C 237.523438 172.464844 238.003906 170.203125 238.386719 168.378906 L 238.476562 167.933594 C 238.789062 166.394531 240.589844 164.242188 241.664062 162.949219 L 242.140625 162.378906 C 242.871094 161.464844 243.054688 158.371094 242.917969 158.140625 C 242.875 158.128906 242.84375 158.152344 242.828125 158.179688 C 242.808594 158.191406 242.796875 158.210938 242.785156 158.226562 L 242.769531 158.226562 L 242.769531 158.242188 C 242.726562 158.289062 242.6875 158.296875 242.652344 158.449219 C 242.460938 159.417969 240.691406 161.382812 237.675781 163.992188 C 237.054688 164.527344 236.351562 165.496094 235.773438 166.273438 C 235.402344 166.78125 234.964844 167.371094 234.851562 167.398438 C 234.101562 163.410156 235.457031 161.128906 236.097656 160.027344 L 236.398438 159.464844 C 237.675781 155.992188 240.960938 153.359375 240.996094 153.335938 C 241.042969 153.234375 241.042969 153.128906 240.960938 153.058594 C 240.835938 152.964844 240.605469 153.003906 240.238281 153.1875 L 240.042969 153.285156 C 238.894531 153.84375 235.4375 155.527344 233.316406 159.585938 C 231.792969 162.507812 231.203125 165.769531 231.203125 168.234375 C 231.203125 169.488281 231.355469 170.53125 231.613281 171.222656 C 232.359375 173.207031 233.664062 178.144531 234.0625 180.082031 C 234.3125 181.285156 234.351562 185.410156 234.351562 187.996094 C 234.351562 189.257812 234.347656 190.144531 234.347656 190.175781 C 234.339844 190.175781 233.6875 192.273438 233.6875 192.273438 C 233.6875 192.292969 233.371094 193.933594 230.695312 196.667969 C 228 199.421875 225 200.296875 224.972656 200.308594 C 223.765625 200.402344 222.667969 200.351562 222.628906 200.195312 C 222.628906 197.050781 217.238281 189.730469 214.484375 187.316406 C 211.667969 184.847656 209.421875 183.082031 205.601562 180.757812 C 201.710938 178.390625 197.382812 168.460938 197.335938 168.367188 L 196.960938 167.023438 C 196.960938 167.023438 196.75 164.347656 196.691406 163.648438 C 196.832031 163.730469 197.015625 163.84375 197.015625 163.84375 L 198.34375 164.617188 L 199.867188 165.203125 C 199.878906 165.207031 201.863281 165.59375 201.863281 165.59375 C 201.863281 165.597656 202.96875 166.164062 202.96875 166.164062 L 204 166.832031 L 205.597656 167.988281 L 207.238281 168.851562 C 207.273438 168.859375 209.210938 168.960938 209.210938 168.960938 L 209.253906 168.800781 C 209.253906 168.800781 207.011719 167.746094 207.003906 167.746094 C 207.003906 167.714844 206.199219 166.332031 206.199219 166.332031 C 205.882812 165.878906 205.570312 165.429688 205.257812 164.976562 C 205.226562 164.957031 204.089844 164.277344 204.089844 164.277344 C 203.609375 164.203125 203.128906 164.136719 202.644531 164.074219 C 202.644531 164.0625 202.363281 163.820312 202.214844 163.6875 C 202.34375 163.613281 202.578125 163.464844 202.578125 163.464844 C 202.578125 163.484375 204.125 163.660156 204.132812 163.660156 C 204.132812 163.679688 205.507812 164.613281 205.507812 164.613281 L 207.011719 165.769531 C 207.035156 165.78125 208.429688 166.324219 208.429688 166.324219 L 208.617188 166.398438 L 208 164.800781 C 207.617188 164.433594 207.230469 164.070312 206.84375 163.707031 L 205.140625 162.261719 C 205.128906 162.25 203.804688 161.566406 203.804688 161.566406 C 203.789062 161.5625 202.378906 161.085938 202.378906 161.085938 C 202.378906 161.085938 200.882812 160.132812 200.882812 160.132812 C 200.882812 160.132812 200.902344 160.03125 200.910156 159.941406 C 201.101562 160.015625 202.980469 160.769531 202.980469 160.769531 C 202.992188 160.769531 204.78125 161.257812 204.78125 161.257812 C 204.777344 161.25 206.285156 161.832031 206.285156 161.832031 C 206.277344 161.828125 208.445312 162.882812 208.445312 162.882812 C 208.460938 162.894531 210.253906 163.28125 210.253906 163.28125 C 210.285156 163.285156 212.46875 162.894531 212.46875 162.894531 C 212.496094 162.878906 214.574219 161.433594 214.574219 161.433594 C 214.597656 161.394531 214.980469 160.53125 214.980469 160.53125 L 215.0625 160.335938 L 214.394531 160.609375 C 214.390625 160.609375 212.507812 161.566406 212.503906 161.566406 L 211.203125 161.859375 C 211.203125 161.851562 209.730469 161.5625 209.726562 161.5625 L 209.730469 161.5625 C 209.730469 161.546875 208.539062 160.433594 208.539062 160.433594 L 206.84375 158.792969 L 205.3125 158.011719 C 205.289062 158 203.5 157.710938 203.5 157.710938 C 203.5 157.707031 202.410156 157.152344 202.390625 157.144531 C 202.394531 157.144531 202.398438 157.125 202.398438 157.09375 C 202.398438 156.964844 202.363281 156.675781 202.351562 156.542969 L 204.605469 156.730469 L 207.070312 156.53125 C 207.070312 156.539062 208.460938 156.824219 208.460938 156.824219 L 209.867188 157.402344 L 211.304688 157.597656 L 211.566406 157.632812 L 209.960938 156.097656 C 209.945312 156.089844 208.34375 154.933594 208.34375 154.933594 C 208.324219 154.921875 207 154.4375 207 154.4375 C 206.976562 154.433594 204.769531 154.246094 204.726562 154.242188 C 204.742188 154.242188 204.746094 154.203125 204.746094 154.148438 C 204.746094 154.015625 204.726562 153.824219 204.714844 153.726562 L 205.757812 153.546875 C 205.757812 153.554688 207.425781 153.929688 207.425781 153.929688 C 207.425781 153.9375 209.007812 154.886719 209.007812 154.886719 L 210.714844 155.46875 C 210.765625 155.472656 213.210938 155.085938 213.210938 155.085938 L 213.359375 155.066406 L 212.613281 154.082031 C 212.570312 154.050781 211.339844 153.667969 211.339844 153.667969 C 211.339844 153.660156 210.324219 152.910156 210.324219 152.910156 L 208.8125 151.847656 C 208.789062 151.835938 207.660156 151.453125 207.660156 151.453125 C 207.640625 151.445312 205.863281 151.160156 205.855469 151.160156 C 205.855469 151.140625 204.980469 150.335938 204.960938 150.320312 C 204.988281 150.316406 205.042969 150.035156 205.066406 149.90625 L 206.003906 150.171875 L 207.214844 150.75 L 208.9375 151.292969 L 208.554688 150.535156 L 207.886719 149.835938 L 207.300781 149.082031 L 207.554688 149.019531 C 207.554688 149.042969 209.386719 149.976562 209.386719 149.976562 L 210.8125 150.460938 C 210.8125 150.46875 211.914062 151.5 211.914062 151.5 C 211.929688 151.515625 214.011719 152.691406 214.011719 152.691406 L 214.222656 152.808594 L 213.839844 151.792969 C 213.832031 151.769531 212.699219 150.324219 212.699219 150.324219 L 211.757812 148.695312 C 211.75 148.675781 210.046875 146.945312 210.046875 146.945312 C 210.03125 146.929688 207.863281 145.769531 207.859375 145.769531 C 207.859375 145.761719 207.03125 144.824219 207.03125 144.824219 C 206.527344 144.308594 206.023438 143.796875 205.519531 143.28125 C 205.519531 143.257812 205.367188 142.730469 205.285156 142.460938 C 205.542969 142.542969 206.753906 142.945312 206.753906 142.945312 L 208.453125 143.425781 C 208.453125 143.429688 209.664062 144.183594 209.664062 144.183594 C 209.664062 144.191406 210.671875 145.417969 210.671875 145.417969 C 210.707031 145.445312 212.316406 146.121094 212.316406 146.121094 L 216.414062 146.652344 L 216.652344 146.683594 L 215.527344 145.5 C 215.5 145.476562 213.328125 144.511719 213.328125 144.511719 L 212.023438 143.5625 C 212.023438 143.546875 211.296875 142.238281 211.296875 142.238281 L 210.535156 140.890625 C 210.523438 140.871094 209.296875 139.714844 209.296875 139.714844 C 209.277344 139.699219 207.765625 138.832031 207.765625 138.832031 L 206.273438 137.589844 C 206.273438 137.578125 205.914062 136.832031 205.683594 136.335938 L 206.722656 137.335938 L 208.703125 139.074219 C 208.726562 139.085938 210.242188 139.761719 210.242188 139.761719 L 211.535156 140.808594 L 213.042969 142.34375 C 213.09375 142.371094 215.445312 142.699219 215.445312 142.699219 L 215.738281 142.742188 L 213.351562 140.675781 C 213.351562 140.636719 212.8125 138.980469 212.8125 138.980469 C 212.398438 138.578125 211.980469 138.179688 211.558594 137.785156 L 210.910156 137.023438 C 210.910156 137.003906 210.265625 135.03125 210.265625 135.03125 C 209.820312 134.566406 209.371094 134.109375 208.917969 133.652344 C 208.917969 133.640625 206.761719 131.628906 206.757812 131.621094 L 206.757812 131.617188 C 206.757812 131.585938 206.679688 131.277344 206.636719 131.074219 C 206.800781 131.160156 207.027344 131.277344 207.027344 131.277344 L 209.007812 132.429688 C 209.023438 132.441406 211.382812 133.113281 211.382812 133.113281 L 213.839844 133.699219 L 216.683594 134.152344 L 216.015625 132.800781 C 215.96875 132.757812 214.554688 132.179688 214.554688 132.179688 L 213.242188 131.414062 C 213.230469 131.410156 211.628906 130.734375 211.628906 130.734375 L 210.214844 130.15625 C 210.214844 130.144531 209.300781 128.964844 208.792969 128.308594 C 209.28125 128.640625 210.035156 129.152344 210.035156 129.152344 C 210.074219 129.164062 211.308594 129.261719 211.308594 129.261719 L 215.179688 129.265625 C 215.179688 129.277344 216.75 130.121094 216.75 130.125 C 216.75 130.128906 218.085938 131.574219 218.085938 131.574219 L 218.261719 131.761719 L 218.097656 130.136719 C 218.082031 130.085938 217.234375 129.027344 217.234375 129.027344 C 217.210938 129.007812 214.9375 127.753906 214.9375 127.753906 L 213.136719 127.074219 C 213.121094 127.070312 210.402344 126.589844 210.390625 126.589844 L 210.390625 126.585938 C 210.390625 126.558594 209.871094 125.941406 209.871094 125.941406 C 209.859375 125.9375 207.882812 124.105469 207.882812 124.105469 C 207.5625 123.9375 207.242188 123.773438 206.917969 123.609375 C 206.917969 123.605469 206.617188 123.292969 206.429688 123.097656 L 207.445312 123.097656 C 207.445312 123.113281 209.007812 124.050781 209.007812 124.050781 C 209.019531 124.0625 211.101562 124.730469 211.101562 124.730469 L 213.757812 125.121094 L 213.753906 125.121094 C 213.753906 125.148438 214.742188 126.25 214.742188 126.25 L 216.175781 127.132812 C 216.722656 127.234375 217.265625 127.332031 217.8125 127.425781 L 218.042969 127.460938 L 214.679688 123.34375 C 214.660156 123.324219 213.050781 122.457031 213.050781 122.457031 C 213.039062 122.449219 211.152344 121.871094 211.152344 121.871094 C 211.152344 121.851562 209.496094 119.96875 209.496094 119.96875 C 209.476562 119.949219 207.398438 118.699219 207.398438 118.699219 C 206.894531 118.570312 206.390625 118.449219 205.886719 118.328125 C 205.980469 118.179688 206.292969 117.664062 206.292969 117.660156 C 206.300781 117.675781 207.957031 116.925781 207.957031 116.925781 C 207.957031 116.929688 210.390625 116.449219 210.390625 116.449219 C 210.457031 116.394531 210.640625 115.8125 210.640625 115.8125 C 210.609375 115.714844 209.570312 115.039062 209.570312 115.039062 C 209.15625 114.90625 208.742188 114.773438 208.324219 114.640625 C 208.25 114.652344 207.589844 115.039062 207.589844 115.039062 C 207.589844 115.027344 205.554688 115.121094 205.554688 115.121094 C 205.554688 115.117188 203.125 114.546875 203.125 114.542969 C 203.125 114.53125 200.617188 112.445312 200.617188 112.445312 C 200.234375 112.246094 199.847656 112.050781 199.464844 111.855469 C 199.4375 111.851562 195.296875 111.367188 195.285156 111.367188 C 195.285156 111.3125 194.3125 109.859375 194.3125 109.859375 L 192.980469 108.40625 C 192.976562 108.398438 191.285156 106.871094 191.285156 106.871094 L 191.234375 106.984375 L 190.667969 108.238281 C 190.667969 108.226562 190.109375 109.09375 190.109375 109.09375 L 190.109375 109.113281 C 190.109375 109.273438 190.1875 110.113281 190.1875 110.113281 C 190.210938 110.164062 190.757812 110.726562 190.769531 110.742188 C 190.742188 110.742188 190.566406 111.613281 190.566406 111.621094 C 190.558594 111.558594 188.292969 111.652344 188.289062 111.652344 C 188.289062 111.640625 186.4375 110.792969 186.4375 110.792969 C 186.425781 110.785156 185.007812 110.304688 185.007812 110.304688 C 184.980469 110.292969 181.679688 110.398438 181.679688 110.398438 C 181.605469 110.433594 181.046875 111.300781 181.046875 111.300781 L 180.96875 111.414062 L 182.421875 111.625 C 182.421875 111.628906 182.636719 111.765625 182.757812 111.84375 L 182.386719 112.148438 C 182.386719 112.128906 180.363281 112.035156 180.363281 112.035156 C 180.332031 112.039062 178.910156 112.617188 178.910156 112.617188 L 178.761719 112.679688 L 179.46875 113.152344 C 179.511719 113.171875 182.53125 113.265625 182.53125 113.265625 L 184.773438 113.84375 C 184.773438 113.875 185.199219 114.484375 185.199219 114.484375 C 185.199219 114.484375 185.503906 114.914062 185.617188 115.082031 L 184.65625 115.609375 C 184.667969 115.609375 181.929688 116.765625 181.929688 116.765625 L 176.265625 119.945312 C 176.261719 119.941406 172.535156 120.496094 172.535156 120.496094 C 172.507812 120.503906 171.078125 121.300781 171.078125 121.300781 C 171.046875 121.320312 169.898438 122.914062 169.898438 122.914062 C 169.886719 122.933594 169.238281 124.914062 169.238281 124.914062 C 169.1875 128.277344 169.320312 128.355469 169.371094 128.382812 C 169.480469 128.453125 170.453125 129 171.203125 128.597656 C 172.054688 128.136719 173.878906 127.679688 174.824219 127.480469 C 175.289062 127.382812 175.511719 127.550781 175.546875 127.726562 C 175.601562 127.914062 175.457031 128.171875 175.109375 128.269531 L 174.914062 128.324219 C 173.269531 128.773438 171.589844 129.3125 171.644531 129.949219 L 171.933594 130.433594 C 172.667969 130.96875 174.578125 130.714844 175.589844 130.484375 L 176.648438 130.1875 C 177.5625 129.910156 178.597656 129.601562 179.484375 129.699219 C 179.996094 129.757812 180.445312 129.980469 180.980469 130.230469 C 181.703125 130.578125 182.527344 130.976562 183.757812 131.054688 C 185.8125 131.199219 187.210938 131.613281 187.324219 131.734375 C 187.597656 132.292969 187.421875 133.121094 187.28125 133.789062 L 187.175781 134.390625 C 186.601562 139.601562 180.785156 145.488281 177.980469 148.316406 C 177.226562 149.082031 176.726562 149.585938 176.617188 149.796875 L 176.296875 150.542969 C 176.023438 151.234375 175.800781 151.828125 174.914062 152.1875 C 174.398438 152.386719 173.199219 153.289062 171.808594 154.328125 C 169.800781 155.828125 167.3125 157.691406 166.625 157.609375 C 165.476562 157.476562 160.117188 153.785156 159.890625 153.558594 C 154.671875 148.507812 152.488281 149.542969 151.179688 150.160156 L 150.972656 150.257812 C 149.414062 150.964844 147.78125 155.375 147.632812 156.324219 L 147 159.039062 L 146.515625 161.035156 C 146.375 161.710938 145.730469 163.371094 145.117188 164.972656 L 143.859375 168.464844 C 143.648438 169.273438 143.144531 170.40625 142.734375 171.324219 L 142.175781 172.683594 C 141.789062 174.28125 141.78125 183.023438 142.457031 183.796875 L 142.488281 183.828125 L 142.621094 183.867188 C 143.296875 183.796875 144.753906 182.296875 145.453125 181.574219 L 145.613281 181.40625 C 146.203125 180.8125 146.828125 179.230469 146.828125 178.5625 C 146.828125 177.910156 146.523438 176.546875 146.40625 176.175781 C 145.460938 173.289062 145.816406 170.539062 145.988281 169.21875 L 146.058594 168.632812 C 146.105469 168.019531 146.71875 167.34375 147.316406 166.691406 L 148.070312 165.820312 C 148.484375 165.269531 148.941406 165.089844 149.351562 164.925781 L 150.023438 164.542969 L 150.128906 164.433594 C 150.574219 163.988281 151.320312 163.230469 151.648438 162.222656 L 152.289062 159.457031 L 152.425781 158.71875 C 152.460938 158.574219 152.535156 158.492188 152.660156 158.464844 C 152.914062 158.40625 153.292969 158.609375 153.457031 158.824219 L 158.078125 164.1875 C 159.261719 165.195312 160.476562 166.398438 160.476562 166.660156 L 160.476562 166.683594 C 160.476562 166.679688 160.445312 166.6875 160.445312 166.6875 C 159.800781 166.753906 156.542969 166.058594 156.003906 165.90625 C 151.582031 164.609375 149.5625 164.835938 148.003906 166.785156 C 146.230469 169.019531 146.789062 175.855469 147.152344 176.605469 C 147.484375 177.28125 149.101562 185.613281 149.175781 186.722656 C 149.246094 187.8125 149.667969 189.757812 150.109375 190.203125 L 150.230469 190.328125 C 150.773438 190.867188 152.210938 192.3125 152.464844 193.734375 C 152.738281 195.28125 156.027344 199.429688 157.285156 199.800781 C 157.488281 199.859375 157.671875 199.824219 157.835938 199.695312 C 158.792969 199.015625 159.230469 195.695312 159.28125 194.292969 C 159.34375 192.546875 158.714844 191.703125 158.050781 190.800781 L 157.796875 190.449219 C 157.304688 189.777344 156.441406 189.535156 155.875 189.375 C 155.628906 189.308594 155.296875 189.226562 155.296875 189.152344 C 155.296875 189.125 155.230469 186.566406 154.414062 186.074219 C 153.78125 185.683594 153.128906 183.214844 153.054688 182.273438 C 152.980469 181.34375 152.617188 179.089844 152.132812 178.101562 C 151.644531 177.105469 151.230469 175.277344 151.441406 173.863281 C 151.527344 173.257812 151.960938 173.066406 152.3125 173.011719 C 152.917969 172.914062 153.621094 173.175781 153.726562 173.390625 C 153.96875 173.875 158.636719 176.6875 160.207031 177.292969 C 161.183594 177.664062 162.507812 178.78125 163.675781 179.777344 C 164.507812 180.472656 165.21875 181.074219 165.667969 181.285156 C 166.265625 181.574219 167.972656 181.609375 169.339844 181.636719 C 170.066406 181.648438 170.820312 181.664062 170.925781 181.726562 C 170.367188 181.949219 170.375 182.921875 170.421875 183.238281 C 170.988281 187.269531 185.652344 198.34375 186.789062 198.964844 C 188.101562 199.667969 192.808594 204.585938 193.222656 205.253906 C 193.648438 205.914062 194.0625 206.632812 193.984375 207.183594 C 193.871094 208.003906 194.199219 208.9375 194.855469 209.699219 C 195.480469 210.410156 196.300781 210.839844 197.054688 210.839844 C 197.710938 210.839844 198.148438 210.25 198.472656 209.824219 L 198.539062 209.738281 C 199.414062 208.578125 200.710938 206.882812 200.878906 204.226562 C 201.058594 201.507812 202.300781 200.425781 202.707031 200.355469 C 202.890625 200.320312 203.023438 200.378906 203.070312 200.496094 C 203.121094 200.621094 203.058594 200.828125 202.8125 200.988281 C 202.277344 201.351562 201.941406 202.558594 201.574219 203.84375 C 201.570312 203.855469 201.4375 205.160156 201.4375 205.160156 C 201.40625 206.132812 201.367188 207.234375 200.394531 208.304688 C 198.941406 209.882812 197.269531 213.515625 196.839844 218.101562 C 196.578125 220.867188 197.820312 224.847656 200.535156 229.921875 L 200.726562 230.285156 L 201.460938 231.515625 C 202.203125 232.710938 203.441406 234.695312 203.382812 235.160156 C 203.304688 235.8125 203.242188 236.328125 202.113281 237.746094 C 200.871094 239.308594 196.332031 244.585938 195.890625 244.667969 C 194.988281 244.667969 194.835938 244.785156 194.109375 245.335938 L 193.347656 245.917969 C 192.507812 246.511719 192.363281 246.957031 192.222656 247.351562 C 192.117188 247.648438 192.019531 247.90625 191.628906 248.199219 L 191.339844 248.394531 C 191.277344 248.445312 191.113281 248.675781 189.292969 250.5 C 187.203125 252.566406 186.269531 254.90625 186.589844 257.230469 C 186.695312 257.957031 187.320312 258.210938 189.175781 258.292969 C 191.027344 258.378906 195.273438 255.40625 195.464844 254.441406 L 195.53125 254.070312 C 195.691406 253.199219 195.964844 251.726562 196.445312 251.515625 C 197.023438 251.261719 198.019531 250.113281 198.746094 249.28125 L 198.886719 249.125 C 199.277344 248.675781 199.371094 248.230469 199.464844 247.804688 C 199.542969 247.46875 199.613281 247.132812 199.835938 246.824219 C 200.007812 246.597656 200.261719 246.472656 200.554688 246.339844 C 201.121094 246.070312 201.828125 245.726562 202.339844 244.441406 C 202.851562 243.179688 205.886719 241.003906 208.105469 239.417969 C 209.238281 238.613281 210.125 237.96875 210.335938 237.683594 C 210.628906 237.304688 210.808594 236.574219 210.808594 235.796875 C 210.808594 234.875 210.558594 233.894531 209.980469 233.351562 C 209.140625 232.570312 208.347656 230.246094 208.113281 229.515625 L 208.113281 229.5 C 208.113281 229.199219 208.082031 228.644531 208.039062 227.613281 C 208.03125 227.566406 208.03125 227.519531 208.03125 227.472656 C 208.03125 224.75 212.082031 222.085938 213.828125 220.9375 L 214.625 220.386719 C 220.964844 214.796875 222.203125 210.546875 222.4375 209.382812 L 222.566406 207.984375 C 222.605469 207.015625 222.640625 206.09375 223.222656 205.972656 C 223.453125 205.929688 223.832031 206.113281 224.0625 206.386719 C 224.195312 206.539062 224.386719 206.847656 224.257812 207.207031 C 223.96875 207.988281 223.871094 215.871094 223.871094 216.199219 C 223.890625 216.253906 224.550781 217.03125 224.550781 217.03125 L 224.671875 217.171875 L 224.710938 216.988281 C 224.71875 216.898438 225.082031 214.75 225.082031 213.988281 C 225.082031 213.140625 226.449219 209.5 226.777344 209.4375 C 226.777344 209.449219 226.800781 209.480469 226.800781 209.480469 C 226.957031 209.984375 227.164062 211.226562 227.164062 212.535156 C 227.164062 213.824219 226.96875 215.175781 226.34375 215.960938 C 225.394531 217.136719 224.636719 218.996094 224.144531 220.222656 L 223.6875 221.265625 C 223.636719 221.410156 223.613281 221.5625 223.625 221.714844 C 223.625 222.714844 224.136719 224.84375 224.476562 225.238281 C 224.5625 225.332031 224.636719 225.332031 224.683594 225.316406 C 224.796875 225.273438 224.894531 225.132812 224.894531 224.296875 C 224.894531 221.109375 227.570312 218.800781 227.601562 218.78125 C 229.964844 216.910156 230.476562 213.4375 230.476562 210.792969 C 230.476562 208.789062 230.183594 207.257812 230.175781 207.21875 C 229.800781 206.664062 229.425781 206.113281 229.042969 205.566406 C 229.097656 205.59375 229.40625 205.339844 229.507812 205.257812 C 229.609375 205.390625 230.683594 206.816406 230.683594 206.816406 C 230.863281 207.070312 231.324219 207.808594 231.324219 208.105469 C 231.324219 209.742188 231.578125 210.863281 231.757812 211.6875 L 231.800781 211.882812 C 231.988281 212.753906 233.171875 215.542969 233.222656 215.664062 L 233.347656 215.957031 L 233.386719 215.636719 C 233.386719 215.625 233.574219 214.164062 233.386719 212.917969 C 233.28125 212.21875 233.414062 211.363281 233.550781 210.433594 L 233.765625 208.308594 C 233.765625 206.582031 233.519531 205.488281 232.902344 204.496094 L 232.585938 204.019531 C 232.464844 203.824219 232.34375 203.636719 232.355469 203.597656 L 232.585938 203.496094 C 237.570312 201.804688 239.890625 198.136719 240.835938 196.101562 C 241.828125 193.949219 241.878906 190.632812 241.878906 189.996094 C 241.878906 189.164062 241.84375 184.855469 241.121094 182.644531 C 240.695312 181.335938 240.832031 179.933594 240.972656 178.417969 L 241.128906 175.828125 C 241.128906 174.054688 242.058594 172.738281 242.964844 171.464844 L 244.042969 169.796875 C 244.746094 168.40625 244.375 167.1875 244.089844 166.839844 Z M 244.089844 166.839844 " fill-opacity="1" fill-rule="evenodd"/><path fill="#000000" d="M 188.300781 111.335938 C 188.382812 111.339844 189.441406 110.839844 189.441406 110.839844 C 189.488281 110.742188 189.242188 109.742188 189.242188 109.742188 C 188.480469 108.832031 187.710938 107.929688 186.9375 107.03125 L 186.824219 106.898438 L 186.785156 107.0625 L 186.539062 108.148438 C 186.539062 108.140625 185.808594 109.890625 185.808594 109.890625 L 185.773438 109.964844 L 187.316406 110.753906 Z M 188.300781 111.335938 " fill-opacity="1" fill-rule="evenodd"/><path fill="#ffffff" d="M 188.757812 118.292969 C 189.003906 118.386719 189.371094 118.34375 189.722656 118.1875 C 190.253906 117.9375 190.570312 117.507812 190.433594 117.199219 L 190.191406 116.980469 C 189.949219 116.886719 189.578125 116.929688 189.234375 117.085938 C 188.777344 117.292969 188.484375 117.628906 188.484375 117.917969 C 188.484375 117.972656 188.5 118.027344 188.515625 118.074219 Z M 197.980469 114.488281 L 198.421875 114.726562 C 198.496094 114.886719 198.621094 114.992188 198.792969 115.035156 C 198.996094 115.078125 199.175781 115.03125 199.332031 114.898438 C 199.449219 114.808594 199.476562 114.632812 199.402344 114.414062 C 199.285156 114.050781 198.90625 113.65625 198.496094 113.65625 C 197.96875 113.65625 197.484375 113.714844 197.484375 114.105469 C 197.488281 114.324219 197.738281 114.40625 197.980469 114.488281 Z M 198.507812 116.042969 C 198.304688 116.195312 198.214844 116.398438 198.269531 116.601562 L 198.3125 116.773438 C 198.363281 116.972656 198.382812 117.015625 198.570312 117.039062 L 198.90625 117.097656 C 199.335938 117.207031 200.011719 116.941406 200.167969 116.597656 C 200.21875 116.484375 200.261719 116.269531 199.96875 116.066406 C 199.464844 115.730469 198.84375 115.800781 198.507812 116.042969 Z M 199.878906 122.019531 C 199.757812 121.960938 199.808594 121.765625 199.90625 121.480469 C 199.980469 121.246094 200.050781 121.023438 199.929688 120.902344 C 199.828125 120.800781 199.640625 120.808594 199.324219 120.925781 C 198.183594 121.339844 198.007812 122.5 197.882812 123.351562 L 197.84375 123.613281 C 197.777344 123.992188 197.972656 124.121094 198.09375 124.164062 C 198.484375 124.300781 199.195312 123.945312 199.355469 123.671875 C 199.535156 123.378906 200.519531 123.109375 201.238281 122.914062 L 201.511719 122.839844 C 201.84375 122.746094 202.015625 122.621094 202.039062 122.445312 C 202.078125 122.21875 201.824219 122.011719 201.601562 121.878906 C 201.394531 121.757812 201.089844 121.847656 200.765625 121.9375 C 200.445312 122.027344 200.101562 122.117188 199.878906 122.019531 Z M 187.820312 122.457031 C 188.074219 122.429688 188.269531 122.332031 188.394531 122.152344 C 188.757812 121.609375 188.777344 120.839844 188.425781 120.144531 C 188.082031 119.480469 187.5 119.054688 186.902344 119.035156 L 186.910156 119.035156 L 186.78125 119.019531 L 185.683594 119.105469 C 185.105469 119.234375 184.566406 119.660156 184.433594 120.082031 C 184.371094 120.296875 184.40625 120.492188 184.554688 120.636719 C 185.433594 121.570312 186.953125 122.519531 187.820312 122.457031 Z M 177.007812 121.570312 C 177.140625 121.894531 177.742188 121.933594 178.625 121.667969 L 178.820312 121.609375 L 180.40625 120.988281 L 182.703125 119.480469 C 182.769531 119.425781 183.371094 118.976562 183.246094 118.6875 C 183.160156 118.496094 182.859375 118.53125 182.644531 118.570312 C 182.011719 118.6875 181.390625 118.992188 180.726562 119.3125 L 179.792969 119.746094 L 179.382812 119.917969 C 177.960938 120.503906 176.792969 121.03125 177.007812 121.570312 Z M 172.179688 123.253906 C 171.699219 123.253906 171.484375 123.511719 171.3125 123.742188 L 171.097656 123.984375 C 170.730469 124.296875 170.617188 125.0625 170.664062 125.640625 C 170.679688 125.882812 170.75 126.320312 170.988281 126.460938 C 171.441406 126.738281 171.660156 126.542969 172.125 126.101562 L 172.484375 125.792969 C 172.941406 125.410156 173.46875 124.976562 173.535156 124.308594 C 173.570312 124.027344 173.5 123.792969 173.34375 123.621094 C 173.066406 123.316406 172.554688 123.253906 172.179688 123.253906 Z M 174.820312 123.464844 C 174.683594 123.433594 174.601562 123.476562 174.558594 123.519531 C 174.417969 123.65625 174.476562 123.945312 174.519531 124.179688 L 174.546875 124.339844 L 174.519531 124.4375 C 174.488281 124.523438 174.453125 124.628906 174.519531 124.71875 C 174.578125 124.808594 174.71875 124.847656 174.964844 124.847656 C 175.273438 124.851562 175.304688 124.816406 175.410156 124.542969 L 175.492188 124.328125 C 175.570312 124.140625 175.570312 123.972656 175.5 123.835938 C 175.371094 123.601562 175.054688 123.511719 174.820312 123.464844 Z M 177.375 127.601562 C 177.542969 127.59375 177.683594 127.53125 177.800781 127.410156 C 177.917969 127.285156 177.976562 127.140625 177.976562 126.972656 C 177.976562 126.804688 177.917969 126.660156 177.800781 126.539062 C 177.683594 126.414062 177.542969 126.351562 177.375 126.34375 C 177.203125 126.34375 177.054688 126.40625 176.933594 126.527344 C 176.8125 126.652344 176.753906 126.800781 176.757812 126.972656 C 176.757812 127.320312 177.03125 127.601562 177.375 127.601562 Z M 188.882812 126.066406 C 188.6875 126.03125 188.527344 126.089844 188.402344 126.246094 C 188.234375 126.445312 187.195312 127.15625 186.4375 127.679688 L 185.457031 128.375 L 185.378906 128.449219 C 185.257812 128.566406 185.195312 128.636719 185.277344 128.875 L 185.394531 129.042969 L 185.652344 128.992188 L 186.035156 128.851562 L 186.582031 128.765625 C 187.125 128.695312 187.714844 128.613281 187.996094 128.328125 L 188.359375 127.734375 L 188.898438 126.863281 C 189.160156 126.578125 189.171875 126.382812 189.136719 126.273438 C 189.089844 126.15625 189.003906 126.085938 188.882812 126.066406 Z M 190.019531 129.578125 C 190.019531 129.898438 190.179688 130.023438 190.269531 130.066406 C 190.511719 130.195312 190.859375 130.070312 191.070312 129.78125 L 191.773438 129.167969 C 192.152344 128.894531 192.578125 128.585938 192.957031 128.109375 C 193.304688 127.660156 193.15625 127.382812 193.03125 127.261719 C 192.792969 127.03125 192.300781 126.976562 192.132812 127.113281 L 191.929688 127.25 C 191.46875 127.550781 190.378906 128.257812 190.105469 129.117188 C 190.050781 129.265625 190.023438 129.417969 190.019531 129.578125 Z M 194.601562 129.230469 C 194.457031 129.019531 194.210938 128.933594 194.027344 129.023438 L 193.53125 129.398438 C 193.183594 129.683594 192.75 130.046875 192.371094 130.152344 C 191.457031 130.398438 190.214844 130.804688 190.136719 131.433594 L 190.136719 131.515625 C 190.136719 131.6875 190.214844 131.792969 190.289062 131.851562 C 190.636719 132.132812 191.480469 131.964844 192.09375 131.734375 C 193.027344 131.390625 193.597656 130.964844 194.332031 130.296875 C 194.785156 129.886719 194.765625 129.472656 194.601562 129.230469 Z M 191.042969 136.464844 L 190.746094 136.433594 C 189.972656 136.636719 188.660156 138.902344 187.734375 140.59375 L 187.570312 140.882812 L 184.800781 146.078125 L 183.933594 147.734375 C 183.835938 147.882812 183.871094 148.105469 184.015625 148.246094 C 184.148438 148.382812 184.382812 148.457031 184.667969 148.277344 C 185.128906 147.96875 186.816406 146.296875 187.597656 144.984375 L 188.636719 143.550781 C 189.304688 142.679688 190.0625 141.703125 190.507812 140.542969 L 190.667969 140.140625 C 191.722656 137.402344 191.886719 136.984375 191.042969 136.464844 Z M 201.449219 126.480469 C 201.285156 126.476562 201.140625 126.53125 201.023438 126.644531 C 200.902344 126.761719 200.839844 126.902344 200.835938 127.066406 C 200.835938 127.390625 201.113281 127.652344 201.449219 127.652344 C 201.789062 127.652344 202.058594 127.390625 202.058594 127.066406 C 202.054688 126.902344 201.996094 126.761719 201.878906 126.648438 C 201.757812 126.53125 201.617188 126.476562 201.449219 126.480469 Z M 201.160156 128.925781 C 201.160156 129.25 201.433594 129.515625 201.773438 129.515625 C 201.9375 129.515625 202.078125 129.460938 202.195312 129.34375 C 202.3125 129.230469 202.371094 129.089844 202.375 128.925781 C 202.371094 128.761719 202.3125 128.625 202.195312 128.507812 C 202.078125 128.394531 201.9375 128.335938 201.773438 128.339844 C 201.609375 128.335938 201.464844 128.390625 201.34375 128.507812 C 201.226562 128.621094 201.164062 128.761719 201.160156 128.925781 Z M 201.722656 130.226562 C 201.339844 130.226562 201.023438 130.480469 201.023438 130.785156 C 201.023438 131.09375 201.339844 131.34375 201.722656 131.34375 C 202.113281 131.34375 202.425781 131.09375 202.425781 130.785156 C 202.425781 130.480469 202.113281 130.226562 201.722656 130.226562 Z M 201.695312 131.855469 C 201.253906 131.855469 200.902344 132.132812 200.902344 132.476562 C 200.902344 132.8125 201.253906 133.09375 201.695312 133.09375 C 202.136719 133.09375 202.480469 132.8125 202.480469 132.476562 C 202.480469 132.132812 202.136719 131.855469 201.695312 131.855469 Z M 201.722656 133.917969 C 201.238281 133.917969 200.835938 134.207031 200.835938 134.570312 C 200.835938 134.929688 201.238281 135.21875 201.722656 135.21875 C 202.210938 135.21875 202.605469 134.929688 202.605469 134.570312 C 202.605469 134.207031 202.210938 133.917969 201.722656 133.917969 Z M 201.425781 137.378906 C 201.972656 137.332031 202.378906 137.03125 202.347656 136.679688 L 202.175781 136.363281 C 201.984375 136.203125 201.65625 136.125 201.320312 136.152344 C 200.789062 136.203125 200.394531 136.488281 200.394531 136.820312 L 200.398438 136.851562 L 200.574219 137.167969 C 200.769531 137.332031 201.085938 137.410156 201.425781 137.378906 Z M 200.222656 139.105469 L 200.21875 139.089844 Z M 201.394531 139.554688 C 202.007812 139.460938 202.445312 139.125 202.394531 138.773438 L 202.214844 138.484375 C 202 138.320312 201.613281 138.253906 201.21875 138.3125 C 200.613281 138.394531 200.167969 138.742188 200.21875 139.089844 L 200.40625 139.378906 C 200.621094 139.542969 201 139.609375 201.394531 139.554688 Z M 200.355469 140.601562 C 200.355469 140.980469 200.816406 141.285156 201.421875 141.285156 C 202.027344 141.285156 202.480469 140.980469 202.480469 140.601562 C 202.480469 140.222656 202.027344 139.921875 201.421875 139.921875 C 200.816406 139.921875 200.355469 140.222656 200.355469 140.601562 Z M 202.242188 142.824219 C 202.242188 142.421875 201.691406 142.113281 200.988281 142.113281 C 200.292969 142.113281 199.742188 142.421875 199.742188 142.824219 C 199.742188 143.222656 200.292969 143.535156 200.988281 143.535156 C 201.691406 143.535156 202.242188 143.222656 202.242188 142.824219 Z M 201.441406 144.699219 C 201.441406 144.304688 201.03125 143.988281 200.53125 143.988281 C 200.027344 143.988281 199.613281 144.304688 199.613281 144.699219 C 199.613281 145.089844 200.027344 145.410156 200.53125 145.410156 C 201.03125 145.410156 201.441406 145.089844 201.441406 144.699219 Z M 201.011719 147.042969 C 201.011719 146.601562 200.578125 146.238281 200.039062 146.238281 C 199.503906 146.238281 199.070312 146.601562 199.070312 147.042969 C 199.070312 147.488281 199.5 147.847656 200.039062 147.847656 C 200.578125 147.847656 201.011719 147.488281 201.011719 147.042969 Z M 200.222656 149.324219 C 200.222656 148.929688 199.863281 148.613281 199.429688 148.613281 C 198.996094 148.613281 198.632812 148.925781 198.632812 149.324219 C 198.632812 149.714844 198.996094 150.035156 199.429688 150.035156 C 199.863281 150.035156 200.222656 149.714844 200.222656 149.324219 Z M 198.847656 150.675781 C 198.429688 150.675781 198.085938 150.992188 198.085938 151.386719 C 198.085938 151.777344 198.429688 152.097656 198.847656 152.097656 C 199.265625 152.097656 199.609375 151.777344 199.609375 151.386719 C 199.609375 150.992188 199.265625 150.675781 198.847656 150.675781 Z M 198.203125 154.101562 C 198.632812 154.101562 198.996094 153.824219 198.996094 153.480469 C 198.996094 153.140625 198.632812 152.867188 198.203125 152.867188 C 197.769531 152.867188 197.414062 153.140625 197.414062 153.480469 C 197.414062 153.824219 197.769531 154.101562 198.203125 154.101562 Z M 197.472656 155.601562 C 197.871094 155.601562 198.199219 155.367188 198.199219 155.074219 C 198.199219 154.785156 197.878906 154.550781 197.472656 154.550781 C 197.054688 154.550781 196.738281 154.78125 196.738281 155.074219 C 196.738281 155.367188 197.066406 155.601562 197.472656 155.601562 Z M 196.765625 157.042969 C 197.144531 157.042969 197.46875 156.804688 197.46875 156.515625 C 197.46875 156.226562 197.144531 155.992188 196.765625 155.992188 C 196.375 155.992188 196.066406 156.226562 196.066406 156.515625 C 196.066406 156.804688 196.375 157.042969 196.765625 157.042969 Z M 176.070312 155.765625 L 176.195312 155.789062 L 177.152344 155.617188 C 178 155.429688 179.277344 155.144531 180.851562 155.101562 C 182 155.070312 183.246094 155.472656 184.148438 155.765625 C 184.972656 156.042969 185.378906 156.160156 185.535156 155.992188 C 185.632812 155.878906 185.574219 155.714844 185.519531 155.601562 C 185.273438 155.070312 184.191406 153.316406 180.660156 153.238281 C 178.367188 153.183594 176.496094 154.746094 176.097656 155.402344 C 176.015625 155.539062 175.996094 155.636719 176.035156 155.710938 Z M 189.199219 162.402344 C 189.421875 162.257812 189.519531 162.003906 189.503906 161.640625 C 189.429688 160.210938 189.046875 160.050781 188.257812 160.050781 C 187.460938 160.050781 186.882812 160.851562 186.882812 161.265625 C 186.882812 161.65625 187.167969 162 187.726562 162.28125 C 188.042969 162.445312 188.769531 162.683594 189.199219 162.402344 Z M 200.03125 179.863281 C 201.167969 180.394531 201.566406 180.582031 201.738281 180.636719 C 201.742188 180.636719 201.75 180.652344 201.75 180.652344 C 201.75 180.652344 201.757812 180.644531 201.757812 180.640625 C 201.835938 180.664062 201.863281 180.65625 201.878906 180.628906 C 201.871094 180.621094 201.824219 180.554688 201.800781 180.535156 C 201.816406 180.523438 201.828125 180.496094 201.828125 180.496094 C 201.828125 180.496094 201.757812 180.46875 201.75 180.460938 C 201 179.511719 196.464844 173.0625 195.5 168.820312 C 195.347656 168.121094 195.167969 167.46875 194.710938 167.207031 C 194.457031 167.066406 194.132812 167.054688 193.738281 167.1875 C 193.644531 167.210938 193.578125 167.289062 193.539062 167.398438 C 193.5 167.519531 193.480469 167.640625 193.488281 167.769531 C 193.488281 169.285156 195.101562 173.457031 195.628906 174.3125 C 198.546875 179.050781 199.972656 179.828125 200.03125 179.863281 Z M 237.09375 181.703125 L 236.921875 181.738281 C 236.925781 181.765625 236.964844 183.03125 236.964844 184.65625 C 236.964844 187.027344 236.882812 190.1875 236.472656 191.609375 C 236.140625 192.757812 234.613281 194.960938 233.382812 196.722656 C 233.382812 196.722656 231.949219 198.875 231.949219 198.878906 C 231.90625 198.949219 231.886719 199.03125 231.886719 199.113281 C 231.886719 199.324219 231.996094 199.527344 232.183594 199.652344 C 232.328125 199.75 232.847656 200.003906 233.570312 199.140625 L 234.488281 198.175781 C 235.707031 196.957031 237.226562 195.441406 238.296875 192.101562 C 239.46875 188.4375 237.113281 181.769531 237.09375 181.703125 Z M 198.90625 193.648438 C 199.015625 193.757812 199.195312 193.789062 199.382812 193.722656 C 199.703125 193.613281 199.878906 193.386719 199.90625 193.046875 C 199.949219 192.585938 200.269531 191.972656 200.746094 191.445312 C 200.867188 191.304688 200.960938 191.144531 201.023438 190.96875 C 201.085938 190.792969 201.113281 190.609375 201.105469 190.421875 C 201.097656 190.234375 201.050781 190.054688 200.976562 189.886719 C 200.898438 189.714844 200.789062 189.566406 200.652344 189.4375 L 200.046875 189.195312 C 199.65625 189.207031 199.363281 189.519531 199.347656 189.53125 C 199.144531 190.503906 198.945312 191.480469 198.75 192.457031 C 198.691406 192.617188 198.640625 193.394531 198.90625 193.648438 Z M 218.679688 204.460938 L 218.648438 204.445312 L 218.617188 204.460938 C 218.59375 204.480469 218.082031 204.71875 217.9375 205.214844 C 217.839844 205.550781 218.023438 205.84375 218.167969 206.082031 L 218.339844 206.402344 L 218.414062 207.039062 L 218.527344 207.976562 C 218.597656 208.207031 218.746094 208.3125 218.984375 208.296875 C 219.222656 208.289062 219.5 208.105469 219.59375 207.734375 C 219.714844 207.230469 219.777344 206.546875 219.777344 205.640625 C 219.773438 204.8125 218.726562 204.472656 218.679688 204.460938 Z M 187.988281 196.828125 C 187.921875 196.746094 180.671875 188.882812 179.105469 186.820312 C 177.511719 184.707031 176.746094 184.550781 175.964844 184.980469 C 175.839844 185.050781 175.773438 185.160156 175.761719 185.300781 C 175.648438 186.160156 177.457031 188.234375 179.042969 189.757812 C 181.261719 191.890625 187.808594 196.90625 187.875 196.957031 Z M 159.578125 173.609375 C 158.109375 172.699219 155.566406 172.191406 155.542969 172.183594 L 155.476562 172.335938 L 158.296875 174.460938 C 158.757812 174.84375 160.8125 176.117188 161.476562 175.597656 C 161.566406 175.527344 161.613281 175.433594 161.605469 175.316406 C 161.585938 174.933594 160.875 174.421875 159.578125 173.609375 Z M 158.890625 161.574219 L 159.089844 161.492188 C 159.34375 161.207031 158.757812 160.394531 158.046875 159.738281 C 157.40625 159.144531 156.757812 158.765625 156.414062 158.785156 L 156.222656 158.867188 C 156.179688 158.917969 156.160156 158.980469 156.164062 159.046875 C 156.164062 159.417969 156.671875 160.074219 157.261719 160.621094 C 157.902344 161.214844 158.558594 161.597656 158.890625 161.574219 Z M 166.425781 160.550781 L 166.136719 160.566406 C 165.589844 160.796875 164.71875 162.1875 164.027344 163.949219 C 163.535156 165.195312 163.167969 166.550781 163.167969 167.371094 C 163.167969 167.757812 163.25 168.019531 163.4375 168.097656 L 163.722656 168.082031 C 164.269531 167.847656 165.136719 166.453125 165.839844 164.695312 C 166.324219 163.449219 166.691406 162.089844 166.691406 161.273438 C 166.691406 160.886719 166.609375 160.621094 166.425781 160.550781 Z M 152.859375 151.953125 C 152.152344 151.953125 151.589844 152.289062 151.589844 152.710938 C 151.589844 153.132812 152.152344 153.464844 152.859375 153.464844 C 153.578125 153.464844 154.136719 153.132812 154.136719 152.710938 C 154.136719 152.289062 153.578125 151.953125 152.859375 151.953125 Z M 148.347656 161.34375 L 148.566406 161.324219 C 148.949219 161.136719 149.53125 160.097656 149.964844 158.796875 C 150.425781 157.417969 150.679688 155.933594 150.234375 155.777344 L 150.015625 155.796875 C 149.628906 155.992188 149.050781 157.027344 148.617188 158.324219 C 148.148438 159.707031 147.910156 161.191406 148.347656 161.34375 Z M 149.53125 168.492188 C 149.90625 167.988281 149.980469 167.421875 149.703125 167.207031 L 149.375 167.140625 C 149.105469 167.171875 148.78125 167.402344 148.539062 167.738281 C 148.164062 168.242188 148.089844 168.808594 148.367188 169.015625 L 148.691406 169.09375 C 148.964844 169.050781 149.289062 168.824219 149.53125 168.492188 Z M 149.097656 176.316406 L 149.066406 176.296875 L 148.925781 176.28125 C 148.417969 176.402344 148.773438 178.609375 149.035156 179.773438 C 149.410156 181.394531 149.910156 182.707031 150.261719 182.921875 L 150.289062 182.945312 L 150.429688 182.960938 C 150.945312 182.839844 150.578125 180.621094 150.320312 179.46875 C 149.949219 177.835938 149.453125 176.535156 149.097656 176.316406 Z M 143.984375 179.28125 C 143.574219 179.28125 143.246094 179.585938 143.246094 179.964844 C 143.246094 180.324219 143.574219 180.628906 143.984375 180.628906 C 144.390625 180.628906 144.734375 180.324219 144.734375 179.964844 C 144.734375 179.585938 144.394531 179.28125 143.984375 179.28125 Z M 156.542969 195.320312 C 156.308594 195.320312 156.105469 195.402344 155.9375 195.566406 C 155.769531 195.734375 155.683594 195.933594 155.679688 196.167969 C 155.679688 196.625 156.070312 197.003906 156.542969 197.003906 C 156.78125 197.007812 156.980469 196.925781 157.148438 196.765625 C 157.320312 196.601562 157.40625 196.402344 157.410156 196.167969 C 157.410156 195.933594 157.324219 195.730469 157.152344 195.566406 C 156.984375 195.402344 156.78125 195.320312 156.542969 195.320312 Z M 199.003906 217.667969 C 199.03125 217.707031 199.105469 217.847656 199.226562 217.835938 L 199.273438 217.832031 L 199.367188 217.695312 L 200.144531 215.320312 L 200.753906 213.742188 L 201.273438 212.539062 C 201.433594 212.132812 201.433594 211.863281 201.273438 211.707031 C 201.027344 211.480469 200.511719 211.671875 200.445312 211.695312 C 200.40625 211.730469 198.984375 214.101562 198.984375 214.101562 C 198.707031 214.527344 198.601562 215.097656 198.601562 215.6875 C 198.601562 216.523438 198.8125 217.359375 199.003906 217.667969 Z M 202.554688 229.523438 L 202.582031 229.285156 C 202.601562 229.144531 203.027344 225.84375 202.011719 224.566406 C 201.792969 224.273438 201.503906 224.109375 201.136719 224.078125 C 200.832031 224.046875 200.625 224.136719 200.507812 224.328125 C 199.890625 225.339844 202.316406 229.152344 202.425781 229.320312 Z M 208.238281 235.800781 C 207.996094 235.800781 207.785156 235.882812 207.613281 236.054688 C 207.4375 236.222656 207.351562 236.429688 207.347656 236.675781 C 207.347656 237.164062 207.746094 237.542969 208.238281 237.542969 C 208.480469 237.542969 208.683594 237.460938 208.855469 237.289062 C 209.027344 237.121094 209.109375 236.914062 209.109375 236.671875 C 209.109375 236.433594 209.027344 236.226562 208.855469 236.058594 C 208.683594 235.886719 208.480469 235.800781 208.238281 235.800781 Z M 194.855469 225.171875 C 194.4375 225.171875 194.082031 225.496094 194.082031 225.898438 C 194.082031 226.308594 194.4375 226.625 194.855469 226.625 C 195.28125 226.625 195.625 226.308594 195.625 225.898438 C 195.625 225.496094 195.28125 225.171875 194.855469 225.171875 Z M 204.609375 238.042969 L 204.515625 238.023438 C 204.050781 238.023438 202.304688 239.550781 200.816406 241.078125 C 200.683594 241.214844 197.449219 244.535156 197.875 244.964844 L 197.902344 244.992188 L 198.003906 245.015625 C 198.472656 245.015625 200.21875 243.480469 201.699219 241.964844 C 201.839844 241.824219 205.078125 238.515625 204.636719 238.066406 Z M 194.894531 247.015625 C 194.625 247.015625 194.199219 247.265625 193.824219 247.644531 C 193.371094 248.09375 193.046875 248.71875 193.285156 248.976562 L 193.304688 248.992188 L 193.285156 248.976562 L 193.527344 249.0625 C 193.800781 249.0625 194.226562 248.816406 194.601562 248.429688 C 195.042969 247.972656 195.378906 247.363281 195.128906 247.105469 Z M 190.632812 253.15625 C 190.300781 253.15625 189.832031 253.429688 189.421875 253.84375 C 188.992188 254.273438 188.75 254.75 188.75 255.078125 C 188.75 255.203125 188.78125 255.308594 188.859375 255.378906 L 189.164062 255.492188 C 189.488281 255.492188 189.972656 255.230469 190.371094 254.8125 C 190.96875 254.203125 191.207031 253.550781 190.9375 253.269531 Z M 168.347656 222.222656 C 167.710938 222.222656 167.191406 222.589844 167.191406 223.046875 C 167.191406 223.503906 167.710938 223.855469 168.347656 223.855469 C 168.992188 223.855469 169.507812 223.503906 169.507812 223.046875 C 169.507812 222.589844 168.992188 222.222656 168.347656 222.222656 Z M 177.785156 222.882812 C 177.332031 222.882812 176.980469 223.128906 176.980469 223.449219 C 176.980469 223.753906 177.332031 224 177.785156 224 C 178.222656 224 178.585938 223.75 178.585938 223.449219 C 178.585938 223.136719 178.222656 222.882812 177.785156 222.882812 Z M 189.304688 226.738281 L 189.375 226.632812 C 189.503906 226.089844 186.785156 225.242188 185.335938 224.875 C 183.589844 224.429688 181.519531 224.070312 181.058594 224.347656 L 181.027344 224.367188 L 180.953125 224.480469 C 180.824219 225.027344 183.539062 225.863281 184.992188 226.246094 C 186.734375 226.683594 188.808594 227.027344 189.273438 226.757812 Z M 189.304688 226.738281 " fill-opacity="1" fill-rule="evenodd"/></svg>