<svg xmlns="http://www.w3.org/2000/svg" xmlns:xlink="http://www.w3.org/1999/xlink" width="512" zoomAndPan="magnify" viewBox="0 0 384 383.999986" height="512" preserveAspectRatio="xMidYMid meet" version="1.0"><defs><clipPath id="1fcc7fdd2b"><path d="M 62.515625 93.957031 L 321.265625 93.957031 L 321.265625 289.707031 L 62.515625 289.707031 Z M 62.515625 93.957031 " clip-rule="nonzero"/></clipPath></defs><g clip-path="url(#1fcc7fdd2b)"><path fill="#000000" d="M 130.324219 93.957031 L 158.429688 93.957031 L 158.429688 289.707031 L 130.324219 289.707031 Z M 250.808594 93.957031 L 250.808594 117.574219 L 272.597656 117.574219 L 272.597656 289.707031 L 299.828125 289.707031 L 299.828125 117.574219 L 321.265625 117.574219 L 321.265625 93.957031 Z M 62.515625 289.707031 L 89.75 289.707031 L 89.75 200.898438 L 112.941406 200.898438 L 112.941406 177.605469 L 89.75 177.605469 L 89.75 117.574219 L 120.003906 117.574219 L 120.003906 93.957031 L 62.515625 93.957031 Z M 254.417969 276.882812 C 254.421875 281.171875 254.425781 285.445312 254.425781 289.707031 L 228.953125 289.707031 C 228.929688 282.300781 228.914062 274.859375 228.902344 267.378906 C 228.882812 259.914062 228.847656 252.433594 228.765625 244.976562 C 228.605469 230.082031 228.261719 215.246094 227.484375 200.898438 L 197.527344 200.898438 L 197.527344 289.707031 L 173.066406 289.707031 L 173.066406 93.957031 L 230.535156 93.957031 C 234.019531 100.699219 236.964844 107.671875 239.363281 114.875 C 241.84375 122.3125 243.894531 129.863281 245.507812 137.535156 C 247.179688 145.328125 248.507812 153.363281 249.574219 161.539062 C 250.640625 169.714844 251.453125 178.078125 252.078125 186.515625 C 252.707031 194.945312 253.152344 203.527344 253.476562 212.113281 C 253.800781 220.691406 254.007812 229.394531 254.144531 238.027344 C 254.28125 246.644531 254.347656 255.394531 254.382812 263.976562 C 254.402344 268.289062 254.414062 272.589844 254.417969 276.882812 Z M 225.75 177.605469 C 223.558594 155.222656 219.804688 134.507812 213.304688 117.574219 L 197.527344 117.574219 L 197.527344 177.605469 Z M 225.75 177.605469 " fill-opacity="1" fill-rule="nonzero"/></g></svg>