<svg xmlns="http://www.w3.org/2000/svg" xmlns:xlink="http://www.w3.org/1999/xlink" width="512" zoomAndPan="magnify" viewBox="0 0 384 383.999986" height="512" preserveAspectRatio="xMidYMid meet" version="1.0"><defs><clipPath id="fd9e060875"><path d="M 39 128.417969 L 366.898438 128.417969 L 366.898438 252 L 39 252 Z M 39 128.417969 " clip-rule="nonzero"/></clipPath></defs><g clip-path="url(#fd9e060875)"><path fill="#00095b" d="M 309.757812 170.644531 C 310 170.230469 309.746094 169.921875 309.222656 169.921875 C 306.5 169.921875 302.929688 169.933594 300.105469 169.933594 C 299.429688 169.933594 299.078125 170.015625 298.757812 170.644531 C 297.710938 172.652344 284.953125 191.8125 282.582031 195.527344 C 282.183594 196.097656 281.695312 196.015625 281.636719 195.367188 C 281.398438 193.160156 279.496094 190.613281 276.496094 189.402344 C 274.214844 188.476562 271.972656 188.304688 269.65625 188.613281 C 265.460938 189.171875 261.722656 191.402344 258.441406 193.890625 C 253.492188 197.660156 249.21875 202.550781 243.699219 206.171875 C 240.691406 208.136719 236.566406 209.851562 233.804688 207.292969 C 231.308594 204.972656 231.59375 199.820312 235.414062 195.835938 C 235.8125 195.410156 236.304688 195.765625 236.222656 196.144531 C 235.859375 197.949219 236.304688 199.742188 237.671875 200.996094 C 239.335938 202.496094 241.71875 202.667969 243.757812 201.660156 C 246.164062 200.460938 247.578125 198.152344 248 195.535156 C 248.636719 191.46875 245.511719 187.882812 241.601562 187.597656 C 238.421875 187.367188 235.378906 188.476562 232.414062 190.933594 C 230.933594 192.167969 230.078125 193.082031 228.800781 194.917969 C 228.496094 195.367188 228.003906 195.410156 228.027344 194.75 C 228.175781 189.539062 226.03125 186.613281 221.734375 186.511719 C 218.40625 186.433594 214.839844 188.246094 212.066406 190.464844 C 209.023438 192.910156 206.367188 196.164062 203.519531 199.214844 C 203.164062 199.59375 202.859375 199.570312 202.753906 198.839844 C 202.664062 195.386719 201.808594 192.050781 200.210938 189.675781 C 199.652344 188.851562 198.46875 188.441406 197.464844 189.003906 C 197.011719 189.253906 195.402344 189.996094 194.238281 190.933594 C 193.660156 191.414062 193.441406 192.097656 193.691406 192.988281 C 195.230469 198.140625 194.890625 204.003906 192.804688 208.949219 C 190.886719 213.484375 187.160156 217.574219 182.785156 218.957031 C 179.898438 219.871094 176.902344 219.425781 175.042969 216.867188 C 172.5 213.335938 173.527344 207.179688 177.324219 202.082031 C 180.675781 197.59375 185.519531 194.738281 190.351562 192.898438 C 190.921875 192.679688 191.035156 192.316406 190.875 191.824219 C 190.613281 191.023438 190.191406 189.9375 190.023438 189.449219 C 189.578125 188.269531 188.335938 188.078125 186.820312 188.238281 C 183.308594 188.648438 180.140625 189.847656 177.003906 191.527344 C 168.808594 195.925781 164.703125 204.4375 162.902344 208.996094 C 162.039062 211.1875 161.296875 212.546875 160.339844 213.757812 C 159.050781 215.382812 157.421875 216.867188 154.457031 219.484375 C 154.183594 219.722656 153.988281 220.226562 154.21875 220.683594 C 154.523438 221.3125 156.0625 223.492188 156.496094 223.6875 C 156.976562 223.925781 157.546875 223.597656 157.761719 223.4375 C 159.835938 222.03125 162.320312 219.792969 163.542969 218.273438 C 163.964844 217.757812 164.40625 217.976562 164.636719 218.761719 C 165.777344 222.820312 168.738281 226.132812 172.84375 227.515625 C 180.355469 230.050781 188.152344 226.371094 194.035156 219.972656 C 197.773438 215.90625 199.117188 213.289062 200.554688 211.507812 C 202.984375 208.492188 207.769531 201.742188 213.480469 197.410156 C 215.578125 195.8125 218.054688 194.601562 219.296875 195.398438 C 220.296875 196.050781 220.617188 197.558594 219.011719 200.484375 C 213.195312 211.132812 204.636719 223.640625 203.0625 226.679688 C 202.777344 227.207031 203.027344 227.617188 203.574219 227.617188 C 206.617188 227.605469 209.640625 227.605469 212.398438 227.605469 C 212.855469 227.582031 213.058594 227.378906 213.300781 227.046875 C 217.769531 220.042969 221.960938 213.371094 226.464844 206.480469 C 226.714844 206.070312 226.945312 206.390625 226.957031 206.574219 C 227.046875 208.171875 227.445312 210.367188 228.390625 211.792969 C 230.089844 214.445312 232.507812 215.585938 235.1875 215.609375 C 237.316406 215.632812 238.386719 215.3125 240.691406 214.457031 C 242.5625 213.757812 244.066406 212.84375 245.207031 212.023438 C 245.878906 211.554688 245.992188 212.34375 245.980469 212.457031 C 244.941406 218.019531 246.21875 224.601562 251.738281 227.34375 C 258.335938 230.597656 265.585938 226.019531 269.757812 221.882812 C 270.167969 221.484375 270.601562 221.527344 270.648438 222.386719 C 270.738281 223.960938 271.445312 225.835938 272.757812 227.148438 C 276.257812 230.667969 283.300781 229.273438 290.378906 223.777344 C 294.929688 220.261719 299.683594 215.289062 303.980469 210.035156 C 304.140625 209.828125 304.253906 209.507812 303.945312 209.179688 C 303.296875 208.492188 302.347656 207.703125 301.699219 207.097656 C 301.402344 206.847656 300.96875 206.914062 300.71875 207.109375 C 296.320312 211.304688 292.351562 216.089844 286.617188 220.054688 C 284.691406 221.402344 281.601562 222.5 280.222656 220.625 C 279.6875 219.894531 279.746094 218.890625 280.28125 217.5625 C 281.945312 213.382812 308.390625 173.019531 309.757812 170.644531 Z M 274.808594 204.480469 C 274.867188 204.789062 275.265625 205.089844 275.664062 205.238281 C 275.800781 205.28125 275.878906 205.386719 275.722656 205.714844 C 274.59375 208.128906 273.566406 209.519531 272.152344 211.625 C 270.851562 213.566406 269.394531 215.074219 267.628906 216.523438 C 264.960938 218.742188 261.253906 221.140625 258.1875 219.527344 C 256.832031 218.820312 256.238281 216.914062 256.261719 215.371094 C 256.332031 211.027344 258.257812 206.5625 261.8125 202.1875 C 266.15625 196.828125 270.957031 194.050781 274.101562 195.570312 C 277.363281 197.125 276.324219 200.90625 274.867188 203.875 C 274.75 204.105469 274.742188 204.300781 274.808594 204.480469 Z M 117.933594 227.457031 C 108.074219 227.527344 99.386719 221.414062 98.382812 210.847656 C 97.824219 204.984375 99.480469 199.765625 102.796875 195.46875 C 105.726562 191.640625 110.695312 188.453125 114.902344 187.675781 C 116.269531 187.425781 118.105469 187.585938 118.867188 188.488281 C 120.066406 189.882812 119.710938 191.402344 118.527344 192.019531 C 115.324219 193.664062 111.460938 196.472656 109.542969 200.300781 C 107.992188 203.429688 107.6875 207.214844 110.046875 210.800781 C 114 216.796875 125.046875 216.957031 135.304688 207.394531 C 137.847656 205.054688 140.117188 202.816406 142.429688 200.152344 C 146.957031 194.976562 148.449219 193.082031 154.46875 184.730469 C 154.535156 184.636719 154.558594 184.5 154.523438 184.445312 C 154.480469 184.339844 154.386719 184.304688 154.21875 184.296875 C 150.203125 184.410156 146.707031 185.609375 143.308594 188.15625 C 142.328125 188.875 140.925781 188.773438 140.300781 187.824219 C 139.613281 186.761719 140.105469 185.367188 141.234375 184.59375 C 146.707031 180.777344 152.679688 180.089844 158.777344 179.0625 C 158.777344 179.0625 159.199219 179.085938 159.550781 178.617188 C 162.058594 175.394531 163.953125 172.492188 166.621094 169.238281 C 169.308594 165.933594 172.785156 162.898438 175.441406 160.621094 C 179.148438 157.425781 181.519531 156.351562 183.933594 155.035156 C 184.574219 154.703125 183.855469 154.304688 183.660156 154.304688 C 170.175781 151.769531 156.167969 148.480469 142.773438 153.449219 C 133.503906 156.921875 129.433594 164.289062 131.394531 169.214844 C 132.785156 172.710938 137.371094 173.269531 141.667969 171.167969 C 145.234375 169.421875 148.527344 166.597656 150.867188 162.964844 C 152.175781 160.953125 154.933594 162.40625 153.441406 165.902344 C 149.519531 175.132812 142.03125 182.457031 132.914062 182.765625 C 125.148438 183.015625 120.144531 177.292969 120.15625 170.230469 C 120.191406 156.304688 135.660156 147.140625 151.902344 145.757812 C 171.476562 144.136719 190.011719 149.359375 209.445312 151.722656 C 224.332031 153.527344 238.617188 153.574219 253.574219 150.125 C 255.339844 149.734375 256.582031 150.867188 256.46875 152.660156 C 256.320312 155.253906 254.324219 157.742188 249.390625 160.441406 C 243.78125 163.523438 237.921875 164.449219 231.789062 164.507812 C 216.980469 164.632812 203.175781 158.839844 188.90625 155.734375 C 188.925781 156.363281 189.085938 157.105469 188.5625 157.503906 C 180.652344 163.351562 173.503906 169.28125 168.71875 177.621094 C 168.558594 177.816406 168.648438 178 168.921875 177.976562 C 173.082031 177.761719 176.820312 177.644531 180.699219 177.335938 C 181.371094 177.28125 181.40625 177.109375 181.335938 176.617188 C 180.992188 173.738281 181.828125 170.472656 184.355469 168.210938 C 186.933594 165.890625 190.171875 165.628906 192.3125 167.296875 C 194.753906 169.203125 194.535156 172.617188 193.203125 175.1875 C 191.847656 177.792969 189.613281 179.1875 187.457031 179.863281 C 187.457031 179.863281 187.011719 179.964844 187.070312 180.375 C 187.160156 181.039062 190.089844 182.660156 190.339844 183.09375 C 190.582031 183.507812 190.457031 184.148438 190.011719 184.636719 C 189.703125 184.992188 189.210938 185.324219 188.597656 185.3125 C 188.097656 185.300781 187.789062 185.128906 187.148438 184.773438 C 185.839844 184.054688 184.199219 182.890625 183.089844 181.507812 C 182.714844 181.039062 182.53125 181.027344 181.597656 181.085938 C 177.402344 181.324219 170.847656 181.964844 166.414062 182.511719 C 165.34375 182.648438 165.183594 182.84375 164.957031 183.222656 C 157.875 194.910156 150.332031 207.519531 142.042969 215.953125 C 133.175781 225.011719 125.777344 227.402344 117.933594 227.457031 Z M 185.335938 175.507812 C 185.449219 176.113281 185.679688 176.230469 185.953125 176.171875 C 187.296875 175.898438 188.78125 174.789062 189.644531 173.511719 C 190.445312 172.34375 190.820312 170.652344 190.023438 169.980469 C 189.316406 169.375 188.175781 169.546875 187.320312 170.300781 C 185.632812 171.796875 185.121094 173.921875 185.335938 175.507812 Z M 203.679688 128.417969 C 112.566406 128.417969 39.519531 155.789062 39.519531 190.109375 C 39.519531 224.222656 113.15625 251.804688 203.679688 251.804688 C 294.199219 251.804688 367.835938 224.132812 367.835938 190.109375 C 367.835938 156.097656 294.199219 128.417969 203.679688 128.417969 Z M 203.679688 247.121094 C 116.199219 247.121094 45.070312 221.675781 45.070312 190.554688 C 45.070312 159.433594 116.199219 133.148438 203.679688 133.148438 C 291.15625 133.148438 362.308594 159.421875 362.308594 190.554688 C 362.308594 221.675781 291.15625 247.121094 203.679688 247.121094 Z M 203.679688 247.121094 " fill-opacity="1" fill-rule="nonzero"/></g></svg>