<svg xmlns="http://www.w3.org/2000/svg" xmlns:xlink="http://www.w3.org/1999/xlink" width="512" zoomAndPan="magnify" viewBox="0 0 384 383.999986" height="512" preserveAspectRatio="xMidYMid meet" version="1.0"><defs><clipPath id="569f40e10a"><path d="M 134 122.078125 L 250 122.078125 L 250 158 L 134 158 Z M 134 122.078125 " clip-rule="nonzero"/></clipPath><clipPath id="5a9b669487"><path d="M 63 122.078125 L 132 122.078125 L 132 155 L 63 155 Z M 63 122.078125 " clip-rule="nonzero"/></clipPath><clipPath id="d445ce7a0f"><path d="M 252 122.078125 L 320.960938 122.078125 L 320.960938 155 L 252 155 Z M 252 122.078125 " clip-rule="nonzero"/></clipPath><clipPath id="e4c8411557"><path d="M 63 223 L 112 223 L 112 260.597656 L 63 260.597656 Z M 63 223 " clip-rule="nonzero"/></clipPath><clipPath id="c6f49b0838"><path d="M 122 223 L 171 223 L 171 260.597656 L 122 260.597656 Z M 122 223 " clip-rule="nonzero"/></clipPath><clipPath id="750c6e111a"><path d="M 180 223 L 229 223 L 229 260.597656 L 180 260.597656 Z M 180 223 " clip-rule="nonzero"/></clipPath><clipPath id="dce210b38c"><path d="M 238 223 L 281 223 L 281 260.597656 L 238 260.597656 Z M 238 223 " clip-rule="nonzero"/></clipPath><clipPath id="6f759897b5"><path d="M 268 223 L 320.960938 223 L 320.960938 260.597656 L 268 260.597656 Z M 268 223 " clip-rule="nonzero"/></clipPath></defs><g clip-path="url(#569f40e10a)"><path fill="#000000" d="M 174.960938 122.199219 C 174.84375 122.316406 165.671875 122.476562 154.554688 122.515625 L 134.351562 122.59375 L 134.628906 130.363281 C 134.945312 139.242188 135.261719 147.367188 135.460938 150.8125 C 135.539062 152.121094 135.621094 153.507812 135.621094 153.867188 C 135.660156 154.777344 136.375 154.816406 153.367188 155.769531 C 184.289062 157.472656 199.8125 157.511719 226.964844 155.964844 C 232.523438 155.648438 239.074219 155.253906 241.457031 155.132812 C 246.972656 154.816406 247.964844 154.738281 248.164062 154.539062 C 248.324219 154.339844 249.238281 132.582031 249.355469 126.714844 L 249.394531 122.871094 L 246.21875 122.671875 C 240.898438 122.4375 175.160156 121.960938 174.960938 122.199219 Z M 174.960938 122.199219 " fill-opacity="1" fill-rule="nonzero"/></g><g clip-path="url(#5a9b669487)"><path fill="#000000" d="M 106.484375 123.152344 C 97.871094 123.347656 80.085938 124.140625 76.3125 124.457031 C 70.675781 125.011719 68.375 125.804688 66.113281 128.066406 C 63.332031 130.839844 62.894531 132.703125 63.09375 141.5 C 63.175781 145.542969 63.371094 148.753906 63.609375 148.992188 C 63.847656 149.191406 65.636719 149.46875 67.582031 149.625 C 69.566406 149.746094 73.019531 150.023438 75.320312 150.222656 C 80.125 150.65625 81.238281 150.734375 94.574219 151.804688 C 100.054688 152.203125 106.285156 152.679688 108.46875 152.796875 C 110.652344 152.914062 114.582031 153.191406 117.203125 153.390625 C 119.824219 153.628906 123.476562 153.867188 125.339844 154.027344 C 127.207031 154.144531 129.390625 154.304688 130.222656 154.382812 L 131.691406 154.5 L 131.691406 152.679688 C 131.691406 151.648438 131.414062 145.265625 131.097656 138.527344 C 130.78125 131.75 130.503906 125.488281 130.503906 124.539062 L 130.503906 122.832031 L 120.496094 122.953125 C 114.980469 123.03125 108.667969 123.109375 106.484375 123.152344 Z M 106.484375 123.152344 " fill-opacity="1" fill-rule="nonzero"/></g><g clip-path="url(#d445ce7a0f)"><path fill="#000000" d="M 252.808594 136.589844 C 252.53125 144.199219 252.253906 151.214844 252.171875 152.164062 C 252.09375 153.15625 252.09375 154.027344 252.171875 154.1875 C 252.253906 154.304688 253.960938 154.304688 256.023438 154.144531 C 258.050781 153.988281 261.582031 153.75 263.886719 153.628906 C 266.1875 153.472656 268.964844 153.273438 270.039062 153.195312 C 271.148438 153.117188 273.453125 152.957031 275.199219 152.839844 C 279.921875 152.519531 303.425781 150.65625 312.515625 149.90625 L 320.453125 149.230469 L 320.691406 146.851562 C 321.171875 142.058594 320.8125 133.496094 320.058594 131.4375 C 319.144531 128.898438 316.921875 126.71875 314.222656 125.726562 C 310.410156 124.300781 297.113281 123.507812 268.609375 123.035156 L 253.324219 122.753906 Z M 252.808594 136.589844 " fill-opacity="1" fill-rule="nonzero"/></g><path fill="#000000" d="M 64.007812 154.660156 C 65.078125 161.597656 66.785156 166.351562 69.367188 169.761719 C 74.128906 176.023438 82.703125 180.226562 98.902344 184.109375 C 109.660156 186.6875 134.390625 191.519531 134.628906 191.085938 C 134.707031 190.964844 134.46875 187.082031 134.074219 182.523438 C 133.675781 177.925781 133.042969 170.632812 132.683594 166.273438 C 132.328125 161.914062 132.007812 158.347656 131.96875 158.308594 C 131.929688 158.269531 126.171875 157.871094 119.1875 157.394531 C 112.199219 156.921875 105.609375 156.445312 104.5 156.367188 C 103.425781 156.285156 101.164062 156.089844 99.535156 155.96875 C 97.910156 155.851562 95.566406 155.691406 94.375 155.574219 C 93.183594 155.453125 91.039062 155.296875 89.613281 155.175781 C 77.703125 154.304688 66.148438 153.351562 65.078125 153.15625 L 63.726562 152.957031 Z M 64.007812 154.660156 " fill-opacity="1" fill-rule="nonzero"/><path fill="#000000" d="M 311.328125 153.785156 C 306.960938 154.183594 301.800781 154.621094 299.816406 154.777344 C 297.871094 154.898438 295.527344 155.09375 294.65625 155.175781 C 293.78125 155.253906 291.558594 155.410156 289.691406 155.570312 C 287.828125 155.6875 285.445312 155.886719 284.332031 155.96875 C 281.871094 156.203125 280.203125 156.324219 264.683594 157.394531 C 257.816406 157.871094 252.097656 158.304688 252.058594 158.382812 C 251.898438 158.503906 249.199219 188.347656 249.199219 190.089844 L 249.199219 191.320312 L 256.265625 190.050781 C 260.15625 189.339844 267.777344 187.832031 273.21875 186.683594 C 296.082031 181.925781 305.09375 178.675781 311.367188 173.050781 C 315.972656 168.886719 317.917969 165.082031 319.425781 157.234375 C 320.101562 153.667969 320.101562 152.914062 319.503906 153.035156 C 319.386719 153.074219 315.695312 153.429688 311.328125 153.785156 Z M 311.328125 153.785156 " fill-opacity="1" fill-rule="nonzero"/><path fill="#000000" d="M 136.179688 162.1875 C 136.496094 167.183594 138.402344 189.335938 138.640625 190.882812 L 138.839844 192.074219 L 144.316406 192.984375 C 153.050781 194.410156 167.421875 196.472656 175.359375 197.421875 C 184.890625 198.574219 198.1875 198.652344 206.921875 197.660156 C 220.101562 196.113281 244.355469 192.429688 244.914062 191.875 C 245.03125 191.753906 245.269531 190.644531 245.390625 189.457031 C 245.628906 187.117188 245.628906 187.039062 246.816406 172.613281 C 247.253906 167.378906 247.730469 162.070312 247.851562 160.761719 L 248.089844 158.460938 L 243.800781 158.738281 C 241.417969 158.898438 238.679688 159.058594 237.6875 159.136719 C 236.695312 159.214844 233.597656 159.375 230.742188 159.53125 C 227.921875 159.691406 224.90625 159.851562 224.070312 159.929688 C 213.273438 160.921875 173.457031 160.921875 159.679688 159.929688 C 158.609375 159.851562 155.632812 159.691406 153.128906 159.53125 C 150.628906 159.414062 147.492188 159.214844 146.183594 159.136719 C 144.875 159.058594 142.015625 158.859375 139.871094 158.738281 L 135.941406 158.460938 Z M 136.179688 162.1875 " fill-opacity="1" fill-rule="nonzero"/><g clip-path="url(#e4c8411557)"><path fill="#000000" d="M 66.03125 224.054688 C 63.015625 225.761719 63.015625 225.878906 63.015625 241.773438 C 63.015625 257.667969 63.015625 257.785156 66.03125 259.488281 L 67.582031 260.402344 L 111.84375 260.402344 L 111.84375 238.601562 L 95.886719 238.679688 L 79.886719 238.800781 L 79.886719 244.746094 L 92.511719 244.863281 L 105.097656 244.945312 L 105.097656 254.058594 L 69.765625 254.058594 L 69.765625 241.773438 C 69.765625 234.996094 69.882812 229.484375 70.082031 229.484375 C 70.242188 229.484375 79.648438 229.445312 91.003906 229.367188 L 111.644531 229.289062 L 111.765625 226.195312 L 111.882812 223.144531 L 67.582031 223.144531 Z M 66.03125 224.054688 " fill-opacity="1" fill-rule="nonzero"/></g><g clip-path="url(#c6f49b0838)"><path fill="#000000" d="M 122.960938 239.515625 C 122.960938 257.984375 122.921875 257.785156 126.019531 259.492188 C 127.605469 260.402344 127.605469 260.402344 149.003906 260.402344 L 170.402344 260.441406 L 170.402344 254.257812 L 150.074219 254.140625 L 129.710938 254.0625 L 129.710938 244.945312 L 149.480469 244.867188 L 169.210938 244.746094 L 169.210938 238.800781 L 149.441406 238.683594 L 129.671875 238.605469 L 129.789062 234.007812 L 129.910156 229.449219 L 150.15625 229.371094 L 170.402344 229.289062 L 170.519531 226.199219 L 170.640625 223.148438 L 122.960938 223.148438 Z M 122.960938 239.515625 " fill-opacity="1" fill-rule="nonzero"/></g><g clip-path="url(#750c6e111a)"><path fill="#000000" d="M 180.601562 239.871094 C 180.722656 255.921875 180.761719 256.675781 181.515625 257.707031 C 181.953125 258.300781 182.945312 259.132812 183.738281 259.570312 C 185.167969 260.402344 185.683594 260.402344 206.683594 260.402344 L 228.160156 260.402344 L 228.160156 254.058594 L 187.273438 254.058594 L 187.273438 244.945312 L 207.042969 244.863281 L 226.773438 244.746094 L 226.890625 241.652344 L 227.011719 238.601562 L 187.234375 238.601562 L 187.351562 234.042969 L 187.472656 229.445312 L 227.964844 229.289062 L 228.082031 226.195312 L 228.203125 223.144531 L 180.484375 223.144531 Z M 180.601562 239.871094 " fill-opacity="1" fill-rule="nonzero"/></g><g clip-path="url(#dce210b38c)"><path fill="#000000" d="M 238.476562 239.632812 C 238.476562 255.722656 238.519531 256.199219 239.3125 257.507812 C 239.789062 258.222656 240.820312 259.171875 241.695312 259.609375 C 243.121094 260.359375 244.074219 260.402344 261.898438 260.402344 L 280.558594 260.402344 L 280.558594 254.058594 L 245.226562 254.058594 L 245.226562 223.144531 L 238.476562 223.144531 Z M 238.476562 239.632812 " fill-opacity="1" fill-rule="nonzero"/></g><g clip-path="url(#6f759897b5)"><path fill="#000000" d="M 279.488281 234.5625 L 290.878906 245.9375 L 290.878906 253.109375 C 290.878906 257.035156 290.960938 260.363281 291.039062 260.441406 C 291.117188 260.523438 292.667969 260.5625 294.414062 260.480469 L 297.628906 260.324219 L 297.628906 246.332031 L 309.21875 234.761719 L 320.851562 223.148438 L 312.117188 223.148438 L 303.308594 231.945312 L 294.453125 240.785156 L 285.601562 231.945312 L 276.789062 223.148438 L 268.054688 223.148438 Z M 279.488281 234.5625 " fill-opacity="1" fill-rule="nonzero"/></g></svg>