<svg xmlns="http://www.w3.org/2000/svg" xmlns:xlink="http://www.w3.org/1999/xlink" width="512" zoomAndPan="magnify" viewBox="0 0 384 383.999986" height="512" preserveAspectRatio="xMidYMid meet" version="1.0"><defs><clipPath id="46d8269edc"><path d="M 35.242188 254 L 100 254 L 100 291 L 35.242188 291 Z M 35.242188 254 " clip-rule="nonzero"/></clipPath><clipPath id="ff2ca466e9"><path d="M 281 254 L 348.742188 254 L 348.742188 291 L 281 291 Z M 281 254 " clip-rule="nonzero"/></clipPath><clipPath id="282146e8bb"><path d="M 101 253 L 160 253 L 160 291.800781 L 101 291.800781 Z M 101 253 " clip-rule="nonzero"/></clipPath><clipPath id="faadf967bf"><path d="M 106 92.300781 L 278 92.300781 L 278 232 L 106 232 Z M 106 92.300781 " clip-rule="nonzero"/></clipPath></defs><g clip-path="url(#46d8269edc)"><path fill="#020a0a" d="M 71.386719 259.710938 L 76.121094 260.277344 C 78.253906 260.527344 78.472656 262.316406 78.472656 263.445312 L 78.472656 269.089844 L 56.589844 269.089844 L 56.589844 263.445312 C 56.589844 262.285156 56.808594 260.496094 58.941406 260.277344 L 63.675781 259.710938 L 63.675781 254.882812 L 35.242188 254.882812 L 35.242188 259.710938 L 40.007812 260.277344 C 42.136719 260.527344 42.359375 262.316406 42.359375 263.445312 L 42.359375 281.984375 C 42.359375 283.113281 42.136719 284.929688 40.007812 285.152344 L 35.242188 285.746094 L 35.242188 290.578125 L 63.707031 290.578125 L 63.707031 285.746094 L 58.972656 285.183594 C 56.839844 284.929688 56.621094 283.144531 56.621094 282.015625 L 56.621094 276.367188 L 78.503906 276.367188 L 78.503906 282.015625 C 78.503906 283.144531 78.285156 284.960938 76.152344 285.183594 L 71.417969 285.746094 L 71.417969 290.578125 L 99.886719 290.578125 L 99.886719 285.746094 L 95.121094 285.183594 C 92.988281 284.929688 92.738281 283.144531 92.738281 282.015625 L 92.738281 263.476562 C 92.738281 262.316406 92.957031 260.527344 95.121094 260.308594 L 99.886719 259.742188 L 99.886719 254.914062 L 71.417969 254.914062 L 71.417969 259.710938 Z M 71.386719 259.710938 " fill-opacity="1" fill-rule="evenodd"/></g><path fill="#020a0a" d="M 258.609375 283.738281 L 246.695312 283.738281 L 246.695312 261.71875 L 258.609375 261.71875 C 265.632812 261.71875 268.046875 265.074219 268.046875 272.730469 C 268.015625 280.382812 265.632812 283.738281 258.609375 283.738281 Z M 261.179688 254.847656 L 226.039062 254.847656 L 226.039062 259.679688 L 230.238281 260.121094 C 231.742188 260.308594 232.714844 260.933594 232.714844 263.035156 L 232.714844 281.953125 C 232.714844 283.082031 232.496094 284.898438 230.363281 285.121094 L 225.597656 285.683594 L 225.597656 290.515625 L 261.179688 290.515625 C 273.910156 290.515625 284.378906 285.371094 284.378906 272.667969 C 284.378906 260.023438 273.910156 254.847656 261.179688 254.847656 Z M 261.179688 254.847656 " fill-opacity="1" fill-rule="evenodd"/><g clip-path="url(#ff2ca466e9)"><path fill="#020a0a" d="M 304.316406 273.324219 L 311.027344 262.316406 L 318.175781 273.324219 Z M 344.226562 285.214844 C 341.96875 284.929688 341.25 283.488281 340.558594 282.421875 L 324.164062 257.234375 C 322.972656 255.414062 322.125 254.847656 320.371094 254.847656 L 293.378906 254.847656 L 293.378906 259.679688 L 299.835938 260.433594 C 300.710938 260.527344 302 261.78125 300.964844 263.445312 L 288.863281 283.238281 C 288.359375 284.054688 287.765625 284.960938 286.355469 285.152344 L 281.527344 285.714844 L 281.527344 290.546875 L 304.253906 290.546875 L 304.253906 285.714844 L 300.335938 285.308594 C 298.675781 285.121094 297.765625 283.957031 298.613281 282.578125 L 300.429688 279.597656 L 322.28125 279.597656 L 323.878906 282.078125 C 325.292969 284.242188 323.503906 285.121094 321.96875 285.308594 L 317.957031 285.714844 L 317.957031 290.546875 L 348.710938 290.546875 L 348.710938 285.714844 Z M 344.226562 285.214844 " fill-opacity="1" fill-rule="evenodd"/></g><path fill="#020a0a" d="M 200.644531 259.710938 L 205.410156 260.277344 C 207.539062 260.527344 207.792969 262.316406 207.792969 263.445312 L 207.792969 281.324219 L 188.980469 256.386719 C 188.136719 255.226562 187.414062 254.882812 185.375 254.882812 L 160.953125 254.882812 L 160.953125 259.710938 L 165.71875 260.277344 C 167.851562 260.527344 168.101562 262.316406 168.101562 263.445312 L 168.101562 281.984375 C 168.101562 283.113281 167.882812 284.929688 165.71875 285.152344 L 160.953125 285.714844 L 160.953125 290.546875 L 183.683594 290.546875 L 183.683594 285.714844 L 178.917969 285.152344 C 176.785156 284.898438 176.535156 283.113281 176.535156 281.984375 L 176.535156 264.101562 L 195.34375 289.039062 C 196.191406 290.199219 196.945312 290.546875 198.949219 290.546875 L 216.257812 290.546875 L 216.257812 263.414062 C 216.257812 262.253906 216.476562 260.464844 218.605469 260.246094 L 223.371094 259.679688 L 223.371094 254.847656 L 200.644531 254.847656 Z M 200.644531 259.710938 " fill-opacity="1" fill-rule="evenodd"/><g clip-path="url(#282146e8bb)"><path fill="#020a0a" d="M 130.324219 284.992188 C 121.359375 284.992188 117.628906 281.230469 117.628906 272.730469 C 117.628906 264.230469 121.359375 260.464844 130.324219 260.464844 C 139.292969 260.464844 143.023438 264.261719 143.023438 272.730469 C 143.023438 281.230469 139.292969 284.992188 130.324219 284.992188 Z M 130.324219 253.625 C 107.21875 253.625 101.234375 263.789062 101.234375 272.699219 C 101.234375 281.605469 107.1875 291.769531 130.324219 291.769531 C 153.429688 291.769531 159.417969 281.605469 159.417969 272.699219 C 159.417969 263.820312 153.460938 253.625 130.324219 253.625 Z M 130.324219 253.625 " fill-opacity="1" fill-rule="evenodd"/></g><path fill="#020a0a" d="M 231.398438 104.097656 C 227.480469 121.660156 225.941406 129.722656 222.746094 142.457031 C 219.703125 154.660156 217.320312 165.984375 213.246094 171.472656 C 209.109375 177.058594 203.558594 178.25 199.796875 178.6875 C 197.855469 178.910156 196.410156 179.003906 192.179688 179.035156 C 187.945312 179.003906 186.535156 178.910156 184.5625 178.6875 C 180.800781 178.25 175.25 177.058594 171.113281 171.472656 C 167.035156 165.984375 164.652344 154.660156 161.613281 142.457031 C 158.414062 129.753906 156.878906 121.660156 152.960938 104.097656 C 152.960938 104.097656 149.042969 104.253906 147.316406 104.378906 C 144.964844 104.535156 143.148438 104.753906 141.140625 105.003906 C 141.140625 105.003906 143.398438 141.140625 144.402344 156.417969 C 145.46875 172.507812 147.347656 199.640625 149.136719 220.125 C 149.136719 220.125 152.394531 220.660156 157.851562 220.972656 C 163.589844 221.285156 166.128906 221.347656 166.128906 221.347656 C 168.480469 212.316406 171.394531 199.800781 174.71875 194.464844 C 177.414062 190.105469 181.550781 189.667969 183.902344 189.324219 C 187.570312 188.820312 190.707031 188.726562 192.148438 188.789062 L 192.179688 188.789062 C 193.621094 188.726562 196.726562 188.820312 200.425781 189.324219 C 202.777344 189.636719 206.914062 190.105469 209.609375 194.464844 C 212.933594 199.800781 215.847656 212.316406 218.199219 221.347656 C 218.199219 221.347656 220.738281 221.316406 226.476562 220.972656 C 231.929688 220.660156 235.222656 220.125 235.222656 220.125 C 236.976562 199.640625 238.859375 172.507812 239.925781 156.417969 C 240.960938 141.109375 243.1875 105.003906 243.1875 105.003906 C 241.179688 104.753906 239.359375 104.535156 237.007812 104.378906 C 235.285156 104.222656 231.398438 104.097656 231.398438 104.097656 Z M 231.398438 104.097656 " fill-opacity="1" fill-rule="evenodd"/><g clip-path="url(#faadf967bf)"><path fill="#020a0a" d="M 268.296875 163.945312 C 266.949219 182.265625 265.320312 193.273438 263 201.179688 C 260.960938 208.113281 258.453125 212.785156 254.753906 216.140625 C 248.609375 221.726562 240.144531 222.949219 235.160156 223.671875 C 224.4375 225.269531 206.378906 225.835938 192.148438 225.835938 C 177.945312 225.835938 159.855469 225.269531 149.136719 223.671875 C 144.183594 222.917969 135.71875 221.726562 129.574219 216.140625 C 125.90625 212.785156 123.367188 208.144531 121.328125 201.179688 C 119.007812 193.242188 117.378906 182.265625 116.03125 163.945312 C 115.214844 152.90625 115.371094 134.992188 116.59375 125.363281 C 118.414062 111.027344 125.496094 103.78125 140.671875 101.085938 C 147.757812 99.832031 157.253906 98.921875 166.285156 98.480469 C 173.527344 97.980469 185.4375 97.761719 192.117188 97.824219 C 198.761719 97.761719 210.675781 98.011719 217.917969 98.480469 C 226.945312 98.921875 236.476562 99.832031 243.53125 101.085938 C 258.703125 103.8125 265.789062 111.027344 267.605469 125.363281 C 268.925781 134.992188 269.113281 152.90625 268.296875 163.945312 Z M 276.667969 125.394531 C 274.347656 102.464844 259.113281 97.601562 245.757812 95.34375 C 239.015625 94.214844 227.039062 93.242188 219.390625 92.929688 C 212.683594 92.519531 196.882812 92.300781 192.179688 92.300781 C 187.476562 92.300781 171.675781 92.519531 164.96875 92.960938 C 157.285156 93.273438 145.34375 94.246094 138.601562 95.375 C 125.246094 97.632812 110.011719 102.464844 107.691406 125.425781 C 107.0625 131.667969 106.875 139.824219 107 148.605469 C 107.1875 163.128906 108.441406 172.949219 109.164062 179.753906 C 109.632812 184.429688 111.578125 198.449219 114.085938 205.695312 C 117.503906 215.671875 120.574219 218.558594 124.179688 221.535156 C 130.796875 226.964844 141.675781 228.625 143.996094 229.035156 C 156.285156 231.261719 181.175781 231.667969 192.179688 231.636719 C 203.152344 231.636719 228.042969 231.261719 240.363281 229.035156 C 242.683594 228.625 253.59375 226.933594 260.207031 221.535156 C 263.8125 218.558594 266.886719 215.671875 270.304688 205.695312 C 272.78125 198.449219 274.722656 184.429688 275.226562 179.753906 C 275.945312 172.949219 277.167969 163.128906 277.355469 148.605469 C 277.484375 139.824219 277.292969 131.667969 276.667969 125.394531 Z M 276.667969 125.394531 " fill-opacity="1" fill-rule="evenodd"/></g></svg>