<svg xmlns="http://www.w3.org/2000/svg" xmlns:xlink="http://www.w3.org/1999/xlink" width="512" zoomAndPan="magnify" viewBox="0 0 384 383.999986" height="512" preserveAspectRatio="xMidYMid meet" version="1.0"><defs><clipPath id="239f43be00"><path d="M 19.199219 19.199219 L 364.949219 19.199219 L 364.949219 364.949219 L 19.199219 364.949219 Z M 19.199219 19.199219 " clip-rule="nonzero"/></clipPath></defs><g clip-path="url(#239f43be00)"><path fill="#ffffff" d="M 19.199219 19.199219 L 364.949219 19.199219 L 364.949219 364.949219 L 19.199219 364.949219 Z M 19.199219 19.199219 " fill-opacity="1" fill-rule="evenodd"/></g><path fill="#295ba7" d="M 34.453125 223.238281 L 46.65625 223.238281 L 46.65625 236.65625 L 68.457031 236.65625 L 68.457031 223.238281 L 80.503906 223.238281 L 80.503906 260.894531 L 68.457031 260.894531 L 68.457031 245.039062 L 46.5 245.039062 L 46.5 260.742188 L 34.453125 260.742188 Z M 81.875 223.238281 L 93.765625 223.238281 L 106.269531 237.722656 L 118.621094 223.238281 L 130.363281 223.238281 L 112.21875 246.257812 L 112.21875 260.894531 L 100.171875 260.894531 L 100.171875 245.191406 Z M 131.886719 223.238281 L 143.933594 223.238281 L 143.933594 252.355469 L 163.296875 252.355469 C 166.347656 252.355469 168.328125 249.3125 168.328125 246.105469 L 168.328125 223.238281 L 180.371094 223.238281 L 180.371094 253.273438 C 180.371094 257.996094 175.035156 260.742188 171.984375 260.742188 L 131.886719 260.742188 Z M 182.964844 223.238281 L 223.066406 223.238281 C 227.792969 223.238281 231.605469 226.128906 231.605469 232.007812 L 231.605469 260.816406 L 219.558594 260.894531 L 219.558594 238.023438 C 219.558594 234.828125 218.492188 232.921875 214.375 232.921875 L 196.230469 232.921875 L 196.230469 260.976562 L 182.964844 260.976562 Z M 235.265625 223.238281 L 270.332031 223.238281 C 277.347656 223.238281 282.761719 228.875 282.761719 233.222656 L 282.761719 250.527344 C 282.683594 253.574219 278.414062 260.890625 273.078125 260.890625 L 235.269531 260.890625 L 235.269531 223.238281 Z M 247.539062 252.511719 L 266.046875 252.511719 C 268.710938 252.511719 270.773438 250.527344 270.773438 248.085938 L 270.773438 237.109375 C 270.773438 234.441406 268.578125 232.847656 265.761719 232.847656 L 247.539062 232.847656 Z M 297.628906 223.078125 L 335.214844 223.078125 L 335.214844 260.894531 L 321.792969 260.894531 L 321.792969 251.140625 L 298.691406 251.140625 L 298.691406 260.894531 L 285.125 260.894531 L 285.125 236.34375 C 284.816406 228.113281 292.140625 223.078125 297.628906 223.078125 Z M 298.539062 236.503906 L 298.539062 242.597656 L 321.71875 242.597656 L 321.71875 232.988281 L 302.195312 232.988281 C 299.914062 232.988281 298.539062 234.367188 298.539062 236.503906 Z M 337.652344 223.160156 L 349.695312 223.160156 L 349.695312 262.039062 L 337.652344 262.039062 Z M 192.808594 114.210938 C 142.824219 114.210938 102.304688 134.21875 102.304688 158.890625 C 102.304688 183.5625 142.824219 203.574219 192.808594 203.574219 C 242.789062 203.574219 283.3125 183.566406 283.3125 158.890625 C 283.3125 134.21875 242.785156 114.210938 192.808594 114.210938 Z M 184.222656 124.152344 C 194.550781 120.503906 225.242188 124.152344 237.164062 129.878906 C 240.980469 133.539062 220.152344 145.296875 195.355469 150.390625 C 159.898438 157.539062 176.75 130.195312 184.222656 124.152344 Z M 123.335938 177.097656 C 115.539062 171.539062 100.28125 155.636719 125.558594 139.101562 C 138.914062 131.316406 146.386719 129.558594 155.605469 127.65625 C 160.058594 126.699219 163.238281 127.8125 159.261719 131.152344 C 150.835938 139.898438 133.347656 168.828125 131.761719 175.191406 C 130.484375 179.488281 127.945312 180.59375 123.335938 177.097656 Z M 196.144531 195.542969 C 181.203125 197.128906 147.976562 192.203125 147.335938 187.914062 C 147.976562 177.574219 200.121094 160.40625 209.496094 169.945312 C 213.476562 177.414062 205.84375 195.0625 196.144531 195.542969 Z M 272.140625 165.488281 C 268.320312 174.234375 255.445312 184.09375 228.421875 190.773438 C 224.28125 191.71875 222.851562 189.179688 225.554688 186.792969 C 230.011719 184.09375 251.472656 148.164062 254.171875 141.007812 C 255.765625 137.347656 258.785156 138.785156 260.695312 140.210938 C 269.28125 145.773438 275.796875 154.835938 272.140625 165.488281 Z M 272.140625 165.488281 " fill-opacity="1" fill-rule="evenodd"/></svg>