<svg xmlns="http://www.w3.org/2000/svg" xmlns:xlink="http://www.w3.org/1999/xlink" width="512" zoomAndPan="magnify" viewBox="0 0 384 383.999986" height="512" preserveAspectRatio="xMidYMid meet" version="1.0"><defs><clipPath id="34ec52aaf8"><path d="M 62.515625 130.316406 L 321.265625 130.316406 L 321.265625 253.316406 L 62.515625 253.316406 Z M 62.515625 130.316406 " clip-rule="nonzero"/></clipPath></defs><g clip-path="url(#34ec52aaf8)"><path fill="#231f20" d="M 108.71875 224.109375 L 108.71875 248.101562 C 108.71875 248.101562 100.777344 225.617188 100.59375 225.027344 C 100.402344 224.429688 99.96875 224.109375 99.152344 224.109375 L 91.574219 224.109375 L 91.574219 253.316406 L 96.6875 253.316406 L 96.6875 229.644531 C 96.6875 229.644531 104.511719 251.824219 104.710938 252.402344 C 104.882812 252.984375 105.386719 253.316406 106.046875 253.316406 L 113.832031 253.316406 L 113.832031 224.109375 Z M 135.605469 224.109375 L 135.605469 253.316406 L 141.621094 253.316406 L 141.609375 240.890625 L 152.441406 240.890625 L 152.441406 235.550781 L 141.621094 235.566406 L 141.621094 229.488281 L 152.605469 229.488281 L 152.605469 224.109375 Z M 274.632812 224.109375 L 274.632812 229.726562 L 281.347656 229.726562 L 281.347656 253.316406 L 287.460938 253.316406 L 287.460938 229.726562 L 294.160156 229.726562 L 294.160156 224.109375 Z M 173.769531 253.316406 L 180.242188 253.316406 L 180.242188 224.121094 L 173.769531 224.121094 Z M 247.5 253.316406 L 253.972656 253.316406 L 253.972656 224.121094 L 247.5 224.121094 Z M 314.738281 253.316406 L 321.183594 253.316406 L 321.183594 224.121094 L 314.738281 224.121094 Z M 62.597656 253.316406 L 69.074219 253.316406 L 69.074219 224.121094 L 62.597656 224.121094 Z M 225.132812 224.109375 L 220.019531 224.109375 L 220.019531 248.101562 C 220.019531 248.101562 212.082031 225.617188 211.890625 225.027344 C 211.695312 224.429688 211.261719 224.109375 210.46875 224.109375 L 202.875 224.109375 L 202.875 253.316406 L 207.976562 253.316406 L 207.976562 229.644531 C 207.976562 229.644531 215.824219 251.824219 216.003906 252.402344 C 216.191406 252.984375 216.695312 253.316406 217.335938 253.316406 L 225.132812 253.316406 Z M 218.390625 176.171875 C 215.925781 172.984375 191.894531 140.660156 191.894531 140.660156 C 191.894531 140.660156 167.769531 173.257812 165.464844 176.246094 C 156.554688 175.488281 141.070312 169.554688 141.070312 159.265625 C 141.070312 146.175781 163.550781 134.054688 191.894531 134.054688 C 221.660156 134.054688 242.71875 146.175781 242.71875 159.265625 C 242.71875 169.554688 227.3125 175.414062 218.390625 176.171875 M 191.894531 130.316406 C 155.285156 130.316406 129.808594 144.585938 129.808594 163.066406 C 129.808594 171.6875 135.378906 181.441406 147.199219 187.304688 C 158.175781 192.746094 173.675781 194.640625 175.914062 194.914062 L 191.894531 147.933594 L 208.035156 194.914062 C 210.265625 194.640625 225.628906 192.746094 236.601562 187.304688 C 248.417969 181.441406 253.992188 171.6875 253.992188 163.066406 C 253.992188 144.585938 228.503906 130.320312 191.894531 130.320312 " fill-opacity="1" fill-rule="nonzero"/></g></svg>