<svg xmlns="http://www.w3.org/2000/svg" xmlns:xlink="http://www.w3.org/1999/xlink" width="512" zoomAndPan="magnify" viewBox="0 0 384 383.999986" height="512" preserveAspectRatio="xMidYMid meet" version="1.0"><defs><clipPath id="2243c91403"><path d="M 61.164062 110 L 321.414062 110 L 321.414062 244 L 61.164062 244 Z M 61.164062 110 " clip-rule="nonzero"/></clipPath></defs><g clip-path="url(#2243c91403)"><path fill="#095821" d="M 63.621094 241.074219 C 67.601562 236.648438 67.78125 235.722656 68.042969 218 L 68.273438 202.496094 L 71.214844 202.648438 L 74.160156 202.804688 L 74.316406 215.554688 C 74.410156 223.5 74.25 229.476562 73.882812 231.421875 C 72.675781 237.835938 68.894531 241.890625 62.757812 243.351562 C 61.273438 243.703125 61.289062 243.664062 63.621094 241.074219 Z M 158.796875 236.058594 C 151.277344 234.816406 147.847656 233.316406 145.03125 230.027344 C 141.238281 225.597656 140.601562 218.605469 143.460938 212.769531 C 146.726562 206.109375 153.765625 202.40625 163.097656 202.445312 C 167.511719 202.464844 169.488281 202.785156 172.46875 203.964844 C 174.1875 204.644531 174.421875 204.949219 174.421875 206.503906 C 174.421875 207.472656 174.296875 208.269531 174.144531 208.269531 C 173.988281 208.269531 172.640625 207.644531 171.148438 206.878906 C 167.496094 205.011719 160.980469 204.566406 157.382812 205.941406 C 154.09375 207.195312 150.726562 210.40625 149.578125 213.382812 C 148.1875 216.980469 148.324219 222.90625 149.875 226.089844 C 151.308594 229.042969 154.386719 231.808594 157.160156 232.640625 C 159.613281 233.375 166.042969 233.433594 167.875 232.738281 C 169.203125 232.230469 169.210938 232.191406 169.210938 226.207031 L 169.210938 220.183594 L 175.203125 220.496094 L 175.203125 234.007812 L 171.980469 234.878906 C 168.679688 235.769531 161.125 236.445312 158.796875 236.058594 Z M 206.464844 235.839844 C 200.441406 234.765625 197.507812 232.730469 196.054688 228.617188 C 195.421875 226.828125 195.253906 223.828125 195.253906 214.421875 L 195.253906 202.492188 L 198.25 202.648438 L 201.242188 202.804688 L 201.503906 215.292969 C 201.800781 229.484375 202.015625 230.339844 205.757812 232.246094 C 208.714844 233.753906 216.289062 233.554688 218.492188 231.910156 C 222.359375 229.023438 222.785156 227.148438 222.828125 212.789062 L 222.859375 202.480469 L 224.550781 202.640625 L 226.242188 202.804688 L 226.242188 215.03125 C 226.242188 226.570312 226.179688 227.378906 225.121094 229.34375 C 223.59375 232.167969 221.457031 234.089844 218.808594 235.023438 C 215.96875 236.023438 209.789062 236.433594 206.464844 235.839844 Z M 100.84375 219.066406 L 109.054688 202.804688 L 110.84375 202.804688 C 112.859375 202.804688 112.417969 202.03125 123.6875 225.308594 L 128.535156 235.324219 L 121.246094 235.324219 L 117.175781 226.480469 L 100.972656 226.480469 L 98.777344 230.902344 C 96.601562 235.289062 96.566406 235.324219 94.609375 235.324219 L 92.636719 235.324219 Z M 112.890625 216.984375 C 111.167969 213.191406 109.601562 209.929688 109.40625 209.738281 C 109.214844 209.546875 107.488281 212.648438 105.574219 216.632812 L 102.097656 223.878906 L 116.019531 223.878906 Z M 241.089844 235.0625 C 241.089844 234.917969 244.730469 227.527344 249.175781 218.640625 L 257.269531 202.484375 L 259.128906 202.644531 L 260.992188 202.804688 L 268.730469 218.675781 C 272.984375 227.402344 276.472656 234.71875 276.484375 234.933594 C 276.496094 235.148438 274.894531 235.324219 272.921875 235.324219 L 269.339844 235.324219 L 267.488281 231.03125 L 265.640625 226.738281 L 257.34375 226.597656 L 249.050781 226.453125 L 247.019531 230.886719 C 245.003906 235.296875 244.984375 235.316406 243.039062 235.320312 C 241.964844 235.324219 241.085938 235.207031 241.085938 235.0625 Z M 264.003906 223.601562 C 264.003906 223.449219 262.550781 220.152344 260.777344 216.273438 L 257.550781 209.226562 L 255.75 212.78125 C 254.53125 215.203125 253.355469 217.644531 252.21875 220.105469 L 250.488281 223.878906 L 257.246094 223.878906 C 260.964844 223.878906 264.003906 223.753906 264.003906 223.601562 Z M 292.773438 219.066406 L 292.910156 202.804688 L 298.121094 202.648438 C 308.210938 202.347656 314.78125 203.933594 317.25 207.269531 C 320.015625 211.007812 319.210938 216.738281 315.46875 219.9375 C 314.273438 220.960938 312.988281 221.796875 312.609375 221.796875 C 312.230469 221.796875 311.925781 221.972656 311.929688 222.1875 C 311.933594 222.402344 314.046875 225.457031 316.625 228.972656 L 321.304688 235.371094 L 313.828125 235.066406 L 309.640625 228.953125 L 305.453125 222.835938 L 298.902344 222.835938 L 298.902344 235.324219 L 292.636719 235.324219 Z M 308.855469 219.398438 C 313.449219 216.746094 313.648438 209.085938 309.191406 206.453125 C 308.039062 205.773438 306.179688 205.398438 303.210938 205.242188 L 298.902344 205.015625 L 298.902344 220.890625 L 302.996094 220.652344 C 305.761719 220.492188 307.664062 220.085938 308.855469 219.398438 Z M 271.558594 194.042969 C 270.410156 193.667969 268.886719 193.027344 268.171875 192.621094 C 266.949219 191.925781 267.132812 191.863281 271.230469 191.59375 C 275.175781 191.339844 275.710938 191.171875 276.832031 189.875 C 279.066406 187.277344 278.035156 184.898438 273.902344 183.121094 C 270.773438 181.777344 273.160156 182.179688 278.339844 183.867188 C 284.503906 185.882812 288.9375 185.828125 294.214844 183.675781 C 298.117188 182.085938 296.980469 183.246094 292.652344 185.269531 C 290.550781 186.253906 288.667969 186.671875 285.601562 186.832031 L 281.414062 187.054688 L 281.617188 188.765625 C 281.777344 190.144531 281.46875 190.859375 280.054688 192.402344 C 278.628906 193.957031 277.847656 194.359375 275.964844 194.523438 C 274.6875 194.632812 272.703125 194.417969 271.558594 194.042969 Z M 256.453125 185.589844 C 249.945312 182.003906 248.3125 181.632812 237.183594 181.203125 C 225.957031 180.773438 223.292969 180.125 217.535156 176.417969 C 213.492188 173.816406 208.09375 168.300781 205.671875 164.304688 C 201.414062 157.273438 199.511719 156.539062 186.921875 157.054688 C 177.261719 157.453125 168.359375 156.707031 162.492188 155.007812 L 158.277344 153.789062 L 155.542969 155.140625 C 153.191406 156.304688 152.144531 156.492188 148.117188 156.46875 C 144.203125 156.449219 142.703125 156.179688 139.003906 154.824219 C 127.53125 150.621094 126.964844 150.457031 124.523438 150.613281 C 122.230469 150.761719 122.066406 150.871094 121.90625 152.332031 C 121.703125 154.195312 120.773438 155.402344 120.773438 153.800781 C 120.773438 153.207031 120.410156 152.417969 119.96875 152.050781 C 118.832031 151.109375 119.234375 149.363281 120.773438 148.542969 C 122.703125 147.519531 128.015625 148.082031 133.796875 149.925781 C 140.65625 152.113281 143.40625 152.667969 147.402344 152.675781 C 151.472656 152.683594 153.703125 151.71875 155.171875 149.3125 C 156.414062 147.277344 156.507812 143.15625 155.410156 139.0625 C 154.988281 137.488281 154.636719 136.15625 154.636719 136.101562 C 154.632812 136.046875 156.5625 137.023438 158.925781 138.269531 C 161.289062 139.511719 165.097656 141.195312 167.390625 142.007812 L 171.554688 143.484375 L 168.066406 143.640625 C 166.144531 143.722656 163.261719 143.449219 161.644531 143.027344 C 158.929688 142.320312 158.742188 142.328125 159.085938 143.136719 C 159.292969 143.613281 159.574219 145.363281 159.714844 147.023438 C 159.964844 150.011719 159.988281 150.046875 162.375 151.230469 C 170.039062 155.019531 174.0625 155.660156 189.300781 155.542969 L 200.796875 155.453125 L 202.867188 156.824219 C 204.484375 157.890625 205.421875 159.1875 207.144531 162.742188 C 210.753906 170.1875 216.90625 175.390625 224.046875 177.035156 C 225.253906 177.316406 229.644531 177.554688 233.796875 177.5625 C 245.929688 177.597656 251.996094 179.472656 258.015625 185.039062 C 259.734375 186.625 261.023438 187.917969 260.878906 187.90625 C 260.738281 187.894531 258.746094 186.851562 256.453125 185.589844 Z M 264.753906 178.835938 C 261.246094 176.730469 258.675781 174.417969 257.195312 172.035156 C 255.859375 169.886719 254.363281 169.351562 248.066406 168.777344 C 242.714844 168.289062 238.144531 166.832031 236.808594 165.183594 C 236.234375 164.480469 236.277344 164.417969 237.117188 164.730469 C 239.539062 165.640625 242.847656 166.167969 248.742188 166.585938 C 256.304688 167.125 257.675781 167.777344 260.632812 172.230469 C 261.726562 173.878906 263.882812 176.457031 265.421875 177.957031 C 266.957031 179.460938 268.136719 180.691406 268.035156 180.691406 C 267.933594 180.691406 266.457031 179.855469 264.753906 178.835938 Z M 281.191406 179.59375 C 277.648438 178.523438 266.75 173.003906 257.496094 167.589844 C 241.597656 158.289062 215.226562 144.554688 215.644531 145.792969 C 215.746094 146.09375 218.832031 149.5 222.503906 153.367188 C 226.179688 157.234375 229.039062 160.398438 228.863281 160.398438 C 228.15625 160.398438 222.367188 155.808594 218.691406 152.332031 C 213.917969 147.816406 210.964844 145.765625 205.761719 143.339844 C 202.179688 141.671875 201.296875 141.476562 197.246094 141.441406 C 192.09375 141.398438 192.347656 140.886719 197.898438 140.097656 C 199.992188 139.800781 201.78125 139.480469 201.875 139.386719 C 202.273438 138.988281 172.878906 128.339844 162.960938 125.285156 C 156.308594 123.238281 149.980469 121.679688 149.648438 122.011719 C 149.511719 122.148438 149.859375 123.28125 150.421875 124.535156 C 150.984375 125.785156 151.347656 126.902344 151.234375 127.015625 C 151.121094 127.132812 149.953125 126.28125 148.644531 125.125 C 143.640625 120.730469 133.964844 116.839844 124.613281 115.464844 C 119.40625 114.703125 117.304688 115.027344 114.675781 117.011719 L 113.003906 118.269531 L 116.8125 122.03125 C 121.746094 126.90625 123.039062 129.125 119.15625 126.058594 C 115.621094 123.265625 112.195312 121.550781 108.136719 120.53125 C 104.929688 119.726562 102.546875 118.582031 102.542969 117.847656 C 102.542969 117.640625 103.773438 117.542969 105.277344 117.628906 C 107.460938 117.757812 108.589844 117.496094 110.855469 116.328125 C 115.894531 113.738281 115.238281 113.410156 105.605469 113.691406 C 98.8125 113.890625 96.375 114.167969 93.632812 115.054688 C 89.949219 116.242188 87.226562 118.003906 87.753906 118.855469 C 87.9375 119.152344 88.671875 118.804688 89.480469 118.03125 C 90.960938 116.613281 93.75 116.222656 95.253906 117.222656 C 96.453125 118.019531 92.925781 121.027344 89.476562 122.148438 C 83.742188 124.011719 81.765625 126.851562 84.960938 128.640625 C 86.820312 129.679688 87.652344 129.15625 90.179688 125.375 C 93.0625 121.058594 94.898438 120.496094 97.71875 123.074219 C 100.511719 125.628906 99.265625 130.636719 94.9375 134.25 C 92.367188 136.394531 92.210938 136.773438 93.671875 137.234375 C 95.136719 137.699219 96.550781 136.773438 98.339844 134.171875 C 99.554688 132.414062 100.339844 131.820312 101.824219 131.542969 C 104.683594 131.003906 106.710938 128.730469 106.710938 126.0625 C 106.710938 124.875 106.460938 123.4375 106.15625 122.867188 C 105.613281 121.855469 105.640625 121.851562 107.242188 122.675781 C 108.144531 123.144531 109.589844 124.664062 110.457031 126.058594 C 111.898438 128.371094 112.332031 128.679688 115.523438 129.648438 C 117.441406 130.230469 120.054688 131.445312 121.328125 132.347656 C 123.984375 134.230469 128.066406 138.046875 128.066406 138.644531 C 128.066406 138.867188 126.796875 138.242188 125.25 137.25 C 114.277344 130.238281 106.410156 130.332031 98.023438 137.582031 C 94.070312 141 91.03125 139.804688 91.234375 134.90625 C 91.34375 132.351562 91.386719 132.28125 92.71875 132.574219 C 93.792969 132.808594 94.332031 132.570312 95.191406 131.476562 C 96.429688 129.902344 96.574219 128.601562 95.695312 126.929688 C 94.410156 124.492188 92.492188 124.363281 91.3125 126.640625 C 90.742188 127.738281 90.582031 128.851562 90.816406 130.089844 C 91.152344 131.878906 91.132812 131.90625 89.691406 131.5625 C 88.882812 131.371094 87.285156 131.007812 86.136719 130.761719 C 83.761719 130.246094 80.667969 127.136719 80.667969 125.257812 C 80.667969 124.5625 81.660156 123.1875 83.207031 121.746094 C 84.601562 120.441406 85.894531 118.769531 86.082031 118.03125 C 87.207031 113.554688 100.492188 109.96875 113.480469 110.644531 C 123.570312 111.167969 131.027344 112.433594 144.472656 115.90625 C 166.113281 121.496094 191.042969 131.597656 224.941406 148.507812 C 239.011719 155.523438 246.457031 159.558594 263.628906 169.460938 C 267 171.40625 272.15625 174.0625 275.085938 175.367188 C 279.726562 177.429688 280.980469 177.765625 284.839844 177.960938 L 289.265625 178.191406 L 293.8125 175.785156 C 297.257812 173.964844 298.6875 173.460938 299.714844 173.71875 C 301.574219 174.1875 302.394531 176.097656 301.527344 177.957031 C 300.871094 179.375 300.859375 179.378906 300.425781 178.234375 C 299.699219 176.316406 297.832031 176.273438 293.714844 178.078125 C 289.566406 179.898438 284.3125 180.53125 281.191406 179.59375 Z M 87.441406 120.511719 C 87.441406 120.410156 87.25 120.332031 87.011719 120.332031 C 86.359375 120.332031 82.230469 123.984375 82.230469 124.566406 C 82.230469 124.847656 83.402344 124.089844 84.835938 122.882812 C 86.269531 121.675781 87.441406 120.609375 87.441406 120.511719 Z M 92.417969 119.019531 C 93.382812 118.261719 93.359375 118.234375 91.90625 118.367188 C 91.070312 118.445312 90.289062 118.800781 90.171875 119.160156 C 89.875 120.058594 91.195312 119.976562 92.417969 119.019531 Z M 112.316406 156.363281 C 109.503906 153.414062 110.027344 149.253906 113.660156 145.621094 C 116.269531 143.015625 119.996094 141.78125 126.671875 141.308594 L 131.019531 141.003906 L 130.292969 138.898438 C 129.5 136.589844 130.0625 132.773438 131.476562 130.910156 C 132.125 130.054688 132.199219 130.210938 132.214844 132.445312 C 132.234375 135.109375 133.277344 138.148438 134.726562 139.75 C 135.945312 141.101562 140.09375 143.160156 144.472656 144.589844 C 148.792969 146 148.273438 146.074219 141.046875 145.078125 C 131.117188 143.707031 125.054688 143.523438 121.320312 144.480469 C 115.925781 145.859375 112.960938 148.808594 112.960938 152.789062 C 112.960938 154.902344 114.867188 156.75 117.070312 156.761719 C 118.140625 156.769531 118.261719 156.878906 117.648438 157.273438 C 116.121094 158.261719 113.734375 157.855469 112.316406 156.363281 Z M 103.015625 116.140625 C 101.917969 115.460938 102.507812 115.289062 106.972656 115 C 110.644531 114.757812 110.953125 114.804688 109.574219 115.378906 C 107.46875 116.257812 103.882812 116.671875 103.015625 116.140625 Z M 103.015625 116.140625 " fill-opacity="1" fill-rule="nonzero"/></g></svg>