<svg xmlns="http://www.w3.org/2000/svg" xmlns:xlink="http://www.w3.org/1999/xlink" width="512" zoomAndPan="magnify" viewBox="0 0 384 383.999986" height="512" preserveAspectRatio="xMidYMid meet" version="1.0"><defs><clipPath id="cd8df78663"><path d="M 49 158.386719 L 335 158.386719 L 335 225.886719 L 49 225.886719 Z M 49 158.386719 " clip-rule="nonzero"/></clipPath></defs><g clip-path="url(#cd8df78663)"><path fill="#131e29" d="M 214.835938 218.144531 C 214.835938 218.6875 215.003906 219.003906 215.320312 219.003906 C 215.578125 218.976562 215.804688 218.859375 216.003906 218.71875 L 305.015625 160.683594 C 306.558594 159.601562 308.273438 159.082031 310.15625 159.132812 L 329.71875 159.132812 C 332.714844 159.132812 334.742188 161.144531 334.742188 164.15625 L 334.742188 201.675781 C 334.742188 206.210938 333.742188 208.847656 329.746094 211.257812 L 306.015625 225.601562 C 305.773438 225.769531 305.507812 225.867188 305.214844 225.886719 C 304.929688 225.886719 304.644531 225.660156 304.644531 224.828125 L 304.644531 181.050781 C 304.644531 180.535156 304.5 180.191406 304.160156 180.191406 C 303.902344 180.21875 303.675781 180.316406 303.472656 180.476562 L 238.421875 222.933594 C 236.9375 223.9375 235.195312 224.484375 233.425781 224.453125 L 190.304688 224.453125 C 187.277344 224.453125 185.277344 222.445312 185.277344 219.40625 L 185.277344 165.332031 C 185.277344 164.929688 185.105469 164.554688 184.761719 164.554688 C 184.507812 164.589844 184.28125 164.683594 184.078125 164.84375 L 141.15625 190.71875 C 140.730469 191.003906 140.613281 191.207031 140.613281 191.40625 C 140.613281 191.578125 140.699219 191.75 140.984375 192.066406 L 171.65625 222.847656 C 172.054688 223.25 172.339844 223.5625 172.339844 223.910156 C 172.339844 224.195312 171.882812 224.425781 171.34375 224.425781 L 143.640625 224.425781 C 141.472656 224.425781 139.785156 224.109375 138.617188 222.933594 L 120.023438 204.285156 C 119.875 204.109375 119.6875 204.011719 119.453125 204 C 119.25 204.007812 119.058594 204.066406 118.882812 204.171875 L 87.816406 222.933594 C 85.929688 224.082031 84.644531 224.398438 82.789062 224.398438 L 54.203125 224.398438 C 51.148438 224.425781 49.148438 222.390625 49.148438 219.375 L 49.148438 182.570312 C 49.148438 178.011719 50.148438 175.398438 54.175781 172.988281 L 78.046875 158.589844 C 78.238281 158.464844 78.449219 158.398438 78.675781 158.386719 C 79.046875 158.386719 79.246094 158.761719 79.246094 159.59375 L 79.246094 208.878906 C 79.246094 209.394531 79.363281 209.625 79.734375 209.625 C 79.988281 209.59375 80.21875 209.480469 80.445312 209.335938 L 161.089844 160.597656 C 162.632812 159.535156 164.515625 159.019531 166.402344 159.105469 L 209.808594 159.105469 C 212.804688 159.105469 214.835938 161.113281 214.835938 164.125 L 214.804688 218.144531 Z M 214.835938 218.144531 " fill-opacity="1" fill-rule="nonzero"/></g></svg>