<svg xmlns="http://www.w3.org/2000/svg" xmlns:xlink="http://www.w3.org/1999/xlink" width="512" zoomAndPan="magnify" viewBox="0 0 384 383.999986" height="512" preserveAspectRatio="xMidYMid meet" version="1.0"><defs><clipPath id="8dd89f53d1"><path d="M 62.515625 101 L 321.265625 101 L 321.265625 283.140625 L 62.515625 283.140625 Z M 62.515625 101 " clip-rule="nonzero"/></clipPath></defs><g clip-path="url(#8dd89f53d1)"><path fill="#005aa1" d="M 73.875 146.511719 C 73.875 121.382812 124.746094 101.015625 187.5 101.015625 C 250.25 101.015625 301.121094 121.382812 301.121094 146.511719 C 301.121094 171.636719 250.25 192.007812 187.5 192.007812 C 124.746094 192.007812 73.875 171.640625 73.875 146.511719 Z M 212.839844 150.496094 C 212.804688 150.324219 212.703125 150.226562 212.53125 150.199219 C 209.261719 149.71875 205.980469 149.34375 202.683594 149.074219 C 202.492188 149.039062 202.351562 148.859375 202.480469 148.433594 C 212.984375 137.371094 216.972656 123.296875 211.660156 112.285156 C 211.675781 112.179688 211.722656 112.09375 211.804688 112.027344 C 211.890625 111.960938 211.984375 111.9375 212.089844 111.949219 C 248.226562 116.335938 274.609375 130.148438 274.609375 146.511719 C 274.609375 166.402344 235.609375 182.527344 187.5 182.527344 C 139.390625 182.527344 100.386719 166.402344 100.386719 146.511719 C 100.386719 129.265625 129.699219 114.851562 168.847656 111.320312 C 169.039062 111.328125 169.199219 111.472656 169.210938 111.773438 L 160.710938 158.625 C 160.628906 159.039062 160.597656 159.453125 160.609375 159.871094 C 160.621094 160.292969 160.679688 160.703125 160.78125 161.109375 C 160.886719 161.515625 161.03125 161.90625 161.222656 162.28125 C 161.414062 162.652344 161.640625 163.003906 161.90625 163.324219 C 162.171875 163.648438 162.472656 163.9375 162.804688 164.195312 C 163.132812 164.453125 163.488281 164.671875 163.867188 164.851562 C 164.246094 165.027344 164.640625 165.164062 165.046875 165.253906 C 165.457031 165.347656 165.871094 165.394531 166.289062 165.394531 L 166.59375 165.410156 C 174.175781 165.011719 182.320312 162.644531 190.015625 158.199219 C 192.199219 156.9375 194.292969 155.542969 196.300781 154.015625 C 196.429688 153.90625 196.570312 153.894531 196.71875 153.972656 C 199.28125 155.683594 200.753906 157.683594 200.753906 159.820312 C 200.753906 162.726562 198.035156 165.378906 193.554688 167.390625 C 188.355469 169.726562 180.78125 171.195312 172.351562 171.195312 C 165.203125 171.195312 158.675781 170.140625 153.609375 168.378906 C 153.507812 168.359375 153.414062 168.378906 153.328125 168.441406 C 153.242188 168.5 153.191406 168.582031 153.171875 168.6875 L 152.449219 172.65625 C 152.4375 172.757812 152.460938 172.84375 152.515625 172.925781 C 152.574219 173.007812 152.652344 173.058594 152.746094 173.078125 C 163.050781 175.480469 174.898438 176.84375 187.507812 176.84375 C 203.195312 176.84375 215.914062 171.75 215.914062 165.46875 C 215.914062 163.027344 213.992188 160.765625 210.722656 158.914062 C 207.855469 157.503906 206.050781 155.683594 206.492188 154.460938 C 206.953125 153.191406 209.695312 152.988281 212.949219 153.867188 C 213.136719 153.890625 213.3125 153.78125 213.378906 153.449219 Z M 187.5 121.816406 C 187.5 122.0625 187.492188 122.308594 187.476562 122.546875 C 187.890625 130.898438 182.730469 142.066406 173.308594 151.5 C 171.4375 153.375 169.449219 155.125 167.347656 156.738281 C 167.261719 156.792969 167.167969 156.808594 167.066406 156.789062 C 166.871094 156.746094 166.742188 156.558594 166.777344 156.328125 L 176.011719 105.441406 C 176.007812 105.347656 175.96875 105.261719 175.902344 105.195312 C 175.832031 105.125 175.75 105.089844 175.652344 105.082031 C 124.753906 107.480469 85.238281 125.113281 85.238281 146.511719 C 85.238281 169.542969 131.019531 188.214844 187.5 188.214844 C 243.976562 188.214844 289.761719 169.542969 289.761719 146.511719 C 289.761719 123.476562 243.976562 104.808594 187.5 104.808594 C 185.710938 104.808594 183.929688 104.828125 182.144531 104.863281 C 181.945312 104.867188 181.824219 104.960938 181.777344 105.152344 L 180.695312 111.089844 C 180.671875 111.25 180.746094 111.402344 180.878906 111.480469 C 181.863281 111.933594 182.769531 112.519531 183.589844 113.234375 C 184.410156 113.945312 185.113281 114.761719 185.703125 115.679688 C 186.289062 116.59375 186.734375 117.574219 187.039062 118.617188 C 187.347656 119.664062 187.5 120.730469 187.5 121.816406 Z M 81.601562 214.753906 L 81.601562 270.476562 L 112.507812 270.476562 L 112.507812 283.015625 L 62.515625 283.015625 L 62.515625 214.753906 Z M 156.277344 255.355469 L 147.359375 230.496094 L 138.445312 255.355469 Z M 159.484375 214.785156 L 185.398438 282.996094 L 165.546875 282.996094 L 159.839844 266.886719 L 134.878906 266.886719 L 129.175781 282.996094 L 113.246094 282.996094 L 138.917969 214.785156 Z M 206.539062 270.4375 L 215.097656 270.4375 C 220.207031 270.4375 226.984375 269.542969 231.382812 263.675781 C 235.777344 257.808594 235.898438 250.949219 235.898438 248.164062 C 235.898438 244.582031 235.421875 237.328125 230.3125 232.253906 C 225.554688 227.679688 219.375 227.28125 214.742188 227.28125 L 206.539062 227.28125 Z M 187.519531 214.753906 L 215.453125 214.753906 C 223.535156 214.753906 235.777344 215.546875 245.171875 223.605469 C 252.777344 230.066406 256.34375 240.609375 256.34375 248.761719 C 256.34375 254.726562 254.445312 266.957031 243.984375 275.210938 C 235.660156 281.773438 226.273438 282.96875 217.472656 282.96875 L 187.519531 282.96875 Z M 292.144531 255.324219 L 283.230469 230.464844 L 274.3125 255.324219 Z M 295.351562 214.753906 L 321.265625 282.964844 L 301.414062 282.964844 L 295.710938 266.859375 L 270.75 266.859375 L 265.039062 282.964844 L 249.113281 282.964844 L 274.789062 214.753906 Z M 295.351562 214.753906 " fill-opacity="1" fill-rule="evenodd"/></g></svg>