<svg xmlns="http://www.w3.org/2000/svg" xmlns:xlink="http://www.w3.org/1999/xlink" width="512" zoomAndPan="magnify" viewBox="0 0 384 383.999986" height="512" preserveAspectRatio="xMidYMid meet" version="1.0"><defs><clipPath id="d90d636894"><path d="M 58.09375 58.09375 L 325.84375 58.09375 L 325.84375 325.84375 L 58.09375 325.84375 Z M 58.09375 58.09375 " clip-rule="nonzero"/></clipPath></defs><g clip-path="url(#d90d636894)"><path fill="#ffffff" d="M 58.09375 58.09375 L 325.84375 58.09375 L 325.84375 325.84375 L 58.09375 325.84375 Z M 58.09375 58.09375 " fill-opacity="1" fill-rule="evenodd"/></g><path fill="#000000" d="M 194.289062 136.636719 C 189.3125 142.769531 175.125 162.574219 173.507812 165.136719 C 170.394531 170.050781 170.121094 172.429688 170.03125 174.015625 C 169.9375 175.574219 169.9375 178.382812 172.472656 180.671875 C 176.714844 184.453125 182.664062 183.84375 187.941406 183.84375 L 231.425781 183.84375 C 233.289062 183.84375 233.839844 183.292969 234.847656 181.953125 C 238.324219 176.640625 239.882812 170.875 239.882812 165.714844 C 239.882812 154.667969 232.710938 140.753906 214.554688 134.46875 L 212.507812 137.398438 C 226.910156 144.230469 232.863281 153.171875 232.863281 165.683594 C 232.953125 169.042969 232.066406 172.671875 229.871094 176.03125 L 187.574219 176.03125 C 185.042969 176.03125 184.675781 173.160156 185.589844 171.542969 C 189.222656 165.082031 193.257812 158.890625 197.707031 152.960938 C 201.976562 147.253906 206.1875 141.914062 210.613281 136.328125 C 211.804688 134.773438 211.007812 133.277344 208.628906 132.789062 C 203.6875 131.753906 198.53125 131.019531 192.273438 131.019531 C 157.578125 131.019531 144.882812 150.945312 144.882812 165.714844 C 144.882812 181.738281 157.667969 200.320312 192.367188 200.320312 C 211.621094 200.320312 224.226562 194.125 231.519531 186.160156 L 224.164062 186.160156 C 217.785156 192.050781 206.828125 196.234375 192.367188 196.234375 C 162.980469 196.234375 152.148438 179.722656 152.148438 165.503906 C 152.359375 152.808594 163.984375 135.292969 193.097656 134.710938 C 194.199219 134.683594 195.054688 135.6875 194.289062 136.636719 Z M 298.652344 228.089844 C 300.390625 228.332031 301.734375 229.707031 301.734375 231.324219 C 301.734375 233.152344 300.085938 234.621094 298.070312 234.621094 L 260.785156 234.621094 L 260.785156 210.238281 L 249.796875 210.238281 L 249.796875 234.683594 L 229.59375 234.683594 C 224.132812 234.683594 223.003906 231.355469 223.003906 228.304688 L 223.003906 210.085938 L 204.789062 210.085938 C 202.988281 211.308594 201.246094 212.648438 199.386719 213.777344 L 188.582031 220.429688 L 174.546875 210.175781 L 152.695312 210.175781 L 152.695312 216.3125 L 160.597656 216.3125 L 160.597656 212.953125 L 179.183594 226.289062 L 166.488281 234.253906 L 152.695312 234.253906 L 152.695312 240.386719 L 168.652344 240.386719 C 170.363281 239.226562 171.980469 238.007812 173.75 236.9375 L 184.859375 230.195312 L 198.957031 240.265625 L 215.007812 240.265625 L 193.796875 224.304688 L 204.695312 217.199219 C 207.011719 215.667969 209.457031 214.390625 211.835938 212.988281 L 211.835938 229.039062 C 211.835938 235.8125 213.574219 240.511719 227.214844 240.511719 L 304.265625 240.328125 C 310.214844 240.417969 314.03125 236.300781 314.03125 231.328125 C 314.03125 226.382812 309.636719 222.324219 304.265625 222.324219 L 276.4375 222.324219 C 276.804688 218.9375 279.730469 216.101562 282.691406 216.101562 L 310.855469 216.101562 L 310.769531 210.210938 L 280.890625 210.210938 C 271.429688 210.210938 263.863281 218.054688 263.652344 227.179688 C 263.621094 227.820312 264.046875 228.214844 264.75 228.214844 Z M 152.695312 228 L 152.695312 221.742188 L 158.128906 221.742188 L 158.128906 228 Z M 152.695312 210.175781 L 132.066406 210.175781 C 126.484375 210.175781 122.179688 211.644531 119.007812 214.144531 C 113.300781 218.660156 111.472656 223.417969 111.53125 225.558594 L 118.976562 225.558594 C 115.710938 228 113.515625 230.925781 112.355469 234.316406 L 87.941406 234.316406 C 83.546875 234.316406 80.707031 231.203125 80.707031 228.179688 L 80.707031 209.964844 L 69.90625 209.964844 L 69.90625 228.882812 C 69.90625 235.6875 76.378906 240.386719 86.75 240.386719 L 152.695312 240.386719 L 152.695312 234.253906 L 126.515625 234.253906 C 126.636719 231.140625 129.960938 228 132.984375 228 L 152.695312 228 L 152.695312 221.742188 L 126.207031 221.742188 C 125.84375 219.910156 129.261719 216.3125 131.882812 216.3125 L 152.695312 216.3125 Z M 152.695312 210.175781 " fill-opacity="1" fill-rule="evenodd"/></svg>