<svg xmlns="http://www.w3.org/2000/svg" xmlns:xlink="http://www.w3.org/1999/xlink" width="512" zoomAndPan="magnify" viewBox="0 0 384 383.999986" height="512" preserveAspectRatio="xMidYMid meet" version="1.0"><defs><clipPath id="ef79a5bf0c"><path d="M 50.457031 50.457031 L 333.207031 50.457031 L 333.207031 333.207031 L 50.457031 333.207031 Z M 50.457031 50.457031 " clip-rule="nonzero"/></clipPath></defs><g clip-path="url(#ef79a5bf0c)"><path fill="#ffffff" d="M 50.457031 50.457031 L 333.207031 50.457031 L 333.207031 333.207031 L 50.457031 333.207031 Z M 50.457031 50.457031 " fill-opacity="1" fill-rule="evenodd"/></g><path fill="#e6bf3e" d="M 191.832031 68.738281 C 259.75 68.738281 315.015625 124.003906 315.015625 191.921875 C 315.015625 259.664062 259.75 315.105469 191.832031 315.105469 C 124.089844 315.105469 68.648438 259.664062 68.648438 191.921875 C 68.648438 124.003906 124.089844 68.738281 191.832031 68.738281 Z M 191.832031 68.738281 " fill-opacity="1" fill-rule="evenodd"/><path fill="#32593c" d="M 158.742188 115.863281 C 158.742188 115.863281 171.390625 98.882812 190.621094 98.535156 C 209.851562 98.015625 220.765625 110.316406 220.765625 110.316406 L 286.773438 184.296875 C 286.773438 184.296875 300.289062 197.117188 295.265625 211.671875 C 290.238281 226.222656 262.695312 257.582031 193.390625 258.96875 C 123.917969 260.355469 94.808594 223.972656 94.808594 223.972656 C 94.808594 223.972656 80.605469 205.085938 94.808594 188.628906 C 108.84375 172.167969 158.742188 115.863281 158.742188 115.863281 Z M 158.742188 115.863281 " fill-opacity="1" fill-rule="evenodd"/><path fill="#d0d1d3" d="M 193.390625 122.097656 C 193.390625 122.097656 181.089844 120.191406 171.90625 129.894531 C 162.898438 139.425781 163.59375 152.070312 163.59375 152.070312 L 171.734375 140.460938 C 171.734375 140.460938 172.773438 139.769531 172.253906 138.210938 C 171.734375 136.824219 171.558594 136.480469 171.558594 136.480469 L 171.558594 134.226562 L 206.730469 133.878906 C 206.730469 133.878906 216.257812 133.53125 216.257812 143.234375 C 216.257812 152.9375 209.675781 153.457031 209.675781 153.457031 C 209.675781 153.457031 219.898438 155.535156 219.898438 166.796875 C 219.898438 178.230469 207.769531 181.175781 207.769531 181.175781 L 181.4375 181.351562 C 181.4375 181.351562 179.183594 179.617188 181.609375 178.578125 C 184.207031 177.710938 185.246094 177.191406 185.246094 175.980469 L 185.246094 174.59375 C 185.246094 174.59375 179.527344 173.902344 175.542969 168.878906 C 171.558594 164.027344 172.425781 156.058594 172.425781 156.058594 L 167.226562 155.882812 L 163.9375 160.910156 C 163.9375 160.910156 165.496094 173.382812 171.558594 178.925781 C 177.625 184.46875 181.78125 189.667969 196.160156 188.976562 C 210.542969 188.457031 221.109375 181.003906 221.109375 181.003906 L 223.882812 178.578125 C 223.882812 178.578125 224.921875 176.5 227 177.710938 C 229.078125 178.753906 224.921875 183.085938 224.921875 183.085938 C 224.921875 183.085938 216.257812 194.863281 193.910156 196.25 C 171.730469 197.636719 156.140625 174.421875 157.179688 173.210938 C 158.042969 172.167969 153.714844 177.367188 156.140625 178.578125 C 158.566406 179.964844 157.355469 181.871094 157.355469 181.871094 L 141.070312 182.042969 C 141.070312 182.042969 140.027344 182.5625 140.027344 180.484375 C 140.027344 178.578125 141.761719 178.753906 141.761719 178.753906 C 141.761719 178.753906 147.652344 178.578125 149.558594 175.460938 C 151.460938 172.515625 154.410156 168.011719 154.410156 168.011719 C 154.410156 168.011719 152.675781 158.136719 153.023438 153.976562 C 153.367188 149.820312 156.488281 127.816406 173.464844 120.539062 C 190.617188 113.4375 207.597656 119.152344 207.597656 119.152344 C 207.597656 119.152344 210.714844 120.886719 212.96875 119.152344 C 215.21875 117.421875 216.085938 115.6875 217.820312 118.980469 C 219.378906 122.273438 222.84375 127.644531 222.84375 127.644531 C 222.84375 127.644531 224.402344 132.496094 217.476562 128.507812 C 210.371094 124.523438 198.933594 122.097656 198.933594 122.097656 Z M 179.359375 156.054688 L 185.25 156.054688 L 185.25 168.011719 C 185.25 168.011719 181.957031 167.316406 180.570312 164.371094 C 179.183594 161.601562 179.359375 156.054688 179.359375 156.054688 Z M 170.867188 151.207031 L 173.292969 151.378906 C 173.292969 151.378906 174.679688 147.394531 177.972656 144.96875 C 181.4375 142.542969 185.25 141.503906 185.25 141.503906 C 185.25 141.503906 186.113281 138.386719 183.691406 138.558594 C 181.09375 138.730469 179.015625 138.90625 179.015625 138.90625 C 179.015625 138.90625 177.628906 138.90625 176.761719 140.808594 C 175.71875 142.714844 170.867188 151.207031 170.867188 151.207031 Z M 179.53125 151.03125 L 185.074219 151.03125 L 185.074219 144.96875 C 185.074219 144.96875 182.820312 145.316406 181.265625 147.566406 C 179.53125 149.820312 179.53125 151.03125 179.53125 151.03125 Z M 192.699219 143.753906 L 192.699219 151.03125 L 203.785156 151.03125 C 203.785156 151.03125 208.117188 149.992188 208.117188 144.277344 C 208.117188 138.734375 203.785156 138.210938 203.785156 138.210938 L 192.699219 138.210938 L 192.699219 141.15625 L 198.933594 141.332031 C 198.933594 141.332031 200.667969 139.425781 202.574219 141.675781 C 204.480469 143.929688 204.652344 145.140625 204.652344 145.140625 C 204.652344 145.140625 205 149.125 201.1875 145.660156 C 197.378906 142.195312 192.699219 143.753906 192.699219 143.753906 Z M 193.046875 156.230469 L 193.390625 169.742188 C 193.390625 169.742188 198.414062 170.78125 202.226562 167.488281 C 206.039062 164.199219 205.171875 164.71875 205.171875 164.71875 C 205.171875 164.71875 205.691406 164.199219 206.90625 165.0625 C 208.117188 166.101562 206.210938 168.527344 206.210938 168.527344 C 206.210938 168.527344 205 170.605469 201.363281 172.511719 C 197.722656 174.246094 193.738281 174.589844 193.738281 174.589844 L 193.5625 176.5 C 193.5625 176.5 195.988281 177.882812 199.800781 177.710938 C 203.4375 177.535156 204.480469 177.191406 204.480469 177.191406 C 204.480469 177.191406 211.757812 175.113281 211.757812 166.449219 C 211.757812 157.957031 203.265625 156.226562 203.265625 156.226562 L 193.046875 156.226562 Z M 193.046875 156.230469 " fill-opacity="1" fill-rule="evenodd"/><path fill="#d0d1d3" d="M 155.621094 109.96875 C 155.621094 109.96875 169.828125 92.820312 190.445312 92.300781 C 211.0625 91.78125 223.363281 104.601562 223.363281 104.601562 L 295.089844 183.085938 C 295.089844 183.085938 307.394531 197.808594 302.023438 213.578125 C 296.648438 229.34375 268.0625 264.6875 193.390625 266.070312 C 118.71875 267.632812 87.359375 227.265625 87.359375 227.265625 C 87.359375 227.265625 72.632812 203.355469 87.878906 185.507812 C 103.128906 167.835938 155.621094 109.96875 155.621094 109.96875 Z M 159.085938 116.382812 C 159.085938 116.382812 171.5625 99.574219 190.621094 99.230469 C 209.675781 98.710938 220.417969 111.011719 220.417969 111.011719 L 285.910156 184.296875 C 285.910156 184.296875 299.25 196.945312 294.226562 211.324219 C 289.371094 225.878906 262 256.890625 193.390625 258.277344 C 124.609375 259.660156 95.675781 223.453125 95.675781 223.453125 C 95.675781 223.453125 81.640625 204.742188 95.675781 188.457031 C 109.710938 172.171875 159.085938 116.382812 159.085938 116.382812 Z M 159.085938 116.382812 " fill-opacity="1" fill-rule="evenodd"/><path fill="#d0d1d3" d="M 132.40625 219.292969 L 125.476562 228.304688 L 94.808594 206.300781 L 96.023438 204.742188 C 96.542969 205.085938 97.238281 205.433594 97.929688 205.953125 C 98.792969 206.300781 99.316406 206.648438 99.660156 206.648438 C 100.355469 206.820312 100.875 206.820312 101.394531 206.648438 C 101.738281 206.476562 102.261719 206.128906 102.605469 205.609375 L 116.292969 184.644531 C 116.640625 184.125 116.8125 183.78125 116.988281 183.261719 C 116.988281 182.742188 116.8125 182.21875 116.292969 181.527344 C 115.886719 180.90625 115.421875 180.328125 114.90625 179.792969 C 114.214844 179.101562 113.695312 178.753906 113.347656 178.40625 L 114.386719 176.675781 L 132.753906 189.84375 L 131.539062 191.402344 C 131.019531 191.230469 130.5 190.882812 129.632812 190.363281 C 128.941406 190.015625 128.421875 189.671875 127.730469 189.496094 C 127.035156 189.152344 126.34375 189.152344 125.996094 189.324219 C 125.503906 189.640625 125.101562 190.042969 124.78125 190.535156 L 111.960938 209.941406 C 111.425781 210.621094 111.019531 211.371094 110.75 212.191406 C 110.578125 212.886719 110.578125 213.578125 110.75 214.101562 C 110.925781 214.621094 111.445312 215.136719 112.136719 215.832031 C 112.828125 216.351562 113.695312 217.046875 115.082031 218.085938 C 116.292969 218.949219 117.507812 219.816406 118.890625 220.511719 C 120.105469 221.203125 121.144531 221.550781 122.011719 221.375 C 123.222656 221.375 124.609375 220.855469 126.34375 220.164062 C 127.835938 219.574219 129.277344 218.878906 130.675781 218.085938 Z M 170.347656 211.324219 C 171.390625 213.230469 172.082031 215.308594 172.253906 217.734375 C 172.601562 219.988281 172.082031 222.410156 171.214844 225.011719 C 170.378906 227.359375 169.167969 229.496094 167.578125 231.421875 C 166.019531 233.15625 164.285156 234.710938 162.207031 235.753906 C 159.953125 236.964844 157.703125 237.65625 155.101562 238.003906 C 152.675781 238.175781 149.90625 238.003906 146.960938 237.140625 C 144.535156 236.445312 142.28125 235.40625 140.550781 234.019531 C 138.636719 232.785156 137.132812 231.167969 136.042969 229.167969 C 134.832031 227.261719 134.140625 225.183594 133.964844 222.929688 C 133.792969 220.679688 134.140625 218.253906 135.003906 215.652344 C 136.042969 213.054688 137.257812 210.800781 138.988281 209.070312 C 140.722656 207.164062 142.628906 205.605469 144.707031 204.566406 C 146.960938 203.527344 149.210938 203.007812 151.808594 202.660156 C 154.234375 202.488281 156.660156 202.832031 159.257812 203.527344 C 161.683594 204.21875 163.9375 205.261719 165.84375 206.644531 C 167.75 208.03125 169.136719 209.589844 170.347656 211.324219 Z M 155.96875 232.632812 C 157.183594 231.421875 158.222656 230.035156 159.261719 228.300781 C 160.125 226.746094 160.992188 224.835938 161.859375 222.585938 C 162.378906 220.851562 162.898438 218.949219 163.417969 217.214844 C 163.765625 215.308594 163.765625 213.578125 163.589844 212.015625 C 163.417969 210.460938 162.898438 209.246094 162.203125 208.03125 C 161.339844 206.992188 160.125 206.125 158.390625 205.605469 C 155.621094 204.914062 153.023438 205.605469 150.597656 207.859375 C 148.171875 209.9375 146.089844 213.402344 144.53125 218.082031 C 143.839844 219.988281 143.320312 222.066406 142.972656 223.796875 C 142.625 225.703125 142.625 227.433594 142.800781 228.824219 C 142.972656 230.382812 143.492188 231.769531 144.359375 232.808594 C 145.050781 233.847656 146.265625 234.542969 147.824219 234.886719 C 149.382812 235.40625 150.941406 235.40625 152.328125 234.886719 C 153.71875 234.539062 154.929688 233.671875 155.96875 232.632812 Z M 205.347656 216.175781 L 203.613281 216.175781 C 203.269531 214.617188 202.398438 213.058594 201.363281 211.5 C 200.324219 209.765625 199.453125 208.898438 198.589844 208.898438 C 198.070312 208.726562 197.550781 208.726562 196.855469 208.726562 L 193.910156 208.726562 L 194.429688 235.582031 C 194.429688 236.101562 194.429688 236.621094 194.601562 236.96875 C 194.949219 237.488281 195.296875 237.835938 195.8125 238.007812 C 196.160156 238.179688 196.683594 238.351562 197.375 238.527344 C 198.070312 238.527344 198.757812 238.699219 199.28125 238.699219 L 199.28125 240.605469 L 181.78125 240.953125 L 181.78125 239.046875 C 182.128906 239.046875 182.820312 238.871094 183.511719 238.871094 C 184.378906 238.699219 184.898438 238.699219 185.070312 238.527344 C 185.589844 238.179688 186.113281 237.832031 186.285156 237.488281 C 186.457031 236.96875 186.457031 236.449219 186.457031 235.929688 L 186.113281 208.898438 L 183.167969 208.898438 C 182.472656 209.074219 181.953125 209.074219 181.433594 209.074219 C 180.566406 209.246094 179.699219 210.285156 178.660156 211.84375 C 177.796875 213.578125 177.101562 215.136719 176.582031 216.699219 L 174.851562 216.699219 L 174.675781 206.824219 L 205.171875 206.304688 Z M 246.40625 196.769531 C 245.71875 197.019531 245.082031 197.363281 244.5 197.808594 C 243.714844 198.128906 243.023438 198.59375 242.425781 199.195312 C 241.902344 199.714844 241.730469 200.582031 241.730469 201.621094 C 241.730469 202.660156 241.902344 204.21875 242.425781 206.125 L 245.710938 218.078125 C 246.582031 221.714844 246.058594 224.835938 244.15625 227.605469 C 242.078125 230.550781 239.132812 232.632812 234.972656 233.847656 C 230.121094 235.230469 225.964844 235.230469 222.84375 233.847656 C 219.550781 232.632812 217.476562 230.03125 216.605469 226.394531 L 212.273438 209.9375 C 212.105469 209.242188 211.757812 208.894531 211.582031 208.550781 C 211.234375 208.203125 210.714844 208.03125 210.023438 207.855469 L 208.289062 207.855469 C 207.769531 207.855469 207.253906 208.03125 206.730469 208.03125 L 206.386719 206.296875 L 224.230469 201.273438 L 224.578125 203.003906 C 224.230469 203.175781 223.710938 203.351562 223.191406 203.523438 C 222.671875 203.871094 222.152344 204.042969 221.632812 204.390625 C 221.183594 204.707031 220.835938 205.109375 220.59375 205.601562 C 220.59375 206.121094 220.59375 206.640625 220.765625 207.160156 L 224.925781 223.449219 C 225.792969 226.566406 227.175781 228.820312 229.082031 229.6875 C 230.988281 230.722656 233.238281 230.898438 236.1875 230.03125 C 238.960938 229.339844 240.863281 227.953125 242.078125 225.875 C 243.289062 223.792969 243.460938 221.195312 242.597656 218.078125 L 239.652344 207.164062 C 239.132812 205.257812 238.613281 203.871094 238.09375 203.003906 C 237.574219 202.136719 237.054688 201.445312 236.363281 201.273438 C 235.839844 200.925781 234.976562 200.925781 233.933594 200.925781 C 232.722656 200.925781 232.03125 200.925781 231.511719 201.097656 L 231.164062 199.363281 L 245.890625 195.035156 Z M 273.953125 216.175781 C 271.875 217.390625 269.796875 218.253906 267.714844 218.773438 C 265.640625 219.46875 263.90625 219.8125 262.347656 219.988281 L 261.480469 222.238281 L 259.402344 223.453125 L 253.511719 213.230469 L 255.585938 212.015625 C 256.628906 212.882812 257.84375 213.574219 259.054688 214.09375 C 260.441406 214.789062 261.652344 215.308594 263.210938 215.652344 C 264.597656 216 266.15625 216.171875 267.542969 216 C 269.101562 215.828125 270.660156 215.304688 272.222656 214.441406 C 274.472656 213.054688 275.859375 211.667969 276.550781 210.109375 C 277.242188 208.550781 277.242188 207.164062 276.550781 205.777344 C 276.03125 204.738281 274.992188 204.046875 273.605469 203.871094 C 272.222656 203.699219 270.316406 203.871094 267.890625 204.390625 C 266.332031 204.910156 264.945312 205.257812 263.730469 205.605469 C 262.347656 205.949219 261.132812 206.296875 259.917969 206.472656 C 257.320312 206.988281 255.066406 206.988281 253.164062 206.125 C 251.257812 205.429688 249.871094 204.046875 248.832031 202.3125 C 248.3125 201.101562 247.964844 199.886719 247.964844 198.5 C 248.136719 197.289062 248.484375 195.902344 249.175781 194.34375 C 249.695312 192.957031 250.734375 191.570312 252.125 190.183594 C 253.507812 188.625 255.238281 187.410156 257.148438 186.375 C 259.054688 185.160156 260.960938 184.46875 262.863281 183.949219 C 264.769531 183.429688 266.328125 183.082031 267.542969 183.082031 L 268.234375 181.003906 L 270.488281 179.792969 L 275.863281 189.320312 L 273.78125 190.53125 C 272.742188 189.839844 271.53125 189.148438 270.316406 188.28125 C 269.214844 187.648438 268.058594 187.128906 266.851562 186.722656 C 265.640625 186.375 264.425781 186.375 263.042969 186.550781 C 261.828125 186.550781 260.441406 187.070312 259.054688 187.933594 C 257.320312 188.800781 256.109375 190.015625 255.417969 191.574219 C 254.898438 192.957031 254.898438 194.34375 255.417969 195.558594 C 256.113281 196.597656 256.976562 197.292969 258.363281 197.464844 C 259.75 197.636719 261.480469 197.464844 263.90625 196.945312 C 265.292969 196.597656 266.679688 196.25 268.0625 195.734375 C 269.449219 195.386719 270.660156 195.039062 271.878906 194.867188 C 274.648438 194.347656 276.898438 194.347656 278.808594 194.867188 C 280.714844 195.558594 282.273438 196.945312 283.3125 198.851562 C 284.003906 200.0625 284.175781 201.449219 284.175781 203.007812 C 284.003906 204.566406 283.65625 206.128906 282.964844 207.515625 C 282.101562 209.070312 280.886719 210.632812 279.503906 212.015625 C 278.113281 213.402344 276.207031 214.789062 273.953125 216.175781 Z M 273.953125 216.175781 " fill-opacity="1" fill-rule="evenodd"/><path fill="#d0d1d3" d="M 191.832031 63.019531 C 262.867188 63.019531 320.734375 120.886719 320.734375 191.917969 C 320.734375 262.78125 262.867188 320.648438 191.832031 320.648438 C 120.800781 320.648438 62.933594 262.78125 62.933594 191.917969 C 62.933594 120.886719 120.800781 63.019531 191.832031 63.019531 Z M 191.832031 69.605469 C 259.226562 69.605469 314.148438 124.523438 314.148438 191.921875 C 314.148438 259.140625 259.230469 314.066406 191.832031 314.066406 C 124.609375 314.066406 69.6875 259.144531 69.6875 191.921875 C 69.6875 124.523438 124.609375 69.605469 191.832031 69.605469 Z M 191.832031 69.605469 " fill-opacity="1" fill-rule="evenodd"/></svg>