<svg xmlns="http://www.w3.org/2000/svg" xmlns:xlink="http://www.w3.org/1999/xlink" width="512" zoomAndPan="magnify" viewBox="0 0 384 383.999986" height="512" preserveAspectRatio="xMidYMid meet" version="1.0"><defs><clipPath id="00be76c81b"><path d="M 166 135.496094 L 217 135.496094 L 217 201 L 166 201 Z M 166 135.496094 " clip-rule="nonzero"/></clipPath><clipPath id="208eca894e"><path d="M 62.515625 220 L 321 220 L 321 248.746094 L 62.515625 248.746094 Z M 62.515625 220 " clip-rule="nonzero"/></clipPath></defs><g clip-path="url(#00be76c81b)"><path fill="#000000" d="M 186.136719 191.054688 L 197.644531 191.054688 L 197.644531 193.902344 L 186.136719 193.902344 Z M 187.558594 195.042969 L 196.292969 195.042969 L 196.292969 200.953125 L 187.558594 200.953125 Z M 174.777344 177.804688 L 209.074219 177.804688 L 209.074219 179.230469 L 174.777344 179.230469 Z M 172.929688 180.511719 L 210.851562 180.511719 L 210.851562 181.9375 L 172.929688 181.9375 Z M 172.859375 175.171875 L 210.78125 175.171875 L 210.78125 176.59375 L 172.859375 176.59375 Z M 197.855469 185 C 195.9375 186.710938 195.9375 189.84375 195.9375 189.84375 L 187.773438 189.84375 C 187.773438 189.84375 187.773438 186.710938 185.855469 185 C 184.503906 183.789062 182.871094 183.503906 182.871094 183.503906 C 181.808594 183.289062 181.808594 183.148438 181.808594 183.078125 L 201.761719 183.078125 C 201.761719 183.078125 201.761719 183.289062 200.695312 183.503906 C 200.839844 183.574219 199.203125 183.789062 197.855469 185 Z M 174.917969 183.148438 L 179.039062 183.148438 C 179.039062 185.570312 177.476562 186.710938 174.917969 186.140625 Z M 189.476562 143.6875 C 191.109375 140.414062 191.464844 135.570312 191.890625 135.496094 C 192.316406 135.570312 192.601562 140.484375 194.234375 143.6875 C 195.796875 146.75 199.132812 149.386719 198.921875 149.671875 C 198.707031 150.027344 196.863281 149.101562 195.9375 148.675781 C 194.445312 147.960938 193.238281 147.464844 193.238281 147.464844 C 193.238281 147.464844 192.671875 155.226562 194.519531 162.421875 C 196.082031 168.261719 199.773438 173.675781 200.128906 174.101562 L 195.371094 174.101562 L 194.945312 173.390625 C 193.664062 171.109375 192.742188 169.1875 191.890625 165.769531 C 190.96875 169.117188 190.042969 171.109375 188.765625 173.390625 L 188.339844 174.101562 L 183.582031 174.101562 C 183.9375 173.605469 187.628906 168.261719 189.191406 162.421875 C 191.109375 155.226562 190.46875 147.464844 190.46875 147.464844 C 190.46875 147.464844 189.261719 148.035156 187.773438 148.675781 C 186.847656 149.101562 185.003906 150.027344 184.789062 149.671875 C 184.648438 149.386719 187.984375 146.75 189.476562 143.6875 Z M 174.777344 174.101562 C 174.777344 173.53125 174.421875 165.625 172.644531 159.429688 C 170.65625 152.664062 166.539062 148.601562 166.824219 148.175781 C 167.105469 147.820312 170.445312 148.460938 172.929688 150.242188 C 175.628906 152.09375 178.257812 155.15625 178.042969 155.371094 C 177.902344 155.511719 177.046875 154.730469 175.34375 154.160156 C 173.640625 153.519531 172.859375 153.660156 172.859375 153.660156 C 172.859375 153.660156 175.769531 158.433594 177.191406 163.632812 C 178.398438 167.976562 179.039062 173.605469 179.039062 174.101562 Z M 209.003906 174.101562 C 209.003906 173.53125 209.289062 165.625 211.136719 159.429688 C 213.125 152.664062 217.242188 148.601562 216.957031 148.175781 C 216.746094 147.820312 213.335938 148.460938 210.851562 150.242188 C 208.152344 152.09375 205.523438 155.15625 205.738281 155.371094 C 205.878906 155.511719 206.734375 154.730469 208.367188 154.160156 C 210.140625 153.519531 210.851562 153.660156 210.851562 153.660156 C 210.851562 153.660156 207.941406 158.433594 206.519531 163.632812 C 205.3125 167.976562 204.671875 173.605469 204.671875 174.101562 Z M 208.863281 183.148438 L 204.742188 183.148438 C 204.742188 185.570312 206.304688 186.710938 208.863281 186.140625 Z M 208.863281 183.148438 " fill-opacity="1" fill-rule="evenodd"/></g><g clip-path="url(#208eca894e)"><path fill="#000000" d="M 252.679688 225.457031 L 249.058594 234.789062 L 256.015625 234.789062 Z M 247.066406 239.84375 C 246.5 241.199219 245.859375 242.976562 245.859375 244.402344 C 245.859375 245.828125 247.210938 246.113281 248.277344 246.324219 L 249.980469 246.46875 L 249.980469 247.820312 L 239.398438 247.820312 L 239.398438 246.539062 C 241.527344 246.113281 242.382812 245.613281 243.304688 243.691406 C 243.589844 243.121094 243.871094 242.410156 244.15625 241.554688 L 244.867188 239.773438 L 251.613281 222.679688 L 250.972656 220.828125 L 255.589844 220.828125 L 262.621094 239.773438 L 263.828125 243.050781 C 264.113281 243.761719 264.539062 245.1875 265.175781 245.757812 C 265.675781 246.253906 266.453125 246.398438 268.089844 246.46875 L 268.089844 247.820312 L 255.304688 247.820312 L 255.304688 246.46875 C 257.578125 246.398438 259.28125 246.324219 259.28125 244.832031 C 259.28125 243.976562 258.925781 242.695312 258.429688 241.625 L 257.792969 239.773438 L 256.726562 236.640625 L 248.203125 236.640625 Z M 219.160156 222.890625 C 218.238281 222.890625 217.242188 223.035156 216.675781 223.035156 L 216.675781 235.214844 L 219.230469 235.214844 C 220.507812 235.214844 221.714844 235.070312 222.921875 234.503906 C 224.273438 233.789062 225.410156 232.292969 225.410156 229.230469 C 225.410156 224.246094 221.789062 222.890625 219.160156 222.890625 Z M 216.675781 239.84375 L 216.675781 242.480469 C 216.675781 245.898438 217.03125 246.539062 219.445312 246.539062 L 221.363281 246.539062 L 221.363281 247.894531 L 207.796875 247.894531 L 207.796875 246.539062 C 211.773438 246.683594 212.058594 245.613281 212.058594 243.261719 L 212.058594 226.3125 C 212.058594 223.605469 211.632812 223.605469 207.796875 223.390625 L 207.796875 222.039062 C 210.425781 221.753906 213.90625 221.398438 218.449219 221.398438 C 220.507812 221.398438 230.167969 221.398438 230.167969 229.019531 C 230.167969 232.082031 228.746094 234.003906 226.121094 235.285156 C 225.550781 235.570312 224.984375 235.714844 224.558594 235.925781 C 225.054688 236.425781 225.480469 236.851562 225.90625 237.421875 C 226.261719 237.992188 226.6875 238.703125 227.253906 239.914062 L 228.109375 241.765625 C 230.097656 245.828125 231.160156 246.609375 233.363281 247.039062 L 233.363281 248.390625 C 229.527344 248.535156 226.472656 247.109375 223.988281 243.261719 C 223.632812 242.765625 222.851562 241.339844 222.070312 239.914062 C 221.359375 238.5625 220.582031 237.28125 220.296875 236.78125 L 216.675781 236.78125 Z M 122.582031 225.457031 L 118.960938 234.789062 L 125.917969 234.789062 Z M 116.972656 239.84375 C 116.472656 241.199219 115.835938 242.976562 115.835938 244.402344 C 115.835938 245.828125 117.113281 246.113281 118.25 246.324219 L 119.882812 246.46875 L 119.882812 247.820312 L 109.371094 247.820312 L 109.371094 246.539062 C 111.574219 246.113281 112.355469 245.613281 113.277344 243.691406 L 114.128906 241.554688 L 114.839844 239.773438 L 121.65625 222.679688 L 121.019531 220.828125 L 125.636719 220.828125 L 132.664062 239.773438 L 133.871094 243.050781 C 134.15625 243.761719 134.582031 245.1875 135.222656 245.757812 C 135.789062 246.253906 136.5 246.398438 138.203125 246.46875 L 138.203125 247.820312 L 125.28125 247.820312 L 125.28125 246.46875 C 127.480469 246.398438 129.257812 246.324219 129.257812 244.832031 C 129.257812 243.976562 128.832031 242.695312 128.40625 241.625 L 127.765625 239.773438 L 126.628906 236.640625 L 118.179688 236.640625 Z M 316.378906 239.84375 L 316.378906 242.621094 C 316.378906 245.828125 317.230469 246.324219 320.992188 246.539062 L 320.992188 247.894531 L 307.570312 247.894531 L 307.570312 246.539062 C 310.769531 246.324219 310.839844 246.253906 311.195312 245.613281 C 311.832031 244.617188 311.832031 241.410156 311.832031 240.128906 L 311.832031 226.953125 C 311.832031 223.746094 311.195312 223.320312 307.359375 223.035156 L 307.359375 221.679688 L 320.78125 221.679688 L 320.78125 223.035156 C 316.378906 223.175781 316.308594 223.820312 316.308594 228.164062 L 316.308594 239.84375 Z M 287.332031 239.84375 L 287.332031 242.90625 C 287.332031 244.6875 287.476562 245.472656 288.113281 245.898438 C 288.46875 246.113281 288.894531 246.253906 289.535156 246.324219 C 290.171875 246.398438 291.027344 246.46875 292.160156 246.46875 L 292.160156 247.820312 L 277.746094 247.820312 L 277.746094 246.46875 C 279.023438 246.398438 279.875 246.324219 280.515625 246.324219 C 281.15625 246.183594 281.652344 246.113281 281.9375 245.898438 C 282.503906 245.542969 282.644531 244.757812 282.644531 243.191406 L 282.644531 223.390625 L 278.3125 223.390625 C 276.609375 223.390625 275.898438 223.535156 275.472656 223.820312 C 275.117188 224.03125 274.90625 224.316406 274.691406 224.886719 C 274.480469 225.457031 274.265625 226.3125 273.769531 227.808594 L 272.492188 227.808594 L 273.058594 220.898438 L 274.125 220.898438 C 274.550781 221.609375 274.90625 221.679688 275.617188 221.753906 L 293.371094 221.753906 C 295.285156 221.753906 295.5 221.609375 295.785156 220.898438 L 296.847656 220.898438 L 297.488281 227.808594 L 296.140625 227.808594 C 295.214844 223.460938 294.363281 223.390625 292.160156 223.390625 L 287.332031 223.390625 Z M 183.867188 239.84375 L 183.867188 243.761719 C 183.867188 246.183594 184.007812 246.183594 186.421875 246.183594 L 190.96875 246.183594 C 193.59375 246.183594 194.945312 245.757812 196.082031 241.199219 L 197.5 241.199219 L 196.863281 247.75 L 174.988281 247.75 L 174.988281 246.398438 C 178.894531 246.539062 179.179688 245.472656 179.179688 243.121094 L 179.179688 226.238281 C 179.179688 223.320312 178.398438 222.820312 174.988281 222.890625 L 174.988281 221.679688 L 195.726562 221.679688 L 196.007812 227.664062 L 194.660156 227.664062 C 193.949219 223.675781 193.027344 223.390625 190.1875 223.390625 L 183.796875 223.390625 L 183.796875 233.789062 L 190.117188 233.789062 C 192.246094 233.789062 192.8125 233.789062 193.167969 230.585938 L 194.589844 230.585938 L 194.589844 238.777344 L 193.167969 238.777344 C 193.027344 235.5 192.601562 235.355469 189.6875 235.355469 L 183.796875 235.355469 L 183.796875 239.84375 Z M 163.839844 239.84375 C 163.910156 240.273438 163.980469 240.769531 163.980469 241.199219 C 163.980469 245.1875 160.785156 248.746094 155.816406 248.746094 C 155.035156 248.746094 154.539062 248.675781 153.828125 248.605469 C 153.117188 248.460938 152.195312 248.179688 150.632812 247.75 C 150.347656 247.609375 150.132812 247.609375 149.921875 247.609375 C 149.425781 247.609375 149.28125 247.75 149.28125 248.179688 L 148.003906 248.179688 L 147.222656 241.410156 L 148.644531 241.410156 C 150.417969 246.539062 154.113281 247.179688 155.320312 247.179688 C 156.953125 247.179688 160.21875 246.113281 160.21875 242.695312 C 160.21875 241.554688 159.863281 240.628906 159.222656 239.773438 C 158.160156 238.347656 156.242188 237.210938 153.613281 235.570312 C 148.289062 232.292969 147.292969 229.871094 147.292969 227.523438 C 147.292969 223.605469 150.84375 220.753906 154.464844 220.753906 C 155.886719 220.753906 157.164062 220.96875 158.300781 221.398438 C 158.65625 221.539062 159.863281 222.039062 160.078125 222.039062 C 160.21875 222.039062 160.429688 221.894531 160.785156 221.46875 L 162.066406 221.46875 L 162.703125 227.734375 L 161.285156 227.734375 C 160.003906 224.386719 157.945312 222.324219 155.035156 222.324219 C 152.761719 222.324219 151.058594 224.03125 151.058594 225.957031 C 151.058594 227.167969 151.414062 227.949219 152.476562 228.945312 C 153.046875 229.445312 153.828125 230.085938 154.820312 230.726562 L 158.585938 233.21875 C 159.792969 234.003906 160.929688 234.789062 161.851562 235.855469 C 162.773438 236.996094 163.554688 238.277344 163.839844 239.84375 Z M 69.816406 239.84375 L 69.535156 243.050781 C 69.464844 243.335938 69.464844 244.1875 69.464844 244.832031 C 69.464844 246.46875 71.734375 246.46875 73.15625 246.46875 L 73.15625 247.820312 L 62.789062 247.820312 L 62.789062 246.46875 C 67.261719 246.253906 67.261719 246.042969 67.617188 241.484375 L 67.757812 239.773438 L 68.894531 225.742188 C 69.035156 223.25 68.609375 223.25 65.203125 223.035156 L 65.203125 221.679688 L 74.007812 221.679688 L 81.820312 239.773438 L 82.386719 241.125 L 83.027344 239.773438 L 90.910156 221.679688 L 99.574219 221.679688 L 99.574219 223.035156 C 98.507812 223.035156 97.867188 223.035156 97.300781 223.105469 C 96.804688 223.25 96.449219 223.320312 96.234375 223.535156 C 95.808594 223.960938 95.738281 224.886719 95.878906 226.882812 L 96.730469 239.84375 L 96.875 242.195312 C 97.085938 245.613281 97.160156 246.683594 101.0625 246.539062 L 101.0625 247.894531 L 88.351562 247.894531 L 88.351562 246.539062 C 89.277344 246.46875 90.625 246.398438 91.476562 246.113281 C 92.1875 245.828125 92.613281 245.398438 92.613281 244.472656 C 92.613281 244.117188 92.472656 242.90625 92.472656 242.550781 L 92.328125 239.914062 L 91.476562 225.671875 L 85.226562 239.914062 L 81.75 247.964844 L 80.46875 247.964844 L 77.0625 239.914062 L 71.023438 225.671875 Z M 69.816406 239.84375 " fill-opacity="1" fill-rule="nonzero"/></g></svg>