<svg xmlns="http://www.w3.org/2000/svg" xmlns:xlink="http://www.w3.org/1999/xlink" width="512" zoomAndPan="magnify" viewBox="0 0 384 383.999986" height="512" preserveAspectRatio="xMidYMid meet" version="1.0"><defs><clipPath id="994b71e30e"><path d="M 273 165.28125 L 364.875 165.28125 L 364.875 214 L 273 214 Z M 273 165.28125 " clip-rule="nonzero"/></clipPath><clipPath id="4783b85484"><path d="M 273 166 L 364.875 166 L 364.875 214 L 273 214 Z M 273 166 " clip-rule="nonzero"/></clipPath><clipPath id="5a4c2f65c5"><path d="M 19.125 191 L 92 191 L 92 218 L 19.125 218 Z M 19.125 191 " clip-rule="nonzero"/></clipPath><clipPath id="f532779422"><path d="M 19.125 172 L 111 172 L 111 218.53125 L 19.125 218.53125 Z M 19.125 172 " clip-rule="nonzero"/></clipPath><clipPath id="d4a38e1a1b"><path d="M 93 191 L 309 191 L 309 218.53125 L 93 218.53125 Z M 93 191 " clip-rule="nonzero"/></clipPath><clipPath id="aa94326a2a"><path d="M 74 172 L 328 172 L 328 218.53125 L 74 218.53125 Z M 74 172 " clip-rule="nonzero"/></clipPath></defs><g clip-path="url(#994b71e30e)"><path fill="#231f20" d="M 273.433594 190.964844 C 347.019531 151.058594 410.597656 158.066406 321.046875 213.34375 C 341.878906 186.109375 319.15625 178.832031 273.433594 190.964844 Z M 273.433594 190.964844 " fill-opacity="1" fill-rule="evenodd"/><path fill="#292424" d="M 273.433594 190.964844 C 346.480469 151.328125 410.054688 158.335938 321.046875 213.34375 C 341.878906 186.109375 319.425781 178.832031 273.433594 190.964844 Z M 273.433594 190.964844 " fill-opacity="1" fill-rule="evenodd"/></g><g clip-path="url(#4783b85484)"><path fill="#332d2d" d="M 273.703125 190.964844 C 346.207031 151.597656 409.515625 158.609375 321.320312 213.34375 C 341.878906 185.839844 319.425781 178.832031 273.703125 190.964844 Z M 273.703125 190.964844 " fill-opacity="1" fill-rule="evenodd"/></g><path fill="#383231" d="M 273.703125 190.964844 C 345.667969 151.867188 408.703125 158.878906 321.046875 213.34375 C 341.878906 185.839844 319.425781 178.832031 273.703125 190.964844 Z M 273.703125 190.964844 " fill-opacity="1" fill-rule="evenodd"/><path fill="#3e3634" d="M 273.976562 190.695312 C 345.667969 151.867188 408.433594 159.148438 321.320312 213.074219 C 341.878906 185.839844 319.695312 178.832031 273.976562 190.695312 Z M 273.976562 190.695312 " fill-opacity="1" fill-rule="evenodd"/><path fill="#453b38" d="M 273.976562 190.695312 C 345.125 152.136719 407.621094 159.417969 321.320312 213.074219 C 341.878906 185.839844 319.695312 178.832031 273.976562 190.695312 Z M 273.976562 190.695312 " fill-opacity="1" fill-rule="evenodd"/><path fill="#4c413d" d="M 274.246094 190.695312 C 344.855469 152.40625 407.082031 159.6875 321.589844 213.074219 C 341.878906 185.839844 319.695312 178.832031 274.246094 190.695312 Z M 274.246094 190.695312 " fill-opacity="1" fill-rule="evenodd"/><path fill="#51443f" d="M 274.246094 190.695312 C 344.316406 152.675781 406.539062 160.226562 321.320312 213.074219 C 341.878906 185.839844 319.964844 178.832031 274.246094 190.695312 Z M 274.246094 190.695312 " fill-opacity="1" fill-rule="evenodd"/><path fill="#554540" d="M 274.515625 190.695312 C 344.042969 152.945312 406 160.496094 321.589844 213.074219 C 341.878906 185.839844 319.964844 178.5625 274.515625 190.695312 Z M 274.515625 190.695312 " fill-opacity="1" fill-rule="evenodd"/><path fill="#5c4a44" d="M 274.515625 190.425781 C 343.773438 152.945312 405.457031 160.496094 321.589844 212.535156 C 341.878906 185.839844 319.964844 178.5625 274.515625 190.425781 Z M 274.515625 190.425781 " fill-opacity="1" fill-rule="evenodd"/><path fill="#604b44" d="M 274.785156 190.425781 C 343.503906 153.214844 404.917969 160.765625 321.859375 212.535156 C 341.878906 185.570312 319.964844 178.5625 274.785156 190.425781 Z M 274.785156 190.425781 " fill-opacity="1" fill-rule="evenodd"/><path fill="#664e46" d="M 274.785156 190.425781 C 342.960938 153.484375 404.105469 161.304688 321.859375 212.535156 C 341.878906 185.570312 320.238281 178.5625 274.785156 190.425781 Z M 274.785156 190.425781 " fill-opacity="1" fill-rule="evenodd"/><path fill="#6a5047" d="M 275.058594 190.425781 C 342.691406 153.753906 403.832031 161.574219 321.859375 212.535156 C 341.878906 185.570312 320.238281 178.5625 275.058594 190.425781 Z M 275.058594 190.425781 " fill-opacity="1" fill-rule="evenodd"/><path fill="#6e5046" d="M 275.058594 190.15625 C 342.152344 153.753906 403.023438 161.574219 321.859375 212.265625 C 341.878906 185.570312 320.238281 178.5625 275.058594 190.15625 Z M 275.058594 190.15625 " fill-opacity="1" fill-rule="evenodd"/><path fill="#735246" d="M 275.328125 190.15625 C 342.152344 154.023438 402.480469 162.113281 322.128906 212.265625 C 341.878906 185.570312 320.507812 178.5625 275.328125 190.15625 Z M 275.328125 190.15625 " fill-opacity="1" fill-rule="evenodd"/><path fill="#775346" d="M 275.328125 190.15625 C 341.609375 154.292969 401.941406 162.382812 322.128906 212.265625 C 341.878906 185.570312 320.507812 178.5625 275.328125 190.15625 Z M 275.328125 190.15625 " fill-opacity="1" fill-rule="evenodd"/><path fill="#7c5548" d="M 275.597656 190.15625 C 341.339844 154.5625 401.398438 162.652344 322.402344 212.265625 C 341.878906 185.570312 320.507812 178.5625 275.597656 190.15625 Z M 275.597656 190.15625 " fill-opacity="1" fill-rule="evenodd"/><path fill="#805446" d="M 275.867188 190.15625 C 341.070312 154.832031 400.859375 162.921875 322.402344 211.996094 C 341.878906 185.570312 320.777344 178.5625 275.867188 190.15625 Z M 275.867188 190.15625 " fill-opacity="1" fill-rule="evenodd"/><path fill="#855647" d="M 275.867188 189.886719 C 340.796875 154.832031 400.316406 163.191406 322.402344 211.996094 C 341.878906 185.570312 320.777344 178.5625 275.867188 189.886719 Z M 275.867188 189.886719 " fill-opacity="1" fill-rule="evenodd"/><path fill="#895545" d="M 276.140625 189.886719 C 340.527344 155.101562 399.777344 163.460938 322.671875 211.996094 C 341.878906 185.300781 320.777344 178.5625 276.140625 189.886719 Z M 276.140625 189.886719 " fill-opacity="1" fill-rule="evenodd"/><path fill="#8e5745" d="M 276.140625 189.886719 C 339.988281 155.371094 398.964844 163.730469 322.671875 211.726562 C 341.878906 185.300781 320.777344 178.5625 276.140625 189.886719 Z M 276.140625 189.886719 " fill-opacity="1" fill-rule="evenodd"/><path fill="#915745" d="M 276.410156 189.886719 C 339.714844 155.640625 398.695312 164.269531 322.941406 211.726562 C 341.878906 185.300781 321.046875 178.5625 276.410156 189.886719 Z M 276.410156 189.886719 " fill-opacity="1" fill-rule="evenodd"/><path fill="#955643" d="M 276.410156 189.886719 C 339.175781 155.910156 397.882812 164.539062 322.671875 211.726562 C 341.878906 185.300781 321.046875 178.5625 276.410156 189.886719 Z M 276.410156 189.886719 " fill-opacity="1" fill-rule="evenodd"/><path fill="#9b5743" d="M 276.679688 189.617188 C 339.175781 155.910156 397.339844 164.539062 322.941406 211.457031 C 341.878906 185.300781 321.046875 178.292969 276.679688 189.617188 Z M 276.679688 189.617188 " fill-opacity="1" fill-rule="evenodd"/><path fill="#9e5541" d="M 276.679688 189.617188 C 338.632812 156.179688 396.800781 164.808594 322.941406 211.457031 C 341.878906 185.300781 321.320312 178.292969 276.679688 189.617188 Z M 276.679688 189.617188 " fill-opacity="1" fill-rule="evenodd"/><path fill="#a45641" d="M 276.949219 189.617188 C 338.363281 156.449219 396.257812 165.347656 323.214844 211.457031 C 341.878906 185.300781 321.320312 178.292969 276.949219 189.617188 Z M 276.949219 189.617188 " fill-opacity="1" fill-rule="evenodd"/><path fill="#a7543f" d="M 276.949219 189.617188 C 337.820312 156.71875 395.445312 165.617188 322.941406 211.457031 C 341.878906 185.300781 321.320312 178.292969 276.949219 189.617188 Z M 276.949219 189.617188 " fill-opacity="1" fill-rule="evenodd"/><path fill="#ab543e" d="M 277.222656 189.347656 C 337.550781 156.71875 395.175781 165.617188 323.214844 211.1875 C 341.878906 185.03125 321.589844 178.292969 277.222656 189.347656 Z M 277.222656 189.347656 " fill-opacity="1" fill-rule="evenodd"/><path fill="#b1523c" d="M 277.222656 189.347656 C 337.28125 156.988281 394.363281 166.15625 323.214844 211.1875 C 341.878906 185.03125 321.589844 178.292969 277.222656 189.347656 Z M 277.222656 189.347656 " fill-opacity="1" fill-rule="evenodd"/><path fill="#b6523b" d="M 277.492188 189.347656 C 337.011719 157.257812 393.824219 166.425781 323.484375 211.1875 C 342.152344 185.03125 321.589844 178.292969 277.492188 189.347656 Z M 277.492188 189.347656 " fill-opacity="1" fill-rule="evenodd"/><path fill="#ba513a" d="M 277.492188 189.347656 C 336.46875 157.527344 393.28125 166.695312 323.484375 211.1875 C 342.152344 185.03125 321.589844 178.292969 277.492188 189.347656 Z M 277.492188 189.347656 " fill-opacity="1" fill-rule="evenodd"/><path fill="#be4d36" d="M 277.761719 189.347656 C 336.199219 157.796875 392.742188 166.964844 323.484375 210.917969 C 342.152344 185.03125 321.859375 178.292969 277.761719 189.347656 Z M 277.761719 189.347656 " fill-opacity="1" fill-rule="evenodd"/><path fill="#c34c35" d="M 278.03125 189.078125 C 335.929688 157.796875 392.199219 167.234375 323.753906 210.648438 C 342.152344 185.03125 321.859375 178.292969 278.03125 189.078125 Z M 278.03125 189.078125 " fill-opacity="1" fill-rule="evenodd"/><path fill="#c74832" d="M 278.03125 189.078125 C 335.65625 158.066406 391.660156 167.503906 323.753906 210.648438 C 342.152344 185.03125 321.859375 178.292969 278.03125 189.078125 Z M 278.03125 189.078125 " fill-opacity="1" fill-rule="evenodd"/><path fill="#cc4631" d="M 278.304688 189.078125 C 335.386719 158.335938 391.117188 167.773438 324.023438 210.648438 C 342.152344 185.03125 322.128906 178.292969 278.304688 189.078125 Z M 278.304688 189.078125 " fill-opacity="1" fill-rule="evenodd"/><path fill="#d0432f" d="M 278.304688 189.078125 C 334.847656 158.609375 390.308594 168.316406 324.023438 210.648438 C 342.152344 184.761719 322.128906 178.292969 278.304688 189.078125 Z M 278.304688 189.078125 " fill-opacity="1" fill-rule="evenodd"/><path fill="#d33e2c" d="M 278.574219 189.078125 C 334.574219 158.878906 390.035156 168.585938 324.023438 210.648438 C 342.152344 184.761719 322.128906 178.292969 278.574219 189.078125 Z M 278.574219 189.078125 " fill-opacity="1" fill-rule="evenodd"/><path fill="#d9382a" d="M 278.574219 188.808594 C 334.035156 158.878906 389.226562 168.585938 324.023438 210.378906 C 342.152344 184.761719 322.128906 178.292969 278.574219 188.808594 Z M 278.574219 188.808594 " fill-opacity="1" fill-rule="evenodd"/><path fill="#de3428" d="M 278.84375 188.808594 C 334.035156 159.148438 388.683594 168.855469 324.296875 210.378906 C 342.152344 184.761719 322.402344 178.023438 278.84375 188.808594 Z M 278.84375 188.808594 " fill-opacity="1" fill-rule="evenodd"/><path fill="#e22e27" d="M 278.84375 188.808594 C 333.492188 159.417969 388.140625 169.394531 324.296875 210.378906 C 342.152344 184.761719 322.402344 178.023438 278.84375 188.808594 Z M 278.84375 188.808594 " fill-opacity="1" fill-rule="evenodd"/><path fill="#e52424" d="M 279.113281 188.808594 C 333.222656 159.6875 387.601562 169.664062 324.296875 210.378906 C 342.152344 184.761719 322.402344 178.023438 279.113281 188.808594 Z M 279.113281 188.808594 " fill-opacity="1" fill-rule="evenodd"/><path fill="#ed1c24" d="M 279.113281 188.808594 C 332.683594 159.957031 386.789062 169.933594 324.296875 210.378906 C 342.152344 184.761719 322.671875 178.023438 279.113281 188.808594 Z M 279.113281 188.808594 " fill-opacity="1" fill-rule="evenodd"/><path fill="#808285" d="M 346.75 168.042969 C 360.277344 166.695312 365.148438 170.742188 361.628906 179.101562 C 361.628906 172.089844 356.21875 168.585938 346.75 168.042969 Z M 346.75 168.042969 " fill-opacity="1" fill-rule="evenodd"/><path fill="#86888a" d="M 347.019531 168.042969 C 360.277344 166.964844 365.148438 170.742188 361.628906 179.101562 C 361.628906 172.089844 356.21875 168.585938 347.019531 168.042969 Z M 347.019531 168.042969 " fill-opacity="1" fill-rule="evenodd"/><path fill="#8a8c8e" d="M 347.019531 168.042969 C 360.007812 166.964844 364.875 170.742188 361.359375 178.832031 C 361.628906 172.089844 356.21875 168.855469 347.019531 168.042969 Z M 347.019531 168.042969 " fill-opacity="1" fill-rule="evenodd"/><path fill="#8f9194" d="M 347.292969 168.042969 C 360.007812 166.964844 364.875 171.011719 361.628906 178.832031 C 361.628906 172.089844 356.21875 168.855469 347.292969 168.042969 Z M 347.292969 168.042969 " fill-opacity="1" fill-rule="evenodd"/><path fill="#95979a" d="M 347.5625 168.042969 C 360.007812 166.964844 364.875 171.011719 361.628906 178.5625 C 361.628906 172.359375 356.488281 168.855469 347.5625 168.042969 Z M 347.5625 168.042969 " fill-opacity="1" fill-rule="evenodd"/><path fill="#9b9da0" d="M 347.832031 168.042969 C 360.007812 166.964844 364.875 171.011719 361.628906 178.5625 C 361.628906 172.359375 356.488281 168.855469 347.832031 168.042969 Z M 347.832031 168.042969 " fill-opacity="1" fill-rule="evenodd"/><path fill="#a1a3a6" d="M 348.101562 168.042969 C 360.007812 166.964844 364.875 171.011719 361.628906 178.292969 C 361.628906 172.359375 356.488281 168.855469 348.101562 168.042969 Z M 348.101562 168.042969 " fill-opacity="1" fill-rule="evenodd"/><path fill="#a7a9ac" d="M 348.375 168.042969 C 360.007812 167.234375 364.875 171.011719 361.898438 178.292969 C 361.628906 172.359375 356.488281 168.855469 348.375 168.042969 Z M 348.375 168.042969 " fill-opacity="1" fill-rule="evenodd"/><path fill="#adafb2" d="M 348.375 168.042969 C 359.734375 167.234375 364.605469 171.011719 361.628906 178.023438 C 361.628906 172.359375 356.488281 168.855469 348.375 168.042969 Z M 348.375 168.042969 " fill-opacity="1" fill-rule="evenodd"/><path fill="#b1b3b6" d="M 348.644531 168.042969 C 359.734375 167.234375 364.335938 171.011719 361.628906 178.023438 C 361.628906 172.359375 356.761719 168.855469 348.644531 168.042969 Z M 348.644531 168.042969 " fill-opacity="1" fill-rule="evenodd"/><path fill="#b8babc" d="M 348.914062 168.042969 C 359.734375 167.234375 364.335938 171.011719 361.628906 178.023438 C 361.628906 172.359375 356.761719 168.855469 348.914062 168.042969 Z M 348.914062 168.042969 " fill-opacity="1" fill-rule="evenodd"/><path fill="#bec0c2" d="M 349.183594 168.042969 C 359.734375 167.234375 364.335938 171.28125 361.628906 177.753906 C 361.628906 172.359375 356.761719 168.855469 349.183594 168.042969 Z M 349.183594 168.042969 " fill-opacity="1" fill-rule="evenodd"/><path fill="#c4c6c8" d="M 349.457031 168.042969 C 359.734375 167.234375 364.335938 171.28125 361.898438 177.753906 C 361.628906 172.359375 356.761719 168.855469 349.457031 168.042969 Z M 349.457031 168.042969 " fill-opacity="1" fill-rule="evenodd"/><path fill="#cbccce" d="M 349.457031 168.042969 C 359.464844 167.503906 364.066406 171.28125 361.628906 177.480469 C 361.628906 172.359375 356.761719 168.855469 349.457031 168.042969 Z M 349.457031 168.042969 " fill-opacity="1" fill-rule="evenodd"/><path fill="#d1d3d4" d="M 349.726562 168.042969 C 359.464844 167.503906 364.066406 171.28125 361.628906 177.480469 C 361.628906 172.359375 357.03125 168.855469 349.726562 168.042969 Z M 349.726562 168.042969 " fill-opacity="1" fill-rule="evenodd"/><path fill="#d8d9da" d="M 349.996094 168.042969 C 359.464844 167.503906 364.066406 171.28125 361.628906 177.210938 C 361.628906 172.359375 357.03125 168.855469 349.996094 168.042969 Z M 349.996094 168.042969 " fill-opacity="1" fill-rule="evenodd"/><path fill="#dcddde" d="M 350.265625 168.042969 C 359.464844 167.503906 364.066406 171.28125 361.628906 177.210938 C 361.628906 172.359375 357.03125 168.855469 350.265625 168.042969 Z M 350.265625 168.042969 " fill-opacity="1" fill-rule="evenodd"/><path fill="#e2e3e4" d="M 350.539062 168.042969 C 359.464844 167.503906 364.066406 171.28125 361.898438 176.941406 C 361.628906 172.359375 357.03125 168.855469 350.539062 168.042969 Z M 350.539062 168.042969 " fill-opacity="1" fill-rule="evenodd"/><path fill="#e9e9ea" d="M 350.808594 168.316406 C 359.464844 167.773438 363.792969 171.550781 361.898438 177.210938 C 361.628906 172.359375 357.03125 168.855469 350.808594 168.316406 Z M 350.808594 168.316406 " fill-opacity="1" fill-rule="evenodd"/><path fill="#efeff0" d="M 350.808594 168.316406 C 359.195312 168.042969 363.523438 171.820312 361.628906 176.941406 C 361.628906 172.359375 357.300781 168.855469 350.808594 168.316406 Z M 350.808594 168.316406 " fill-opacity="1" fill-rule="evenodd"/><path fill="#f6f6f6" d="M 351.078125 168.316406 C 359.195312 168.042969 363.523438 171.820312 361.628906 176.941406 C 361.628906 172.359375 357.300781 168.855469 351.078125 168.316406 Z M 351.078125 168.316406 " fill-opacity="1" fill-rule="evenodd"/><path fill="#ffffff" d="M 351.347656 168.316406 C 359.195312 168.042969 363.523438 171.820312 361.898438 176.671875 C 361.628906 172.359375 357.300781 168.855469 351.347656 168.316406 Z M 351.347656 168.316406 " fill-opacity="1" fill-rule="evenodd"/><g clip-path="url(#5a4c2f65c5)"><path fill="#231f20" d="M 41.039062 191.234375 L 64.578125 191.234375 L 64.578125 199.59375 L 72.691406 191.234375 L 91.628906 191.234375 L 91.628906 217.390625 L 75.128906 217.390625 L 75.128906 206.332031 L 64.578125 217.390625 L 49.15625 217.390625 L 49.15625 206.332031 L 38.605469 217.390625 L 19.667969 217.390625 Z M 41.039062 191.234375 " fill-opacity="1" fill-rule="evenodd"/></g><g clip-path="url(#f532779422)"><path stroke-linecap="butt" transform="matrix(2.705399, 0, 0, 2.696406, 19.126101, 165.61815)" fill="none" stroke-linejoin="miter" d="M 8.099715 9.500136 L 16.800488 9.500136 L 16.800488 12.600327 L 19.79941 9.500136 L 26.799301 9.500136 L 26.799301 19.200548 L 20.700386 19.200548 L 20.700386 15.099313 L 16.800488 19.200548 L 11.100081 19.200548 L 11.100081 15.099313 L 7.200183 19.200548 L 0.200291 19.200548 Z M 8.099715 9.500136 " stroke="#231f20" stroke-width="0.216" stroke-opacity="1" stroke-miterlimit="22.926001"/></g><g clip-path="url(#d4a38e1a1b)"><path fill="#231f20" d="M 126.800781 215.769531 L 126.800781 209.03125 C 104.074219 213.882812 100.015625 201.210938 126.800781 204.714844 L 126.800781 197.167969 C 81.890625 186.109375 83.242188 227.636719 126.800781 215.769531 Z M 268.023438 196.085938 L 283.445312 196.085938 L 283.445312 197.976562 C 293.722656 194.199219 301.300781 194.46875 306.441406 199.054688 C 308.0625 200.671875 308.0625 202.289062 308.0625 204.714844 L 308.0625 217.660156 L 292.640625 217.660156 L 292.640625 205.792969 C 290.75 203.367188 285.609375 203.367188 283.171875 205.792969 L 283.171875 217.660156 L 268.023438 217.660156 Z M 129.234375 217.390625 L 129.234375 191.234375 L 146.820312 191.234375 L 146.820312 207.414062 L 158.183594 207.414062 C 157.371094 199.59375 165.757812 191.234375 183.34375 197.976562 L 183.34375 196.355469 L 198.765625 196.355469 L 198.765625 217.660156 L 183.34375 217.660156 L 183.34375 216.039062 C 172.25 220.085938 164.675781 217.660156 160.890625 213.613281 L 160.890625 217.660156 Z M 179.285156 203.097656 C 182.261719 203.097656 184.425781 204.984375 184.425781 207.414062 C 184.425781 209.839844 181.992188 211.726562 179.285156 211.726562 C 176.308594 211.726562 174.144531 209.839844 174.144531 207.414062 C 173.875 204.984375 176.308594 203.097656 179.285156 203.097656 Z M 243.402344 203.90625 L 252.871094 203.90625 C 252.601562 199.59375 243.402344 199.324219 243.402344 203.90625 Z M 264.503906 210.648438 L 259.09375 210.648438 C 254.765625 213.34375 246.648438 212.804688 243.132812 209.03125 L 265.316406 209.03125 C 265.589844 208.222656 265.859375 207.414062 265.859375 206.605469 C 265.859375 200.402344 256.929688 195.277344 246.109375 195.277344 C 237.992188 195.277344 230.957031 198.246094 227.984375 202.289062 L 227.984375 195.277344 C 223.652344 195.277344 219.597656 196.085938 216.078125 198.785156 L 216.078125 196.355469 L 200.660156 196.355469 L 200.660156 217.660156 L 216.078125 217.660156 L 216.078125 210.109375 C 217.433594 207.683594 221.21875 207.144531 226.359375 207.414062 C 226.902344 212.804688 233.933594 217.390625 243.132812 217.929688 L 245.839844 217.929688 C 256.660156 217.929688 262.882812 213.613281 264.503906 210.648438 Z M 264.503906 210.648438 " fill-opacity="1" fill-rule="evenodd"/></g><g clip-path="url(#aa94326a2a)"><path stroke-linecap="butt" transform="matrix(2.705399, 0, 0, 2.696406, 19.126101, 165.61815)" fill="none" stroke-linejoin="miter" d="M 39.799925 18.599343 L 39.799925 16.100357 C 31.399477 17.899626 29.899294 13.200084 39.799925 14.499557 L 39.799925 11.700692 C 23.199728 7.599458 23.699308 23.000455 39.799925 18.599343 Z M 92.000229 11.299406 L 97.700635 11.299406 L 97.700635 12.000571 C 101.499462 10.59969 104.300574 10.699649 106.20071 12.400409 C 106.799916 13.000165 106.799916 13.599922 106.799916 14.499557 L 106.799916 19.300507 L 101.09951 19.300507 L 101.09951 14.899395 C 100.400676 13.99976 98.50054 13.99976 97.599564 14.899395 L 97.599564 19.300507 L 92.000229 19.300507 Z M 40.699457 19.200548 L 40.699457 9.500136 L 47.199769 9.500136 L 47.199769 15.5006 L 51.399992 15.5006 C 51.099667 12.600327 54.19966 9.500136 60.699972 12.000571 L 60.699972 11.399365 L 66.400378 11.399365 L 66.400378 19.300507 L 60.699972 19.300507 L 60.699972 18.699302 C 56.599375 20.200142 53.799707 19.300507 52.400595 17.799667 L 52.400595 19.300507 Z M 59.199789 13.8998 C 60.300019 13.8998 61.099924 14.599516 61.099924 15.5006 C 61.099924 16.400235 60.200392 17.099951 59.199789 17.099951 C 58.099558 17.099951 57.299653 16.400235 57.299653 15.5006 C 57.200026 14.599516 58.099558 13.8998 59.199789 13.8998 Z M 82.899503 14.199678 L 86.399449 14.199678 C 86.299822 12.600327 82.899503 12.500368 82.899503 14.199678 Z M 90.6993 16.700113 L 88.699537 16.700113 C 87.099727 17.699708 84.099361 17.499789 82.799876 16.100357 L 90.999625 16.100357 C 91.100696 15.800478 91.200324 15.5006 91.200324 15.200722 C 91.200324 12.900206 87.899632 10.999528 83.900107 10.999528 C 80.899741 10.999528 78.299327 12.10053 77.200541 13.599922 L 77.200541 10.999528 C 75.599287 10.999528 74.100548 11.299406 72.799619 12.300449 L 72.799619 11.399365 L 67.100656 11.399365 L 67.100656 19.300507 L 72.799619 19.300507 L 72.799619 16.500194 C 73.300642 15.600559 74.699754 15.40064 76.59989 15.5006 C 76.800588 17.499789 79.399558 19.200548 82.799876 19.400467 L 83.80048 19.400467 C 87.800005 19.400467 90.100093 17.799667 90.6993 16.700113 Z M 90.6993 16.700113 " stroke="#231f20" stroke-width="0.216" stroke-opacity="1" stroke-miterlimit="22.926001"/></g></svg>