<svg xmlns="http://www.w3.org/2000/svg" xmlns:xlink="http://www.w3.org/1999/xlink" width="512" zoomAndPan="magnify" viewBox="0 0 384 383.999986" height="512" preserveAspectRatio="xMidYMid meet" version="1.0"><defs><clipPath id="ae9f6a1747"><path d="M 62.515625 62.515625 L 321.265625 62.515625 L 321.265625 321.265625 L 62.515625 321.265625 Z M 62.515625 62.515625 " clip-rule="nonzero"/></clipPath></defs><g clip-path="url(#ae9f6a1747)"><path fill="#ffffff" d="M 62.515625 62.515625 L 321.265625 62.515625 L 321.265625 321.265625 L 62.515625 321.265625 Z M 62.515625 62.515625 " fill-opacity="1" fill-rule="evenodd"/></g><path fill="#000000" d="M 247.253906 66.320312 L 137.667969 66.320312 L 66.320312 137.667969 L 66.320312 246.398438 L 137.097656 317.460938 L 246.113281 317.460938 L 317.460938 246.113281 L 317.460938 137.097656 Z M 295.769531 236.410156 L 236.410156 295.773438 L 147.371094 295.773438 L 88.011719 236.699219 L 88.011719 147.371094 L 147.371094 88.296875 L 237.550781 88.296875 L 295.769531 146.800781 Z M 295.769531 236.410156 " fill-opacity="1" fill-rule="evenodd"/><path fill="#000000" d="M 138.570312 163.351562 L 123.441406 132.527344 L 100.898438 153.648438 L 100.898438 229.277344 L 122.585938 251.25 L 122.585938 177.621094 L 141.421875 219.570312 L 162.824219 163.636719 L 162.824219 280.929688 L 186.796875 280.929688 L 186.796875 102.277344 L 161.398438 102.277344 Z M 203.5625 102.277344 L 203.5625 280.929688 L 230.957031 280.929688 L 282.898438 229.277344 L 282.898438 191.601562 L 242.945312 191.601562 L 242.945312 213.292969 L 257.785156 213.292969 C 261.78125 212.722656 262.066406 217.289062 259.210938 220.710938 C 256.359375 224.136719 227.535156 252.390625 227.535156 252.390625 L 227.535156 130.816406 L 261.207031 165.917969 L 261.207031 174.480469 L 282.898438 174.480469 L 282.898438 154.503906 L 231.527344 102.277344 Z M 203.5625 102.277344 " fill-opacity="1" fill-rule="evenodd"/></svg>