<svg xmlns="http://www.w3.org/2000/svg" xmlns:xlink="http://www.w3.org/1999/xlink" width="512" zoomAndPan="magnify" viewBox="0 0 384 383.999986" height="512" preserveAspectRatio="xMidYMid meet" version="1.0"><defs><clipPath id="50721ad548"><path d="M 33.574219 111.058594 L 350 111.058594 L 350 273.058594 L 33.574219 273.058594 Z M 33.574219 111.058594 " clip-rule="nonzero"/></clipPath></defs><g clip-path="url(#50721ad548)"><path fill="#db0a2a" d="M 187.703125 111.058594 L 195.109375 111.058594 C 212.699219 111.183594 230.230469 113.140625 247.53125 116.253906 C 273.363281 121.480469 299.144531 129.902344 320.800781 145.332031 C 332.398438 153.789062 343.035156 164.730469 347.597656 178.652344 C 351.984375 191.238281 349.558594 205.539062 342.417969 216.628906 C 332.855469 231.820312 317.566406 242.308594 301.824219 250.285156 C 279.394531 261.300781 254.867188 267.507812 230.171875 270.703125 C 212.054688 273.289062 193.707031 273.328125 175.449219 272.761719 C 146.585938 271.015625 117.667969 265.730469 90.921875 254.453125 C 75.492188 247.75 60.519531 239.113281 48.96875 226.679688 C 43.46875 220.703125 38.839844 213.789062 36.265625 206.03125 C 32.90625 196.804688 33.082031 186.382812 36.617188 177.234375 C 41.601562 163.476562 52.402344 152.742188 64.140625 144.476562 C 76.871094 135.460938 91.285156 129.113281 105.996094 124.105469 C 132.320312 115.453125 160.054688 111.578125 187.703125 111.058594 Z M 168.445312 132.503906 C 142.417969 134.746094 116.324219 139.714844 92.347656 150.378906 C 80.890625 155.707031 69.652344 162.292969 61.304688 171.972656 C 55.398438 178.890625 51.238281 188.054688 52.648438 197.324219 C 54 205.875 59.101562 213.371094 65.355469 219.140625 C 74.710938 227.890625 86.375 233.589844 98.113281 238.421875 C 98.675781 238.140625 99.8125 237.582031 100.382812 237.300781 C 88.71875 231.785156 77.054688 225.066406 69.097656 214.636719 C 63.152344 207.128906 60.246094 196.753906 63.347656 187.453125 C 67.210938 175.300781 77.449219 166.589844 87.886719 160.011719 C 102.675781 150.878906 119.316406 145.242188 136.105469 141.09375 C 164.238281 134.546875 193.355469 132.644531 222.144531 134.429688 L 223.242188 133.269531 C 216.023438 132.265625 208.722656 132.257812 201.449219 131.929688 C 190.449219 131.402344 179.4375 132.035156 168.445312 132.503906 Z M 282.667969 148.015625 C 295.925781 153.894531 309.203125 161.640625 317.425781 173.980469 C 322.617188 181.722656 324.066406 191.988281 320.519531 200.699219 C 316.652344 210.378906 308.757812 217.78125 300.339844 223.570312 C 291.828125 229.480469 282.363281 233.820312 272.734375 237.550781 C 258.175781 242.851562 243.058594 246.605469 227.722656 248.8125 C 207.179688 252.238281 186.257812 252.535156 165.492188 251.652344 C 163.496094 251.660156 161.234375 250.863281 159.542969 252.3125 C 182.753906 255.210938 206.339844 254.804688 229.546875 252 C 239.085938 251.183594 248.421875 248.976562 257.792969 247.109375 C 271.925781 243.601562 285.910156 239.128906 298.863281 232.371094 C 310.472656 226.203125 322.03125 218.269531 328.449219 206.4375 C 332.539062 199.414062 333.144531 190.589844 330.542969 182.949219 C 326.304688 171.832031 316.90625 163.683594 307.015625 157.625 C 300.066406 153.25 292.496094 150.007812 284.90625 146.929688 C 284.34375 147.207031 283.222656 147.746094 282.667969 148.015625 Z M 135.667969 178.289062 C 133.984375 180.808594 134.085938 184 134.070312 186.90625 C 134.144531 191.042969 133.96875 195.191406 134.226562 199.324219 C 134.523438 203.992188 138.707031 208.378906 143.492188 208.246094 C 146.929688 208.273438 150.363281 208.214844 153.796875 208.257812 C 153.820312 206.097656 153.820312 203.925781 153.804688 201.761719 C 150.125 201.585938 146.4375 201.785156 142.765625 201.515625 C 141.089844 201.414062 139.695312 199.882812 139.804688 198.1875 C 139.679688 193.667969 139.695312 189.140625 139.738281 184.621094 C 139.53125 182.460938 141.207031 179.992188 143.523438 180.125 C 146.90625 180.035156 150.296875 180.074219 153.6875 180.140625 C 153.792969 178.035156 153.894531 175.917969 153.65625 173.816406 C 150.265625 173.6875 146.863281 173.769531 143.464844 173.777344 C 140.304688 173.761719 137.292969 175.613281 135.667969 178.289062 Z M 221.609375 179.507812 C 220.027344 183.261719 220.71875 187.425781 220.585938 191.378906 C 220.660156 195.5625 220.035156 200.105469 222.269531 203.882812 C 223.945312 206.207031 226.535156 208.238281 229.523438 208.230469 C 233.117188 208.304688 236.714844 208.171875 240.3125 208.320312 C 240.363281 206.109375 240.363281 203.902344 240.3125 201.695312 C 236.714844 201.613281 233.109375 201.769531 229.515625 201.539062 C 227.996094 201.515625 226.378906 200.351562 226.402344 198.722656 C 226.15625 194.03125 226.269531 189.328125 226.269531 184.628906 C 226.066406 182.636719 227.433594 180.304688 229.5625 180.164062 C 233.117188 179.992188 236.683594 180.101562 240.246094 180.132812 C 240.335938 178 240.3125 175.867188 240.238281 173.734375 C 236.929688 173.808594 233.621094 173.734375 230.320312 173.769531 C 226.625 173.6875 222.90625 176 221.601562 179.507812 Z M 83.28125 174.007812 C 83.304688 185.261719 83.167969 196.515625 83.316406 207.769531 C 85.171875 207.769531 87.027344 207.769531 88.882812 207.753906 C 89.015625 201.628906 88.644531 195.488281 89.046875 189.371094 C 91.472656 195.496094 93.75 201.671875 96.210938 207.789062 C 97.605469 207.789062 98.996094 207.789062 100.382812 207.789062 C 102.710938 201.570312 105.410156 195.480469 107.460938 189.15625 C 107.839844 195.347656 107.460938 201.554688 107.628906 207.761719 C 109.550781 207.761719 111.472656 207.761719 113.394531 207.761719 C 113.542969 196.515625 113.433594 185.261719 113.453125 174.007812 C 111.578125 173.992188 109.699219 173.992188 107.824219 173.984375 C 104.738281 182.027344 101.457031 189.996094 98.261719 197.996094 C 95.136719 189.960938 92.042969 181.917969 88.683594 173.980469 C 86.878906 173.992188 85.082031 174 83.28125 174.007812 Z M 121.214844 174.03125 C 121.132812 185.460938 121.164062 196.902344 121.199219 208.339844 C 123.128906 208.355469 125.058594 208.363281 126.992188 208.386719 C 127.089844 196.953125 127.007812 185.515625 127.03125 174.082031 C 125.09375 174.054688 123.152344 174.046875 121.214844 174.03125 Z M 159.609375 174.113281 C 159.609375 185.507812 159.503906 196.902344 159.660156 208.296875 C 161.53125 208.304688 163.398438 208.304688 165.269531 208.296875 C 165.410156 203.664062 165.335938 199.042969 165.320312 194.410156 C 167.117188 194.410156 168.917969 194.410156 170.714844 194.367188 C 172.488281 199.003906 174.644531 203.488281 176.285156 208.175781 C 178.207031 208.207031 180.136719 208.214844 182.066406 208.246094 C 180.679688 203.539062 178.839844 198.984375 176.902344 194.480469 C 184.089844 192.1875 185.597656 182.09375 180.996094 176.75 C 179.578125 174.796875 177.066406 173.972656 174.726562 174.054688 C 169.691406 174.066406 164.644531 174.023438 159.609375 174.113281 Z M 195.019531 174.535156 C 191.441406 176.453125 189.089844 180.601562 189.378906 184.675781 C 189.417969 188.875 189.359375 193.066406 189.34375 197.257812 C 189.046875 201.785156 192 206.4375 196.308594 207.902344 C 199.234375 208.40625 202.222656 208.101562 205.175781 208.207031 C 210.671875 208.652344 215.199219 203.308594 215.191406 198.0625 C 215.222656 193.328125 215.074219 188.589844 215.117188 183.855469 C 215.414062 178.765625 211.097656 173.597656 205.84375 173.742188 C 202.246094 173.84375 198.410156 173.027344 195.019531 174.535156 Z M 251.328125 177.425781 C 249.554688 179.671875 249.363281 182.628906 248.867188 185.335938 C 247.449219 192.820312 245.460938 200.195312 244.191406 207.714844 C 246.1875 207.722656 248.183594 207.722656 250.1875 207.664062 C 250.882812 204.378906 251.460938 201.070312 252.085938 197.765625 C 256.722656 197.777344 261.359375 197.792969 265.996094 197.71875 C 266.78125 200.90625 267.144531 204.1875 267.882812 207.390625 C 269.765625 208.117188 271.925781 207.589844 273.914062 207.703125 C 272.082031 198.53125 270.328125 189.335938 268.164062 180.238281 C 266.539062 172.921875 255.394531 171.546875 251.328125 177.425781 Z M 278.304688 208.332031 C 280.183594 208.324219 282.050781 208.324219 283.929688 208.304688 C 283.996094 203.660156 283.921875 199.011719 283.980469 194.367188 C 285.796875 194.398438 287.609375 194.398438 289.425781 194.398438 C 291.109375 199.085938 293.210938 203.613281 295.050781 208.246094 C 296.949219 208.230469 298.847656 208.214844 300.746094 208.164062 C 299.300781 203.457031 297.363281 198.929688 295.441406 194.402344 C 297.421875 193.476562 299.582031 192.472656 300.652344 190.433594 C 302.429688 187.65625 302.328125 184.183594 301.917969 181.03125 C 301.027344 177.753906 298.589844 174.441406 294.929688 174.210938 C 289.382812 173.957031 283.824219 174.105469 278.273438 174.058594 C 278.171875 185.484375 278.113281 196.910156 278.304688 208.332031 Z M 278.304688 208.332031 " fill-opacity="1" fill-rule="nonzero"/></g><path fill="#db0a2a" d="M 197.742188 180.296875 C 200.367188 179.910156 203.046875 180.101562 205.695312 180.117188 C 207.726562 179.933594 209.449219 181.910156 209.390625 183.871094 C 209.417969 188.554688 209.441406 193.238281 209.375 197.921875 C 209.472656 199.539062 208.144531 200.609375 207.1875 201.710938 C 204.0625 201.554688 200.917969 201.859375 197.808594 201.515625 C 196.597656 201.003906 195.210938 200.128906 195.152344 198.664062 C 194.863281 193.980469 195.0625 189.28125 195.070312 184.59375 C 194.9375 182.808594 195.78125 180.636719 197.742188 180.296875 Z M 197.742188 180.296875 " fill-opacity="1" fill-rule="nonzero"/><path fill="#db0a2a" d="M 165.335938 180.339844 C 168.816406 180.476562 172.316406 180.183594 175.789062 180.484375 C 178.570312 181.554688 178.140625 185.515625 176.796875 187.574219 C 173.109375 188.488281 169.15625 187.675781 165.371094 188.003906 C 165.351562 185.449219 165.328125 182.890625 165.335938 180.339844 Z M 165.335938 180.339844 " fill-opacity="1" fill-rule="nonzero"/><path fill="#db0a2a" d="M 255.304688 182.019531 C 256.78125 178.945312 261.847656 179.203125 262.910156 182.453125 C 263.792969 185.476562 264.125 188.644531 264.824219 191.714844 C 261.003906 191.699219 257.191406 191.714844 253.371094 191.699219 C 253.917969 188.457031 254.183594 185.121094 255.304688 182.019531 Z M 255.304688 182.019531 " fill-opacity="1" fill-rule="nonzero"/><path fill="#db0a2a" d="M 284.023438 180.328125 C 287.535156 180.484375 291.058594 180.199219 294.558594 180.484375 C 297.097656 181.902344 297.179688 186.308594 294.753906 187.855469 C 291.214844 188.136719 287.652344 187.855469 284.105469 188.003906 C 284.085938 185.441406 284.039062 182.882812 284.023438 180.328125 Z M 284.023438 180.328125 " fill-opacity="1" fill-rule="nonzero"/><path fill="#ffffff" d="M 168.445312 132.503906 C 179.4375 132.035156 190.449219 131.402344 201.449219 131.929688 C 208.722656 132.257812 216.023438 132.265625 223.242188 133.269531 L 222.144531 134.429688 C 193.355469 132.644531 164.238281 134.546875 136.105469 141.09375 C 119.316406 145.242188 102.675781 150.878906 87.886719 160.011719 C 77.449219 166.589844 67.210938 175.300781 63.347656 187.453125 C 60.246094 196.753906 63.152344 207.128906 69.097656 214.636719 C 77.054688 225.066406 88.71875 231.785156 100.382812 237.300781 C 99.8125 237.582031 98.675781 238.140625 98.113281 238.421875 C 86.375 233.589844 74.710938 227.890625 65.355469 219.140625 C 59.101562 213.371094 54 205.875 52.648438 197.324219 C 51.238281 188.054688 55.398438 178.890625 61.304688 171.972656 C 69.652344 162.292969 80.890625 155.707031 92.347656 150.378906 C 116.324219 139.714844 142.417969 134.746094 168.445312 132.503906 Z M 168.445312 132.503906 " fill-opacity="1" fill-rule="nonzero"/><path fill="#ffffff" d="M 282.667969 148.015625 C 283.222656 147.746094 284.34375 147.207031 284.90625 146.929688 C 292.496094 150.007812 300.066406 153.25 307.015625 157.625 C 316.90625 163.683594 326.304688 171.832031 330.542969 182.949219 C 333.144531 190.589844 332.539062 199.414062 328.449219 206.4375 C 322.03125 218.269531 310.472656 226.203125 298.863281 232.371094 C 285.910156 239.128906 271.925781 243.601562 257.792969 247.109375 C 248.421875 248.976562 239.085938 251.183594 229.546875 252 C 206.339844 254.804688 182.753906 255.210938 159.542969 252.3125 C 161.234375 250.863281 163.496094 251.660156 165.492188 251.652344 C 186.257812 252.535156 207.179688 252.238281 227.722656 248.8125 C 243.058594 246.605469 258.175781 242.851562 272.734375 237.550781 C 282.363281 233.820312 291.828125 229.480469 300.339844 223.570312 C 308.757812 217.78125 316.652344 210.378906 320.519531 200.699219 C 324.066406 191.988281 322.617188 181.722656 317.425781 173.980469 C 309.203125 161.640625 295.925781 153.894531 282.667969 148.015625 Z M 282.667969 148.015625 " fill-opacity="1" fill-rule="nonzero"/><path fill="#ffffff" d="M 135.667969 178.289062 C 137.292969 175.613281 140.304688 173.761719 143.464844 173.777344 C 146.863281 173.769531 150.265625 173.6875 153.65625 173.816406 C 153.894531 175.917969 153.792969 178.035156 153.6875 180.140625 C 150.296875 180.074219 146.90625 180.035156 143.523438 180.125 C 141.207031 179.992188 139.53125 182.460938 139.738281 184.621094 C 139.695312 189.140625 139.679688 193.667969 139.804688 198.1875 C 139.695312 199.882812 141.089844 201.414062 142.765625 201.515625 C 146.4375 201.785156 150.125 201.585938 153.804688 201.761719 C 153.820312 203.925781 153.820312 206.097656 153.796875 208.257812 C 150.363281 208.214844 146.929688 208.273438 143.492188 208.246094 C 138.707031 208.378906 134.523438 203.992188 134.226562 199.324219 C 133.96875 195.191406 134.144531 191.042969 134.070312 186.90625 C 134.085938 184 133.984375 180.808594 135.667969 178.289062 Z M 135.667969 178.289062 " fill-opacity="1" fill-rule="nonzero"/><path fill="#ffffff" d="M 221.609375 179.507812 C 222.914062 176 226.632812 173.6875 230.324219 173.769531 C 233.628906 173.734375 236.9375 173.808594 240.246094 173.734375 C 240.320312 175.867188 240.339844 178 240.253906 180.132812 C 236.691406 180.101562 233.121094 179.992188 229.570312 180.164062 C 227.441406 180.304688 226.074219 182.636719 226.273438 184.628906 C 226.273438 189.328125 226.164062 194.03125 226.410156 198.722656 C 226.386719 200.351562 228.003906 201.515625 229.523438 201.539062 C 233.117188 201.769531 236.722656 201.613281 240.320312 201.695312 C 240.363281 203.902344 240.363281 206.109375 240.320312 208.320312 C 236.722656 208.171875 233.121094 208.304688 229.53125 208.230469 C 226.542969 208.238281 223.953125 206.207031 222.277344 203.882812 C 220.042969 200.105469 220.667969 195.5625 220.59375 191.378906 C 220.726562 187.425781 220.035156 183.261719 221.617188 179.507812 Z M 221.609375 179.507812 " fill-opacity="1" fill-rule="nonzero"/><path fill="#ffffff" d="M 83.28125 174.007812 C 85.082031 174.007812 86.878906 173.992188 88.683594 173.980469 C 92.042969 181.917969 95.136719 189.960938 98.261719 197.996094 C 101.457031 189.996094 104.738281 182.027344 107.824219 173.984375 C 109.699219 173.992188 111.578125 173.992188 113.453125 174.007812 C 113.433594 185.261719 113.542969 196.515625 113.394531 207.761719 C 111.472656 207.761719 109.550781 207.761719 107.628906 207.761719 C 107.453125 201.554688 107.839844 195.347656 107.460938 189.15625 C 105.410156 195.480469 102.710938 201.570312 100.382812 207.789062 C 98.996094 207.789062 97.605469 207.789062 96.210938 207.789062 C 93.75 201.671875 91.472656 195.496094 89.046875 189.371094 C 88.644531 195.488281 89.015625 201.628906 88.882812 207.753906 C 87.027344 207.761719 85.171875 207.761719 83.316406 207.769531 C 83.167969 196.515625 83.304688 185.261719 83.28125 174.007812 Z M 83.28125 174.007812 " fill-opacity="1" fill-rule="nonzero"/><path fill="#ffffff" d="M 121.214844 174.03125 C 123.152344 174.046875 125.09375 174.054688 127.03125 174.082031 C 127.007812 185.515625 127.089844 196.953125 126.992188 208.386719 C 125.058594 208.363281 123.128906 208.355469 121.199219 208.339844 C 121.164062 196.902344 121.132812 185.460938 121.214844 174.03125 Z M 121.214844 174.03125 " fill-opacity="1" fill-rule="nonzero"/><path fill="#ffffff" d="M 159.609375 174.113281 C 164.644531 174.023438 169.691406 174.066406 174.726562 174.054688 C 177.066406 173.972656 179.578125 174.796875 180.996094 176.75 C 185.597656 182.09375 184.089844 192.1875 176.902344 194.480469 C 178.839844 198.984375 180.679688 203.539062 182.066406 208.246094 C 180.136719 208.214844 178.207031 208.207031 176.285156 208.175781 C 174.644531 203.488281 172.488281 199.003906 170.714844 194.367188 C 168.917969 194.417969 167.117188 194.417969 165.320312 194.410156 C 165.335938 199.042969 165.410156 203.664062 165.269531 208.296875 C 163.398438 208.304688 161.53125 208.304688 159.660156 208.296875 C 159.503906 196.902344 159.601562 185.507812 159.609375 174.113281 Z M 165.335938 180.339844 C 165.328125 182.890625 165.351562 185.449219 165.371094 188.003906 C 169.15625 187.675781 173.109375 188.488281 176.796875 187.574219 C 178.140625 185.515625 178.570312 181.554688 175.789062 180.484375 C 172.316406 180.183594 168.816406 180.484375 165.335938 180.339844 Z M 165.335938 180.339844 " fill-opacity="1" fill-rule="nonzero"/><path fill="#ffffff" d="M 195.019531 174.535156 C 198.410156 173.027344 202.246094 173.84375 205.84375 173.742188 C 211.097656 173.597656 215.414062 178.765625 215.117188 183.855469 C 215.074219 188.589844 215.222656 193.328125 215.191406 198.0625 C 215.199219 203.308594 210.671875 208.652344 205.175781 208.207031 C 202.222656 208.101562 199.234375 208.40625 196.308594 207.902344 C 192 206.4375 189.046875 201.785156 189.34375 197.257812 C 189.359375 193.066406 189.417969 188.875 189.378906 184.675781 C 189.089844 180.601562 191.441406 176.453125 195.019531 174.535156 Z M 197.742188 180.296875 C 195.78125 180.636719 194.9375 182.808594 195.070312 184.59375 C 195.0625 189.28125 194.863281 193.980469 195.152344 198.664062 C 195.210938 200.128906 196.597656 201.003906 197.808594 201.515625 C 200.917969 201.859375 204.0625 201.554688 207.1875 201.710938 C 208.144531 200.609375 209.472656 199.539062 209.375 197.921875 C 209.441406 193.238281 209.417969 188.554688 209.390625 183.871094 C 209.449219 181.910156 207.726562 179.933594 205.695312 180.117188 C 203.046875 180.101562 200.367188 179.910156 197.742188 180.296875 Z M 197.742188 180.296875 " fill-opacity="1" fill-rule="nonzero"/><path fill="#ffffff" d="M 251.328125 177.425781 C 255.394531 171.546875 266.539062 172.921875 268.164062 180.238281 C 270.328125 189.335938 272.082031 198.53125 273.914062 207.703125 C 271.925781 207.589844 269.765625 208.117188 267.882812 207.390625 C 267.144531 204.1875 266.78125 200.90625 265.996094 197.71875 C 261.359375 197.792969 256.722656 197.777344 252.085938 197.765625 C 251.460938 201.070312 250.882812 204.378906 250.1875 207.664062 C 248.183594 207.722656 246.1875 207.722656 244.191406 207.714844 C 245.460938 200.195312 247.449219 192.820312 248.867188 185.335938 C 249.363281 182.628906 249.554688 179.671875 251.328125 177.425781 Z M 255.304688 182.019531 C 254.183594 185.121094 253.917969 188.457031 253.371094 191.699219 C 257.191406 191.714844 261.003906 191.699219 264.824219 191.714844 C 264.125 188.644531 263.792969 185.476562 262.910156 182.453125 C 261.847656 179.203125 256.78125 178.945312 255.304688 182.019531 Z M 255.304688 182.019531 " fill-opacity="1" fill-rule="nonzero"/><path fill="#ffffff" d="M 278.304688 208.332031 C 278.113281 196.910156 278.171875 185.484375 278.273438 174.058594 C 283.824219 174.105469 289.382812 173.957031 294.929688 174.210938 C 298.589844 174.441406 301.027344 177.753906 301.917969 181.03125 C 302.328125 184.183594 302.429688 187.65625 300.652344 190.433594 C 299.582031 192.472656 297.421875 193.476562 295.441406 194.402344 C 297.363281 198.929688 299.300781 203.457031 300.746094 208.164062 C 298.847656 208.214844 296.949219 208.230469 295.050781 208.246094 C 293.210938 203.613281 291.109375 199.085938 289.425781 194.398438 C 287.609375 194.398438 285.796875 194.398438 283.980469 194.367188 C 283.921875 199.011719 283.996094 203.65625 283.929688 208.304688 C 282.050781 208.324219 280.183594 208.324219 278.304688 208.332031 Z M 284.023438 180.328125 C 284.039062 182.882812 284.085938 185.441406 284.105469 188.003906 C 287.652344 187.855469 291.214844 188.136719 294.753906 187.855469 C 297.179688 186.308594 297.097656 181.902344 294.558594 180.484375 C 291.058594 180.199219 287.535156 180.484375 284.023438 180.328125 Z M 284.023438 180.328125 " fill-opacity="1" fill-rule="nonzero"/></svg>