<svg xmlns="http://www.w3.org/2000/svg" xmlns:xlink="http://www.w3.org/1999/xlink" width="512" zoomAndPan="magnify" viewBox="0 0 384 383.999986" height="512" preserveAspectRatio="xMidYMid meet" version="1.0"><defs><clipPath id="67dc4a691a"><path d="M 26.238281 119.367188 L 357.738281 119.367188 L 357.738281 264.867188 L 26.238281 264.867188 Z M 26.238281 119.367188 " clip-rule="nonzero"/></clipPath></defs><g clip-path="url(#67dc4a691a)"><path fill="#120a08" d="M 191.988281 119.367188 C 188.949219 119.367188 185.925781 119.558594 182.910156 119.9375 C 179.894531 120.320312 176.917969 120.886719 173.972656 121.644531 C 171.03125 122.398438 168.144531 123.335938 165.320312 124.453125 C 162.496094 125.570312 159.75 126.863281 157.085938 128.324219 C 154.421875 129.789062 151.859375 131.410156 149.398438 133.195312 C 146.9375 134.980469 144.597656 136.914062 142.378906 138.992188 C 140.160156 141.070312 138.078125 143.28125 136.136719 145.621094 C 134.195312 147.964844 132.410156 150.417969 130.773438 152.980469 L 26.351562 152.980469 L 36.746094 163.394531 L 125.351562 163.394531 C 123.664062 167.320312 122.332031 171.363281 121.359375 175.527344 L 48.859375 175.527344 L 59.125 185.808594 L 119.679688 185.808594 C 119.480469 187.90625 119.375 190.011719 119.359375 192.117188 C 119.375 194.0625 119.472656 196.003906 119.648438 197.941406 L 71.238281 197.941406 L 81.507812 208.226562 L 121.226562 208.226562 C 122.152344 212.382812 123.429688 216.425781 125.058594 220.359375 L 93.621094 220.359375 L 104.011719 230.773438 L 130.5625 230.773438 C 132.1875 233.367188 133.96875 235.847656 135.90625 238.21875 C 137.84375 240.589844 139.921875 242.828125 142.144531 244.933594 C 144.363281 247.039062 146.707031 248.996094 149.171875 250.808594 C 151.640625 252.617188 154.210938 254.265625 156.886719 255.75 C 159.5625 257.234375 162.320312 258.542969 165.160156 259.679688 C 168 260.816406 170.898438 261.769531 173.859375 262.539062 C 176.820312 263.304688 179.816406 263.886719 182.851562 264.277344 C 185.882812 264.664062 188.929688 264.863281 191.988281 264.867188 C 195.046875 264.863281 198.089844 264.664062 201.125 264.277344 C 204.15625 263.886719 207.15625 263.308594 210.117188 262.539062 C 213.074219 261.769531 215.976562 260.816406 218.816406 259.683594 C 221.65625 258.546875 224.414062 257.234375 227.089844 255.75 C 229.765625 254.265625 232.335938 252.617188 234.804688 250.808594 C 237.269531 249 239.613281 247.039062 241.835938 244.933594 C 244.054688 242.828125 246.132812 240.589844 248.074219 238.21875 C 250.011719 235.851562 251.792969 233.367188 253.417969 230.773438 L 279.960938 230.773438 L 290.359375 220.359375 L 258.917969 220.359375 C 260.550781 216.425781 261.828125 212.382812 262.75 208.226562 L 302.46875 208.226562 L 312.738281 197.945312 L 264.328125 197.945312 C 264.503906 196.007812 264.597656 194.0625 264.617188 192.117188 C 264.601562 190.011719 264.496094 187.90625 264.296875 185.808594 L 324.847656 185.808594 L 335.117188 175.527344 L 262.613281 175.527344 C 261.640625 171.363281 260.3125 167.320312 258.628906 163.394531 L 347.230469 163.394531 L 357.625 152.980469 L 253.203125 152.980469 C 251.570312 150.417969 249.78125 147.964844 247.839844 145.621094 C 245.898438 143.28125 243.820312 141.070312 241.601562 138.992188 C 239.382812 136.914062 237.042969 134.980469 234.582031 133.195312 C 232.121094 131.410156 229.558594 129.789062 226.894531 128.324219 C 224.230469 126.863281 221.484375 125.570312 218.660156 124.453125 C 215.832031 123.335938 212.949219 122.398438 210.003906 121.644531 C 207.0625 120.886719 204.082031 120.320312 201.066406 119.9375 C 198.054688 119.558594 195.027344 119.367188 191.988281 119.367188 Z M 191.988281 129.230469 C 194.046875 129.230469 196.097656 129.328125 198.144531 129.53125 C 200.191406 129.734375 202.222656 130.035156 204.238281 130.4375 C 206.253906 130.839844 208.246094 131.339844 210.214844 131.9375 C 212.183594 132.535156 214.117188 133.226562 216.015625 134.015625 C 217.914062 134.804688 219.773438 135.683594 221.585938 136.65625 C 223.398438 137.625 225.160156 138.683594 226.871094 139.828125 C 228.582031 140.972656 230.230469 142.199219 231.820312 143.503906 C 233.410156 144.8125 234.929688 146.191406 236.386719 147.648438 C 237.839844 149.105469 239.21875 150.628906 240.523438 152.222656 C 241.828125 153.8125 243.050781 155.464844 244.195312 157.179688 C 245.335938 158.890625 246.390625 160.65625 247.359375 162.472656 C 248.332031 164.289062 249.207031 166.148438 249.996094 168.050781 C 250.78125 169.953125 251.472656 171.890625 252.070312 173.863281 C 252.667969 175.832031 253.167969 177.828125 253.566406 179.847656 C 253.96875 181.867188 254.269531 183.902344 254.472656 185.953125 C 254.675781 188.003906 254.773438 190.058594 254.773438 192.117188 C 254.773438 194.175781 254.675781 196.230469 254.472656 198.28125 C 254.269531 200.332031 253.96875 202.367188 253.566406 204.386719 C 253.167969 206.40625 252.667969 208.402344 252.070312 210.375 C 251.472656 212.34375 250.78125 214.28125 249.996094 216.183594 C 249.207031 218.085938 248.332031 219.945312 247.359375 221.761719 C 246.390625 223.578125 245.335938 225.34375 244.195312 227.058594 C 243.050781 228.769531 241.828125 230.421875 240.523438 232.015625 C 239.21875 233.605469 237.839844 235.128906 236.386719 236.585938 C 234.929688 238.042969 233.410156 239.425781 231.820312 240.730469 C 230.230469 242.039062 228.582031 243.265625 226.871094 244.40625 C 225.160156 245.550781 223.398438 246.609375 221.585938 247.582031 C 219.773438 248.550781 217.914062 249.429688 216.015625 250.21875 C 214.117188 251.007812 212.183594 251.699219 210.214844 252.300781 C 208.246094 252.898438 206.253906 253.398438 204.238281 253.796875 C 202.222656 254.199219 200.191406 254.503906 198.144531 254.703125 C 196.097656 254.90625 194.046875 255.007812 191.988281 255.007812 C 189.933594 255.007812 187.882812 254.90625 185.835938 254.703125 C 183.789062 254.503906 181.757812 254.199219 179.738281 253.800781 C 177.722656 253.398438 175.730469 252.898438 173.761719 252.300781 C 171.796875 251.703125 169.863281 251.007812 167.960938 250.21875 C 166.0625 249.433594 164.207031 248.550781 162.390625 247.582031 C 160.578125 246.609375 158.816406 245.554688 157.105469 244.410156 C 155.398438 243.265625 153.746094 242.039062 152.15625 240.734375 C 150.566406 239.425781 149.046875 238.042969 147.589844 236.589844 C 146.136719 235.132812 144.757812 233.605469 143.453125 232.015625 C 142.148438 230.421875 140.925781 228.769531 139.785156 227.058594 C 138.640625 225.34375 137.585938 223.582031 136.617188 221.765625 C 135.644531 219.949219 134.769531 218.089844 133.980469 216.183594 C 133.195312 214.28125 132.503906 212.34375 131.90625 210.375 C 131.308594 208.402344 130.808594 206.40625 130.40625 204.386719 C 130.007812 202.367188 129.707031 200.332031 129.503906 198.28125 C 129.300781 196.234375 129.203125 194.175781 129.203125 192.117188 C 129.203125 190.058594 129.300781 188.003906 129.503906 185.953125 C 129.707031 183.902344 130.007812 181.867188 130.40625 179.847656 C 130.808594 177.828125 131.308594 175.832031 131.90625 173.863281 C 132.503906 171.890625 133.195312 169.953125 133.980469 168.050781 C 134.769531 166.148438 135.644531 164.289062 136.617188 162.472656 C 137.585938 160.65625 138.640625 158.890625 139.785156 157.179688 C 140.925781 155.464844 142.148438 153.8125 143.453125 152.222656 C 144.757812 150.628906 146.136719 149.105469 147.589844 147.648438 C 149.046875 146.191406 150.566406 144.808594 152.15625 143.503906 C 153.746094 142.195312 155.398438 140.972656 157.105469 139.828125 C 158.816406 138.683594 160.578125 137.625 162.390625 136.652344 C 164.207031 135.683594 166.0625 134.804688 167.960938 134.015625 C 169.863281 133.226562 171.796875 132.535156 173.761719 131.9375 C 175.730469 131.339844 177.722656 130.839844 179.738281 130.4375 C 181.757812 130.035156 183.789062 129.734375 185.835938 129.53125 C 187.882812 129.328125 189.933594 129.230469 191.988281 129.230469 Z M 142.042969 175.816406 L 142.042969 208.417969 L 148.828125 208.417969 L 148.828125 182.757812 L 155.992188 208.417969 L 163.023438 208.417969 L 170.207031 182.757812 L 170.207031 208.417969 L 176.992188 208.417969 L 176.992188 175.816406 L 166.035156 175.816406 L 159.542969 198.054688 L 152.976562 175.816406 Z M 184.078125 175.816406 L 184.078125 208.417969 L 191.382812 208.417969 L 191.382812 175.816406 Z M 198.394531 175.816406 L 198.394531 208.417969 L 205.179688 208.417969 L 205.179688 187.160156 L 219.769531 208.417969 L 227.101562 208.417969 L 227.101562 175.816406 L 220.316406 175.816406 L 220.316406 197.589844 L 205.503906 175.816406 Z M 234.628906 175.816406 L 234.628906 208.417969 L 241.9375 208.417969 L 241.9375 175.816406 Z M 234.628906 175.816406 " fill-opacity="1" fill-rule="nonzero"/></g></svg>