<svg xmlns="http://www.w3.org/2000/svg" xmlns:xlink="http://www.w3.org/1999/xlink" width="512" zoomAndPan="magnify" viewBox="0 0 384 383.999986" height="512" preserveAspectRatio="xMidYMid meet" version="1.0"><defs><clipPath id="caa27b19e2"><path d="M 62.515625 181 L 98 181 L 98 218 L 62.515625 218 Z M 62.515625 181 " clip-rule="nonzero"/></clipPath><clipPath id="2423ea9793"><path d="M 292 181 L 321.265625 181 L 321.265625 218 L 292 218 Z M 292 181 " clip-rule="nonzero"/></clipPath><clipPath id="a49d2bcda8"><path d="M 62.515625 232 L 80 232 L 80 249.617188 L 62.515625 249.617188 Z M 62.515625 232 " clip-rule="nonzero"/></clipPath><clipPath id="bfe2f04483"><path d="M 219 232 L 237 232 L 237 249.617188 L 219 249.617188 Z M 219 232 " clip-rule="nonzero"/></clipPath><clipPath id="29173ae098"><path d="M 86 232 L 101 232 L 101 249.617188 L 86 249.617188 Z M 86 232 " clip-rule="nonzero"/></clipPath><clipPath id="c90acbbf6e"><path d="M 197 232 L 212 232 L 212 249.617188 L 197 249.617188 Z M 197 232 " clip-rule="nonzero"/></clipPath><clipPath id="fb2b8ff074"><path d="M 124 232 L 139 232 L 139 249.617188 L 124 249.617188 Z M 124 232 " clip-rule="nonzero"/></clipPath><clipPath id="5d4e35a4d1"><path d="M 260 232 L 279 232 L 279 249.617188 L 260 249.617188 Z M 260 232 " clip-rule="nonzero"/></clipPath><clipPath id="fe05e60bb6"><path d="M 145 232 L 159 232 L 159 249.617188 L 145 249.617188 Z M 145 232 " clip-rule="nonzero"/></clipPath><clipPath id="1d091b72cc"><path d="M 245 232 L 258 232 L 258 249.617188 L 245 249.617188 Z M 245 232 " clip-rule="nonzero"/></clipPath><clipPath id="248e6785fd"><path d="M 284 232 L 299 232 L 299 249.617188 L 284 249.617188 Z M 284 232 " clip-rule="nonzero"/></clipPath><clipPath id="7db9dcb4e5"><path d="M 175 231 L 191 231 L 191 249.617188 L 175 249.617188 Z M 175 231 " clip-rule="nonzero"/></clipPath><clipPath id="9f0651745a"><path d="M 105 232 L 120 232 L 120 249.617188 L 105 249.617188 Z M 105 232 " clip-rule="nonzero"/></clipPath><clipPath id="02f96964db"><path d="M 304 232 L 321.265625 232 L 321.265625 249.617188 L 304 249.617188 Z M 304 232 " clip-rule="nonzero"/></clipPath><clipPath id="d1dc972466"><path d="M 135 134.117188 L 250 134.117188 L 250 166 L 135 166 Z M 135 134.117188 " clip-rule="nonzero"/></clipPath></defs><g clip-path="url(#caa27b19e2)"><path fill="#010101" d="M 91.382812 182.179688 C 91.382812 182.179688 82.84375 193.398438 80.007812 197.125 L 68.382812 181.800781 L 62.976562 181.800781 L 62.976562 217.683594 L 69.015625 217.683594 L 69.015625 192.710938 L 78.160156 204.753906 L 81.855469 204.753906 L 91 192.714844 L 91 217.683594 L 97.039062 217.683594 L 97.039062 181.800781 L 91.675781 181.800781 L 91.390625 182.179688 Z M 91.382812 182.179688 " fill-opacity="1" fill-rule="nonzero"/></g><path fill="#010101" d="M 132.753906 181.839844 L 124.050781 181.839844 C 118.515625 181.839844 114.011719 186.234375 114.011719 191.636719 L 114.011719 207.875 C 114.011719 213.273438 118.515625 217.664062 124.050781 217.664062 L 132.753906 217.664062 C 138.292969 217.664062 142.792969 213.273438 142.792969 207.875 L 142.792969 191.636719 C 142.792969 186.234375 138.292969 181.839844 132.753906 181.839844 Z M 136.546875 191.636719 L 136.546875 207.875 C 136.546875 209.871094 134.847656 211.496094 132.753906 211.496094 L 124.050781 211.496094 C 121.964844 211.496094 120.261719 209.871094 120.261719 207.875 L 120.261719 191.636719 C 120.261719 189.640625 121.964844 188.015625 124.050781 188.015625 L 132.753906 188.015625 C 134.847656 188.015625 136.546875 189.640625 136.546875 191.636719 Z M 136.546875 191.636719 " fill-opacity="1" fill-rule="nonzero"/><path fill="#010101" d="M 263.523438 181.785156 L 260.898438 181.8125 L 258.328125 181.785156 L 242.242188 217.769531 L 248.972656 217.769531 L 251.761719 211.632812 L 270.027344 211.632812 L 272.765625 217.679688 L 279.570312 217.679688 L 263.785156 182.367188 L 263.519531 181.785156 Z M 267.253906 205.457031 L 254.523438 205.457031 C 255.964844 202.230469 259.164062 195.09375 260.894531 191.246094 Z M 267.253906 205.457031 " fill-opacity="1" fill-rule="nonzero"/><path fill="#010101" d="M 184.738281 194.480469 L 184.738281 191.589844 C 184.738281 186.1875 180.234375 181.792969 174.699219 181.792969 L 160.175781 181.792969 L 160.175781 217.679688 L 166.421875 217.679688 L 166.421875 204.277344 L 172 204.277344 C 173.609375 206.628906 180.855469 217.257812 180.855469 217.257812 L 181.144531 217.679688 L 188.589844 217.679688 L 178.890625 203.351562 C 182.386719 201.765625 184.738281 198.28125 184.738281 194.484375 Z M 178.492188 191.59375 L 178.492188 194.484375 C 178.492188 196.480469 176.789062 198.109375 174.699219 198.109375 L 166.421875 198.109375 L 166.421875 187.976562 L 174.699219 187.976562 C 176.789062 187.976562 178.492188 189.605469 178.492188 191.597656 Z M 178.492188 191.59375 " fill-opacity="1" fill-rule="nonzero"/><g clip-path="url(#2423ea9793)"><path fill="#010101" d="M 315.0625 181.792969 L 315.0625 205.910156 L 298.144531 181.792969 L 292.566406 181.792969 L 292.566406 217.679688 L 298.8125 217.679688 L 298.8125 193.578125 L 315.691406 217.679688 L 321.308594 217.679688 L 321.308594 181.792969 Z M 315.0625 181.792969 " fill-opacity="1" fill-rule="nonzero"/></g><path fill="#010101" d="M 224.558594 205.964844 C 224.3125 207.53125 223.574219 208.847656 222.375 209.886719 C 220.859375 211.265625 218.984375 211.9375 216.644531 211.9375 C 215.25 211.9375 214.035156 211.683594 213.050781 211.175781 C 212.023438 210.734375 211.199219 210.175781 210.582031 209.484375 C 209.804688 208.75 209.324219 207.832031 209.078125 206.671875 C 208.785156 205.460938 208.640625 203.183594 208.640625 199.714844 C 208.640625 196.25 208.789062 193.941406 209.078125 192.71875 C 209.324219 191.585938 209.8125 190.683594 210.5625 189.96875 C 211.195312 189.265625 212.023438 188.683594 213.035156 188.214844 C 214.042969 187.765625 215.25 187.523438 216.648438 187.496094 C 218.546875 187.523438 220.164062 188 221.480469 188.917969 C 222.738281 189.875 223.609375 191.035156 224.082031 192.386719 L 224.160156 192.609375 L 231.316406 192.609375 L 231.222656 192.191406 C 230.558594 189.183594 228.945312 186.625 226.429688 184.59375 C 223.921875 182.582031 220.632812 181.542969 216.667969 181.507812 C 213.425781 181.542969 210.6875 182.222656 208.523438 183.527344 C 206.328125 184.816406 204.707031 186.300781 203.703125 187.949219 C 203.046875 188.878906 202.578125 190.042969 202.273438 191.441406 C 201.992188 192.855469 201.851562 195.558594 201.851562 199.714844 C 201.851562 203.871094 201.992188 206.488281 202.273438 207.9375 C 202.429688 208.710938 202.617188 209.367188 202.855469 209.894531 C 203.105469 210.394531 203.375 210.90625 203.679688 211.441406 C 204.683594 213.105469 206.324219 214.597656 208.53125 215.863281 C 210.699219 217.167969 213.425781 217.859375 216.664062 217.925781 C 220.855469 217.855469 224.398438 216.609375 227.167969 214.214844 C 229.941406 211.78125 231.386719 208.714844 231.460938 205.117188 L 231.460938 199.371094 L 217.179688 199.371094 L 217.179688 205.152344 L 224.695312 205.152344 L 224.566406 205.964844 Z M 224.558594 205.964844 " fill-opacity="1" fill-rule="nonzero"/><g clip-path="url(#a49d2bcda8)"><path fill="#010101" d="M 76.785156 232.367188 C 76.785156 232.367188 72.636719 237.820312 71.253906 239.632812 L 65.601562 232.179688 L 62.976562 232.179688 L 62.976562 249.628906 L 65.914062 249.628906 L 65.914062 237.484375 L 70.363281 243.339844 L 72.160156 243.339844 L 76.605469 237.488281 L 76.605469 249.628906 L 79.542969 249.628906 L 79.542969 232.179688 L 76.9375 232.179688 L 76.796875 232.367188 Z M 76.785156 232.367188 " fill-opacity="1" fill-rule="nonzero"/></g><g clip-path="url(#bfe2f04483)"><path fill="#010101" d="M 233.71875 232.367188 C 233.71875 232.367188 229.570312 237.820312 228.1875 239.632812 L 222.535156 232.179688 L 219.90625 232.179688 L 219.90625 249.628906 L 222.847656 249.628906 L 222.847656 237.484375 L 227.296875 243.339844 L 229.09375 243.339844 L 233.539062 237.488281 L 233.539062 249.628906 L 236.476562 249.628906 L 236.476562 232.179688 L 233.867188 232.179688 L 233.730469 232.367188 Z M 233.71875 232.367188 " fill-opacity="1" fill-rule="nonzero"/></g><g clip-path="url(#29173ae098)"><path fill="#010101" d="M 96.078125 232.199219 L 91.847656 232.199219 C 89.15625 232.199219 86.96875 234.335938 86.96875 236.964844 L 86.96875 244.863281 C 86.96875 247.484375 89.15625 249.621094 91.847656 249.621094 L 96.078125 249.621094 C 98.773438 249.621094 100.960938 247.484375 100.960938 244.863281 L 100.960938 236.964844 C 100.960938 234.335938 98.773438 232.199219 96.078125 232.199219 Z M 97.925781 236.964844 L 97.925781 244.863281 C 97.925781 245.832031 97.097656 246.625 96.078125 246.625 L 91.847656 246.625 C 90.835938 246.625 90.007812 245.832031 90.007812 244.863281 L 90.007812 236.964844 C 90.007812 235.992188 90.835938 235.203125 91.847656 235.203125 L 96.078125 235.203125 C 97.097656 235.203125 97.925781 235.992188 97.925781 236.964844 Z M 97.925781 236.964844 " fill-opacity="1" fill-rule="nonzero"/></g><g clip-path="url(#c90acbbf6e)"><path fill="#010101" d="M 206.59375 232.199219 L 202.363281 232.199219 C 199.671875 232.199219 197.480469 234.335938 197.480469 236.964844 L 197.480469 244.863281 C 197.480469 247.484375 199.671875 249.621094 202.363281 249.621094 L 206.59375 249.621094 C 209.285156 249.621094 211.476562 247.484375 211.476562 244.863281 L 211.476562 236.964844 C 211.476562 234.335938 209.285156 232.199219 206.59375 232.199219 Z M 208.433594 236.964844 L 208.433594 244.863281 C 208.433594 245.832031 207.605469 246.625 206.589844 246.625 L 202.359375 246.625 C 201.34375 246.625 200.515625 245.832031 200.515625 244.863281 L 200.515625 236.964844 C 200.515625 235.992188 201.34375 235.203125 202.359375 235.203125 L 206.589844 235.203125 C 207.605469 235.203125 208.433594 235.992188 208.433594 236.964844 Z M 208.433594 236.964844 " fill-opacity="1" fill-rule="nonzero"/></g><g clip-path="url(#fb2b8ff074)"><path fill="#010101" d="M 133.4375 232.199219 L 129.207031 232.199219 C 126.515625 232.199219 124.328125 234.335938 124.328125 236.964844 L 124.328125 244.863281 C 124.328125 247.484375 126.515625 249.621094 129.207031 249.621094 L 133.4375 249.621094 C 136.128906 249.621094 138.320312 247.484375 138.320312 244.863281 L 138.320312 236.964844 C 138.320312 234.335938 136.128906 232.199219 133.4375 232.199219 Z M 135.285156 236.964844 L 135.285156 244.863281 C 135.285156 245.832031 134.457031 246.625 133.4375 246.625 L 129.207031 246.625 C 128.195312 246.625 127.367188 245.832031 127.367188 244.863281 L 127.367188 236.964844 C 127.367188 235.992188 128.195312 235.203125 129.207031 235.203125 L 133.4375 235.203125 C 134.457031 235.203125 135.285156 235.992188 135.285156 236.964844 Z M 135.285156 236.964844 " fill-opacity="1" fill-rule="nonzero"/></g><g clip-path="url(#5d4e35a4d1)"><path fill="#010101" d="M 270.710938 232.152344 L 269.433594 232.164062 L 268.183594 232.152344 L 260.363281 249.644531 L 263.636719 249.644531 L 264.992188 246.660156 L 273.871094 246.660156 L 275.203125 249.597656 L 278.511719 249.597656 L 270.835938 232.429688 L 270.710938 232.148438 Z M 272.527344 243.664062 L 266.339844 243.664062 C 267.042969 242.097656 268.597656 238.621094 269.4375 236.753906 Z M 272.527344 243.664062 " fill-opacity="1" fill-rule="nonzero"/></g><g clip-path="url(#fe05e60bb6)"><path fill="#010101" d="M 157.035156 238.34375 L 157.035156 236.941406 C 157.035156 234.3125 154.847656 232.175781 152.15625 232.175781 L 145.09375 232.175781 L 145.09375 249.621094 L 148.128906 249.621094 L 148.128906 243.105469 L 150.84375 243.105469 C 151.625 244.25 155.148438 249.417969 155.148438 249.417969 L 155.289062 249.621094 L 158.90625 249.621094 L 154.191406 242.652344 C 155.894531 241.882812 157.035156 240.191406 157.035156 238.34375 Z M 154 236.941406 L 154 238.34375 C 154 239.316406 153.171875 240.105469 152.15625 240.105469 L 148.132812 240.105469 L 148.132812 235.179688 L 152.15625 235.179688 C 153.171875 235.179688 154 235.96875 154 236.941406 Z M 154 236.941406 " fill-opacity="1" fill-rule="nonzero"/></g><g clip-path="url(#1d091b72cc)"><path fill="#010101" d="M 257.402344 238.34375 L 257.402344 236.941406 C 257.402344 234.3125 255.210938 232.175781 252.519531 232.175781 L 245.457031 232.175781 L 245.457031 249.621094 L 248.496094 249.621094 L 248.496094 243.105469 L 251.210938 243.105469 C 253.738281 243.085938 254.5625 242.652344 254.5625 242.652344 C 256.261719 241.882812 257.40625 240.191406 257.40625 238.34375 Z M 254.359375 236.941406 L 254.359375 238.34375 C 254.359375 239.316406 253.535156 240.105469 252.515625 240.105469 L 248.496094 240.105469 L 248.496094 235.179688 L 252.515625 235.179688 C 253.535156 235.179688 254.359375 235.96875 254.359375 236.941406 Z M 254.359375 236.941406 " fill-opacity="1" fill-rule="nonzero"/></g><g clip-path="url(#248e6785fd)"><path fill="#010101" d="M 295.488281 232.179688 L 295.488281 243.902344 L 287.265625 232.179688 L 284.550781 232.179688 L 284.550781 249.628906 L 287.585938 249.628906 L 287.585938 237.90625 L 295.796875 249.628906 L 298.527344 249.628906 L 298.527344 232.179688 Z M 295.488281 232.179688 " fill-opacity="1" fill-rule="nonzero"/></g><g clip-path="url(#7db9dcb4e5)"><path fill="#010101" d="M 186.878906 243.800781 C 186.757812 244.5625 186.398438 245.207031 185.816406 245.707031 C 185.082031 246.378906 184.167969 246.703125 183.027344 246.703125 C 182.351562 246.703125 181.757812 246.578125 181.28125 246.332031 C 180.78125 246.117188 180.382812 245.84375 180.082031 245.507812 C 179.703125 245.148438 179.46875 244.703125 179.347656 244.140625 C 179.203125 243.554688 179.132812 242.445312 179.132812 240.761719 C 179.132812 239.078125 179.203125 237.953125 179.347656 237.359375 C 179.46875 236.804688 179.703125 236.367188 180.070312 236.019531 C 180.378906 235.675781 180.78125 235.398438 181.277344 235.167969 C 181.765625 234.949219 182.355469 234.835938 183.03125 234.820312 C 183.953125 234.835938 184.738281 235.066406 185.378906 235.511719 C 185.996094 235.976562 186.417969 236.546875 186.644531 237.199219 L 186.683594 237.308594 L 190.160156 237.308594 L 190.113281 237.101562 C 189.792969 235.636719 189.007812 234.398438 187.785156 233.410156 C 186.5625 232.433594 184.96875 231.929688 183.039062 231.910156 C 181.460938 231.929688 180.132812 232.257812 179.078125 232.890625 C 178.007812 233.515625 177.222656 234.238281 176.734375 235.039062 C 176.417969 235.488281 176.183594 236.058594 176.042969 236.734375 C 175.902344 237.421875 175.835938 238.738281 175.835938 240.757812 C 175.835938 242.773438 175.90625 244.054688 176.042969 244.753906 C 176.117188 245.132812 176.207031 245.453125 176.324219 245.707031 C 176.445312 245.949219 176.574219 246.199219 176.722656 246.460938 C 177.210938 247.269531 178.007812 247.996094 179.085938 248.609375 C 180.140625 249.246094 181.464844 249.582031 183.039062 249.613281 C 185.078125 249.582031 186.796875 248.972656 188.148438 247.808594 C 189.496094 246.625 190.195312 245.136719 190.234375 243.386719 L 186.949219 243.402344 L 186.882812 243.796875 Z M 186.878906 243.800781 " fill-opacity="1" fill-rule="nonzero"/></g><g clip-path="url(#9f0651745a)"><path fill="#010101" d="M 119.054688 232.039062 L 105.386719 232.039062 L 105.386719 235.203125 L 110.640625 235.203125 L 110.640625 249.636719 L 113.800781 249.636719 L 113.800781 235.203125 L 119.054688 235.203125 Z M 119.054688 232.039062 " fill-opacity="1" fill-rule="nonzero"/></g><g clip-path="url(#02f96964db)"><path fill="#010101" d="M 321.308594 232.277344 L 317.648438 232.277344 L 313.132812 238.25 L 308.605469 232.277344 L 304.941406 232.277344 L 311.527344 241.03125 L 311.527344 249.636719 L 314.695312 249.636719 L 314.695312 241.085938 Z M 321.308594 232.277344 " fill-opacity="1" fill-rule="nonzero"/></g><path fill="#010101" d="M 173.21875 146.503906 C 173.21875 146.503906 171.621094 148.605469 171.085938 149.308594 L 168.90625 146.433594 L 167.890625 146.433594 L 167.890625 153.164062 L 169.027344 153.164062 L 169.027344 148.480469 L 170.742188 150.738281 L 171.433594 150.738281 L 173.148438 148.480469 L 173.148438 153.164062 L 174.285156 153.164062 L 174.285156 146.433594 L 173.28125 146.433594 L 173.222656 146.503906 Z M 173.21875 146.503906 " fill-opacity="1" fill-rule="nonzero"/><path fill="#010101" d="M 180.519531 146.445312 L 178.886719 146.445312 C 177.847656 146.445312 177.003906 147.265625 177.003906 148.28125 L 177.003906 151.324219 C 177.003906 152.339844 177.847656 153.164062 178.886719 153.164062 L 180.519531 153.164062 C 181.554688 153.164062 182.402344 152.339844 182.402344 151.324219 L 182.402344 148.28125 C 182.402344 147.265625 181.554688 146.445312 180.519531 146.445312 Z M 181.230469 148.28125 L 181.230469 151.324219 C 181.230469 151.699219 180.910156 152.003906 180.519531 152.003906 L 178.886719 152.003906 C 178.496094 152.003906 178.175781 151.699219 178.175781 151.324219 L 178.175781 148.28125 C 178.175781 147.910156 178.496094 147.601562 178.886719 147.601562 L 180.519531 147.601562 C 180.910156 147.601562 181.230469 147.910156 181.230469 148.28125 Z M 181.230469 148.28125 " fill-opacity="1" fill-rule="nonzero"/><path fill="#010101" d="M 205.496094 146.429688 L 204.519531 146.429688 L 201.503906 153.175781 L 202.761719 153.175781 L 203.289062 152.027344 L 206.714844 152.027344 L 207.226562 153.164062 L 208.5 153.164062 L 205.539062 146.542969 L 205.488281 146.433594 Z M 206.195312 150.871094 L 203.808594 150.871094 C 204.078125 150.265625 204.679688 148.925781 205.003906 148.207031 Z M 206.195312 150.871094 " fill-opacity="1" fill-rule="nonzero"/><path fill="#010101" d="M 190.242188 148.8125 L 190.242188 148.265625 C 190.242188 147.253906 189.398438 146.429688 188.359375 146.429688 L 185.636719 146.429688 L 185.636719 153.15625 L 186.808594 153.15625 L 186.808594 150.640625 L 187.855469 150.640625 C 188.15625 151.085938 189.511719 153.078125 189.511719 153.078125 L 189.570312 153.15625 L 190.964844 153.15625 L 189.144531 150.46875 C 189.800781 150.171875 190.242188 149.515625 190.242188 148.804688 Z M 189.070312 148.273438 L 189.070312 148.816406 C 189.070312 149.1875 188.75 149.496094 188.359375 149.496094 L 186.808594 149.496094 L 186.808594 147.59375 L 188.359375 147.59375 C 188.75 147.59375 189.070312 147.898438 189.070312 148.273438 Z M 189.070312 148.273438 " fill-opacity="1" fill-rule="nonzero"/><path fill="#010101" d="M 215.160156 146.433594 L 215.160156 150.953125 L 211.988281 146.433594 L 210.941406 146.433594 L 210.941406 153.164062 L 212.113281 153.164062 L 212.113281 148.644531 L 215.277344 153.164062 L 216.328125 153.164062 L 216.328125 146.433594 Z M 215.160156 146.433594 " fill-opacity="1" fill-rule="nonzero"/><path fill="#010101" d="M 197.910156 150.96875 C 197.863281 151.261719 197.722656 151.507812 197.5 151.703125 C 197.21875 151.957031 196.863281 152.089844 196.425781 152.089844 C 196.167969 152.089844 195.9375 152.042969 195.753906 151.945312 C 195.5625 151.859375 195.402344 151.757812 195.289062 151.628906 C 195.144531 151.488281 195.050781 151.316406 195.003906 151.101562 C 194.949219 150.875 194.921875 150.445312 194.921875 149.800781 C 194.921875 149.15625 194.949219 148.71875 195.003906 148.488281 C 195.050781 148.277344 195.144531 148.109375 195.28125 147.972656 C 195.402344 147.84375 195.558594 147.730469 195.746094 147.644531 C 195.933594 147.558594 196.160156 147.515625 196.425781 147.507812 C 196.785156 147.515625 197.085938 147.601562 197.332031 147.773438 C 197.570312 147.957031 197.734375 148.167969 197.820312 148.425781 L 197.835938 148.464844 L 199.175781 148.464844 L 199.15625 148.386719 C 199.03125 147.824219 198.726562 147.347656 198.257812 146.964844 C 197.789062 146.589844 197.171875 146.394531 196.425781 146.390625 C 195.816406 146.394531 195.304688 146.523438 194.898438 146.765625 C 194.484375 147.007812 194.179688 147.285156 193.992188 147.59375 C 193.871094 147.765625 193.78125 147.984375 193.722656 148.25 C 193.664062 148.511719 193.640625 149.019531 193.640625 149.800781 C 193.640625 150.582031 193.667969 151.070312 193.722656 151.339844 C 193.75 151.484375 193.785156 151.609375 193.828125 151.707031 C 193.875 151.800781 193.925781 151.898438 193.980469 151.996094 C 194.171875 152.308594 194.480469 152.585938 194.890625 152.824219 C 195.296875 153.070312 195.808594 153.199219 196.417969 153.207031 C 197.203125 153.195312 197.867188 152.960938 198.386719 152.511719 C 198.910156 152.054688 199.179688 151.480469 199.191406 150.804688 L 199.191406 149.726562 L 196.515625 149.726562 L 196.515625 150.808594 L 197.921875 150.808594 L 197.898438 150.964844 Z M 197.910156 150.96875 " fill-opacity="1" fill-rule="nonzero"/><g clip-path="url(#d1dc972466)"><path fill="#010101" d="M 232.609375 143.75 C 231.613281 143.78125 230.613281 143.792969 229.632812 143.792969 C 227.417969 143.792969 225.222656 143.71875 222.933594 143.5625 C 220.058594 143.363281 217.628906 143.078125 215.488281 142.828125 L 213.667969 142.617188 C 213.339844 142.582031 213.019531 142.542969 212.703125 142.507812 C 211.152344 142.332031 209.820312 142.175781 208.648438 142.175781 C 208.175781 142.175781 207.746094 142.199219 207.335938 142.253906 L 206.816406 142.371094 C 207.050781 142.835938 207.238281 143.261719 207.417969 143.710938 L 206.253906 143.710938 C 203.921875 138.214844 198.476562 134.363281 192.132812 134.363281 C 189.96875 134.363281 187.914062 134.808594 186.050781 135.617188 L 186.035156 135.617188 C 182.433594 137.1875 179.546875 140.09375 178.007812 143.710938 L 176.8125 143.710938 C 176.984375 143.261719 177.179688 142.839844 177.414062 142.371094 L 176.890625 142.253906 C 176.488281 142.203125 176.054688 142.175781 175.582031 142.175781 C 174.410156 142.175781 173.074219 142.332031 171.527344 142.507812 C 171.210938 142.542969 170.886719 142.582031 170.558594 142.617188 L 168.742188 142.828125 C 166.605469 143.078125 164.175781 143.363281 161.292969 143.5625 C 159.003906 143.71875 156.8125 143.792969 154.59375 143.792969 C 153.613281 143.792969 152.609375 143.78125 151.621094 143.75 C 147.195312 143.609375 142.78125 142.949219 138.765625 141.90625 C 137.746094 141.640625 135.832031 141.011719 135.015625 140.730469 C 135.03125 140.746094 135.046875 140.757812 135.0625 140.777344 C 135.160156 140.875 135.269531 140.980469 135.390625 141.101562 C 135.808594 141.515625 136.914062 142.347656 137.890625 142.925781 C 138.191406 143.101562 138.511719 143.273438 138.835938 143.441406 C 138.84375 143.445312 142.949219 145.773438 151.835938 146.738281 C 153.242188 146.890625 154.722656 147.019531 156.230469 147.09375 C 157.4375 147.15625 158.644531 147.183594 159.820312 147.183594 C 161.425781 147.183594 162.953125 147.128906 164.394531 147.039062 L 164.394531 147.988281 C 163.066406 148.066406 161.648438 148.117188 160.128906 148.117188 C 158.933594 148.117188 157.710938 148.085938 156.488281 148.03125 C 154.957031 147.957031 153.457031 147.835938 152.023438 147.667969 C 149.132812 147.328125 146.359375 146.761719 143.773438 145.980469 L 143.621094 145.933594 C 144.359375 146.785156 146.953125 149.800781 153.597656 151.054688 C 157.59375 151.808594 161.488281 151.925781 164.394531 151.859375 L 164.394531 152.730469 C 163.90625 152.738281 163.425781 152.75 162.949219 152.75 C 162.808594 152.75 162.667969 152.75 162.527344 152.75 C 159.441406 152.726562 156.882812 152.46875 154.335938 151.984375 C 154.65625 152.285156 157.5 155.5625 164.65625 156.355469 C 171.074219 157.066406 177.347656 155.839844 177.992188 155.707031 L 178.015625 155.707031 C 180.355469 161.191406 185.792969 165.035156 192.132812 165.035156 C 198.46875 165.035156 203.90625 161.191406 206.246094 155.710938 C 206.9375 155.847656 213.179688 157.066406 219.574219 156.355469 C 226.726562 155.5625 229.574219 152.285156 229.894531 151.984375 C 227.347656 152.46875 224.789062 152.730469 221.703125 152.75 C 221.5625 152.75 221.417969 152.75 221.28125 152.75 C 220.785156 152.75 220.289062 152.738281 219.78125 152.730469 L 219.78125 151.859375 C 222.691406 151.929688 226.613281 151.820312 230.628906 151.054688 C 237.277344 149.800781 239.871094 146.785156 240.605469 145.933594 L 240.453125 145.980469 C 237.867188 146.761719 235.089844 147.328125 232.199219 147.667969 C 230.769531 147.835938 229.265625 147.957031 227.738281 148.03125 C 226.515625 148.089844 225.292969 148.117188 224.097656 148.117188 C 222.558594 148.117188 221.125 148.066406 219.777344 147.988281 L 219.777344 147.039062 C 221.234375 147.132812 222.777344 147.1875 224.398438 147.1875 C 225.574219 147.1875 226.785156 147.160156 227.988281 147.101562 C 229.496094 147.027344 230.972656 146.894531 232.386719 146.742188 C 241.269531 145.78125 245.375 143.449219 245.382812 143.445312 C 245.710938 143.277344 246.03125 143.105469 246.328125 142.929688 C 247.304688 142.351562 248.410156 141.519531 248.828125 141.109375 C 248.949219 140.988281 249.0625 140.878906 249.160156 140.78125 C 249.175781 140.761719 249.191406 140.75 249.207031 140.734375 C 248.386719 141.015625 246.472656 141.648438 245.453125 141.910156 C 241.441406 142.957031 237.027344 143.613281 232.601562 143.753906 Z M 198.03125 140.238281 C 199.4375 141.121094 200.636719 142.308594 201.53125 143.707031 L 198.03125 143.707031 Z M 186.03125 140.363281 L 186.03125 143.710938 L 182.726562 143.710938 C 183.578125 142.375 184.707031 141.234375 186.03125 140.363281 Z M 186.03125 159.035156 C 184.710938 158.167969 183.585938 157.035156 182.734375 155.707031 L 186.03125 155.707031 Z M 198.03125 159.160156 L 198.03125 155.707031 L 201.523438 155.707031 C 200.628906 157.101562 199.433594 158.28125 198.03125 159.160156 Z M 197.109375 154.785156 L 197.109375 159.671875 C 195.613281 160.417969 193.921875 160.84375 192.132812 160.84375 C 190.339844 160.84375 188.5 160.382812 186.957031 159.566406 L 186.957031 154.78125 L 165.316406 154.78125 L 165.316406 144.621094 L 186.957031 144.621094 L 186.957031 139.816406 C 188.503906 139 190.261719 138.542969 192.132812 138.542969 C 194 138.542969 195.613281 138.964844 197.109375 139.710938 L 197.109375 144.617188 L 218.863281 144.617188 L 218.863281 154.773438 L 197.109375 154.773438 Z M 197.109375 154.785156 " fill-opacity="1" fill-rule="nonzero"/></g><path fill="#010101" d="M 254.308594 136.96875 C 254.253906 136.867188 254.15625 136.789062 254.035156 136.808594 L 253.96875 136.820312 L 253.855469 136.847656 C 250.527344 137.644531 245.226562 138.101562 236.851562 138.183594 C 228.355469 138.265625 222.457031 138.101562 216.644531 137.289062 C 213.886719 136.910156 212.265625 136.671875 210.3125 136.699219 C 209.054688 136.71875 206.757812 136.992188 205.28125 137.675781 L 203.921875 138.277344 C 204.859375 139.246094 205.679688 140.335938 206.355469 141.511719 C 206.609375 141.441406 206.9375 141.363281 207.199219 141.332031 C 207.703125 141.265625 208.125 141.242188 208.644531 141.242188 C 209.871094 141.242188 211.234375 141.394531 212.808594 141.578125 C 213.128906 141.613281 213.449219 141.652344 213.78125 141.6875 L 215.601562 141.898438 C 217.734375 142.148438 220.144531 142.429688 223.003906 142.628906 C 225.273438 142.785156 227.4375 142.859375 229.636719 142.859375 C 230.609375 142.859375 231.601562 142.847656 232.585938 142.8125 C 236.9375 142.679688 241.144531 142.089844 245.085938 141.0625 C 246.117188 140.792969 248.601562 140.058594 249.371094 139.792969 C 249.503906 139.746094 249.941406 139.574219 250.097656 139.507812 C 250.582031 139.304688 251.042969 139.089844 251.457031 138.875 C 252.359375 138.414062 253.175781 137.910156 253.878906 137.378906 L 254.007812 137.28125 C 254.085938 137.226562 254.230469 137.113281 254.308594 137.054688 C 254.328125 137.035156 254.332031 137.007812 254.308594 136.964844 Z M 254.308594 136.96875 " fill-opacity="1" fill-rule="nonzero"/><path fill="#010101" d="M 211.832031 157.242188 C 209.480469 157.09375 206.988281 156.640625 206.957031 156.703125 C 206.332031 158.015625 205.542969 159.234375 204.609375 160.324219 L 205.957031 160.308594 C 211.339844 160.238281 214.832031 158.984375 216.8125 157.941406 C 216.8125 157.941406 217.542969 157.554688 218.109375 157.1875 C 217.207031 157.253906 215.390625 157.460938 211.832031 157.238281 Z M 211.832031 157.242188 " fill-opacity="1" fill-rule="nonzero"/><path fill="#010101" d="M 151.644531 142.8125 C 152.625 142.847656 153.621094 142.859375 154.589844 142.859375 C 156.785156 142.859375 158.957031 142.785156 161.226562 142.628906 C 164.078125 142.433594 166.492188 142.148438 168.625 141.898438 L 170.449219 141.6875 C 170.777344 141.652344 171.097656 141.613281 171.421875 141.578125 C 172.996094 141.394531 174.359375 141.242188 175.585938 141.242188 C 176.105469 141.242188 176.523438 141.261719 177.03125 141.332031 C 177.296875 141.363281 177.621094 141.445312 177.871094 141.511719 C 178.550781 140.332031 179.371094 139.246094 180.308594 138.277344 L 178.945312 137.675781 C 177.472656 136.992188 175.175781 136.71875 173.917969 136.699219 C 171.964844 136.671875 170.339844 136.90625 167.585938 137.289062 C 161.773438 138.101562 155.875 138.265625 147.375 138.183594 C 139.003906 138.101562 133.703125 137.644531 130.375 136.847656 L 130.257812 136.820312 L 130.195312 136.808594 C 130.074219 136.789062 129.976562 136.867188 129.917969 136.96875 C 129.894531 137.011719 129.902344 137.039062 129.917969 137.058594 C 130.003906 137.125 130.140625 137.230469 130.222656 137.285156 L 130.351562 137.382812 C 131.054688 137.917969 131.871094 138.421875 132.773438 138.878906 C 133.1875 139.09375 133.648438 139.304688 134.132812 139.511719 C 134.289062 139.578125 134.726562 139.75 134.855469 139.796875 C 135.632812 140.0625 138.117188 140.796875 139.144531 141.066406 C 143.085938 142.09375 147.292969 142.679688 151.644531 142.816406 Z M 151.644531 142.8125 " fill-opacity="1" fill-rule="nonzero"/><path fill="#010101" d="M 172.390625 157.242188 C 168.832031 157.46875 167.015625 157.257812 166.117188 157.191406 C 166.683594 157.566406 167.414062 157.945312 167.414062 157.945312 C 169.394531 158.988281 172.890625 160.238281 178.269531 160.3125 L 179.617188 160.332031 C 178.679688 159.238281 177.890625 158.019531 177.269531 156.710938 C 177.234375 156.644531 174.742188 157.101562 172.390625 157.25 Z M 172.390625 157.242188 " fill-opacity="1" fill-rule="nonzero"/><path stroke-linecap="butt" transform="matrix(0.464891, 0, 0, 0.464891, 62.524022, 134.115575)" fill="none" stroke-linejoin="miter" d="M 245.898242 20.640037 L 248.402191 20.640037 " stroke="#ffffff" stroke-width="1" stroke-opacity="1" stroke-miterlimit="10"/></svg>