<svg xmlns="http://www.w3.org/2000/svg" xmlns:xlink="http://www.w3.org/1999/xlink" width="512" zoomAndPan="magnify" viewBox="0 0 384 383.999986" height="512" preserveAspectRatio="xMidYMid meet" version="1.0"><path fill="#000000" d="M 77.84375 219.84375 C 77.84375 220.207031 77.535156 220.515625 77.171875 220.515625 L 67.058594 220.515625 C 65.710938 220.414062 65.246094 219.636719 65.246094 219.636719 L 44.347656 182.5625 C 43.984375 181.9375 43.054688 182.199219 43.054688 182.925781 L 43.054688 219.894531 C 43.054688 220.257812 42.742188 220.570312 42.378906 220.570312 L 32.992188 220.570312 C 32.628906 220.570312 32.320312 220.257812 32.320312 219.894531 L 32.320312 164.101562 C 32.320312 163.738281 32.628906 163.429688 32.992188 163.429688 L 44.660156 163.429688 L 44.660156 163.480469 L 65.816406 200.863281 C 66.179688 201.488281 67.113281 201.226562 67.113281 200.503906 L 67.113281 164.101562 C 67.113281 163.738281 67.421875 163.429688 67.785156 163.429688 L 77.171875 163.429688 C 77.535156 163.429688 77.84375 163.738281 77.84375 164.101562 Z M 77.84375 219.84375 " fill-opacity="1" fill-rule="nonzero"/><path fill="#000000" d="M 123.164062 219.582031 C 123.164062 220.101562 122.75 220.570312 122.179688 220.570312 L 113.363281 220.570312 C 112.847656 220.570312 112.378906 220.152344 112.378906 219.582031 L 112.378906 164.414062 C 112.378906 163.894531 112.792969 163.429688 113.363281 163.429688 L 122.179688 163.429688 C 122.699219 163.429688 123.164062 163.84375 123.164062 164.414062 Z M 123.164062 219.582031 " fill-opacity="1" fill-rule="nonzero"/><path fill="#000000" d="M 199.4375 219.011719 C 199.4375 219.738281 198.816406 220.363281 198.089844 220.363281 L 159.824219 220.363281 C 159.097656 220.363281 158.476562 219.738281 158.476562 219.011719 L 158.476562 211.441406 C 158.476562 210.71875 159.097656 210.09375 159.824219 210.09375 L 198.089844 210.09375 C 198.816406 210.09375 199.4375 210.71875 199.4375 211.441406 Z M 199.4375 219.011719 " fill-opacity="1" fill-rule="nonzero"/><path fill="#000000" d="M 199.4375 195.679688 C 199.4375 196.40625 198.816406 197.027344 198.089844 197.027344 L 159.824219 197.027344 C 159.097656 197.027344 158.476562 196.40625 158.476562 195.679688 L 158.476562 188.109375 C 158.476562 187.382812 159.097656 186.761719 159.824219 186.761719 L 198.089844 186.761719 C 198.816406 186.761719 199.4375 187.382812 199.4375 188.109375 Z M 199.4375 195.679688 " fill-opacity="1" fill-rule="nonzero"/><path fill="#000000" d="M 199.4375 172.347656 C 199.4375 173.074219 198.816406 173.695312 198.089844 173.695312 L 159.824219 173.695312 C 159.097656 173.695312 158.476562 173.074219 158.476562 172.347656 L 158.476562 164.777344 C 158.476562 164.050781 159.097656 163.429688 159.824219 163.429688 L 198.089844 163.429688 C 198.816406 163.429688 199.4375 164.050781 199.4375 164.777344 Z M 199.4375 172.347656 " fill-opacity="1" fill-rule="nonzero"/><path fill="#000000" d="M 279.03125 164.984375 L 260.160156 219.6875 C 260.003906 220.101562 259.640625 220.363281 259.226562 220.363281 L 249.683594 220.363281 C 249.269531 220.363281 248.90625 220.101562 248.75 219.6875 L 230.5 164.984375 C 230.292969 164.359375 230.757812 163.6875 231.433594 163.6875 L 241.335938 163.6875 C 241.75 163.6875 242.164062 164 242.269531 164.414062 L 253.882812 204.132812 C 254.144531 205.066406 255.492188 205.066406 255.75 204.132812 L 267.574219 164.359375 C 267.675781 163.945312 268.09375 163.636719 268.507812 163.636719 L 278.097656 163.636719 C 278.773438 163.6875 279.238281 164.359375 279.03125 164.984375 Z M 279.03125 164.984375 " fill-opacity="1" fill-rule="nonzero"/><path fill="#000000" d="M 351.730469 219.011719 C 351.730469 219.738281 351.105469 220.363281 350.382812 220.363281 L 312.113281 220.363281 C 311.386719 220.363281 310.765625 219.738281 310.765625 219.011719 L 310.765625 211.441406 C 310.765625 210.71875 311.386719 210.09375 312.113281 210.09375 L 350.382812 210.09375 C 351.109375 210.09375 351.730469 210.71875 351.730469 211.441406 Z M 351.730469 219.011719 " fill-opacity="1" fill-rule="nonzero"/><path fill="#000000" d="M 351.730469 195.679688 C 351.730469 196.40625 351.105469 197.027344 350.382812 197.027344 L 312.113281 197.027344 C 311.386719 197.027344 310.765625 196.40625 310.765625 195.679688 L 310.765625 188.109375 C 310.765625 187.382812 311.386719 186.761719 312.113281 186.761719 L 350.382812 186.761719 C 351.109375 186.761719 351.730469 187.382812 351.730469 188.109375 Z M 351.730469 195.679688 " fill-opacity="1" fill-rule="nonzero"/><path fill="#000000" d="M 351.730469 172.347656 C 351.730469 173.074219 351.105469 173.695312 350.382812 173.695312 L 312.113281 173.695312 C 311.386719 173.695312 310.765625 173.074219 310.765625 172.347656 L 310.765625 164.777344 C 310.765625 164.050781 311.386719 163.429688 312.113281 163.429688 L 350.382812 163.429688 C 351.109375 163.429688 351.730469 164.050781 351.730469 164.777344 Z M 351.730469 172.347656 " fill-opacity="1" fill-rule="nonzero"/></svg>