<svg xmlns="http://www.w3.org/2000/svg" xmlns:xlink="http://www.w3.org/1999/xlink" width="512" zoomAndPan="magnify" viewBox="0 0 384 383.999986" height="512" preserveAspectRatio="xMidYMid meet" version="1.0"><defs><clipPath id="e7127033c2"><path d="M 47.695312 71.308594 L 336.445312 71.308594 L 336.445312 312.808594 L 47.695312 312.808594 Z M 47.695312 71.308594 " clip-rule="nonzero"/></clipPath></defs><g clip-path="url(#e7127033c2)"><path fill="#000000" d="M 215.949219 201.707031 C 215.722656 201.765625 214.804688 201.765625 214.402344 201.765625 L 184.855469 201.765625 L 184.855469 208.636719 L 214.917969 208.636719 C 215.148438 208.636719 216.925781 208.636719 217.269531 208.582031 C 223.394531 208.007812 226.203125 202.910156 226.203125 198.445312 C 226.203125 193.863281 223.28125 188.9375 217.726562 188.421875 C 216.636719 188.308594 215.722656 188.308594 215.320312 188.308594 L 195.675781 188.308594 C 194.820312 188.308594 193.84375 188.25 193.5 188.136719 C 191.957031 187.734375 191.382812 186.359375 191.382812 185.214844 C 191.382812 184.183594 191.957031 182.808594 193.558594 182.351562 C 194.015625 182.238281 194.53125 182.179688 195.621094 182.179688 L 223.96875 182.179688 L 223.96875 175.421875 L 195.164062 175.421875 C 193.960938 175.421875 193.042969 175.480469 192.296875 175.59375 C 187.375 176.28125 183.9375 180.230469 183.9375 185.273438 C 183.9375 189.394531 186.515625 194.207031 192.183594 195.007812 C 193.214844 195.121094 194.648438 195.121094 195.277344 195.121094 L 214.402344 195.121094 C 214.746094 195.121094 215.605469 195.121094 215.777344 195.179688 C 217.953125 195.464844 218.699219 197.070312 218.699219 198.5 C 218.699219 199.875 217.839844 201.363281 215.949219 201.707031 Z M 159.941406 201.707031 C 159.714844 201.765625 158.796875 201.765625 158.453125 201.765625 L 128.84375 201.765625 L 128.84375 208.636719 L 158.910156 208.636719 C 159.140625 208.636719 160.914062 208.636719 161.257812 208.582031 C 167.386719 208.007812 170.191406 202.910156 170.191406 198.445312 C 170.191406 193.863281 167.273438 188.9375 161.71875 188.421875 C 160.628906 188.308594 159.714844 188.308594 159.3125 188.308594 L 139.667969 188.308594 C 138.808594 188.308594 137.835938 188.25 137.492188 188.136719 C 135.945312 187.734375 135.375 186.359375 135.375 185.214844 C 135.375 184.183594 135.945312 182.808594 137.550781 182.351562 C 138.007812 182.238281 138.523438 182.179688 139.613281 182.179688 L 167.960938 182.179688 L 167.960938 175.421875 L 139.152344 175.421875 C 137.949219 175.421875 137.035156 175.480469 136.289062 175.59375 C 131.367188 176.28125 127.929688 180.230469 127.929688 185.273438 C 127.929688 189.394531 130.507812 194.207031 136.175781 195.007812 C 137.207031 195.121094 138.636719 195.121094 139.269531 195.121094 L 158.394531 195.121094 C 158.738281 195.121094 159.597656 195.121094 159.769531 195.179688 C 161.945312 195.464844 162.691406 197.070312 162.691406 198.5 C 162.691406 199.875 161.890625 201.363281 159.941406 201.707031 Z M 105.996094 175.191406 L 113.441406 175.191406 L 113.441406 208.808594 L 105.996094 208.808594 Z M 57.316406 175.191406 L 47.753906 175.191406 L 47.753906 208.808594 L 55.199219 208.808594 L 55.199219 183.609375 L 80.167969 208.808594 L 89.558594 208.808594 L 89.558594 175.191406 L 82.113281 175.191406 L 82.113281 200.277344 Z M 294.636719 208.808594 L 302.082031 208.808594 L 302.082031 183.609375 L 326.992188 208.808594 L 336.386719 208.808594 L 336.386719 175.191406 L 329 175.191406 L 329 200.277344 L 304.199219 175.191406 L 294.636719 175.191406 Z M 255.867188 175.191406 L 234.90625 208.808594 L 243.953125 208.808594 L 247.675781 202.796875 L 272.128906 202.796875 L 275.851562 208.808594 L 284.84375 208.808594 L 263.882812 175.191406 Z M 268.292969 196.4375 L 251.515625 196.4375 L 259.933594 182.925781 Z M 89.160156 156.121094 C 104.164062 112.3125 145.511719 82.875 192.125 82.875 C 238.742188 82.875 280.148438 112.3125 295.09375 156.121094 L 295.210938 156.464844 L 328.023438 156.464844 L 328.023438 152.515625 L 314.394531 150.910156 C 305.976562 149.9375 304.199219 146.214844 301.910156 141.519531 L 301.335938 140.375 C 281.636719 98.453125 238.742188 71.308594 192.125 71.308594 C 145.453125 71.308594 102.617188 98.453125 82.917969 140.488281 L 82.34375 141.632812 C 80.054688 146.328125 78.277344 150.050781 69.859375 151.027344 L 56.230469 152.628906 L 56.230469 156.582031 L 88.988281 156.582031 Z M 295.210938 227.59375 L 295.09375 227.9375 C 280.089844 271.746094 238.742188 301.125 192.125 301.125 C 145.511719 301.125 104.105469 271.691406 89.160156 227.878906 L 89.042969 227.535156 L 56.285156 227.535156 L 56.285156 231.488281 L 69.917969 233.089844 C 78.335938 234.0625 80.109375 237.785156 82.402344 242.484375 L 82.972656 243.628906 C 102.675781 285.664062 145.566406 312.808594 192.183594 312.808594 C 238.800781 312.808594 281.695312 285.664062 301.394531 243.683594 L 301.96875 242.539062 C 304.257812 237.84375 306.035156 234.121094 314.453125 233.148438 L 328.082031 231.542969 L 328.082031 227.59375 Z M 295.210938 227.59375 " fill-opacity="1" fill-rule="nonzero"/></g></svg>