<svg xmlns="http://www.w3.org/2000/svg" xmlns:xlink="http://www.w3.org/1999/xlink" width="512" zoomAndPan="magnify" viewBox="0 0 384 383.999986" height="512" preserveAspectRatio="xMidYMid meet" version="1.0"><defs><clipPath id="3fc852f404"><path d="M 74.285156 62.515625 L 309.785156 62.515625 L 309.785156 321.265625 L 74.285156 321.265625 Z M 74.285156 62.515625 " clip-rule="nonzero"/></clipPath></defs><g clip-path="url(#3fc852f404)"><path fill="#000000" d="M 170.101562 62.75 C 170.363281 63.144531 169.265625 63.273438 164.113281 63.429688 C 156.605469 63.640625 140.882812 64.710938 133.246094 65.519531 C 131.230469 65.730469 129.164062 65.914062 128.667969 65.914062 C 128.171875 65.914062 126.339844 66.070312 124.613281 66.304688 C 122.886719 66.511719 119.824219 66.878906 117.8125 67.089844 C 115.796875 67.324219 112.789062 67.6875 111.140625 67.898438 C 101.617188 69.125 101.90625 69.101562 94.320312 70.222656 C 90.214844 70.851562 84.539062 71.792969 79.878906 72.601562 C 78.730469 72.785156 77.238281 73.019531 76.558594 73.097656 C 75.90625 73.175781 75.222656 73.386719 75.09375 73.566406 C 74.648438 74.117188 74.386719 88.722656 74.386719 111.898438 C 74.386719 137.816406 74.648438 144.792969 75.957031 155.402344 C 76.191406 157.125 76.347656 158.878906 76.347656 159.320312 C 76.347656 159.738281 76.507812 161.230469 76.714844 162.585938 C 76.925781 163.945312 77.238281 165.957031 77.394531 167.03125 C 77.578125 168.101562 77.8125 169.746094 77.917969 170.6875 C 78.050781 171.628906 78.285156 173.089844 78.441406 173.953125 C 78.597656 174.816406 78.914062 176.460938 79.121094 177.613281 C 79.800781 181.21875 80.902344 186.46875 81.503906 188.847656 C 81.710938 189.707031 82.050781 191.09375 82.261719 191.902344 C 83.125 195.378906 83.804688 197.992188 84.5625 200.472656 C 84.773438 201.128906 85.113281 202.355469 85.375 203.21875 C 85.636719 204.078125 85.949219 205.074219 86.105469 205.4375 C 86.238281 205.804688 86.445312 206.429688 86.578125 206.875 C 86.683594 207.292969 87.207031 208.835938 87.726562 210.273438 C 88.25 211.710938 88.773438 213.171875 88.90625 213.539062 C 89.035156 213.902344 89.375 214.84375 89.691406 215.628906 C 90.003906 216.414062 90.34375 217.378906 90.476562 217.746094 C 90.578125 218.109375 90.789062 218.632812 90.945312 218.921875 C 91.101562 219.183594 91.652344 220.460938 92.175781 221.769531 C 92.726562 223.046875 93.429688 224.773438 93.796875 225.558594 C 94.6875 227.515625 100.050781 238.253906 100.730469 239.40625 C 101.015625 239.902344 101.539062 240.84375 101.90625 241.496094 C 102.246094 242.148438 102.769531 243.011719 103.058594 243.457031 C 103.320312 243.875 103.660156 244.472656 103.816406 244.761719 C 103.972656 245.050781 104.285156 245.597656 104.546875 245.988281 C 104.785156 246.355469 105.332031 247.242188 105.75 247.949219 C 107.058594 250.117188 109.386719 253.59375 110.539062 255.132812 C 111.167969 255.945312 111.664062 256.675781 111.664062 256.78125 C 111.664062 256.964844 115.980469 262.710938 117.757812 264.878906 C 118.464844 265.742188 119.484375 266.972656 120.007812 267.625 C 125.632812 274.496094 135.023438 284.085938 142.140625 290.199219 C 145.304688 292.917969 145.410156 292.996094 147.371094 294.535156 C 148.390625 295.320312 149.253906 296.027344 149.332031 296.105469 C 149.855469 296.730469 160.710938 304.515625 162.621094 305.640625 C 162.855469 305.796875 163.773438 306.371094 164.636719 306.945312 C 166.519531 308.175781 167.066406 308.542969 167.773438 308.90625 C 168.0625 309.0625 168.664062 309.402344 169.082031 309.691406 C 169.527344 309.976562 170.101562 310.316406 170.390625 310.472656 C 170.679688 310.632812 171.515625 311.101562 172.222656 311.546875 C 172.953125 311.964844 173.894531 312.511719 174.3125 312.722656 C 174.757812 312.929688 175.519531 313.347656 176.015625 313.664062 C 177.113281 314.316406 185.25 318.390625 188.179688 319.75 C 189.328125 320.273438 190.480469 320.820312 190.714844 320.953125 C 191.316406 321.265625 192.363281 321.265625 192.964844 320.953125 C 193.199219 320.820312 194.167969 320.351562 195.109375 319.933594 C 197.960938 318.625 205.339844 314.96875 207.144531 313.976562 C 208.085938 313.453125 209.367188 312.746094 210.019531 312.382812 C 210.675781 312.042969 211.566406 311.519531 211.984375 311.230469 C 212.429688 310.972656 213.003906 310.632812 213.289062 310.5 C 213.578125 310.371094 214.234375 309.976562 214.730469 309.636719 C 215.226562 309.296875 215.828125 308.933594 216.039062 308.828125 C 216.246094 308.722656 216.796875 308.410156 217.214844 308.121094 C 217.660156 307.835938 218.15625 307.523438 218.367188 307.445312 C 218.550781 307.339844 219.960938 306.425781 221.503906 305.378906 C 223.023438 304.359375 224.878906 303.105469 225.585938 302.636719 C 226.894531 301.746094 235.027344 295.609375 237.226562 293.855469 C 244.472656 288.082031 255.355469 277.421875 261.683594 270 C 261.972656 269.660156 262.390625 269.191406 262.625 268.957031 C 262.835938 268.722656 263.410156 268.015625 263.910156 267.363281 C 264.378906 266.710938 264.929688 266.054688 265.085938 265.925781 C 265.242188 265.769531 266.132812 264.671875 267.046875 263.445312 C 267.988281 262.214844 268.878906 261.039062 269.0625 260.832031 C 271.441406 257.851562 278.269531 247.792969 279.605469 245.285156 C 279.761719 244.996094 280.101562 244.394531 280.363281 243.976562 C 280.648438 243.535156 281.199219 242.59375 281.59375 241.886719 C 281.984375 241.15625 282.480469 240.292969 282.664062 239.929688 C 284 237.523438 285.097656 235.460938 286.535156 232.613281 C 288.734375 228.222656 289.960938 225.558594 291.769531 221.246094 C 291.976562 220.75 292.316406 219.941406 292.527344 219.46875 C 292.710938 219.023438 293.074219 218.109375 293.335938 217.457031 C 293.574219 216.804688 293.914062 215.996094 294.042969 215.628906 C 294.199219 215.261719 294.410156 214.6875 294.515625 214.320312 C 294.644531 213.957031 294.984375 213.015625 295.300781 212.230469 C 295.613281 211.449219 295.953125 210.429688 296.082031 210.011719 C 296.292969 209.277344 296.503906 208.625 297.261719 206.484375 C 297.445312 205.988281 297.808594 204.863281 298.046875 204 C 298.308594 203.140625 298.621094 202.144531 298.777344 201.78125 C 298.910156 201.414062 299.117188 200.710938 299.25 200.210938 C 299.355469 199.714844 299.695312 198.460938 299.980469 197.46875 C 300.296875 196.449219 300.636719 195.167969 300.792969 194.59375 C 300.921875 194.019531 301.160156 193.027344 301.339844 192.375 C 302.203125 189.054688 302.597656 187.410156 303.539062 182.835938 C 303.773438 181.6875 304.140625 180.015625 304.351562 179.125 C 304.558594 178.238281 304.714844 177.246094 304.714844 176.90625 C 304.714844 176.59375 304.875 175.46875 305.082031 174.476562 C 306.3125 168.597656 308.613281 149.941406 308.667969 145.210938 C 308.71875 141.839844 308.980469 139.726562 309.371094 139.777344 C 309.609375 139.828125 309.6875 133.820312 309.6875 110.304688 C 309.6875 92.980469 309.582031 80.832031 309.449219 80.910156 C 309.085938 81.144531 308.902344 80.363281 308.875 78.246094 C 308.847656 77.148438 308.769531 75.578125 308.691406 74.796875 C 308.507812 73.359375 308.507812 73.359375 307.460938 73.175781 C 306.886719 73.097656 305.65625 72.863281 304.714844 72.679688 C 303.773438 72.496094 302.363281 72.289062 301.578125 72.183594 C 300.792969 72.078125 299.433594 71.871094 298.570312 71.710938 C 296.84375 71.398438 294.90625 71.085938 285.097656 69.570312 C 284.023438 69.386719 282.324219 69.152344 281.304688 69.046875 C 280.308594 68.941406 278.660156 68.707031 277.640625 68.550781 C 276.648438 68.394531 274.398438 68.105469 272.671875 67.898438 C 270.945312 67.6875 268.484375 67.375 267.179688 67.191406 C 265.894531 67.035156 263.828125 66.800781 262.601562 66.695312 C 261.371094 66.589844 259.148438 66.382812 257.628906 66.199219 C 256.113281 66.042969 253.289062 65.730469 251.351562 65.519531 C 249.417969 65.3125 247.167969 65.128906 246.382812 65.128906 C 245.597656 65.128906 243.476562 64.945312 241.671875 64.738281 C 239.867188 64.527344 237.539062 64.34375 236.46875 64.34375 C 235.421875 64.34375 232.648438 64.1875 230.320312 63.980469 C 228.019531 63.769531 223.441406 63.535156 220.171875 63.457031 C 214.257812 63.300781 213.289062 63.195312 213.578125 62.75 C 213.65625 62.621094 204.660156 62.515625 191.839844 62.515625 C 179.074219 62.515625 170.023438 62.621094 170.101562 62.75 Z M 206.75 70.355469 C 225.691406 70.824219 249.519531 72.417969 262.078125 74.0625 C 263.308594 74.222656 265.292969 74.429688 266.523438 74.535156 C 267.753906 74.640625 269.742188 74.847656 270.972656 75.03125 C 272.199219 75.1875 274.554688 75.5 276.203125 75.738281 C 282.742188 76.597656 292.210938 77.984375 297.390625 78.871094 C 298.621094 79.054688 300.035156 79.289062 300.558594 79.367188 C 301.105469 79.445312 301.65625 79.683594 301.839844 79.890625 C 302.703125 80.9375 302.804688 131.914062 301.96875 140.507812 C 301.761719 142.652344 301.578125 145.082031 301.578125 145.867188 C 301.578125 147.277344 301.054688 152.683594 300.476562 157.101562 C 300.347656 158.328125 300.113281 160.210938 300.007812 161.28125 C 299.902344 162.351562 299.667969 164.128906 299.484375 165.199219 C 298.621094 170.765625 298.386719 172.28125 298.019531 173.953125 C 297.808594 174.945312 297.652344 176.042969 297.652344 176.382812 C 297.652344 176.695312 297.496094 177.636719 297.285156 178.472656 C 297.078125 179.285156 296.710938 180.902344 296.476562 182.054688 C 295.378906 187.332031 294.148438 192.242188 292.527344 197.859375 C 291.585938 201.023438 289.492188 207.449219 288.550781 210.011719 C 288.339844 210.585938 288.027344 211.472656 287.84375 211.96875 C 287.164062 213.824219 285.828125 217.089844 285.464844 217.796875 C 285.253906 218.214844 285.097656 218.660156 285.097656 218.789062 C 285.097656 219.15625 282.769531 224.144531 280.152344 229.476562 C 278.320312 233.132812 276.542969 236.503906 275.550781 238.097656 C 275.234375 238.59375 274.894531 239.195312 274.816406 239.40625 C 274.710938 239.613281 274.398438 240.136719 274.109375 240.582031 C 273.824219 241 273.484375 241.601562 273.324219 241.886719 C 272.644531 243.140625 270.894531 245.859375 267.046875 251.554688 C 265.214844 254.246094 258.519531 262.894531 256.714844 264.855469 C 256.582031 265.011719 256.0625 265.613281 255.5625 266.1875 C 252.871094 269.375 247.246094 275.203125 241.910156 280.324219 C 239.945312 282.203125 233.589844 287.664062 231.472656 289.3125 C 230.816406 289.808594 230.242188 290.277344 230.164062 290.355469 C 230.03125 290.539062 225.636719 293.855469 224.644531 294.589844 C 222.160156 296.339844 219.988281 297.855469 219.621094 298.0625 C 219.414062 298.195312 218.367188 298.898438 217.292969 299.632812 C 216.246094 300.335938 215.175781 301.042969 214.9375 301.199219 C 214.703125 301.328125 212.925781 302.402344 211.015625 303.578125 C 209.105469 304.726562 207.351562 305.746094 207.144531 305.851562 C 206.933594 305.953125 206.410156 306.269531 205.964844 306.527344 C 204.710938 307.339844 202.433594 308.515625 193.722656 312.851562 C 192.914062 313.269531 192.074219 313.609375 191.917969 313.609375 C 191.734375 313.609375 190.820312 313.246094 189.878906 312.800781 C 186.582031 311.207031 182.136719 308.984375 180.722656 308.203125 C 179.9375 307.757812 178.789062 307.128906 178.160156 306.789062 C 176.667969 305.953125 176.5625 305.902344 173.320312 303.941406 C 171.75 303 170.285156 302.113281 170.050781 301.984375 C 169.816406 301.824219 168.898438 301.25 168.035156 300.675781 C 167.171875 300.101562 166.257812 299.527344 166.023438 299.371094 C 164.871094 298.664062 159.378906 294.824219 157.285156 293.230469 C 154.667969 291.269531 150.195312 287.664062 147.527344 285.390625 C 140.515625 279.40625 133.742188 272.667969 128.039062 266.054688 C 125.84375 263.46875 124.898438 262.347656 121.8125 258.480469 C 120.085938 256.335938 115.039062 249.308594 114.148438 247.820312 C 113.992188 247.582031 113.417969 246.667969 112.839844 245.808594 C 111.664062 244.03125 111.269531 243.429688 110.878906 242.671875 C 110.722656 242.382812 110.382812 241.78125 110.09375 241.363281 C 109.804688 240.921875 109.464844 240.347656 109.308594 240.058594 C 109.152344 239.769531 108.683594 238.933594 108.238281 238.230469 C 107.820312 237.496094 107.269531 236.558594 107.058594 236.140625 C 106.851562 235.695312 106.273438 234.648438 105.777344 233.789062 C 103.789062 230.207031 100.78125 223.9375 98.847656 219.285156 C 98.113281 217.484375 97.382812 215.785156 97.222656 215.523438 C 97.066406 215.238281 96.859375 214.714844 96.726562 214.347656 C 96.519531 213.617188 96.074219 212.414062 95.183594 210.140625 C 94.871094 209.359375 94.53125 208.339844 94.398438 207.921875 C 94.191406 207.1875 93.980469 206.535156 93.222656 204.394531 C 93.039062 203.898438 92.671875 202.773438 92.4375 201.910156 C 92.175781 201.046875 91.808594 199.953125 91.625 199.480469 C 91.417969 199.011719 91.261719 198.4375 91.261719 198.175781 C 91.261719 197.9375 91.101562 197.285156 90.894531 196.683594 C 90.683594 196.109375 90.316406 194.882812 90.082031 193.941406 C 89.847656 193 89.480469 191.640625 89.296875 190.9375 C 88.382812 187.644531 87.492188 183.542969 86.183594 176.878906 C 85.375 172.726562 85.191406 171.785156 84.980469 170.164062 C 84.71875 168.046875 84.277344 165.226562 83.777344 162.300781 C 83.59375 161.070312 83.414062 159.714844 83.414062 159.296875 C 83.414062 158.878906 83.253906 157.074219 83.019531 155.273438 C 82.550781 151.300781 81.972656 144.480469 81.554688 138.15625 C 81.085938 131.050781 80.980469 96.691406 81.398438 87.546875 C 81.605469 82.792969 81.84375 79.917969 82.027344 79.734375 C 82.183594 79.578125 83.125 79.34375 84.117188 79.238281 C 85.085938 79.105469 86.550781 78.898438 87.335938 78.742188 C 88.121094 78.585938 89.898438 78.296875 91.261719 78.089844 C 92.621094 77.878906 94.816406 77.511719 96.125 77.277344 C 97.433594 77.070312 98.847656 76.886719 99.265625 76.886719 C 99.683594 76.886719 100.964844 76.730469 102.117188 76.519531 C 104.707031 76.050781 107.976562 75.605469 110.75 75.320312 C 111.898438 75.214844 113.78125 74.980469 114.933594 74.820312 C 116.085938 74.664062 118.621094 74.378906 120.558594 74.167969 C 122.492188 73.960938 125.265625 73.644531 126.707031 73.488281 C 128.144531 73.308594 130.628906 73.097656 132.199219 72.96875 C 133.792969 72.863281 136.382812 72.628906 137.953125 72.46875 C 142.871094 72 148 71.609375 152.339844 71.398438 C 154.644531 71.292969 159.011719 71.058594 162.019531 70.902344 C 175.257812 70.171875 191.527344 69.960938 206.75 70.355469 Z M 206.75 70.355469 " fill-opacity="1" fill-rule="nonzero"/></g><path fill="#000000" d="M 167.511719 74.820312 C 165.785156 74.925781 161.496094 75.160156 157.964844 75.292969 C 154.433594 75.449219 150.667969 75.710938 149.59375 75.839844 C 148.523438 75.972656 146.691406 76.078125 145.539062 76.101562 C 144.363281 76.101562 142.007812 76.285156 140.308594 76.496094 C 138.582031 76.703125 136.410156 76.886719 135.46875 76.886719 C 134.527344 76.886719 132.644531 77.070312 131.28125 77.277344 C 129.921875 77.488281 128.144531 77.671875 127.332031 77.671875 C 126.523438 77.671875 125.214844 77.800781 124.457031 77.929688 C 123.671875 78.089844 121.8125 78.324219 120.296875 78.453125 C 117.601562 78.6875 115.902344 78.871094 110.355469 79.628906 C 108.839844 79.839844 107.085938 80.046875 106.433594 80.125 C 105.777344 80.179688 104.367188 80.363281 103.292969 80.542969 C 102.21875 80.699219 100.179688 81.015625 98.765625 81.222656 C 93.484375 81.980469 90.789062 82.425781 88.382812 82.871094 L 85.898438 83.339844 L 85.609375 91.152344 C 85.21875 101.210938 85.164062 122.140625 85.503906 130.839844 C 85.820312 138.96875 86.421875 147.640625 86.945312 152.136719 C 87.179688 153.9375 87.335938 155.742188 87.335938 156.1875 C 87.308594 158.066406 89.664062 173.066406 90.867188 178.789062 C 91.050781 179.726562 91.417969 181.425781 91.652344 182.574219 C 92.542969 186.835938 94.347656 193.835938 95.574219 197.730469 C 95.734375 198.304688 96.097656 199.480469 96.359375 200.34375 C 96.597656 201.207031 96.960938 202.328125 97.144531 202.824219 C 97.902344 204.96875 98.113281 205.621094 98.324219 206.351562 C 98.453125 206.769531 98.792969 207.789062 99.109375 208.574219 C 99.996094 210.847656 100.441406 212.046875 100.652344 212.78125 C 100.78125 213.144531 100.992188 213.667969 101.148438 213.957031 C 101.304688 214.21875 101.855469 215.496094 102.378906 216.804688 C 104.417969 221.742188 107.164062 227.464844 109.675781 232.089844 C 110.199219 233.03125 110.695312 233.96875 110.800781 234.179688 C 110.984375 234.597656 113.050781 238.203125 113.496094 238.882812 C 113.625 239.089844 114.042969 239.796875 114.4375 240.449219 C 114.828125 241.105469 115.929688 242.800781 116.871094 244.238281 C 117.8125 245.675781 118.699219 247.0625 118.859375 247.296875 C 119.460938 248.339844 124.769531 255.605469 125.398438 256.230469 C 125.554688 256.390625 126.390625 257.460938 127.28125 258.609375 C 128.171875 259.757812 129.164062 260.988281 129.503906 261.351562 C 129.84375 261.71875 130.761719 262.789062 131.542969 263.703125 C 133.609375 266.1875 135.363281 268.015625 140.046875 272.71875 C 147.476562 280.113281 150.300781 282.59375 159.011719 289.257812 C 160.660156 290.539062 162.804688 292.132812 163.796875 292.785156 C 164.765625 293.464844 166.335938 294.535156 167.277344 295.191406 C 168.21875 295.84375 169.03125 296.367188 169.082031 296.367188 C 169.136719 296.367188 169.917969 296.863281 170.835938 297.488281 C 171.75 298.117188 172.667969 298.691406 172.875 298.796875 C 173.085938 298.898438 173.632812 299.214844 174.050781 299.5 C 174.496094 299.789062 175.074219 300.128906 175.359375 300.285156 C 175.648438 300.441406 176.25 300.78125 176.667969 301.066406 C 177.113281 301.355469 177.6875 301.695312 177.976562 301.851562 C 178.265625 301.984375 179.207031 302.503906 180.070312 303 C 184.308594 305.433594 191.238281 308.90625 191.894531 308.90625 C 192.46875 308.90625 202.015625 304.074219 205.546875 301.984375 C 207.328125 300.910156 210.441406 299.03125 211.015625 298.664062 C 211.40625 298.402344 211.878906 298.117188 212.085938 298.039062 C 213.894531 297.148438 226.476562 288.160156 229.640625 285.46875 C 230.007812 285.15625 231.105469 284.242188 232.125 283.378906 C 233.121094 282.542969 234.085938 281.734375 234.246094 281.601562 C 234.402344 281.445312 235.628906 280.347656 236.992188 279.148438 C 240.15625 276.296875 246.957031 269.480469 249.808594 266.34375 C 251.011719 264.984375 252.1875 263.703125 252.425781 263.46875 C 252.632812 263.234375 253.574219 262.109375 254.515625 260.960938 C 255.433594 259.8125 256.324219 258.742188 256.480469 258.609375 C 257.003906 258.140625 263.726562 249.019531 265.347656 246.589844 C 267.203125 243.792969 266.839844 244.394531 270.003906 239.117188 C 271.414062 236.765625 272.671875 234.648438 272.800781 234.441406 C 273.585938 233.109375 277.25 225.921875 278.765625 222.683594 C 280.625 218.660156 281.171875 217.429688 281.171875 217.222656 C 281.171875 217.089844 281.332031 216.648438 281.539062 216.230469 C 281.90625 215.523438 283.238281 212.257812 283.917969 210.402344 C 284.101562 209.90625 284.417969 209.019531 284.625 208.441406 C 285.175781 207.007812 285.542969 205.855469 286.167969 203.871094 C 286.484375 202.929688 286.875 201.753906 287.058594 201.257812 C 287.242188 200.761719 287.582031 199.636719 287.84375 198.777344 C 288.835938 195.378906 288.996094 194.804688 289.414062 193.289062 C 289.648438 192.425781 290.015625 191.171875 290.222656 190.519531 C 290.433594 189.839844 290.589844 189.082031 290.589844 188.847656 C 290.589844 188.585938 290.746094 187.777344 290.957031 187.042969 C 291.375 185.582031 291.871094 183.410156 292.550781 180.222656 C 292.789062 179.074219 293.101562 177.613281 293.257812 176.957031 C 293.390625 176.304688 293.625 175.078125 293.730469 174.214844 C 293.859375 173.351562 294.070312 171.992188 294.226562 171.210938 C 295.796875 162.824219 297.261719 149.339844 297.96875 136.71875 C 298.359375 130.003906 298.386719 89.507812 298.019531 85.640625 L 297.785156 83.3125 L 295.300781 82.84375 C 290.511719 81.980469 285.464844 81.222656 273.664062 79.65625 C 270.761719 79.265625 266.105469 78.714844 260.117188 78.0625 C 258.257812 77.851562 255.066406 77.511719 253.050781 77.277344 C 251.039062 77.070312 248.867188 76.886719 248.214844 76.886719 C 247.558594 76.886719 245.285156 76.703125 243.113281 76.496094 C 239.449219 76.15625 234.140625 75.789062 221.398438 75.03125 C 215.304688 74.664062 172.328125 74.484375 167.511719 74.820312 Z M 200.96875 90.890625 C 201.570312 91.125 201.546875 93.007812 200.945312 93.191406 C 200.683594 93.269531 197.019531 93.320312 192.78125 93.320312 C 187.417969 93.320312 185.011719 93.398438 184.804688 93.609375 C 184.359375 94.050781 184.410156 102.542969 184.882812 103.121094 C 185.195312 103.511719 185.980469 103.539062 192.46875 103.484375 L 199.6875 103.40625 L 199.6875 99.75 L 196.050781 99.671875 C 193.828125 99.617188 192.257812 99.488281 192.050781 99.304688 C 191.816406 99.121094 191.710938 98.625 191.761719 98.078125 L 191.839844 97.136719 L 196.757812 97.058594 C 199.84375 97.03125 201.859375 97.082031 202.171875 97.265625 C 202.671875 97.527344 202.695312 97.839844 202.695312 101.578125 C 202.695312 104.425781 202.617188 105.652344 202.382812 105.785156 C 202.199219 105.890625 198.066406 105.96875 193.148438 105.914062 C 183.234375 105.835938 183.128906 105.835938 182.242188 104.058594 C 181.875 103.300781 181.796875 102.335938 181.769531 98.730469 C 181.769531 96.039062 181.898438 93.921875 182.082031 93.296875 C 182.421875 92.121094 183.601562 91.101562 184.777344 90.917969 C 186.035156 90.734375 200.527344 90.707031 200.96875 90.890625 Z M 175.175781 96.875 C 175.28125 106.410156 175.359375 106.332031 163.71875 106.59375 C 157.363281 106.75 156.996094 106.726562 156.003906 106.203125 C 154.25 105.3125 154.015625 104.269531 154.09375 97.527344 L 154.171875 91.9375 L 155.085938 91.753906 C 156.917969 91.363281 156.917969 91.386719 156.917969 97.683594 C 156.917969 101.316406 157.023438 103.511719 157.207031 103.851562 C 157.496094 104.398438 157.625 104.398438 162.648438 104.214844 C 169.476562 104.007812 171.515625 103.796875 171.984375 103.355469 C 172.273438 103.039062 172.351562 101.839844 172.351562 97.160156 C 172.351562 93.972656 172.429688 91.257812 172.535156 91.152344 C 172.640625 91.046875 173.269531 90.996094 173.921875 91.046875 L 175.097656 91.125 Z M 222.445312 91.28125 C 225.324219 91.441406 227.941406 91.675781 228.28125 91.804688 C 228.933594 92.066406 229.066406 92.980469 228.515625 93.714844 C 228.175781 94.15625 227.886719 94.183594 223.207031 93.894531 C 220.484375 93.714844 216.847656 93.554688 215.121094 93.53125 L 211.984375 93.476562 L 211.984375 97.136719 L 217.214844 97.320312 C 220.09375 97.421875 223.441406 97.605469 224.671875 97.710938 L 226.894531 97.917969 L 226.972656 98.78125 C 227.101562 100.011719 226.632812 100.453125 225.480469 100.296875 C 224.957031 100.21875 221.871094 100.011719 218.574219 99.851562 C 213.894531 99.617188 212.53125 99.644531 212.246094 99.878906 C 211.824219 100.21875 211.695312 102.882812 212.0625 103.457031 C 212.269531 103.796875 218.96875 104.242188 225.714844 104.398438 L 228.4375 104.453125 L 228.699219 105.3125 C 229.144531 106.90625 229.195312 106.90625 219.699219 106.648438 C 210.960938 106.410156 209.628906 106.308594 209.367188 105.890625 C 209.261719 105.707031 209.15625 94.941406 209.238281 91.308594 C 209.238281 90.890625 215.175781 90.890625 222.445312 91.28125 Z M 147.527344 92.71875 C 147.710938 93.242188 147.683594 93.554688 147.398438 94 C 147.082031 94.472656 146.691406 94.601562 144.992188 94.730469 C 143.890625 94.835938 142.191406 94.914062 141.25 94.914062 C 140.308594 94.941406 137.535156 95.148438 135.074219 95.386719 L 130.628906 95.855469 L 130.550781 97.5 C 130.5 98.417969 130.578125 99.277344 130.707031 99.410156 C 130.863281 99.566406 132.304688 99.511719 134.449219 99.253906 C 136.382812 99.042969 139.628906 98.78125 141.640625 98.703125 C 145.59375 98.546875 145.671875 98.574219 145.671875 99.828125 C 145.644531 100.898438 145.332031 101.003906 141.039062 101.238281 C 138.765625 101.34375 135.496094 101.605469 133.769531 101.785156 L 130.628906 102.101562 L 130.550781 103.773438 C 130.5 104.714844 130.601562 105.574219 130.761719 105.730469 C 131.101562 106.070312 134.839844 105.96875 139.261719 105.472656 C 143.605469 105 147.398438 104.972656 147.554688 105.417969 C 147.605469 105.601562 147.605469 106.097656 147.527344 106.542969 C 147.371094 107.324219 147.34375 107.324219 145.277344 107.484375 C 136.882812 108.109375 134.449219 108.292969 131.675781 108.605469 C 129.949219 108.789062 128.433594 108.867188 128.328125 108.761719 C 128.089844 108.554688 128.066406 93.949219 128.300781 93.582031 C 128.378906 93.453125 129.113281 93.347656 129.921875 93.347656 C 130.734375 93.347656 132.878906 93.164062 134.683594 92.957031 C 136.488281 92.746094 138.949219 92.5625 140.175781 92.539062 C 141.40625 92.511719 143.105469 92.40625 143.96875 92.300781 C 146.976562 91.9375 147.214844 91.960938 147.527344 92.71875 Z M 249.207031 93.007812 C 254.335938 93.503906 255.277344 93.84375 256.242188 95.566406 C 256.792969 96.535156 256.84375 96.925781 256.84375 101.265625 C 256.84375 106.175781 256.742188 106.777344 255.539062 107.847656 C 254.988281 108.34375 254.648438 108.371094 250.59375 108.292969 C 246.851562 108.242188 241.175781 107.796875 238.324219 107.300781 C 237.855469 107.222656 237.09375 106.777344 236.574219 106.253906 L 235.65625 105.339844 L 235.65625 99.75 C 235.65625 94.3125 235.683594 94.132812 236.257812 93.476562 C 236.574219 93.085938 237.253906 92.695312 237.75 92.5625 C 238.925781 92.277344 243.453125 92.457031 249.207031 93.007812 Z M 266.261719 94.523438 C 267.621094 94.730469 269.269531 94.914062 269.925781 94.914062 C 270.578125 94.914062 272.332031 95.070312 273.847656 95.308594 C 275.367188 95.515625 277.71875 95.804688 279.082031 95.984375 C 280.441406 96.144531 281.722656 96.402344 281.90625 96.535156 C 282.324219 96.902344 282.324219 98.546875 281.851562 98.730469 C 281.671875 98.808594 280.46875 98.675781 279.183594 98.46875 C 276.308594 97.972656 273.925781 97.867188 273.585938 98.207031 C 273.457031 98.335938 273.300781 101.054688 273.273438 104.453125 L 273.195312 110.460938 L 272.332031 110.539062 C 270.734375 110.695312 270.710938 110.644531 270.710938 103.929688 C 270.710938 99.382812 270.632812 97.789062 270.394531 97.605469 C 270.210938 97.449219 269.007812 97.265625 267.703125 97.160156 C 266.417969 97.058594 264.535156 96.847656 263.515625 96.664062 C 261.789062 96.378906 261.683594 96.300781 261.605469 95.621094 C 261.421875 93.972656 261.894531 93.84375 266.261719 94.523438 Z M 120.035156 95.019531 C 120.375 95.175781 120.949219 95.699219 121.265625 96.195312 C 121.789062 96.953125 121.867188 97.421875 121.867188 99.460938 C 121.867188 101.445312 121.761719 102.023438 121.265625 102.882812 C 120.558594 104.136719 118.859375 105.078125 117.261719 105.078125 C 116.660156 105.105469 115.535156 105.234375 114.777344 105.367188 C 113.992188 105.523438 112.003906 105.757812 110.355469 105.890625 C 108.707031 106.046875 106.640625 106.308594 105.777344 106.488281 L 104.207031 106.804688 L 104.078125 109.023438 L 103.945312 111.21875 L 103.03125 111.429688 C 102.535156 111.53125 101.957031 111.558594 101.800781 111.507812 C 101.539062 111.429688 101.460938 109.675781 101.460938 103.957031 C 101.460938 97.109375 101.488281 96.507812 101.933594 96.378906 C 102.429688 96.222656 104.941406 95.90625 110.09375 95.308594 C 118.097656 94.390625 118.648438 94.390625 120.035156 95.019531 Z M 203.613281 122.609375 C 206.359375 122.742188 210.414062 122.925781 212.636719 123.027344 C 216.742188 123.1875 218.628906 123.527344 220.746094 124.492188 C 222.839844 125.433594 231.261719 129.664062 233.695312 130.972656 C 235.003906 131.675781 236.652344 132.539062 237.355469 132.933594 C 238.089844 133.296875 239.082031 133.847656 239.582031 134.160156 C 240.078125 134.449219 241.019531 134.96875 241.671875 135.335938 C 243.871094 136.511719 245.203125 137.320312 245.859375 137.816406 C 246.984375 138.679688 255.277344 146.9375 255.277344 147.199219 C 255.277344 147.589844 253.96875 147.460938 253.105469 146.960938 C 252.660156 146.726562 251.535156 146.023438 250.621094 145.394531 C 249.703125 144.792969 248.917969 144.296875 248.867188 144.296875 C 248.816406 144.296875 248.316406 143.984375 247.769531 143.617188 C 247.21875 143.253906 246.539062 142.835938 246.25 142.703125 C 245.964844 142.574219 245.386719 142.234375 244.941406 141.945312 C 244.523438 141.660156 243.976562 141.34375 243.765625 141.242188 C 243.558594 141.136719 242.5625 140.5625 241.542969 139.988281 C 240.546875 139.386719 238.664062 138.394531 237.382812 137.765625 C 235.027344 136.640625 235.027344 136.640625 231.105469 136.433594 C 226.65625 136.171875 223.808594 135.78125 222.839844 135.285156 C 221.480469 134.550781 217.660156 132.828125 215.382812 131.886719 C 214.101562 131.363281 212.585938 130.738281 212.035156 130.5 C 211.144531 130.136719 210.257812 130.136719 203.140625 130.421875 C 198.800781 130.605469 193.800781 130.839844 192.023438 130.894531 C 189.90625 131 188.703125 130.945312 188.519531 130.761719 C 188.308594 130.554688 188.414062 130.449219 188.859375 130.34375 C 190.375 130.058594 195.582031 129.378906 199.296875 129.039062 C 201.519531 128.804688 204.660156 128.515625 206.226562 128.359375 C 207.824219 128.175781 210.960938 127.96875 213.238281 127.835938 C 215.515625 127.730469 217.425781 127.574219 217.503906 127.496094 C 217.582031 127.445312 217.1875 127.105469 216.640625 126.765625 L 215.644531 126.136719 L 200.867188 126.191406 C 189.328125 126.21875 185.117188 126.320312 181.71875 126.660156 L 177.347656 127.078125 L 173.609375 128.988281 C 171.542969 130.03125 169.054688 131.339844 168.035156 131.886719 C 165.34375 133.375 163.222656 134.527344 161.757812 135.285156 C 161.050781 135.648438 160.109375 136.171875 159.664062 136.433594 C 159.246094 136.695312 158.121094 137.320312 157.179688 137.816406 C 156.238281 138.339844 154.878906 139.097656 154.171875 139.515625 C 153.441406 139.933594 152.679688 140.351562 152.472656 140.457031 C 152.261719 140.5625 151.871094 140.769531 151.632812 140.953125 C 151.113281 141.320312 150.769531 141.109375 150.980469 140.5625 C 151.058594 140.351562 152.15625 139.488281 153.441406 138.652344 C 156.316406 136.773438 159.246094 134.578125 162.253906 132.015625 C 165.5 129.300781 166.046875 128.699219 167.671875 126.269531 C 168.691406 124.726562 169.316406 124.046875 170 123.761719 C 170.886719 123.367188 173.816406 123.160156 185.300781 122.636719 C 191.449219 122.351562 197.988281 122.351562 203.613281 122.609375 Z M 176.878906 136.355469 C 176.851562 136.667969 176.121094 138.078125 175.28125 139.488281 C 174.445312 140.902344 173.6875 142.257812 173.582031 142.46875 C 173.476562 142.675781 173.164062 143.199219 172.875 143.644531 C 172.613281 144.0625 172.117188 144.949219 171.777344 145.578125 C 171.097656 146.882812 170 147.902344 169.003906 148.113281 C 168.613281 148.191406 167.878906 148.398438 167.382812 148.582031 C 166.886719 148.792969 165.8125 149.132812 165.027344 149.367188 C 164.242188 149.574219 162.542969 150.125 161.234375 150.515625 C 156.8125 151.925781 155.792969 152.109375 150.769531 152.398438 C 144.179688 152.738281 144.546875 152.761719 144.859375 152.1875 C 144.992188 151.925781 145.828125 151.429688 146.714844 151.066406 C 148.652344 150.308594 148.964844 150.019531 151.554688 146.78125 C 154.800781 142.730469 155.035156 142.519531 158.226562 140.980469 C 161.445312 139.4375 162.570312 138.914062 163.929688 138.367188 C 164.375 138.183594 165.160156 137.871094 165.628906 137.660156 C 166.414062 137.320312 167.09375 137.058594 169.605469 136.121094 C 170.363281 135.832031 171.542969 135.726562 173.792969 135.753906 C 176.824219 135.804688 176.929688 135.832031 176.878906 136.355469 Z M 206.332031 142.886719 C 207.824219 143.644531 208.191406 143.957031 208.191406 144.429688 C 208.191406 144.742188 208.375 145.527344 208.582031 146.152344 C 208.816406 146.753906 209 148.113281 209.027344 149.105469 C 209.078125 150.777344 209 151.089844 208.320312 152.136719 C 207.875 152.789062 207.484375 153.417969 207.40625 153.574219 C 207.328125 153.703125 206.59375 154.878906 205.730469 156.160156 C 204.34375 158.277344 204.214844 158.617188 204.214844 159.816406 C 204.238281 160.550781 204.421875 161.855469 204.632812 162.71875 C 204.839844 163.582031 205.207031 165.226562 205.445312 166.375 C 205.679688 167.527344 205.992188 168.988281 206.148438 169.640625 C 206.566406 171.339844 206.726562 173.039062 206.4375 173.039062 C 205.703125 173.039062 204.738281 171.234375 203.875 168.207031 C 203.613281 167.34375 203.273438 166.21875 203.089844 165.722656 C 202.90625 165.226562 202.566406 164.101562 202.304688 163.242188 C 202.070312 162.378906 201.703125 161.203125 201.492188 160.628906 C 200.707031 158.382812 200.867188 157.9375 203.875 153.964844 C 205.652344 151.585938 206.621094 150.097656 206.621094 149.679688 C 206.621094 148.84375 205.757812 147.171875 204.894531 146.363281 C 204.34375 145.867188 203.953125 145.734375 202.722656 145.734375 C 201.859375 145.734375 200.734375 145.945312 200.054688 146.230469 C 199.425781 146.492188 198.433594 146.882812 197.855469 147.09375 C 197.28125 147.328125 196.472656 147.640625 196.027344 147.824219 C 195.609375 148.007812 194.769531 148.347656 194.195312 148.554688 C 193.621094 148.765625 192.234375 149.3125 191.132812 149.785156 L 189.09375 150.648438 L 187.421875 150.203125 C 186.476562 149.96875 185.378906 149.785156 184.988281 149.785156 C 183.390625 149.785156 183.285156 148.976562 184.59375 147.042969 C 185.378906 145.890625 186.375 145.472656 190.21875 144.714844 C 195.085938 143.722656 196.15625 143.515625 198.25 143.121094 C 199.480469 142.886719 201.179688 142.546875 202.042969 142.363281 C 204.292969 141.839844 204.292969 141.839844 206.332031 142.886719 Z M 237.671875 143.070312 C 238.0625 143.277344 240 144.246094 241.933594 145.210938 C 243.871094 146.152344 246.171875 147.355469 247.035156 147.851562 C 247.898438 148.347656 248.839844 148.871094 249.128906 149.027344 C 249.417969 149.15625 249.886719 149.417969 250.175781 149.601562 C 252.871094 151.195312 255.171875 152.605469 255.746094 152.972656 C 256.140625 153.234375 256.636719 153.519531 256.84375 153.625 C 257.265625 153.835938 261.632812 156.761719 263.410156 158.066406 C 264.691406 158.980469 265.476562 160.394531 265.476562 161.777344 C 265.476562 162.195312 265.636719 163.320312 265.84375 164.3125 C 266.839844 169.121094 267.230469 181.347656 266.550781 187.148438 C 266.183594 190.308594 265.765625 191.382812 262.757812 196.816406 C 262.261719 197.757812 261.660156 198.855469 261.449219 199.296875 C 261.238281 199.714844 260.691406 200.65625 260.273438 201.386719 C 259.828125 202.09375 259.355469 202.929688 259.199219 203.21875 C 259.042969 203.503906 258.703125 204.078125 258.414062 204.523438 C 258.128906 204.941406 257.8125 205.492188 257.707031 205.699219 C 257.054688 207.085938 251.902344 214.320312 251.5625 214.320312 C 251.457031 214.320312 251.351562 212.964844 251.351562 211.316406 C 251.351562 207.945312 251.195312 208.234375 254.152344 205.777344 C 254.910156 205.152344 255.929688 203.898438 256.582031 202.773438 C 257.8125 200.734375 262.15625 192.296875 262.417969 191.433594 C 262.496094 191.171875 262.808594 190.230469 263.097656 189.394531 C 263.410156 188.53125 263.648438 187.253906 263.648438 186.519531 C 263.648438 182.992188 262.023438 170.53125 261.136719 167.394531 C 260.925781 166.664062 260.769531 165.90625 260.769531 165.695312 C 260.742188 165.097656 259.671875 163.972656 258.546875 163.421875 C 257.160156 162.71875 255.09375 161.804688 252.53125 160.757812 C 249.339844 159.453125 248.371094 158.980469 247.792969 158.460938 C 247.53125 158.199219 246.644531 157.464844 245.832031 156.839844 C 242.039062 153.808594 240.496094 152.554688 240.367188 152.398438 C 240.285156 152.292969 238.796875 151.144531 237.015625 149.835938 C 233.382812 147.144531 232.988281 147.015625 229.796875 147.851562 C 228.304688 148.21875 227.101562 148.53125 224.09375 149.289062 C 222.65625 149.628906 220.144531 149.394531 219.699219 148.871094 C 219.464844 148.609375 219.542969 148.476562 220.015625 148.347656 C 220.355469 148.242188 221.375 147.800781 222.316406 147.355469 C 224.304688 146.441406 225.507812 145.917969 226.710938 145.421875 C 227.15625 145.238281 227.941406 144.925781 228.410156 144.714844 C 228.855469 144.53125 229.769531 144.167969 230.425781 143.90625 C 231.078125 143.671875 231.835938 143.332031 232.125 143.175781 C 233.5625 142.417969 236.3125 142.363281 237.671875 143.070312 Z M 148.285156 146.074219 C 148.285156 146.179688 146.976562 147.25 145.382812 148.453125 C 142.085938 150.933594 141.773438 151.40625 141.5625 154.410156 C 141.40625 156.5 140.910156 157.464844 139.863281 157.703125 C 139.523438 157.78125 138.609375 158.09375 137.824219 158.40625 C 137.039062 158.71875 136.148438 159.035156 135.859375 159.113281 C 135.234375 159.296875 132.851562 161.046875 132.851562 161.332031 C 132.851562 161.648438 134.210938 161.570312 135.496094 161.175781 C 138.292969 160.3125 138.972656 160.234375 140.203125 160.652344 C 141.457031 161.097656 143.210938 160.992188 145.539062 160.367188 C 146.273438 160.15625 147.710938 159.765625 148.757812 159.476562 C 149.882812 159.164062 151.347656 158.511719 152.261719 157.882812 C 154.015625 156.707031 154.042969 156.707031 154.042969 157.179688 C 154.042969 157.753906 151.609375 159.871094 150.378906 160.339844 C 149.726562 160.601562 148.863281 160.96875 148.417969 161.152344 C 148 161.332031 147.136719 161.671875 146.535156 161.910156 C 145.90625 162.144531 144.910156 162.507812 144.308594 162.746094 C 143.683594 162.980469 142.84375 163.320312 142.402344 163.503906 C 141.980469 163.683594 141.09375 164.023438 140.4375 164.285156 C 139.785156 164.519531 138.972656 164.859375 138.609375 164.992188 C 138.242188 165.121094 137.144531 165.515625 136.121094 165.855469 C 135.128906 166.191406 133.636719 166.742188 132.851562 167.03125 C 132.066406 167.34375 131.125 167.65625 130.761719 167.734375 C 129.816406 167.917969 128.824219 168.726562 128.980469 169.171875 C 129.085938 169.433594 130.078125 169.617188 132.484375 169.878906 C 134.34375 170.058594 136.042969 170.320312 136.253906 170.425781 C 136.460938 170.53125 138.164062 172.203125 140.019531 174.085938 C 143.890625 178.03125 143.867188 177.949219 140.648438 178.5 C 139.601562 178.683594 137.824219 178.996094 136.722656 179.207031 C 135.597656 179.386719 133.714844 179.753906 132.539062 179.964844 C 131.335938 180.199219 129.84375 180.511719 129.191406 180.667969 C 128.535156 180.824219 127.488281 181.035156 126.835938 181.140625 C 124.429688 181.558594 123.933594 182.078125 123.433594 184.667969 C 122.285156 190.464844 122.308594 190.441406 120.347656 188.53125 C 118.675781 186.914062 115.324219 182.523438 115.324219 181.949219 C 115.324219 181.375 116.03125 180.433594 118.308594 177.898438 C 119.300781 176.800781 120.324219 175.625 120.53125 175.3125 C 121.445312 174.03125 122.128906 171.417969 121.65625 171.105469 C 121.367188 170.949219 119.722656 172.804688 119.433594 173.585938 C 119.355469 173.824219 118.359375 174.710938 117.234375 175.574219 C 114.019531 178.03125 113.730469 178.109375 112.894531 176.722656 C 111.664062 174.605469 113.46875 172.648438 123.828125 164.859375 C 126 163.214844 128.667969 161.253906 129.792969 160.445312 C 131.703125 159.085938 132.277344 158.460938 135.441406 154.332031 C 136.019531 153.597656 136.933594 152.632812 137.484375 152.214844 C 138.425781 151.484375 143.105469 148.53125 145.539062 147.171875 C 146.167969 146.804688 146.847656 146.363281 147.03125 146.179688 C 147.371094 145.839844 148.285156 145.734375 148.285156 146.074219 Z M 148.914062 154.90625 C 149.90625 155.871094 149.019531 157.386719 147.1875 157.832031 C 146.457031 157.988281 145.773438 158.066406 145.644531 157.988281 C 145.511719 157.910156 145.410156 157.285156 145.410156 156.578125 C 145.410156 154.957031 145.851562 154.488281 147.371094 154.488281 C 148.050781 154.488281 148.679688 154.644531 148.914062 154.90625 Z M 229.328125 168.804688 C 233.5625 173.066406 238.351562 178.734375 243.035156 184.953125 C 247.089844 190.335938 247.324219 190.859375 247.742188 195.640625 C 248.371094 202.929688 248.082031 212.414062 247.011719 220.199219 C 246.304688 225.191406 245.386719 230.15625 244.65625 232.769531 C 244.445312 233.5 244.289062 234.285156 244.289062 234.546875 C 244.289062 235.824219 242.589844 237.785156 239.84375 239.667969 C 239.34375 240.007812 238.875 240.371094 238.796875 240.449219 C 238.71875 240.527344 237.933594 241.15625 237.042969 241.835938 C 236.152344 242.515625 235.265625 243.21875 235.082031 243.402344 C 234.898438 243.558594 233.5625 244.65625 232.125 245.808594 C 230.6875 246.957031 229.40625 248.027344 229.246094 248.183594 C 229.117188 248.339844 228.464844 248.863281 227.808594 249.359375 C 226.738281 250.171875 221.347656 254.613281 219.152344 256.492188 C 218.652344 256.9375 217.660156 257.773438 216.980469 258.347656 C 216.300781 258.898438 215.460938 259.601562 215.148438 259.917969 C 214.808594 260.203125 213.371094 261.457031 211.929688 262.710938 C 209.472656 264.855469 208.242188 266.316406 206.882812 268.800781 C 206.566406 269.375 206.070312 270.261719 205.785156 270.757812 C 205.496094 271.253906 204.945312 272.222656 204.605469 272.902344 C 203.71875 274.601562 203.21875 274.546875 202.460938 272.640625 C 202.121094 271.832031 201.703125 270.757812 201.492188 270.289062 C 200.785156 268.644531 200.394531 267.726562 199.949219 266.578125 C 199.714844 265.925781 199.375 265.117188 199.242188 264.75 C 198.277344 262.292969 198.171875 261.769531 198.484375 260.4375 C 198.667969 259.707031 198.957031 258.714844 199.164062 258.21875 C 199.347656 257.722656 199.664062 256.832031 199.898438 256.257812 C 200.839844 253.722656 201.207031 252.808594 201.519531 252.078125 C 201.703125 251.632812 203.011719 248.578125 204.398438 245.285156 C 205.785156 241.964844 207.039062 239.171875 207.167969 239.039062 C 207.300781 238.882812 207.40625 238.621094 207.40625 238.414062 C 207.40625 238.203125 207.691406 237.707031 208.058594 237.261719 C 208.476562 236.765625 208.714844 236.636719 208.714844 236.898438 C 208.714844 237.105469 208.609375 237.367188 208.453125 237.445312 C 208.320312 237.523438 208.191406 237.914062 208.191406 238.308594 C 208.191406 238.671875 208.03125 239.457031 207.824219 240.058594 C 207.011719 242.460938 205.601562 247.425781 204.683594 251.03125 C 204.476562 251.894531 204.082031 253.410156 203.847656 254.429688 C 203.21875 256.9375 203.21875 260.960938 203.847656 263.183594 C 204.582031 265.792969 205.078125 267.101562 205.3125 267.101562 C 205.445312 267.101562 205.808594 266.550781 206.148438 265.875 C 206.804688 264.488281 210.675781 260.464844 214.859375 256.753906 C 216.300781 255.5 217.527344 254.375 217.605469 254.296875 C 218.027344 253.828125 229.5625 243.953125 232.519531 241.546875 C 233.171875 241.023438 233.878906 240.425781 234.113281 240.1875 C 234.347656 239.980469 235.34375 239.144531 236.335938 238.359375 C 239.320312 235.980469 240.546875 234.675781 240.835938 233.527344 C 241.59375 230.703125 241.988281 222.34375 241.882812 212.101562 C 241.777344 202.722656 241.726562 201.804688 241.253906 200.449219 C 240.261719 197.730469 237.410156 193.96875 232.097656 188.375 C 230.710938 186.914062 229.589844 185.503906 229.484375 185.109375 C 229.40625 184.71875 229.195312 183.648438 228.988281 182.707031 C 228.804688 181.765625 228.4375 180.066406 228.203125 178.917969 C 227.964844 177.769531 227.625 176.121094 227.417969 175.261719 C 227.234375 174.398438 226.867188 172.75 226.632812 171.601562 C 226.371094 170.453125 226.003906 168.910156 225.820312 168.152344 C 225.324219 166.351562 225.351562 166.246094 226.136719 166.246094 C 226.632812 166.246094 227.441406 166.871094 229.328125 168.804688 Z M 176.039062 173.585938 C 176.121094 174.085938 176.460938 175.417969 176.800781 176.566406 C 177.113281 177.714844 177.480469 179.125 177.609375 179.703125 C 177.714844 180.277344 177.949219 181.164062 178.105469 181.660156 C 178.472656 182.914062 178.449219 184.351562 178.003906 185.371094 C 177.792969 185.84375 176.824219 188.113281 175.882812 190.414062 C 174.105469 194.621094 173.503906 196.03125 172.039062 199.167969 C 171.59375 200.109375 170.914062 201.570312 170.519531 202.433594 C 168.402344 207.085938 165.628906 212.492188 164.949219 213.40625 C 164.503906 213.980469 161.367188 217.222656 157.964844 220.59375 L 151.792969 226.734375 L 151.320312 229.085938 C 151.058594 230.46875 150.851562 232.875 150.824219 234.964844 L 150.769531 238.492188 L 152.367188 241.105469 C 154.25 244.1875 155.792969 246.460938 158.226562 249.699219 C 159.167969 251.007812 160.1875 252.390625 160.476562 252.757812 C 162.253906 255.214844 166.257812 260.308594 167.984375 262.398438 C 169.136719 263.757812 170.496094 265.402344 171.019531 266.03125 C 173.632812 269.191406 176.589844 272.5625 178.890625 275.019531 C 179.546875 275.699219 181.246094 277.054688 182.683594 278.023438 C 184.125 278.988281 185.328125 279.984375 185.378906 280.242188 C 185.535156 281.082031 185.066406 280.898438 178.917969 277.683594 C 177.425781 276.875 176.277344 275.933594 173.6875 273.371094 C 170.519531 270.210938 166.964844 266.421875 165.394531 264.488281 C 164.976562 263.992188 164.582031 263.523438 164.503906 263.445312 C 164.191406 263.15625 160.84375 259.183594 158.515625 256.363281 C 157.179688 254.714844 155.820312 253.097656 155.53125 252.730469 C 154.824219 251.894531 149.699219 245.050781 148.679688 243.558594 C 145.90625 239.5625 145.539062 238.515625 145.800781 235.511719 C 146.273438 229.816406 146.402344 228.429688 146.714844 226.601562 C 147.1875 223.804688 147.710938 222.65625 149.28125 220.800781 C 153.152344 216.28125 155.507812 213.304688 161.835938 204.890625 C 167.226562 197.703125 170.3125 193.523438 170.496094 193.078125 C 170.546875 192.949219 171.097656 192.085938 171.722656 191.171875 C 172.351562 190.257812 172.875 189.449219 172.875 189.371094 C 172.875 189.316406 173.214844 188.742188 173.660156 188.113281 C 175.019531 186.101562 176.015625 183.828125 176.015625 182.785156 C 176.015625 182.234375 175.859375 180.722656 175.648438 179.441406 C 175.125 176.175781 174.863281 173.144531 175.097656 172.777344 C 175.414062 172.28125 175.882812 172.648438 176.039062 173.585938 Z M 148.46875 181.53125 C 149.226562 181.738281 150.484375 182.105469 151.242188 182.316406 C 152.027344 182.523438 152.917969 182.707031 153.230469 182.707031 C 153.542969 182.707031 154.015625 182.8125 154.277344 182.96875 C 154.539062 183.097656 155.558594 183.386719 156.550781 183.621094 C 157.546875 183.855469 158.644531 184.117188 159.011719 184.195312 C 159.847656 184.40625 161.105469 185.320312 161.105469 185.738281 C 161.105469 185.894531 161.289062 186.179688 161.496094 186.363281 C 161.707031 186.546875 161.941406 187.070312 162.046875 187.539062 C 162.203125 188.402344 161.757812 189.5 160.214844 192.242188 C 159.902344 192.816406 159.167969 194.097656 158.617188 195.117188 C 157.574219 197.023438 156.761719 198.4375 156.1875 199.296875 C 156.027344 199.585938 155.769531 200.054688 155.636719 200.34375 C 155.507812 200.628906 155.085938 201.308594 154.722656 201.859375 C 154.355469 202.40625 154.042969 202.929688 154.042969 203.0625 C 154.042969 203.503906 152.15625 205.175781 151.347656 205.414062 C 150.902344 205.542969 149.332031 206.089844 147.894531 206.613281 C 146.457031 207.136719 144.9375 207.660156 144.492188 207.789062 C 144.074219 207.894531 143.289062 208.15625 142.792969 208.339844 C 142.296875 208.496094 141.457031 208.78125 140.960938 208.964844 C 140.464844 209.148438 139.707031 209.410156 139.261719 209.515625 C 138.527344 209.75 138.476562 209.855469 138.398438 211.109375 C 138.347656 211.839844 138.503906 213.222656 138.738281 214.164062 C 138.949219 215.132812 139.128906 216.203125 139.128906 216.570312 C 139.128906 216.933594 139.3125 217.589844 139.550781 218.03125 C 139.890625 218.683594 140.074219 218.789062 140.648438 218.683594 C 141.511719 218.554688 143.550781 218.058594 145.199219 217.589844 C 146.011719 217.378906 146.507812 217.328125 146.613281 217.507812 C 146.898438 217.953125 144.910156 219.441406 143.367188 219.914062 C 142.558594 220.148438 141.328125 220.539062 140.648438 220.75 C 139.992188 220.984375 139.050781 221.117188 138.582031 221.0625 C 137.769531 220.984375 137.691406 220.878906 137.273438 219.417969 C 136.777344 217.746094 136.28125 215.835938 135.597656 212.886719 C 135.128906 210.925781 134.605469 209.4375 133.953125 208.183594 C 133.429688 207.1875 133.191406 203.375 133.609375 202.589844 C 133.925781 202.042969 133.976562 202.066406 135.808594 203.636719 C 138.03125 205.515625 138.398438 205.671875 139.628906 205.410156 C 142.007812 204.890625 147.945312 202.851562 148.886719 202.222656 C 149.4375 201.859375 154.042969 196.003906 154.042969 195.667969 C 154.042969 195.585938 154.511719 194.855469 155.0625 193.992188 C 155.636719 193.132812 156.527344 191.617188 157.050781 190.597656 L 158.015625 188.769531 L 157.519531 187.410156 C 157.050781 186.023438 156.683594 185.761719 154.5625 185.058594 C 154.199219 184.925781 153.257812 184.585938 152.472656 184.273438 C 150.640625 183.570312 146.742188 182.183594 146.0625 182.027344 C 144.964844 181.738281 144.859375 181.660156 145.015625 181.398438 C 145.25 181.007812 146.847656 181.085938 148.46875 181.53125 Z M 128.929688 189.289062 C 128.929688 191.066406 128.089844 194.988281 127.699219 194.988281 C 127.515625 194.988281 127.359375 194.910156 127.359375 194.777344 C 127.359375 194.671875 126.707031 193.835938 125.921875 192.898438 C 125.136719 191.980469 124.480469 191.09375 124.480469 190.9375 C 124.480469 190.152344 127.226562 188.21875 128.351562 188.195312 C 128.851562 188.195312 128.929688 188.324219 128.929688 189.289062 Z M 152.289062 194.515625 C 151.894531 195.144531 150.746094 196.738281 149.75 198.070312 C 148.363281 199.925781 147.683594 200.628906 146.820312 200.996094 C 146.195312 201.285156 145.59375 201.519531 145.433594 201.519531 C 145.277344 201.519531 144.78125 201.675781 144.308594 201.886719 C 142.976562 202.460938 141.25 202.929688 141.066406 202.773438 C 140.960938 202.640625 141.800781 201.859375 145.015625 199.195312 C 146.0625 198.332031 149.4375 195.613281 151.136719 194.28125 C 152.078125 193.523438 152.890625 193 152.941406 193.132812 C 152.996094 193.289062 152.707031 193.890625 152.289062 194.515625 Z M 192.078125 205.542969 C 192.574219 207.84375 192.546875 209.097656 191.996094 211.316406 C 191.082031 214.871094 190.296875 218.476562 188.964844 225.164062 C 187.679688 231.566406 187.210938 234.050781 187 235.617188 C 186.898438 236.320312 186.6875 237.628906 186.53125 238.492188 C 186.136719 240.605469 185.535156 244.605469 185.066406 248.445312 C 184.621094 252.15625 184.777344 253.097656 186.636719 258.269531 C 187.316406 260.097656 187.839844 261.484375 188.179688 262.269531 C 188.363281 262.6875 188.675781 263.523438 188.910156 264.097656 C 189.460938 265.558594 190.898438 269.140625 191.394531 270.238281 C 191.605469 270.734375 191.917969 271.492188 192.101562 271.933594 C 192.285156 272.351562 192.964844 274 193.644531 275.59375 C 194.925781 278.648438 195.765625 281.707031 195.398438 282.074219 C 195.214844 282.257812 194.613281 281.578125 193.90625 280.296875 C 187.394531 268.484375 182.242188 258.242188 178.65625 249.882812 C 177.164062 246.460938 177.191406 244.789062 178.683594 239.929688 C 178.839844 239.429688 179.074219 238.59375 179.179688 238.097656 C 179.285156 237.601562 179.492188 236.820312 179.625 236.402344 C 179.78125 235.957031 180.09375 234.910156 180.355469 234.050781 C 180.59375 233.1875 180.933594 232.0625 181.117188 231.566406 C 181.296875 231.070312 181.664062 229.945312 181.902344 229.085938 C 182.160156 228.222656 182.476562 227.230469 182.632812 226.863281 C 182.761719 226.496094 182.972656 225.84375 183.105469 225.425781 C 183.207031 224.980469 183.730469 223.46875 184.253906 222.03125 C 184.777344 220.59375 185.300781 219.050781 185.433594 218.632812 C 185.535156 218.1875 185.902344 217.195312 186.214844 216.414062 C 186.53125 215.628906 186.871094 214.6875 187 214.320312 C 187.132812 213.957031 187.472656 213.015625 187.785156 212.230469 C 188.101562 211.449219 188.441406 210.429688 188.542969 210.011719 C 188.648438 209.566406 188.886719 208.992188 189.015625 208.703125 C 189.355469 208.101562 190.636719 204.785156 191.03125 203.53125 C 191.292969 202.695312 191.605469 203.269531 192.078125 205.542969 Z M 192.078125 205.542969 " fill-opacity="1" fill-rule="nonzero"/><path fill="#000000" d="M 238.273438 95.410156 C 238.140625 95.699219 238.011719 97.683594 238.011719 99.957031 C 238.011719 105.234375 237.59375 104.894531 244.160156 105.445312 C 248.683594 105.835938 252.109375 106.019531 253.210938 105.914062 C 253.996094 105.863281 254.230469 104.660156 254.230469 100.820312 C 254.230469 97.421875 254.175781 97.003906 253.679688 96.378906 C 253.261719 95.828125 252.921875 95.699219 252.058594 95.699219 C 251.457031 95.699219 249.496094 95.515625 247.691406 95.308594 C 245.886719 95.097656 243.113281 94.914062 241.492188 94.914062 C 238.847656 94.914062 238.535156 94.96875 238.273438 95.410156 Z M 114.332031 97.265625 C 112.996094 97.398438 111.585938 97.554688 111.21875 97.660156 C 110.851562 97.738281 109.335938 97.917969 107.84375 98.050781 C 104 98.390625 104.078125 98.335938 104.078125 101.316406 C 104.078125 102.726562 104.183594 103.851562 104.339844 103.929688 C 104.601562 104.085938 106.171875 103.929688 112.449219 103.144531 C 114.097656 102.9375 116.007812 102.753906 116.660156 102.753906 C 117.496094 102.753906 118.097656 102.570312 118.570312 102.203125 C 119.199219 101.707031 119.25 101.527344 119.25 99.75 C 119.25 96.847656 119.277344 96.875 114.332031 97.265625 Z M 114.332031 97.265625 " fill-opacity="1" fill-rule="nonzero"/></svg>