<svg xmlns="http://www.w3.org/2000/svg" xmlns:xlink="http://www.w3.org/1999/xlink" width="512" zoomAndPan="magnify" viewBox="0 0 384 383.999986" height="512" preserveAspectRatio="xMidYMid meet" version="1.0"><defs><clipPath id="972cc2aaec"><path d="M 61.617188 62.515625 L 315.867188 62.515625 L 315.867188 321.265625 L 61.617188 321.265625 Z M 61.617188 62.515625 " clip-rule="nonzero"/></clipPath><clipPath id="be93f72406"><path d="M 61.617188 164 L 315.867188 164 L 315.867188 220 L 61.617188 220 Z M 61.617188 164 " clip-rule="nonzero"/></clipPath></defs><g clip-path="url(#972cc2aaec)"><path fill="#000000" d="M 188.742188 189.601562 L 188.742188 68.234375 L 193.316406 62.515625 L 213.964844 164.441406 L 315.800781 185.027344 L 311.226562 189.601562 Z M 187.601562 194.179688 L 187.601562 315.546875 L 184.167969 321.265625 L 162.441406 219.339844 L 61.6875 198.753906 L 66.261719 194.179688 Z M 187.601562 194.179688 " fill-opacity="1" fill-rule="nonzero"/></g><g clip-path="url(#be93f72406)"><path fill="#53565a" d="M 188.742188 189.601562 L 311.226562 189.601562 L 315.800781 185.027344 L 213.964844 164.441406 Z M 187.601562 194.179688 L 66.261719 194.179688 L 61.6875 198.753906 L 162.441406 219.339844 Z M 187.601562 194.179688 " fill-opacity="1" fill-rule="nonzero"/></g></svg>