<svg xmlns="http://www.w3.org/2000/svg" xmlns:xlink="http://www.w3.org/1999/xlink" width="512" zoomAndPan="magnify" viewBox="0 0 384 383.999986" height="512" preserveAspectRatio="xMidYMid meet" version="1.0"><defs><clipPath id="736fc4e33d"><path d="M 65.234375 278 L 315.734375 278 L 315.734375 311.5 L 65.234375 311.5 Z M 65.234375 278 " clip-rule="nonzero"/></clipPath><clipPath id="b800957d31"><path d="M 139 73.75 L 240 73.75 L 240 263 L 139 263 Z M 139 73.75 " clip-rule="nonzero"/></clipPath></defs><g clip-path="url(#736fc4e33d)"><path fill="#000000" d="M 106.765625 294.472656 C 106.765625 286.210938 111.765625 279.050781 121.097656 278.621094 C 124.789062 278.398438 129.5625 278.398438 133.03125 278.621094 C 142.585938 279.050781 147.140625 286.433594 147.140625 294.472656 C 147.140625 303.371094 142.363281 310.324219 133.03125 310.964844 C 129.773438 311.1875 124.566406 311.1875 121.097656 310.964844 C 111.765625 310.324219 106.765625 303.148438 106.765625 294.472656 Z M 131.515625 304.238281 C 136.945312 303.804688 139.980469 299.890625 139.980469 294.472656 C 139.980469 289.039062 136.945312 285.347656 131.515625 285.136719 C 129.34375 284.917969 124.789062 284.917969 122.617188 285.136719 C 116.753906 285.570312 114.148438 289.472656 114.148438 294.472656 C 114.148438 299.457031 116.753906 303.582031 122.617188 304.238281 C 124.566406 304.457031 129.34375 304.457031 131.515625 304.238281 M 91.929688 278.707031 L 66.097656 278.707031 C 65.664062 278.707031 65.234375 278.929688 65.234375 279.570312 L 65.234375 310.1875 C 65.234375 310.617188 65.664062 311.0625 66.320312 311.0625 L 71.75 311.0625 C 72.390625 311.0625 72.613281 310.617188 72.613281 310.1875 L 72.613281 286.089844 C 72.613281 285.433594 73.046875 285.226562 73.476562 285.226562 L 91.066406 285.226562 C 93.894531 285.226562 96.054688 287.828125 96.054688 290.644531 C 96.054688 293.695312 93.894531 296.507812 91.066406 296.507812 L 75.871094 296.507812 C 75.441406 296.507812 74.996094 296.941406 74.996094 297.386719 L 74.996094 302.371094 C 74.996094 302.59375 75.441406 303.027344 75.871094 303.027344 L 91.929688 303.027344 C 98.449219 303.027344 103.003906 297.59375 103.003906 290.644531 C 103.003906 284.136719 98.449219 278.707031 91.929688 278.707031 M 174.417969 308.015625 C 175.726562 310.1875 178.109375 311.496094 180.714844 311.496094 C 185.28125 311.496094 188.09375 308.445312 188.09375 303.890625 L 188.09375 279.570312 C 188.09375 278.929688 187.664062 278.707031 187.007812 278.707031 L 181.589844 278.707031 C 180.9375 278.707031 180.714844 278.929688 180.714844 279.570312 L 180.714844 302.371094 C 180.714844 302.804688 180.28125 303.027344 179.851562 303.027344 C 179.628906 303.027344 179.417969 302.804688 179.195312 302.804688 L 165.085938 281.535156 C 163.570312 279.570312 161.398438 278.496094 158.792969 278.496094 C 154.878906 278.496094 151.410156 281.742188 151.410156 285.65625 L 151.410156 310.1875 C 151.410156 310.617188 151.632812 311.0625 152.277344 311.0625 L 157.707031 311.0625 C 158.359375 311.0625 158.570312 310.617188 158.570312 310.1875 L 158.570312 287.609375 C 158.570312 287.175781 159.003906 286.742188 159.445312 286.742188 C 159.65625 286.742188 159.878906 286.953125 160.101562 287.175781 L 174.417969 308.015625 M 211.546875 286.089844 L 211.546875 310.1875 C 211.546875 310.617188 211.101562 311.0625 210.890625 311.0625 L 205.25 311.0625 C 204.808594 311.0625 204.375 310.617188 204.375 310.1875 L 204.375 286.089844 C 204.375 285.433594 204.164062 285.226562 203.734375 285.226562 L 191.785156 285.226562 C 191.351562 285.226562 190.921875 284.78125 190.921875 284.136719 L 190.921875 279.570312 C 190.921875 278.929688 191.351562 278.707031 191.785156 278.707031 L 224.347656 278.707031 C 224.777344 278.707031 225 278.929688 225 279.570312 L 225 284.347656 C 225 284.78125 224.777344 285.226562 224.347656 285.226562 L 212.410156 285.226562 C 211.976562 285.226562 211.546875 285.433594 211.546875 286.089844 M 234.121094 311.0625 C 234.554688 311.0625 234.984375 310.617188 234.984375 310.1875 L 234.984375 279.570312 C 234.984375 278.929688 234.554688 278.707031 234.121094 278.707031 L 228.691406 278.707031 C 228.257812 278.707031 227.828125 278.929688 227.828125 279.570312 L 227.828125 310.1875 C 227.828125 310.617188 228.257812 311.0625 228.691406 311.0625 Z M 270.582031 304.976562 L 271.015625 305.410156 L 273.839844 310.1875 C 274.273438 310.617188 274.703125 311.0625 275.148438 311.0625 L 280.789062 311.0625 C 281.652344 311.0625 281.652344 310.617188 281.222656 309.976562 L 264.71875 280.878906 C 263.644531 279.570312 261.90625 278.496094 259.734375 278.496094 C 257.5625 278.496094 255.832031 279.570312 254.957031 280.878906 L 238.023438 309.976562 C 237.8125 310.617188 237.8125 311.0625 238.464844 311.0625 L 244.316406 311.0625 C 244.761719 311.0625 245.191406 310.617188 245.625 310.1875 L 259.078125 286.953125 C 259.300781 286.742188 259.511719 286.519531 259.734375 286.519531 C 259.957031 286.519531 260.164062 286.742188 260.386719 286.953125 L 266.25 297.164062 L 266.25 297.59375 C 266.25 297.816406 266.027344 298.25 265.597656 298.25 L 256.042969 298.25 C 255.386719 298.25 254.746094 298.679688 254.523438 299.113281 L 251.699219 304.113281 C 251.488281 304.546875 251.699219 304.976562 252.351562 304.976562 Z M 315.089844 304.324219 C 315.300781 304.324219 315.734375 304.753906 315.734375 305.199219 L 315.734375 310.1875 C 315.734375 310.617188 315.300781 311.0625 315.089844 311.0625 L 294.6875 311.0625 C 284.691406 311.0625 279.496094 303.238281 279.496094 294.558594 C 279.496094 286.089844 284.691406 278.707031 294.464844 278.707031 L 315.089844 278.707031 C 315.300781 278.707031 315.734375 278.929688 315.734375 279.570312 L 315.734375 284.136719 C 315.734375 284.78125 315.300781 285.226562 315.089844 285.226562 L 295.550781 285.226562 C 289.46875 285.226562 286.652344 289.558594 286.652344 294.558594 C 286.652344 299.765625 289.46875 304.324219 295.550781 304.324219 Z M 315.089844 304.324219 " fill-opacity="1" fill-rule="nonzero"/></g><g clip-path="url(#b800957d31)"><path fill="#000000" d="M 189.402344 262.421875 C 190.265625 262.421875 190.921875 261.769531 191.144531 261.125 L 239.539062 75.925781 L 239.539062 75.492188 C 239.539062 74.40625 238.898438 73.753906 238.242188 73.753906 C 237.8125 73.753906 237.589844 73.753906 237.589844 73.972656 L 189.402344 95.898438 L 141.648438 73.972656 C 141.425781 73.753906 141.203125 73.753906 140.996094 73.753906 C 140.128906 73.753906 139.253906 74.40625 139.253906 75.492188 C 139.253906 75.492188 139.253906 75.703125 139.476562 75.925781 L 188.09375 261.125 C 188.09375 261.769531 188.75 262.421875 189.402344 262.421875 " fill-opacity="1" fill-rule="nonzero"/></g><path fill="#ffffff" d="M 189.402344 248.746094 L 233.46875 80.914062 L 189.402344 100.886719 L 145.546875 80.914062 Z M 189.402344 248.746094 " fill-opacity="1" fill-rule="nonzero"/><path fill="#c72830" d="M 189.402344 235.066406 L 228.257812 87 L 189.402344 104.578125 L 150.757812 87 Z M 189.402344 235.066406 " fill-opacity="1" fill-rule="nonzero"/><path fill="#ffffff" d="M 189.402344 109.789062 L 186.578125 123.6875 L 165.308594 126.515625 L 186.578125 129.328125 L 189.402344 142.796875 L 192.4375 129.328125 L 213.71875 126.515625 L 192.4375 123.6875 Z M 189.402344 109.789062 " fill-opacity="1" fill-rule="nonzero"/></svg>