<svg xmlns="http://www.w3.org/2000/svg" xmlns:xlink="http://www.w3.org/1999/xlink" width="512" zoomAndPan="magnify" viewBox="0 0 384 383.999986" height="512" preserveAspectRatio="xMidYMid meet" version="1.0"><path fill="#ffffff" d="M 77.84375 219.832031 C 77.84375 220.195312 77.53125 220.507812 77.167969 220.507812 L 67.058594 220.507812 C 65.710938 220.402344 65.246094 219.625 65.246094 219.625 L 44.347656 182.558594 C 43.984375 181.933594 43.050781 182.195312 43.050781 182.921875 L 43.050781 219.882812 C 43.050781 220.246094 42.742188 220.558594 42.378906 220.558594 L 32.992188 220.558594 C 32.628906 220.558594 32.320312 220.246094 32.320312 219.882812 L 32.320312 164.101562 C 32.320312 163.738281 32.628906 163.425781 32.992188 163.425781 L 44.660156 163.425781 L 44.660156 163.480469 L 65.816406 200.859375 C 66.175781 201.480469 67.109375 201.21875 67.109375 200.496094 L 67.109375 164.101562 C 67.109375 163.738281 67.421875 163.425781 67.785156 163.425781 L 77.167969 163.425781 C 77.53125 163.425781 77.84375 163.738281 77.84375 164.101562 Z M 77.84375 219.832031 " fill-opacity="1" fill-rule="nonzero"/><path fill="#ffffff" d="M 123.160156 219.574219 C 123.160156 220.089844 122.746094 220.558594 122.175781 220.558594 L 113.363281 220.558594 C 112.84375 220.558594 112.375 220.144531 112.375 219.574219 L 112.375 164.410156 C 112.375 163.894531 112.792969 163.425781 113.363281 163.425781 L 122.175781 163.425781 C 122.695312 163.425781 123.160156 163.839844 123.160156 164.410156 Z M 123.160156 219.574219 " fill-opacity="1" fill-rule="nonzero"/><path fill="#ffffff" d="M 199.433594 219.003906 C 199.433594 219.730469 198.8125 220.351562 198.085938 220.351562 L 159.820312 220.351562 C 159.09375 220.351562 158.472656 219.730469 158.472656 219.003906 L 158.472656 211.433594 C 158.472656 210.707031 159.09375 210.085938 159.820312 210.085938 L 198.085938 210.085938 C 198.8125 210.085938 199.433594 210.707031 199.433594 211.433594 Z M 199.433594 219.003906 " fill-opacity="1" fill-rule="nonzero"/><path fill="#ffffff" d="M 199.433594 195.671875 C 199.433594 196.398438 198.8125 197.019531 198.085938 197.019531 L 159.820312 197.019531 C 159.09375 197.019531 158.472656 196.398438 158.472656 195.671875 L 158.472656 188.105469 C 158.472656 187.378906 159.09375 186.757812 159.820312 186.757812 L 198.085938 186.757812 C 198.8125 186.757812 199.433594 187.378906 199.433594 188.105469 Z M 199.433594 195.671875 " fill-opacity="1" fill-rule="nonzero"/><path fill="#ffffff" d="M 199.433594 172.34375 C 199.433594 173.070312 198.8125 173.691406 198.085938 173.691406 L 159.820312 173.691406 C 159.09375 173.691406 158.472656 173.070312 158.472656 172.34375 L 158.472656 164.773438 C 158.472656 164.050781 159.09375 163.425781 159.820312 163.425781 L 198.085938 163.425781 C 198.8125 163.425781 199.433594 164.050781 199.433594 164.773438 Z M 199.433594 172.34375 " fill-opacity="1" fill-rule="nonzero"/><path fill="#ffffff" d="M 279.023438 164.980469 L 260.148438 219.675781 C 259.996094 220.089844 259.632812 220.351562 259.21875 220.351562 L 249.675781 220.351562 C 249.261719 220.351562 248.898438 220.089844 248.742188 219.675781 L 230.492188 164.980469 C 230.285156 164.359375 230.75 163.6875 231.425781 163.6875 L 241.328125 163.6875 C 241.742188 163.6875 242.15625 163.996094 242.261719 164.410156 L 253.875 204.125 C 254.136719 205.058594 255.484375 205.058594 255.742188 204.125 L 267.566406 164.359375 C 267.667969 163.945312 268.082031 163.632812 268.496094 163.632812 L 278.089844 163.632812 C 278.765625 163.6875 279.230469 164.359375 279.023438 164.980469 Z M 279.023438 164.980469 " fill-opacity="1" fill-rule="nonzero"/><path fill="#ffffff" d="M 351.71875 219.003906 C 351.71875 219.730469 351.097656 220.351562 350.371094 220.351562 L 312.105469 220.351562 C 311.378906 220.351562 310.757812 219.730469 310.757812 219.003906 L 310.757812 211.433594 C 310.757812 210.707031 311.378906 210.085938 312.105469 210.085938 L 350.371094 210.085938 C 351.097656 210.085938 351.71875 210.707031 351.71875 211.433594 Z M 351.71875 219.003906 " fill-opacity="1" fill-rule="nonzero"/><path fill="#ffffff" d="M 351.71875 195.671875 C 351.71875 196.398438 351.097656 197.019531 350.371094 197.019531 L 312.105469 197.019531 C 311.378906 197.019531 310.757812 196.398438 310.757812 195.671875 L 310.757812 188.105469 C 310.757812 187.378906 311.378906 186.757812 312.105469 186.757812 L 350.371094 186.757812 C 351.097656 186.757812 351.71875 187.378906 351.71875 188.105469 Z M 351.71875 195.671875 " fill-opacity="1" fill-rule="nonzero"/><path fill="#ffffff" d="M 351.71875 172.34375 C 351.71875 173.070312 351.097656 173.691406 350.371094 173.691406 L 312.105469 173.691406 C 311.378906 173.691406 310.757812 173.070312 310.757812 172.34375 L 310.757812 164.773438 C 310.757812 164.050781 311.378906 163.425781 312.105469 163.425781 L 350.371094 163.425781 C 351.097656 163.425781 351.71875 164.050781 351.71875 164.773438 Z M 351.71875 172.34375 " fill-opacity="1" fill-rule="nonzero"/><path fill="#1d1d1b" d="M 162.375 199.863281 L 157.144531 205.558594 C 156.375 206.175781 155.914062 206.636719 155.605469 206.792969 C 155.300781 206.945312 154.683594 207.097656 153.914062 207.097656 L 133.148438 207.097656 L 138.378906 201.402344 C 138.996094 200.785156 139.457031 200.324219 139.917969 200.171875 C 140.226562 200.015625 140.839844 199.863281 141.609375 199.863281 Z M 138.378906 194.628906 C 137.765625 194.628906 137.300781 194.78125 136.6875 195.242188 C 136.070312 195.703125 135.765625 196.167969 135.457031 196.628906 L 134.070312 199.863281 L 131.148438 207.097656 L 121.457031 207.097656 L 134.378906 175.378906 L 172.21875 175.378906 L 166.988281 180.921875 C 166.222656 181.539062 165.757812 182 165.453125 182.15625 C 165.144531 182.308594 164.527344 182.464844 163.761719 182.464844 L 143.300781 182.464844 C 142.6875 182.464844 142.222656 182.617188 141.609375 183.078125 C 140.992188 183.542969 140.6875 184.003906 140.378906 184.464844 L 138.996094 187.699219 L 161.453125 187.699219 L 156.53125 192.933594 C 155.761719 193.550781 155.300781 194.011719 154.992188 194.164062 C 154.683594 194.320312 154.070312 194.472656 153.300781 194.472656 L 138.378906 194.472656 Z M 181.140625 207.097656 C 178.066406 207.097656 175.605469 206.792969 173.757812 206.019531 C 171.914062 205.25 170.375 204.171875 169.605469 202.789062 C 168.683594 201.402344 168.375 199.707031 168.375 197.859375 C 168.527344 195.859375 168.988281 193.703125 169.914062 191.394531 L 176.375 175.535156 L 186.0625 175.535156 L 179.605469 191.394531 C 178.835938 193.242188 178.527344 194.78125 178.679688 195.859375 C 178.835938 196.9375 179.296875 197.859375 180.066406 198.476562 C 180.835938 199.09375 181.757812 199.554688 182.835938 199.707031 C 183.910156 199.863281 185.140625 200.015625 186.21875 200.015625 L 201.753906 200.015625 L 196.523438 205.558594 C 195.753906 206.175781 195.292969 206.636719 194.984375 206.792969 C 194.679688 206.945312 194.0625 207.097656 193.292969 207.097656 Z M 224.675781 175.378906 L 211.753906 207.097656 L 202.0625 207.097656 L 214.984375 175.378906 Z M 301.433594 199.863281 L 296.203125 205.558594 C 295.433594 206.175781 294.972656 206.636719 294.664062 206.792969 C 294.355469 206.945312 293.742188 207.097656 292.972656 207.097656 L 272.050781 207.097656 L 277.28125 201.402344 C 277.898438 200.785156 278.359375 200.324219 278.820312 200.171875 C 279.128906 200.015625 279.742188 199.863281 280.511719 199.863281 Z M 270.359375 174.765625 L 266.050781 179.539062 C 262.824219 183.386719 259.898438 186.929688 257.132812 190.160156 C 255.59375 192.007812 254.054688 193.855469 252.515625 195.703125 C 250.976562 197.550781 249.59375 199.09375 248.363281 200.476562 C 247.132812 201.863281 246.210938 203.09375 245.285156 204.019531 C 244.515625 204.941406 244.054688 205.558594 243.902344 205.558594 C 243.285156 206.328125 242.824219 206.792969 242.363281 206.945312 C 242.054688 207.097656 241.441406 207.253906 240.671875 207.253906 L 229.75 207.253906 L 228.367188 175.535156 L 238.363281 175.535156 L 238.980469 199.863281 L 253.746094 182 L 247.746094 182 L 252.976562 176.304688 C 253.59375 175.6875 254.054688 175.226562 254.515625 175.074219 C 254.824219 174.917969 255.4375 174.765625 256.207031 174.765625 Z M 277.28125 194.628906 C 276.667969 194.628906 276.203125 194.78125 275.589844 195.242188 C 274.972656 195.703125 274.667969 196.167969 274.359375 196.628906 L 272.976562 199.863281 L 270.050781 207.097656 L 260.515625 207.097656 L 273.4375 175.378906 L 311.121094 175.378906 L 305.894531 180.921875 C 305.125 181.539062 304.664062 182 304.355469 182.15625 C 304.046875 182.308594 303.433594 182.464844 302.664062 182.464844 L 282.050781 182.464844 C 281.433594 182.464844 280.972656 182.617188 280.359375 183.078125 C 279.742188 183.542969 279.433594 184.003906 279.128906 184.464844 L 277.742188 187.699219 L 300.203125 187.699219 L 295.277344 192.933594 C 294.511719 193.550781 294.046875 194.011719 293.742188 194.164062 C 293.433594 194.320312 292.816406 194.472656 292.050781 194.472656 L 277.28125 194.472656 Z M 277.28125 194.628906 " fill-opacity="1" fill-rule="nonzero"/><path fill="#1d1d1b" d="M 99.921875 190.933594 L 102.382812 190.933594 L 100.539062 195.089844 L 111.765625 188.007812 C 112.84375 187.238281 113.304688 186.160156 112.382812 184.925781 L 107.460938 178.460938 L 105.769531 182.617188 L 94.230469 182.617188 C 93.617188 182.617188 93.15625 182.769531 92.539062 183.234375 C 91.925781 183.695312 91.617188 184.15625 91.308594 184.617188 L 88.847656 190.625 L 88.695312 190.933594 L 85.769531 198.167969 L 82.078125 207.097656 L 72.542969 207.097656 L 82.539062 182.617188 L 75.15625 182.617188 L 80.386719 176.765625 C 81.003906 176.148438 81.464844 175.6875 81.925781 175.535156 C 82.234375 175.378906 82.847656 175.226562 83.617188 175.226562 L 114.84375 175.226562 C 116.382812 175.226562 117.765625 175.535156 118.84375 176.148438 C 119.921875 176.765625 120.84375 177.535156 121.457031 178.613281 C 122.074219 179.691406 122.382812 180.769531 122.382812 182.15625 C 122.382812 183.542969 122.074219 184.925781 121.457031 186.621094 C 120.535156 189.085938 118.996094 191.238281 116.84375 193.085938 C 114.691406 194.933594 112.535156 196.320312 110.074219 197.246094 L 117.613281 206.945312 L 105.460938 206.945312 L 98.847656 198.167969 L 87.464844 198.167969 L 93.15625 190.933594 Z M 99.921875 190.933594 " fill-opacity="1" fill-rule="nonzero"/></svg>