<svg xmlns="http://www.w3.org/2000/svg" xmlns:xlink="http://www.w3.org/1999/xlink" width="512" zoomAndPan="magnify" viewBox="0 0 384 383.999986" height="512" preserveAspectRatio="xMidYMid meet" version="1.0"><defs><clipPath id="1fbfc7f6ce"><path d="M 103 75.589844 L 281 75.589844 L 281 308.089844 L 103 308.089844 Z M 103 75.589844 " clip-rule="nonzero"/></clipPath></defs><g clip-path="url(#1fbfc7f6ce)"><path fill="#000000" d="M 109.507812 274.722656 L 109.507812 90.648438 C 109.507812 90.648438 110.148438 80.359375 104.683594 76.871094 L 104.683594 75.59375 L 175.597656 75.59375 C 181.785156 75.589844 187.929688 76.132812 194.023438 77.222656 C 196.253906 77.617188 198.453125 78.164062 200.609375 78.863281 C 202.765625 79.5625 204.867188 80.410156 206.90625 81.398438 C 208.945312 82.390625 210.910156 83.515625 212.792969 84.777344 C 214.679688 86.039062 216.46875 87.425781 218.160156 88.933594 C 219.855469 90.441406 221.4375 92.0625 222.90625 93.789062 C 224.375 95.515625 225.71875 97.339844 226.933594 99.25 C 228.152344 101.164062 229.230469 103.152344 230.171875 105.21875 C 231.113281 107.28125 231.910156 109.398438 232.558594 111.570312 C 233.242188 113.800781 233.796875 116.0625 234.214844 118.359375 C 234.636719 120.652344 234.925781 122.964844 235.078125 125.292969 C 235.230469 127.617188 235.246094 129.949219 235.128906 132.277344 C 235.011719 134.605469 234.757812 136.921875 234.371094 139.222656 C 233.984375 141.523438 233.464844 143.792969 232.8125 146.03125 C 232.164062 148.269531 231.382812 150.464844 230.476562 152.617188 C 229.570312 154.765625 228.542969 156.855469 227.394531 158.882812 C 226.246094 160.914062 224.984375 162.871094 223.609375 164.753906 C 218.238281 171.6875 212.015625 177.753906 204.949219 182.945312 C 203.378906 184.050781 202.449219 184.632812 200.824219 185.679688 C 210.242188 199.90625 217.816406 215.058594 223.550781 231.128906 C 228.429688 245.136719 232.089844 259.453125 234.535156 274.082031 C 236.046875 286.171875 239.652344 287.394531 240.347656 287.625 L 240.347656 288.964844 L 197.917969 288.964844 L 197.917969 287.625 C 199.195312 286.929688 210.703125 281.8125 210.761719 263.96875 C 210.277344 248.761719 207.253906 234.078125 201.695312 219.914062 C 198.210938 210.273438 194.082031 200.914062 189.3125 191.839844 C 181.121094 195.136719 172.695312 197.632812 164.03125 199.335938 C 158.507812 200.382812 152.929688 201.253906 146.011719 202.011719 C 139.09375 202.765625 134.386719 203.117188 130.609375 203.347656 L 130.609375 274.839844 C 130.609375 276.410156 131.015625 284.835938 136.421875 287.742188 L 136.421875 289.078125 L 103.695312 289.078125 L 103.695312 287.742188 C 108.984375 284.953125 109.507812 276.410156 109.507812 274.839844 M 176.527344 87.683594 L 130.433594 87.683594 L 130.433594 190.097656 C 140.441406 189.554688 150.300781 188.0625 160.019531 185.621094 C 193.617188 175.683594 209.65625 152.257812 209.890625 124.648438 C 209.890625 108.609375 204.078125 98.785156 198.265625 93.554688 C 196.382812 92.101562 194.339844 90.925781 192.140625 90.019531 C 189.941406 89.109375 187.664062 88.507812 185.304688 88.207031 C 182.46875 87.8125 179.621094 87.636719 176.757812 87.683594 M 172.109375 200.675781 L 172.109375 211.484375 C 179.449219 211.039062 186.734375 210.148438 193.964844 208.8125 C 195.941406 213.34375 197.683594 217.644531 198.90625 220.960938 L 198.90625 221.425781 C 195.242188 222.0625 191.347656 222.585938 187.28125 223.050781 C 181.46875 223.75 175.65625 224.097656 172.226562 224.332031 L 172.226562 294.078125 C 172.226562 295.589844 172.574219 303.84375 178.039062 306.691406 L 178.039062 308.085938 L 145.894531 308.085938 L 145.894531 306.808594 C 151.066406 304.074219 151.707031 295.707031 151.707031 294.195312 L 151.707031 204.394531 C 158.609375 203.511719 165.449219 202.269531 172.226562 200.675781 M 214.484375 202.070312 C 215.800781 201.496094 217.101562 200.871094 218.375 200.203125 C 219.648438 199.535156 220.898438 198.820312 222.121094 198.058594 C 223.34375 197.296875 224.535156 196.492188 225.699219 195.644531 C 226.863281 194.796875 227.992188 193.90625 229.09375 192.976562 C 230.191406 192.046875 231.253906 191.078125 232.28125 190.070312 C 233.308594 189.0625 234.300781 188.015625 235.25 186.9375 C 236.203125 185.855469 237.113281 184.742188 237.984375 183.59375 C 238.851562 182.449219 239.679688 181.269531 240.464844 180.0625 C 241.25 178.855469 241.988281 177.621094 242.679688 176.359375 C 243.375 175.097656 244.023438 173.8125 244.621094 172.503906 C 245.222656 171.195312 245.773438 169.867188 246.277344 168.515625 C 246.777344 167.167969 247.230469 165.800781 247.636719 164.421875 C 248.039062 163.039062 248.390625 161.644531 248.691406 160.234375 C 248.992188 158.828125 249.242188 157.410156 249.441406 155.984375 C 249.636719 154.558594 249.78125 153.128906 249.875 151.691406 C 249.96875 150.253906 250.007812 148.816406 249.996094 147.375 C 249.996094 131.625 244.589844 122.09375 238.371094 116.863281 L 237.265625 116.28125 C 236.800781 114.421875 236.335938 112.617188 235.757812 110.875 C 234.570312 107.339844 233.101562 103.929688 231.339844 100.644531 C 232.441406 100.644531 233.488281 100.992188 234.476562 101.167969 C 236.667969 101.558594 238.816406 102.101562 240.933594 102.789062 C 243.046875 103.476562 245.105469 104.308594 247.105469 105.277344 C 249.105469 106.25 251.027344 107.355469 252.875 108.589844 C 254.722656 109.828125 256.480469 111.183594 258.140625 112.660156 C 259.800781 114.140625 261.355469 115.722656 262.796875 117.414062 C 264.242188 119.105469 265.5625 120.886719 266.761719 122.761719 C 267.960938 124.632812 269.023438 126.582031 269.953125 128.601562 C 270.882812 130.621094 271.671875 132.695312 272.316406 134.820312 C 272.992188 137.015625 273.539062 139.238281 273.957031 141.496094 C 274.375 143.75 274.65625 146.023438 274.808594 148.3125 C 274.960938 150.601562 274.980469 152.894531 274.867188 155.183594 C 274.753906 157.476562 274.503906 159.753906 274.125 162.015625 C 273.746094 164.277344 273.234375 166.511719 272.597656 168.714844 C 271.957031 170.917969 271.191406 173.078125 270.300781 175.191406 C 269.410156 177.308594 268.398438 179.363281 267.269531 181.359375 C 266.136719 183.355469 264.894531 185.28125 263.539062 187.132812 C 258.265625 193.914062 252.160156 199.839844 245.230469 204.917969 C 243.71875 206.023438 242.789062 206.601562 241.21875 207.648438 C 250.441406 221.582031 257.84375 236.421875 263.421875 252.171875 C 268.199219 265.902344 271.820312 279.925781 274.292969 294.253906 C 275.6875 305.875 279.234375 307.039062 280.105469 307.273438 L 280.105469 308.085938 L 238.371094 308.085938 L 238.371094 306.808594 C 239.652344 306.167969 250.925781 301.515625 250.984375 283.90625 C 250.558594 268.996094 247.613281 254.601562 242.148438 240.722656 C 238.613281 231.308594 234.488281 222.164062 229.769531 213.285156 C 227.675781 214.21875 224.65625 215.261719 221.339844 216.367188 C 219.191406 211.367188 216.980469 206.835938 214.484375 202.242188 M 205.066406 111.105469 L 172.109375 111.105469 L 172.109375 177.601562 C 167.894531 179.574219 163.554688 181.222656 159.089844 182.539062 C 156.621094 183.269531 154.121094 183.871094 151.589844 184.34375 L 151.589844 114.011719 C 151.589844 114.011719 152.171875 103.957031 146.535156 100.527344 L 146.535156 99.25 L 199.253906 99.25 C 202 102.71875 203.9375 106.59375 205.066406 110.875 " fill-opacity="1" fill-rule="evenodd"/></g></svg>