<svg xmlns="http://www.w3.org/2000/svg" xmlns:xlink="http://www.w3.org/1999/xlink" width="512" zoomAndPan="magnify" viewBox="0 0 384 383.999986" height="512" preserveAspectRatio="xMidYMid meet" version="1.0"><defs><clipPath id="0e4f5dc956"><path d="M 61.527344 62.515625 L 321.777344 62.515625 L 321.777344 322.765625 L 61.527344 322.765625 Z M 61.527344 62.515625 " clip-rule="nonzero"/></clipPath></defs><g clip-path="url(#0e4f5dc956)"><path fill="#ffffff" d="M 61.527344 62.515625 L 321.777344 62.515625 L 321.777344 322.765625 L 61.527344 322.765625 Z M 61.527344 62.515625 " fill-opacity="1" fill-rule="evenodd"/></g><path fill="#d7dcdf" d="M 110.871094 154.816406 C 131.707031 154.816406 148.699219 171.804688 148.699219 192.640625 C 148.699219 213.476562 131.707031 230.464844 110.871094 230.464844 C 90 230.464844 73.011719 213.476562 73.011719 192.640625 C 73.011719 171.804688 90 154.816406 110.871094 154.816406 Z M 110.871094 154.816406 " fill-opacity="1" fill-rule="evenodd"/><path fill="#002a58" d="M 110.914062 156.355469 C 90.886719 156.355469 74.585938 172.535156 74.585938 192.5625 C 74.585938 212.589844 90.886719 228.886719 110.914062 228.886719 C 130.824219 228.886719 147.121094 212.589844 147.121094 192.5625 C 147.121094 172.535156 130.824219 156.355469 110.914062 156.355469 Z M 110.914062 156.355469 " fill-opacity="1" fill-rule="evenodd"/><path fill="#d7dcdf" d="M 130.9375 166.003906 C 125.519531 160.582031 118.40625 157.699219 110.914062 157.699219 C 103.300781 157.699219 96.191406 160.582031 90.886719 166.003906 C 85.464844 171.347656 82.542969 178.457031 82.542969 186.066406 L 82.542969 199.675781 C 82.660156 207.054688 85.582031 213.933594 90.886719 219.238281 C 96.191406 224.546875 103.300781 227.582031 110.914062 227.582031 C 118.40625 227.582031 125.519531 224.546875 130.9375 219.238281 C 136.128906 213.933594 139.050781 207.054688 139.164062 199.675781 L 139.164062 186.066406 C 139.164062 178.457031 136.28125 171.34375 130.9375 166.003906 Z M 130.363281 218.625 C 125.171875 223.816406 118.292969 226.738281 110.914062 226.738281 C 109.097656 226.738281 107.300781 226.558594 105.523438 226.203125 C 103.742188 225.847656 102.015625 225.324219 100.339844 224.628906 C 98.664062 223.929688 97.074219 223.078125 95.566406 222.066406 C 94.058594 221.058594 92.664062 219.910156 91.386719 218.625 C 86.3125 213.589844 83.390625 206.824219 83.273438 199.675781 C 83.390625 197.636719 83.773438 195.714844 84.234375 193.910156 C 88.464844 204.746094 99.074219 212.015625 110.796875 212.015625 C 112.226562 212.015625 113.648438 211.910156 115.0625 211.695312 C 116.476562 211.484375 117.863281 211.167969 119.230469 210.742188 C 120.597656 210.320312 121.921875 209.796875 123.210938 209.175781 C 124.496094 208.554688 125.730469 207.835938 126.90625 207.027344 C 128.085938 206.21875 129.199219 205.328125 130.242188 204.351562 C 131.285156 203.375 132.25 202.324219 133.136719 201.203125 C 134.023438 200.082031 134.820312 198.898438 135.527344 197.65625 C 136.234375 196.414062 136.84375 195.128906 137.359375 193.792969 C 137.933594 195.601562 138.320312 197.523438 138.433594 199.558594 C 138.320312 206.710938 135.4375 213.589844 130.363281 218.625 Z M 84.734375 192.5625 C 86.039062 188.335938 88.578125 184.492188 91.960938 181.339844 C 97.035156 176.648438 103.800781 173.996094 110.914062 173.996094 C 117.910156 173.996094 124.558594 176.648438 129.75 181.453125 C 133.078125 184.558594 135.488281 188.261719 136.976562 192.566406 C 133.246094 203.789062 122.753906 211.285156 110.796875 211.285156 C 99.074219 211.285156 88.578125 203.789062 84.734375 192.5625 Z M 138.433594 194.871094 C 137.75 192.21875 136.710938 189.710938 135.320312 187.351562 C 133.929688 184.992188 132.238281 182.875 130.246094 180.992188 C 124.902344 176.035156 118.023438 173.265625 110.910156 173.265625 C 103.570312 173.265625 96.6875 175.917969 91.382812 180.875 C 87.386719 184.605469 84.617188 189.449219 83.273438 194.636719 L 83.273438 186.066406 C 83.273438 178.6875 86.195312 171.691406 91.382812 166.5 C 96.570312 161.3125 103.570312 158.429688 110.910156 158.429688 C 118.289062 158.429688 125.171875 161.3125 130.359375 166.5 C 135.550781 171.691406 138.433594 178.6875 138.433594 186.066406 Z M 138.433594 194.871094 " fill-opacity="1" fill-rule="evenodd"/><path fill="#cfae59" d="M 104.53125 163.617188 C 105.953125 163.234375 108.027344 163.003906 108.027344 163.003906 L 110.910156 168.808594 L 113.679688 163.003906 C 113.679688 163.003906 115.640625 163.234375 117.175781 163.617188 L 119.828125 171.074219 L 120.328125 164.464844 C 122.253906 164.925781 123.945312 165.65625 126.019531 166.734375 C 127.941406 167.847656 128.171875 168.925781 128.054688 170.113281 C 128.054688 170.113281 127.941406 171.191406 126.480469 170.730469 C 126.480469 170.730469 128.902344 172.039062 128.402344 174.460938 C 128.171875 175.304688 127.328125 175.691406 126.019531 174.960938 C 124.90625 174.34375 123.597656 173.613281 122.023438 173.039062 C 119.371094 172.039062 117.449219 171.691406 117.449219 171.691406 L 116.949219 170.117188 C 115.714844 169.894531 114.472656 169.738281 113.21875 169.652344 L 112.488281 170.960938 L 109.222656 170.960938 L 108.492188 169.652344 C 106.800781 169.652344 104.761719 170.117188 104.761719 170.117188 L 104.261719 171.691406 C 103.308594 171.824219 102.386719 172.066406 101.496094 172.421875 L 101.609375 171.921875 C 99.917969 173.269531 98.378906 173.882812 98.378906 173.882812 C 97.265625 174.460938 94.265625 176.035156 93.535156 174.460938 C 93.304688 174.113281 93.304688 173.382812 93.304688 173.382812 C 94.152344 172.769531 95.457031 172.191406 96.417969 171.578125 C 96.417969 171.578125 95.957031 173.5 97.878906 172.539062 C 98.496094 172.191406 99.226562 171.691406 99.570312 170.960938 C 100.070312 169.769531 98.609375 170 98.109375 170.117188 C 97.265625 170.347656 94.152344 171.460938 94.035156 169.273438 C 94.035156 167.847656 96.1875 166.15625 98.378906 165.3125 C 101.761719 163.964844 102.839844 165.160156 102.722656 166.15625 C 101.378906 166.621094 101.148438 166.621094 99.917969 167.117188 C 100.070312 166.621094 99.6875 166.15625 98.378906 166.621094 C 96.917969 167.347656 96.574219 167.847656 96.804688 168.425781 C 97.035156 169.273438 99.226562 168.425781 99.6875 168.3125 C 102.722656 167.695312 102.339844 169.65625 102.339844 169.773438 Z M 105.375 168.539062 C 105.839844 168.425781 106.953125 168.308594 107.914062 168.195312 L 106.453125 165.042969 Z M 122.367188 171.34375 C 123.097656 171.574219 124.558594 172.304688 125.171875 172.652344 C 125.171875 172.652344 125.75 173.152344 126.132812 172.652344 C 126.363281 172.191406 126.25 171.691406 125.058594 171.074219 C 124.328125 170.613281 122.984375 170 122.519531 169.882812 Z M 122.636719 168.195312 C 122.636719 168.195312 123.828125 168.691406 124.558594 169.039062 C 124.902344 169.15625 125.058594 169.269531 125.402344 169.269531 C 125.632812 169.269531 125.75 169.15625 125.75 168.925781 C 125.863281 168.195312 125.054688 167.847656 124.671875 167.695312 C 123.828125 167.230469 123.597656 167.117188 122.75 166.847656 Z M 113.832031 168.195312 C 114.792969 168.308594 115.253906 168.308594 116.484375 168.539062 L 115.253906 165.039062 Z M 113.832031 168.195312 " fill-opacity="1" fill-rule="evenodd"/><path fill="#d7dcdf" d="M 97.035156 191.988281 C 97.878906 192.449219 98.609375 192.679688 99.457031 192.5625 C 101.261719 192.332031 101.878906 191.601562 103.570312 192.101562 C 104.261719 192.332031 104.875 192.945312 104.875 192.945312 C 104.875 192.945312 104.414062 192.792969 104.03125 192.792969 C 102.226562 192.679688 100.765625 194.023438 98.957031 193.523438 C 97.382812 193.179688 97.035156 191.988281 97.035156 191.988281 Z M 97.035156 191.988281 " fill-opacity="1" fill-rule="evenodd"/><path fill="#d7dcdf" d="M 106.953125 192.214844 C 106.335938 192.679688 105.109375 195.484375 101.878906 193.910156 C 101.761719 194.253906 101.992188 195.332031 102.453125 196.0625 C 102.957031 196.792969 104.03125 197.023438 104.875 197.023438 C 103.914062 197.867188 104.644531 199.328125 104.644531 201.367188 C 105.261719 200.289062 106.222656 199.828125 106.222656 199.828125 C 106.222656 199.828125 105.261719 201.636719 105.261719 202.597656 C 105.105469 204.171875 106.796875 205.59375 108.144531 207.671875 C 108.640625 205.25 108.488281 204.402344 108.988281 202.941406 C 109.335938 203.789062 109.71875 207.902344 109.605469 209.59375 C 111.988281 207.671875 114.910156 207.554688 113.5625 202.367188 C 114.40625 203.328125 115.023438 205.25 115.253906 206.324219 C 116.484375 204.402344 119.136719 203.210938 117.0625 198.253906 C 118.175781 199.214844 118.636719 200.792969 119.019531 201.367188 C 119.367188 198.984375 120.671875 195.332031 117.792969 192.679688 C 118.523438 192.949219 119.480469 193.527344 119.980469 194.253906 C 119.980469 192.21875 121.289062 190.988281 118.40625 187.261719 C 118.867188 186.414062 119.25 185.339844 119.480469 184.261719 C 118.289062 184.375 116.945312 184.605469 115.984375 185.105469 C 115.984375 184.953125 115.753906 184.605469 115.253906 184.492188 L 106.566406 184.492188 C 105.949219 184.492188 105.375 185.335938 105.105469 186.910156 C 104.992188 186.910156 104.757812 186.644531 104.414062 186.527344 C 103.296875 186.066406 100.914062 186.066406 100.183594 188.332031 C 99.683594 189.292969 100.070312 191.253906 100.070312 191.253906 C 100.070312 191.253906 102.722656 189.179688 104.027344 191.484375 Z M 106.105469 189.179688 C 105.605469 188.949219 105.375 188.105469 105.839844 187.757812 C 106.222656 187.375 107.300781 187.988281 106.453125 188.835938 C 107.300781 189.179688 107.644531 188.605469 107.644531 188.21875 L 108.03125 188.21875 C 107.914062 188.835938 107.183594 189.910156 106.105469 189.179688 Z M 106.105469 189.179688 " fill-opacity="1" fill-rule="evenodd"/><path fill="#cfae59" d="M 115.140625 183.992188 C 115.488281 183.992188 115.640625 184.105469 115.640625 184.105469 L 119.136719 176.765625 C 115.371094 176.765625 116.714844 179.300781 116.832031 179.414062 C 116.832031 179.53125 116.601562 179.414062 116.601562 179.414062 C 116.332031 179.300781 116.101562 179.070312 115.757812 179.070312 C 115.027344 179.070312 114.410156 179.648438 114.410156 180.378906 C 114.410156 181.109375 115.027344 181.570312 115.757812 181.570312 L 116.101562 181.570312 C 116.101562 181.570312 113.566406 183.988281 111.640625 180.875 C 111.410156 180.609375 111.757812 181.222656 112.371094 181.222656 C 112.546875 181.21875 112.710938 181.1875 112.871094 181.117188 C 113.03125 181.050781 113.171875 180.957031 113.292969 180.835938 C 113.414062 180.714844 113.507812 180.574219 113.578125 180.414062 C 113.644531 180.253906 113.679688 180.089844 113.679688 179.914062 C 113.679688 179.183594 113.101562 178.683594 112.371094 178.683594 C 112.140625 178.683594 111.875 178.683594 111.640625 178.800781 C 111.988281 178.574219 112.15625 178.253906 112.140625 177.839844 C 112.140625 177.109375 111.527344 176.648438 110.914062 176.648438 C 110.183594 176.648438 109.605469 177.109375 109.605469 177.839844 C 109.605469 178.222656 109.835938 178.570312 110.066406 178.800781 C 109.835938 178.683594 109.605469 178.683594 109.335938 178.683594 C 108.644531 178.683594 108.144531 179.183594 108.144531 179.914062 C 108.144531 180.609375 108.644531 181.109375 109.335938 181.109375 C 109.949219 181.222656 110.296875 180.609375 110.183594 180.875 C 108.144531 183.875 105.722656 181.570312 105.722656 181.570312 L 105.953125 181.570312 C 106.683594 181.570312 107.300781 181.109375 107.300781 180.378906 C 107.300781 179.648438 106.683594 179.070312 105.953125 179.070312 C 105.605469 179.070312 105.375 179.183594 105.109375 179.414062 C 105.109375 179.414062 104.875 179.53125 104.992188 179.414062 C 104.992188 179.183594 106.339844 176.765625 102.726562 176.765625 L 106.109375 184.105469 C 106.109375 184.105469 106.339844 183.992188 106.570312 183.992188 Z M 115.140625 183.992188 " fill-opacity="1" fill-rule="evenodd"/><path fill="#bb2534" d="M 119.253906 192.214844 C 119.367188 191.484375 119.367188 190.410156 117.5625 188.449219 C 117.0625 189.066406 116.488281 189.679688 115.871094 190.140625 C 115.984375 192.445312 116.101562 195.828125 114.296875 197.636719 C 114.296875 197.636719 114.296875 196.175781 113.449219 194.636719 C 113.335938 196.558594 112.488281 198.597656 110.679688 199.941406 C 110.679688 199.941406 110.914062 198.484375 110.679688 196.0625 C 110.449219 196.90625 109.722656 197.867188 108.644531 198.25 L 108.144531 195.714844 C 108.144531 195.714844 109.105469 195.097656 109.105469 194.984375 C 109.105469 195.097656 109.335938 196.445312 109.335938 196.445312 C 110.296875 195.597656 109.605469 194.136719 110.449219 193.792969 C 110.914062 193.636719 111.144531 194.023438 111.410156 194.253906 C 111.757812 195.214844 111.757812 195.945312 111.757812 196.90625 C 112.371094 195.597656 112.371094 194.253906 112.257812 192.675781 C 112.140625 192.214844 112.371094 191.984375 112.71875 191.832031 C 112.988281 191.71875 113.335938 191.984375 113.449219 192.214844 C 114.066406 192.945312 114.410156 193.90625 114.640625 194.753906 C 115.027344 193.40625 115.140625 191.601562 114.640625 190.410156 C 114.527344 190.140625 114.527344 189.910156 114.527344 189.910156 C 115.871094 188.71875 117.0625 187.371094 117.679688 185.796875 C 115.871094 186.296875 113.449219 187.757812 113.449219 187.757812 L 112.988281 187.257812 L 114.910156 185.796875 C 115.023438 185.679688 115.023438 185.566406 114.640625 185.566406 L 107.644531 185.566406 C 106.953125 185.566406 106.335938 185.679688 106.335938 186.910156 L 107.183594 187.601562 C 107.183594 187.601562 108.257812 187.257812 109.335938 187.871094 L 109.222656 188.449219 C 109.222656 188.449219 108.761719 188.21875 108.492188 188.332031 C 107.914062 189.910156 106.953125 190.140625 106.109375 189.792969 C 105.261719 189.449219 105.109375 188.449219 104.992188 187.875 C 103.417969 187.027344 101.148438 186.910156 100.917969 189.566406 C 102.609375 188.835938 104.148438 189.679688 104.648438 190.523438 L 108.875 191.832031 C 107.414062 192.792969 105.492188 196.175781 103.070312 195.097656 C 104.761719 196.90625 106.570312 194.753906 107.183594 195.597656 C 107.800781 196.675781 104.992188 196.90625 105.492188 199.441406 C 105.839844 198.980469 106.683594 198.136719 107.300781 198.597656 C 107.644531 198.980469 107.414062 199.328125 107.300781 199.441406 C 106.109375 201.980469 105.609375 203.210938 107.53125 205.132812 C 108.03125 202.097656 108.148438 201.25 108.992188 201.25 C 110.183594 201.25 110.566406 206.4375 110.566406 207.667969 C 112.988281 206.207031 113.335938 205.863281 112.605469 202.097656 C 112.492188 201.367188 112.492188 201.019531 112.988281 200.902344 C 113.449219 200.671875 113.949219 201.019531 114.179688 201.367188 C 114.644531 202.210938 115.257812 203.210938 115.640625 204.285156 C 116.21875 203.210938 117.796875 202.59375 115.988281 198.367188 C 115.757812 197.867188 115.757812 197.40625 116.21875 197.175781 C 117.0625 196.558594 118.179688 197.980469 118.640625 198.710938 C 118.523438 197.289062 119.253906 195.332031 116.949219 193.0625 C 116.601562 192.5625 116.601562 192.214844 116.832031 191.984375 C 117.445312 191.488281 118.523438 191.832031 119.253906 192.214844 Z M 119.253906 192.214844 " fill-opacity="1" fill-rule="evenodd"/><path fill="#d7dcdf" d="M 108.644531 190.871094 C 109.835938 190.640625 109.605469 191.71875 111.027344 191.988281 C 109.835938 192.449219 109.335938 190.988281 108.644531 190.871094 Z M 116.21875 187.144531 C 115.703125 187.949219 114.984375 188.472656 114.0625 188.71875 C 114.523438 187.988281 115.253906 187.144531 116.21875 187.144531 Z M 90.769531 207.902344 C 90.539062 207.671875 90.382812 207.402344 90.039062 207.171875 L 90.039062 205.980469 C 90.792969 206.71875 91.601562 207.398438 92.460938 208.015625 L 92.460938 209.09375 C 92.074219 208.976562 91.84375 208.746094 91.613281 208.515625 L 91.613281 215.511719 C 91.304688 215.347656 91.023438 215.140625 90.769531 214.898438 Z M 92.921875 208.515625 C 93.882812 209.09375 94.382812 209.476562 95.113281 209.824219 L 95.113281 210.898438 C 94.613281 210.667969 94.265625 210.554688 93.765625 210.054688 L 93.765625 212.246094 C 94.265625 212.59375 94.613281 212.859375 94.996094 213.089844 L 94.996094 214.050781 C 94.570312 213.796875 94.160156 213.515625 93.765625 213.207031 L 93.765625 215.972656 C 94.265625 216.359375 94.496094 216.589844 95.226562 216.933594 L 95.226562 218.164062 C 94.152344 217.433594 94.035156 217.320312 92.921875 216.589844 Z M 98.496094 219.355469 C 96.191406 220.585938 94.996094 215.628906 96.074219 211.746094 C 96.1875 211.050781 96.917969 210.054688 98.378906 211.746094 L 98.378906 212.742188 C 97.148438 211.167969 96.6875 211.628906 96.574219 214.167969 C 96.574219 218.894531 97.535156 218.78125 98.496094 218.164062 Z M 99.074219 211.898438 C 99.457031 212.015625 99.570312 212.128906 100.070312 212.246094 L 100.070312 215.859375 C 100.417969 215.972656 100.917969 216.089844 101.378906 216.242188 L 101.378906 212.746094 C 101.761719 212.859375 101.878906 212.859375 102.222656 212.976562 L 102.222656 221.164062 C 101.878906 221.046875 101.609375 221.046875 101.378906 220.933594 L 101.378906 217.203125 C 100.9375 217.089844 100.503906 216.960938 100.070312 216.820312 L 100.070312 220.433594 C 99.6875 220.316406 99.457031 220.203125 99.074219 220.085938 Z M 103.417969 213.320312 C 103.800781 213.4375 103.914062 213.4375 104.148438 213.589844 C 104.644531 215.011719 105.375 217.320312 105.839844 218.894531 L 105.839844 213.820312 C 106.105469 213.820312 106.453125 213.933594 106.683594 213.933594 L 106.683594 222.121094 C 106.453125 222.121094 106.335938 222.007812 105.953125 222.007812 C 105.492188 220.429688 104.875 218.277344 104.414062 216.703125 L 104.261719 216.703125 L 104.414062 221.660156 C 104.03125 221.660156 103.683594 221.546875 103.417969 221.546875 Z M 112.71875 214.167969 C 113.101562 214.167969 113.335938 214.050781 113.679688 214.050781 L 113.679688 221.164062 C 114.292969 221.164062 115.023438 221.046875 115.640625 220.933594 L 115.640625 222.007812 C 114.640625 222.125 113.679688 222.277344 112.71875 222.394531 Z M 124.058594 218.894531 C 122.367188 221.046875 120.328125 220.085938 120.558594 216.089844 C 120.675781 213.4375 121.90625 211.054688 124.058594 211.511719 L 124.058594 212.589844 C 121.058594 211.285156 121.289062 217.085938 121.675781 218.28125 C 122.019531 219.355469 122.75 219.125 123.210938 218.78125 L 123.210938 216.355469 C 122.984375 216.472656 122.75 216.589844 122.636719 216.703125 L 122.636719 215.742188 C 123.097656 215.511719 123.710938 215.242188 124.058594 215.011719 Z M 125.171875 210.554688 C 125.402344 210.4375 125.632812 210.324219 125.863281 210.054688 L 126.019531 218.394531 C 125.714844 218.476562 125.433594 218.605469 125.171875 218.78125 Z M 127.09375 209.476562 C 127.824219 208.976562 128.554688 208.515625 129.132812 208.015625 L 129.132812 209.09375 C 128.671875 209.476562 128.289062 209.707031 127.824219 210.054688 L 127.824219 212.359375 C 128.285156 212.015625 128.671875 211.898438 129.015625 211.515625 L 129.015625 212.476562 C 128.671875 212.859375 128.285156 213.089844 127.824219 213.320312 L 127.824219 215.972656 C 128.402344 215.628906 128.785156 215.398438 129.246094 215.015625 L 129.246094 216.089844 C 128.554688 216.703125 127.824219 217.320312 126.980469 217.664062 Z M 129.863281 214.398438 C 130.363281 214.664062 131.207031 213.820312 130.9375 212.589844 C 130.710938 211.398438 129.75 210.320312 129.863281 208.746094 C 129.863281 208.746094 130.09375 206.554688 131.554688 206.09375 L 131.554688 207.054688 C 130.59375 207.167969 130.476562 208.246094 130.476562 208.398438 C 130.476562 208.746094 130.59375 208.976562 130.59375 209.09375 C 130.824219 209.707031 131.207031 210.320312 131.4375 210.898438 C 132.398438 213.320312 131.050781 215.394531 129.863281 215.394531 Z M 111.527344 218.28125 C 111.527344 220.699219 111.140625 222.625 109.605469 222.507812 C 108.257812 222.507812 107.644531 220.699219 107.644531 218.28125 C 107.644531 215.972656 108.261719 214.050781 109.605469 214.050781 C 111.027344 214.050781 111.527344 215.972656 111.527344 218.28125 Z M 109.605469 215.128906 C 108.988281 215.128906 108.644531 216.589844 108.644531 218.394531 C 108.644531 220.085938 108.988281 221.546875 109.605469 221.546875 C 110.296875 221.546875 110.679688 220.085938 110.679688 218.394531 C 110.679688 216.589844 110.296875 215.128906 109.605469 215.128906 Z M 119.714844 217.320312 C 119.714844 219.625 119.253906 221.546875 117.792969 221.546875 C 116.484375 221.546875 115.871094 219.625 115.871094 217.320312 C 115.871094 215.011719 116.484375 213.089844 117.792969 213.089844 C 119.253906 213.089844 119.714844 215.011719 119.714844 217.320312 Z M 117.792969 214.167969 C 117.0625 214.167969 116.714844 215.628906 116.714844 217.320312 C 116.714844 219.125 117.0625 220.433594 117.792969 220.433594 C 118.523438 220.433594 118.867188 219.125 118.867188 217.320312 C 118.867188 215.628906 118.523438 214.167969 117.792969 214.167969 Z M 117.792969 214.167969 " fill-opacity="1" fill-rule="evenodd"/><path fill="#002a58" d="M 304.761719 191.257812 C 307.144531 190.296875 308.835938 187.605469 308.835938 184.492188 C 308.835938 181.222656 307.53125 176.148438 299.304688 176.148438 L 271.550781 176.148438 L 271.550781 205.363281 L 259.019531 176.148438 L 245.375 176.148438 L 234.609375 201.019531 L 223.882812 176.148438 L 210.238281 176.148438 L 199.015625 201.867188 C 199.246094 201.136719 199.402344 200.175781 199.402344 199.328125 C 199.402344 193.410156 195.632812 190.871094 189.367188 189.796875 C 186.101562 189.179688 177.527344 187.875 174.644531 187.488281 C 172.953125 187.144531 172.226562 186.527344 172.226562 185.335938 C 172.226562 183.144531 174.300781 182.070312 178.03125 182.070312 C 183.101562 182.070312 185.027344 183.644531 185.257812 185.953125 L 197.941406 185.953125 C 197.210938 178.074219 189.984375 175.1875 177.800781 175.1875 C 163.078125 175.1875 160.386719 181.339844 160.386719 185.796875 C 160.386719 190.753906 163.078125 194.253906 169.921875 195.332031 L 181.144531 197.023438 C 185.027344 197.636719 186.488281 198.25 186.488281 199.945312 C 186.488281 202.828125 183.335938 203.558594 180.566406 203.558594 C 174.761719 203.558594 173.300781 201.867188 173.070312 199.328125 L 159.8125 199.328125 C 160.386719 208.746094 168.726562 210.667969 180.066406 210.667969 C 183.679688 210.667969 193.828125 210.667969 197.824219 204.863281 L 195.632812 209.707031 L 207.703125 209.707031 L 209.625 204.285156 L 224.386719 204.285156 L 226.3125 209.707031 L 242.839844 209.707031 L 244.757812 204.285156 L 259.480469 204.285156 L 261.402344 209.707031 L 298.34375 209.707031 C 306.761719 209.707031 309.527344 205.746094 310.300781 202.136719 L 310.300781 197.214844 C 309.605469 193.949219 307.566406 191.910156 304.761719 191.257812 Z M 212.316406 197.292969 L 217.003906 184.605469 L 221.695312 197.292969 Z M 247.410156 197.292969 L 252.136719 184.605469 L 256.828125 197.292969 Z M 282.773438 183.414062 L 293.886719 183.414062 C 296.304688 183.414062 297.382812 184.722656 297.382812 186.183594 C 297.382812 187.757812 296.304688 189.066406 293.886719 189.066406 L 282.773438 189.066406 Z M 294.730469 202.480469 L 282.773438 202.480469 L 282.773438 195.714844 L 294.730469 195.714844 C 297.152344 195.714844 298.726562 196.792969 298.726562 198.980469 C 298.726562 201.25 297.152344 202.480469 294.730469 202.480469 Z M 294.730469 202.480469 " fill-opacity="1" fill-rule="evenodd"/></svg>