<svg xmlns="http://www.w3.org/2000/svg" xmlns:xlink="http://www.w3.org/1999/xlink" width="512" zoomAndPan="magnify" viewBox="0 0 384 383.999986" height="512" preserveAspectRatio="xMidYMid meet" version="1.0"><defs><clipPath id="10327578c4"><path d="M 121 95.34375 L 313.554688 95.34375 L 313.554688 288.84375 L 121 288.84375 Z M 121 95.34375 " clip-rule="nonzero"/></clipPath><clipPath id="4240af8581"><path d="M 70.554688 255 L 188 255 L 188 288.84375 L 70.554688 288.84375 Z M 70.554688 255 " clip-rule="nonzero"/></clipPath></defs><path fill="#ffffff" d="M 211.003906 264.449219 C 211.851562 262.6875 213.910156 262.03125 215.738281 262.007812 C 225.019531 261.976562 234.304688 262.042969 243.59375 261.972656 C 243.679688 265.464844 243.601562 268.964844 243.625 272.460938 C 232.476562 272.480469 221.320312 272.511719 210.171875 272.445312 C 210.296875 269.785156 209.824219 266.941406 211.003906 264.449219 Z M 211.003906 264.449219 " fill-opacity="1" fill-rule="nonzero"/><g clip-path="url(#10327578c4)"><path fill="#19191b" d="M 168.117188 96.285156 C 194.75 95.34375 221.40625 96.277344 247.992188 97.984375 C 250.789062 98.230469 253.625 98.210938 256.382812 98.796875 C 257.871094 99.160156 259.484375 99.726562 260.355469 101.082031 C 261.152344 102.558594 261.167969 104.28125 261.375 105.90625 C 262.007812 113.886719 262.191406 121.902344 262.789062 129.882812 C 261.636719 130.023438 260.484375 129.847656 259.335938 129.808594 C 238.828125 128.75 218.308594 127.867188 197.769531 127.839844 C 187.132812 127.867188 176.484375 127.765625 165.855469 128.28125 C 163.28125 128.660156 160.367188 129.523438 158.878906 131.820312 C 166.917969 133.25 174.941406 134.792969 182.980469 136.246094 C 209.617188 141.234375 236.277344 146.113281 262.914062 151.09375 C 262.890625 156.148438 262.902344 161.207031 262.910156 166.261719 C 247.933594 163.777344 232.980469 161.101562 218.007812 158.542969 C 185.800781 152.988281 153.605469 147.355469 121.390625 141.855469 C 121.453125 136.242188 121.691406 130.636719 121.808594 125.023438 C 122.011719 120.578125 121.886719 116.070312 122.890625 111.707031 C 123.566406 108.625 124.816406 105.527344 127.152344 103.328125 C 131.179688 99.339844 137.003906 98.214844 142.421875 97.652344 C 150.96875 96.859375 159.546875 96.601562 168.117188 96.285156 Z M 121.238281 149.238281 C 167.378906 157.753906 213.503906 166.417969 259.636719 174.984375 C 260.644531 175.230469 261.722656 175.25 262.691406 175.621094 L 262.808594 175.886719 C 262.554688 183.460938 262.410156 191.039062 262.136719 198.609375 C 261.960938 203.28125 261.46875 208.171875 259.0625 212.285156 C 256.488281 216.542969 251.6875 218.898438 246.941406 219.785156 C 239.941406 221.101562 232.792969 221.1875 225.703125 221.578125 C 195.199219 222.960938 164.636719 222.195312 134.183594 220.097656 C 131.75 219.929688 129.273438 219.886719 126.910156 219.210938 C 125.6875 218.824219 124.421875 218.199219 123.730469 217.070312 C 122.988281 215.582031 122.941406 213.886719 122.757812 212.269531 C 122.105469 203.4375 121.757812 194.585938 121.296875 185.742188 C 137.003906 186.738281 152.742188 187.296875 168.480469 187.648438 C 183.675781 187.894531 198.871094 187.890625 214.066406 188.042969 C 217.347656 188.179688 220.890625 187.550781 223.375 185.246094 C 223.738281 184.832031 224.328125 184.445312 224.269531 183.820312 C 217.417969 182.792969 210.609375 181.515625 203.773438 180.390625 C 176.269531 175.683594 148.753906 171.023438 121.253906 166.289062 C 121.21875 160.605469 121.261719 154.921875 121.238281 149.238281 Z M 204.386719 258.828125 C 206.78125 256.335938 210.386719 255.539062 213.730469 255.464844 C 226.640625 255.460938 239.554688 255.445312 252.46875 255.476562 C 252.488281 266.597656 252.511719 277.71875 252.457031 288.84375 L 243.660156 288.84375 C 243.597656 285.609375 243.617188 282.371094 243.648438 279.140625 C 232.546875 278.925781 221.421875 279.144531 210.3125 279.027344 C 210.015625 282.277344 210.289062 285.574219 210.171875 288.84375 L 201.382812 288.84375 C 201.261719 281.851562 201.382812 274.851562 201.320312 267.859375 C 201.3125 264.644531 202.039062 261.179688 204.386719 258.828125 M 211.003906 264.449219 C 209.824219 266.941406 210.296875 269.785156 210.171875 272.445312 C 221.320312 272.511719 232.476562 272.480469 243.625 272.460938 C 243.601562 268.964844 243.679688 265.464844 243.59375 261.972656 C 234.304688 262.042969 225.019531 261.976562 215.738281 262.007812 C 213.910156 262.03125 211.851562 262.6875 211.003906 264.449219 Z M 263.257812 255.496094 C 279.976562 255.410156 296.703125 255.5 313.425781 255.453125 C 313.554688 257.628906 313.496094 259.820312 313.457031 262.003906 C 306.558594 261.996094 299.660156 262.003906 292.761719 262 C 292.789062 270.945312 292.796875 279.894531 292.757812 288.84375 L 283.992188 288.84375 C 283.808594 280.738281 283.964844 272.625 283.910156 264.515625 C 283.8125 263.65625 284.210938 262.664062 283.703125 261.90625 C 282.242188 262.09375 280.769531 261.960938 279.304688 262 C 273.957031 261.984375 268.609375 262.027344 263.261719 261.984375 C 263.238281 259.820312 263.226562 257.65625 263.257812 255.496094 Z M 263.257812 255.496094 " fill-opacity="1" fill-rule="nonzero"/></g><g clip-path="url(#4240af8581)"><path fill="#19181b" d="M 74.703125 256.621094 C 77.027344 255.441406 79.710938 255.441406 82.257812 255.460938 C 95.566406 255.484375 108.878906 255.421875 122.1875 255.488281 C 122.191406 257.609375 122.207031 259.730469 122.179688 261.851562 C 108.648438 261.972656 95.109375 261.839844 81.582031 261.917969 C 80.488281 261.863281 79.089844 262.3125 78.851562 263.527344 C 78.738281 264.46875 78.667969 265.660156 79.507812 266.308594 C 80.265625 266.953125 81.324219 266.957031 82.261719 267.0625 C 93.277344 267.984375 104.296875 268.875 115.3125 269.796875 C 117.871094 270.109375 120.675781 270.578125 122.574219 272.484375 C 124.410156 274.300781 124.769531 277.042969 124.699219 279.503906 C 124.671875 282.015625 124.097656 284.738281 122.203125 286.523438 C 120.464844 288.003906 118.128906 288.742188 115.863281 288.605469 C 101.34375 288.570312 86.820312 288.648438 72.304688 288.558594 C 72.242188 286.453125 72.183594 284.339844 72.339844 282.238281 C 85.96875 282.320312 99.601562 282.253906 113.230469 282.273438 C 114.15625 282.300781 115.1875 282.203125 115.890625 281.53125 C 116.722656 280.527344 116.761719 279.027344 116.226562 277.875 C 115.597656 276.875 114.335938 276.679688 113.253906 276.613281 C 103.597656 275.789062 93.9375 274.996094 84.273438 274.183594 C 81.277344 273.890625 78.1875 273.902344 75.332031 272.835938 C 73.566406 272.164062 72.035156 270.820312 71.367188 269.027344 C 70.554688 267.1875 70.976562 265.144531 70.847656 263.207031 C 70.683594 260.515625 72.234375 257.753906 74.703125 256.621094 Z M 136.058594 255.472656 C 153.082031 255.445312 170.105469 255.46875 187.125 255.460938 C 187.28125 255.480469 187.582031 255.519531 187.734375 255.539062 C 187.734375 257.652344 187.6875 259.773438 187.75 261.894531 C 187.222656 262.074219 186.65625 261.984375 186.117188 262.003906 C 172.390625 261.984375 158.664062 262.019531 144.941406 261.984375 C 144.878906 264.148438 144.921875 266.3125 144.917969 268.476562 C 154.992188 268.535156 165.070312 268.484375 175.144531 268.503906 C 178.769531 268.5625 182.410156 268.375 186.023438 268.597656 C 185.992188 270.667969 185.984375 272.738281 186.023438 274.808594 C 185.179688 274.949219 184.316406 274.917969 183.464844 274.917969 C 170.613281 274.914062 157.757812 274.917969 144.90625 274.914062 C 144.964844 276.734375 144.746094 278.714844 145.683594 280.363281 C 146.65625 282.011719 148.777344 282.230469 150.503906 282.265625 C 162.90625 282.277344 175.304688 282.289062 187.710938 282.257812 C 187.75 284.34375 187.710938 286.429688 187.722656 288.515625 C 182.652344 288.703125 177.558594 288.546875 172.480469 288.605469 C 163.722656 288.589844 154.96875 288.613281 146.21875 288.609375 C 143.144531 288.386719 139.933594 287.191406 138.054688 284.640625 C 136.410156 282.417969 135.953125 279.566406 136.023438 276.867188 C 136.054688 269.734375 135.988281 262.601562 136.058594 255.472656 Z M 136.058594 255.472656 " fill-opacity="1" fill-rule="nonzero"/></g></svg>