<svg xmlns="http://www.w3.org/2000/svg" xmlns:xlink="http://www.w3.org/1999/xlink" width="512" zoomAndPan="magnify" viewBox="0 0 384 383.999986" height="512" preserveAspectRatio="xMidYMid meet" version="1.0"><defs><clipPath id="205bc871ac"><path d="M 65.234375 174.164062 L 318.734375 174.164062 L 318.734375 210.164062 L 65.234375 210.164062 Z M 65.234375 174.164062 " clip-rule="nonzero"/></clipPath></defs><g clip-path="url(#205bc871ac)"><path fill="#0e3a2f" d="M 65.234375 210.074219 L 69.945312 202.488281 L 97.203125 202.488281 C 98.730469 202.488281 99.75 201.460938 99.75 199.917969 L 99.75 195.503906 L 76.3125 195.503906 C 69.351562 195.503906 66.253906 192.421875 66.253906 185.523438 L 66.253906 182.523438 C 66.253906 177.378906 69.265625 174.253906 74.019531 174.253906 L 74.574219 174.253906 L 74.574219 185.351562 C 74.574219 186.894531 75.59375 187.921875 77.121094 187.921875 L 99.792969 187.921875 C 104.972656 187.921875 108.027344 191.050781 108.027344 196.105469 L 108.027344 200.046875 C 108.027344 206.730469 104.757812 210.074219 97.964844 210.074219 Z M 228.472656 202.363281 L 249.53125 202.363281 C 253.011719 202.363281 255.21875 200.175781 255.21875 196.792969 L 255.21875 187.535156 C 255.21875 184.152344 253.011719 181.964844 249.53125 181.964844 L 228.472656 181.964844 Z M 220.023438 210.074219 L 220.023438 174.253906 L 249.742188 174.253906 C 258.617188 174.253906 263.710938 179.394531 263.710938 187.921875 L 263.710938 196.40625 C 263.710938 204.933594 258.617188 210.074219 249.742188 210.074219 Z M 179.054688 202.363281 L 196.84375 202.363281 C 200.070312 202.363281 202.152344 200.347656 202.152344 197.132812 L 202.152344 187.191406 C 202.152344 184.023438 200.070312 181.964844 196.84375 181.964844 L 179.054688 181.964844 C 175.828125 181.964844 173.75 183.980469 173.75 187.191406 L 173.75 197.132812 C 173.75 200.347656 175.828125 202.363281 179.054688 202.363281 Z M 197.015625 210.074219 L 178.84375 210.074219 C 170.265625 210.074219 165.300781 205.0625 165.300781 196.75 L 165.300781 187.621094 C 165.300781 179.308594 170.265625 174.296875 178.84375 174.296875 L 197.015625 174.296875 C 205.589844 174.296875 210.558594 179.308594 210.558594 187.621094 L 210.558594 196.75 C 210.601562 205.0625 205.632812 210.074219 197.015625 210.074219 Z M 267.148438 210.074219 L 287.0625 174.253906 L 298.820312 174.253906 L 318.734375 210.074219 L 309.097656 210.074219 L 305.65625 203.902344 L 288.675781 203.902344 L 284.132812 196.578125 L 276.617188 210.03125 L 267.148438 210.03125 Z M 284.34375 196.191406 L 301.367188 196.191406 L 292.835938 180.9375 Z M 82.894531 181.707031 L 78.054688 174.253906 L 107.222656 174.253906 L 102.550781 181.707031 Z M 117.367188 210.074219 L 117.367188 174.253906 L 125.816406 174.253906 L 125.816406 188.222656 L 137.023438 188.222656 L 151.585938 174.253906 L 162.796875 174.253906 L 144.285156 192.078125 L 163.136719 210.074219 L 151.246094 210.074219 L 136.683594 195.933594 L 125.816406 195.933594 L 125.816406 210.074219 Z M 117.367188 210.074219 " fill-opacity="1" fill-rule="nonzero"/></g></svg>