<svg xmlns="http://www.w3.org/2000/svg" xmlns:xlink="http://www.w3.org/1999/xlink" width="512" zoomAndPan="magnify" viewBox="0 0 384 383.999986" height="512" preserveAspectRatio="xMidYMid meet" version="1.0"><defs><clipPath id="928f626210"><path d="M 195 279 L 237 279 L 237 321.265625 L 195 321.265625 Z M 195 279 " clip-rule="nonzero"/></clipPath><clipPath id="b49db1b617"><path d="M 96.652344 279 L 134 279 L 134 321.265625 L 96.652344 321.265625 Z M 96.652344 279 " clip-rule="nonzero"/></clipPath><clipPath id="2d10553832"><path d="M 229 75 L 287.152344 75 L 287.152344 227 L 229 227 Z M 229 75 " clip-rule="nonzero"/></clipPath><clipPath id="fb81fb65cd"><path d="M 96.652344 62.515625 L 220 62.515625 L 220 240 L 96.652344 240 Z M 96.652344 62.515625 " clip-rule="nonzero"/></clipPath></defs><path fill="#141413" d="M 242.515625 294.605469 L 242.515625 320.195312 L 251.285156 320.195312 L 251.285156 295.109375 C 251.285156 293.429688 251.949219 291.820312 253.136719 290.632812 C 254.320312 289.445312 255.929688 288.777344 257.609375 288.773438 L 261.65625 288.773438 L 261.65625 280.417969 L 257.171875 280.417969 C 253.375 280.449219 249.734375 281.941406 247.007812 284.582031 C 244.277344 287.222656 242.671875 290.8125 242.515625 294.605469 Z M 242.515625 294.605469 " fill-opacity="1" fill-rule="nonzero"/><path fill="#141413" d="M 274.988281 305.480469 L 274.988281 288.738281 L 284.675781 288.738281 L 284.675781 280.371094 L 274.988281 280.371094 L 274.988281 272.523438 L 266.183594 272.523438 L 266.183594 305.953125 C 266.339844 309.75 267.949219 313.347656 270.679688 315.992188 C 273.40625 318.640625 277.050781 320.136719 280.851562 320.171875 L 285.335938 320.171875 L 285.335938 311.816406 L 281.289062 311.816406 C 279.617188 311.804688 278.015625 311.128906 276.835938 309.945312 C 275.65625 308.757812 274.992188 307.15625 274.988281 305.480469 Z M 274.988281 305.480469 " fill-opacity="1" fill-rule="nonzero"/><path fill="#141413" d="M 176.023438 279.621094 C 173.878906 279.628906 171.761719 280.109375 169.824219 281.03125 C 167.886719 281.953125 166.175781 283.289062 164.8125 284.949219 C 163.449219 283.289062 161.738281 281.953125 159.800781 281.03125 C 157.863281 280.109375 155.746094 279.628906 153.601562 279.621094 C 149.917969 279.617188 146.375 281.027344 143.699219 283.558594 C 141.023438 286.085938 139.417969 289.546875 139.214844 293.222656 L 139.214844 320.195312 L 148.039062 320.195312 L 148.039062 294.324219 C 148.011719 293.492188 148.15625 292.667969 148.453125 291.890625 C 148.753906 291.117188 149.203125 290.410156 149.78125 289.8125 C 150.359375 289.21875 151.050781 288.742188 151.8125 288.417969 C 152.578125 288.089844 153.398438 287.921875 154.226562 287.917969 C 157.085938 287.917969 160.449219 289.847656 160.449219 295.355469 L 160.449219 320.195312 L 169.242188 320.195312 L 169.242188 295.332031 C 169.242188 290.230469 172.449219 287.917969 175.429688 287.917969 C 176.273438 287.886719 177.109375 288.035156 177.894531 288.347656 C 178.675781 288.660156 179.382812 289.132812 179.96875 289.734375 C 180.558594 290.339844 181.011719 291.058594 181.304688 291.851562 C 181.597656 292.640625 181.71875 293.484375 181.664062 294.324219 L 181.664062 320.195312 L 190.433594 320.195312 L 190.433594 293.28125 C 190.242188 289.589844 188.636719 286.113281 185.957031 283.574219 C 183.273438 281.03125 179.71875 279.617188 176.023438 279.621094 Z M 176.023438 279.621094 " fill-opacity="1" fill-rule="nonzero"/><g clip-path="url(#928f626210)"><path fill="#141413" d="M 216.222656 279.722656 C 213.53125 279.707031 210.867188 280.230469 208.382812 281.257812 C 205.898438 282.289062 203.644531 283.804688 201.753906 285.71875 C 199.863281 287.628906 198.375 289.902344 197.375 292.398438 C 196.371094 294.894531 195.882812 297.566406 195.925781 300.253906 C 195.925781 312.300781 204.539062 321.023438 216.390625 321.023438 C 218.492188 321.089844 220.585938 320.71875 222.535156 319.929688 C 224.484375 319.140625 226.25 317.957031 227.714844 316.449219 L 227.714844 320.195312 L 236.496094 320.195312 L 236.496094 300.425781 C 236.496094 288.402344 227.949219 279.722656 216.222656 279.722656 Z M 216.335938 312.589844 C 213.910156 312.652344 211.523438 311.992188 209.476562 310.691406 C 207.433594 309.394531 205.820312 307.511719 204.847656 305.292969 C 203.875 303.070312 203.585938 300.609375 204.015625 298.226562 C 204.445312 295.839844 205.578125 293.636719 207.265625 291.894531 C 208.957031 290.15625 211.125 288.960938 213.496094 288.457031 C 215.867188 287.957031 218.335938 288.171875 220.582031 289.078125 C 222.832031 289.984375 224.757812 291.542969 226.117188 293.546875 C 227.476562 295.554688 228.210938 297.921875 228.21875 300.34375 C 228.21875 307.546875 223.351562 312.589844 216.335938 312.589844 Z M 216.335938 312.589844 " fill-opacity="1" fill-rule="nonzero"/></g><g clip-path="url(#b49db1b617)"><path fill="#141413" d="M 118.707031 296.398438 C 110.195312 295.410156 108.492188 293.886719 108.492188 291.566406 C 108.492188 287.886719 114.097656 287.417969 116.507812 287.417969 C 120.664062 287.445312 124.671875 288.929688 127.84375 291.609375 L 133.453125 286.003906 C 131.210938 284.152344 125.851562 279.679688 115.210938 279.679688 C 104.570312 279.679688 99.050781 286.046875 99.050781 292.070312 C 99.050781 299.191406 104.578125 303.285156 115.960938 304.484375 C 120.738281 305 124.359375 305.671875 124.359375 308.96875 C 124.359375 315.117188 108.964844 314.5 102.796875 307.667969 L 96.652344 313.804688 C 101.703125 318.425781 108.285156 321.007812 115.128906 321.058594 C 127.945312 321.058594 133.777344 314.777344 133.777344 308.902344 C 133.820312 301.578125 129.023438 297.585938 118.707031 296.398438 Z M 118.707031 296.398438 " fill-opacity="1" fill-rule="nonzero"/></g><g clip-path="url(#2d10553832)"><path fill="#141413" d="M 232.378906 226.554688 C 259.433594 209.734375 287.152344 161.847656 287.152344 151.070312 C 287.152344 140.292969 259.433594 92.441406 232.378906 75.585938 C 232.105469 75.386719 231.78125 75.261719 231.441406 75.230469 C 231.101562 75.199219 230.761719 75.261719 230.453125 75.410156 C 230.144531 75.558594 229.882812 75.785156 229.695312 76.070312 C 229.507812 76.351562 229.402344 76.683594 229.386719 77.023438 L 229.386719 225.054688 C 229.390625 225.398438 229.488281 225.738281 229.671875 226.03125 C 229.855469 226.324219 230.113281 226.5625 230.425781 226.71875 C 230.734375 226.871094 231.078125 226.941406 231.425781 226.910156 C 231.769531 226.882812 232.101562 226.757812 232.378906 226.554688 Z M 232.378906 226.554688 " fill-opacity="1" fill-rule="nonzero"/></g><g clip-path="url(#fb81fb65cd)"><path fill="#141413" d="M 182.867188 239.464844 C 183.617188 239.464844 184.378906 239.464844 185.109375 239.464844 C 196.070312 239.496094 206.9375 237.460938 217.140625 233.464844 C 217.742188 233.246094 218.257812 232.847656 218.617188 232.320312 C 218.980469 231.796875 219.167969 231.171875 219.160156 230.535156 L 219.160156 186.417969 C 219.15625 186.160156 219.089844 185.90625 218.96875 185.679688 C 218.847656 185.449219 218.675781 185.253906 218.464844 185.101562 C 218.257812 184.953125 218.015625 184.851562 217.757812 184.8125 C 217.503906 184.773438 217.242188 184.792969 216.996094 184.871094 C 207.464844 188.75 199.4375 192.453125 185.601562 192.453125 C 174.628906 192.453125 164.105469 188.09375 156.34375 180.332031 C 148.585938 172.570312 144.226562 162.046875 144.226562 151.070312 C 144.226562 140.097656 148.585938 129.570312 156.34375 121.808594 C 164.105469 114.050781 174.628906 109.691406 185.601562 109.691406 C 199.4375 109.691406 207.464844 113.390625 216.996094 117.257812 C 217.242188 117.339844 217.503906 117.363281 217.757812 117.324219 C 218.011719 117.285156 218.257812 117.1875 218.464844 117.039062 C 218.675781 116.890625 218.851562 116.691406 218.96875 116.464844 C 219.089844 116.234375 219.15625 115.980469 219.160156 115.722656 L 219.160156 71.574219 C 219.167969 70.9375 218.976562 70.316406 218.613281 69.792969 C 218.253906 69.273438 217.738281 68.875 217.140625 68.65625 C 206.953125 64.644531 196.09375 62.589844 185.140625 62.601562 C 184.378906 62.601562 183.617188 62.601562 182.898438 62.601562 C 159.886719 63.191406 138.015625 72.75 121.949219 89.242188 C 105.882812 105.730469 96.894531 127.84375 96.898438 150.871094 L 96.898438 151.195312 C 96.898438 174.210938 105.882812 196.320312 121.941406 212.808594 C 138 229.296875 159.859375 238.859375 182.867188 239.464844 Z M 182.867188 239.464844 " fill-opacity="1" fill-rule="nonzero"/></g></svg>