<svg xmlns="http://www.w3.org/2000/svg" xmlns:xlink="http://www.w3.org/1999/xlink" width="512" zoomAndPan="magnify" viewBox="0 0 384 383.999986" height="512" preserveAspectRatio="xMidYMid meet" version="1.0"><defs><clipPath id="dddac0841e"><path d="M 85 62.515625 L 299 62.515625 L 299 280 L 85 280 Z M 85 62.515625 " clip-rule="nonzero"/></clipPath><clipPath id="2f40ac1b4e"><path d="M 84.410156 287 L 299.660156 287 L 299.660156 321.265625 L 84.410156 321.265625 Z M 84.410156 287 " clip-rule="nonzero"/></clipPath></defs><g clip-path="url(#dddac0841e)"><path fill="#ff0016" d="M 162.210938 117.253906 C 164.207031 110.746094 169.261719 114.066406 169.261719 114.066406 C 169.261719 114.066406 182.359375 124.027344 218.285156 146.863281 C 254.210938 169.695312 299 138.007812 299 138.007812 L 192.625 62.515625 C 145.96875 111.910156 86.25 129.621094 86.25 129.621094 L 86.417969 129.6875 L 222.394531 224.921875 C 220.398438 231.429688 215.34375 228.109375 215.34375 228.109375 C 215.34375 228.109375 202.246094 218.144531 166.320312 195.308594 C 130.394531 172.476562 85.605469 204.164062 85.605469 204.164062 L 191.980469 279.65625 C 238.636719 230.261719 298.355469 212.554688 298.355469 212.554688 L 298.183594 212.484375 Z M 162.210938 117.253906 " fill-opacity="1" fill-rule="nonzero"/></g><g clip-path="url(#2f40ac1b4e)"><path fill="#015cd0" d="M 84.546875 309.628906 L 100.914062 309.714844 C 101.195312 311.253906 100.75 311.25 101.613281 312.050781 C 102.960938 313.304688 105.050781 313.589844 106.808594 313.28125 C 108.246094 313.027344 110.472656 312.589844 110.578125 310.808594 C 110.695312 308.871094 109.355469 308.199219 107.671875 307.976562 C 105.34375 307.675781 103 307.59375 100.679688 307.222656 C 94.703125 306.242188 91.527344 305.804688 88.980469 304.183594 C 86.414062 302.5625 86.195312 299.03125 86.195312 296.519531 C 86.195312 294.867188 86.851562 293.308594 88.164062 291.835938 C 89.476562 290.367188 91.449219 289.214844 94.085938 288.371094 C 96.722656 287.53125 100.335938 287.113281 104.929688 287.113281 C 110.5625 287.113281 114.859375 287.875 117.8125 289.398438 C 120.773438 290.921875 122.53125 294.320312 123.09375 297.640625 L 109.179688 297.640625 C 109.28125 297.445312 108.90625 296.554688 108.847656 296.332031 C 108.3125 294.40625 106.449219 293.84375 104.664062 293.449219 C 103.203125 293.125 101.53125 293.097656 100.214844 293.902344 C 99.410156 294.394531 98.789062 294.914062 98.789062 295.617188 C 98.789062 296.128906 99.117188 296.589844 99.78125 297 C 100.425781 297.421875 101.953125 297.816406 104.359375 298.179688 C 110.3125 299.121094 114.578125 300.066406 117.15625 301.019531 C 119.730469 301.980469 121.605469 303.164062 122.78125 304.582031 C 123.953125 305.996094 124.539062 307.582031 124.539062 309.335938 C 124.539062 311.398438 123.757812 313.296875 122.191406 315.03125 C 120.628906 316.769531 118.445312 318.089844 115.640625 318.988281 C 112.832031 319.886719 109.292969 320.335938 105.023438 320.335938 C 97.53125 320.335938 92.335938 319.285156 89.449219 317.179688 C 86.5625 315.082031 84.929688 312.875 84.546875 309.628906 Z M 150.949219 287.71875 L 163.042969 287.71875 L 163.042969 310.429688 C 163.042969 315.089844 160.144531 318.390625 154.34375 320.339844 C 151.660156 321.230469 148.445312 321.265625 144.804688 321.265625 C 141.539062 321.265625 138.609375 321.324219 135.898438 320.621094 C 129.515625 318.074219 126.324219 314.675781 126.324219 310.429688 L 126.324219 287.71875 L 138.503906 287.71875 L 138.503906 307.167969 C 138.503906 310.710938 138.976562 313.34375 144.804688 313.34375 C 150.75 313.34375 150.867188 310.59375 150.867188 307.054688 Z M 230.027344 287.71875 L 242.125 287.71875 L 242.125 310.429688 C 242.125 315.089844 239.226562 318.390625 233.425781 320.339844 C 230.746094 321.230469 227.527344 321.265625 223.886719 321.265625 C 220.621094 321.265625 217.6875 321.324219 214.980469 320.621094 C 208.597656 318.074219 205.40625 314.675781 205.40625 310.429688 L 205.40625 287.71875 L 217.585938 287.71875 L 217.585938 307.167969 C 217.585938 310.710938 218.058594 313.34375 223.886719 313.34375 C 229.832031 313.34375 229.949219 310.59375 229.949219 307.054688 Z M 165.53125 287.953125 L 202.996094 287.953125 L 202.996094 294.933594 L 184.695312 311.363281 L 202.996094 311.363281 L 202.996094 320.507812 L 165.53125 320.507812 L 165.53125 312.644531 L 183.410156 296.449219 L 165.5625 296.449219 Z M 245.121094 320.449219 L 245.121094 287.894531 L 257.128906 287.894531 L 257.125 299.945312 L 270.078125 287.894531 L 285.105469 287.894531 L 267.859375 303.671875 L 285.824219 320.449219 L 269.609375 320.449219 L 257.242188 308.800781 L 257.363281 320.449219 Z M 299.523438 287.890625 L 299.523438 320.449219 L 287.539062 320.449219 L 287.539062 287.894531 L 299.523438 287.894531 Z M 299.523438 287.890625 " fill-opacity="1" fill-rule="nonzero"/></g></svg>