<svg xmlns="http://www.w3.org/2000/svg" xmlns:xlink="http://www.w3.org/1999/xlink" width="512" zoomAndPan="magnify" viewBox="0 0 384 383.999986" height="512" preserveAspectRatio="xMidYMid meet" version="1.0"><defs><clipPath id="bd6020f4e3"><path d="M 64.523438 240 L 319.523438 240 L 319.523438 303.496094 L 64.523438 303.496094 Z M 64.523438 240 " clip-rule="nonzero"/></clipPath><clipPath id="cfe3915846"><path d="M 101 80.746094 L 283 80.746094 L 283 209 L 101 209 Z M 101 80.746094 " clip-rule="nonzero"/></clipPath></defs><g clip-path="url(#bd6020f4e3)"><path fill="#486aae" d="M 64.902344 240.050781 L 126.109375 240.050781 L 126.109375 258.691406 L 108.550781 258.691406 L 108.550781 303.496094 L 83.046875 303.496094 L 83.046875 258.691406 L 64.902344 258.691406 Z M 157.105469 265.683594 L 144.21875 303.496094 L 119.726562 303.496094 L 143.75 240.050781 L 170.351562 240.050781 L 194.949219 303.496094 L 170.15625 303.496094 Z M 189.097656 240.050781 L 250.304688 240.050781 L 250.304688 258.691406 L 232.75 258.691406 L 232.75 303.496094 L 207.246094 303.496094 L 207.246094 258.691406 L 189.097656 258.691406 Z M 281.3125 265.683594 L 268.421875 303.496094 L 243.929688 303.496094 L 267.957031 240.050781 L 294.550781 240.050781 L 319.140625 303.496094 L 294.355469 303.496094 Z M 281.3125 265.683594 " fill-opacity="1" fill-rule="nonzero"/></g><g clip-path="url(#cfe3915846)"><path fill="#486aae" d="M 282.214844 123.507812 C 279.929688 119.011719 276.921875 114.699219 273.175781 110.65625 C 264.761719 101.566406 252.890625 94.003906 238.839844 88.785156 C 224.675781 83.527344 208.519531 80.746094 192.101562 80.746094 C 175.683594 80.746094 159.527344 83.527344 145.371094 88.785156 C 131.3125 94.003906 119.441406 101.566406 111.027344 110.65625 C 107.285156 114.699219 104.265625 119.015625 101.980469 123.515625 C 120.273438 119.089844 151.558594 113.246094 180.609375 112.628906 C 183.410156 112.566406 185.339844 113.464844 186.609375 115.078125 C 188.15625 117.039062 188.042969 124.035156 188.003906 127.164062 L 187.175781 208.054688 C 188.8125 208.109375 190.457031 208.144531 192.101562 208.144531 C 193.761719 208.144531 195.414062 208.117188 197.050781 208.0625 L 196.222656 127.164062 C 196.179688 124.035156 196.0625 117.039062 197.613281 115.074219 C 198.886719 113.464844 200.808594 112.566406 203.613281 112.625 C 232.648438 113.238281 263.929688 119.085938 282.214844 123.507812 " fill-opacity="1" fill-rule="evenodd"/></g><path fill="#486aae" d="M 286.121094 134.027344 C 259.351562 127.972656 241.472656 126.851562 223.835938 125.871094 C 208.460938 125.015625 208.257812 130.511719 209.792969 141.011719 C 209.894531 141.652344 210.019531 142.460938 210.164062 143.382812 C 215.320312 173.957031 221.742188 200.269531 222.847656 204.734375 C 260.332031 196.15625 287.363281 172.378906 287.363281 144.449219 C 287.363281 140.929688 286.9375 137.445312 286.121094 134.027344 M 174.425781 141.011719 C 175.960938 130.511719 175.765625 125.015625 160.390625 125.871094 C 142.746094 126.851562 124.863281 127.972656 98.085938 134.03125 C 97.265625 137.449219 96.835938 140.929688 96.835938 144.445312 C 96.835938 156.519531 101.742188 168.199219 111.027344 178.238281 C 119.441406 187.328125 131.316406 194.890625 145.371094 200.113281 C 150.457031 201.996094 155.828125 203.542969 161.355469 204.777344 C 162.394531 200.59375 168.964844 173.738281 174.179688 142.617188 C 174.273438 142.019531 174.363281 141.46875 174.425781 141.011719 " fill-opacity="1" fill-rule="evenodd"/></svg>