<svg xmlns="http://www.w3.org/2000/svg" xmlns:xlink="http://www.w3.org/1999/xlink" width="512" zoomAndPan="magnify" viewBox="0 0 384 383.999986" height="512" preserveAspectRatio="xMidYMid meet" version="1.0"><defs><clipPath id="0e03433f7d"><path d="M 76 93 L 309 93 L 309 321.316406 L 76 321.316406 Z M 76 93 " clip-rule="nonzero"/></clipPath><clipPath id="492f4ff7e5"><path d="M 65.046875 68.566406 L 319.296875 68.566406 L 319.296875 108 L 65.046875 108 Z M 65.046875 68.566406 " clip-rule="nonzero"/></clipPath></defs><g clip-path="url(#0e03433f7d)"><path fill="#d81e06" d="M 192.328125 321.316406 L 227.914062 121.609375 C 261.804688 121.609375 272.589844 125.296875 274.128906 140.519531 C 274.128906 140.519531 296.929688 132.0625 308.328125 114.84375 C 263.5 94.089844 218.515625 93.167969 218.515625 93.167969 L 192.328125 125.144531 L 165.984375 93.167969 C 165.984375 93.167969 121 94.089844 76.171875 114.84375 C 87.570312 132.0625 110.371094 140.519531 110.371094 140.519531 C 111.910156 125.296875 122.539062 121.609375 156.277344 121.609375 Z M 192.328125 321.316406 " fill-opacity="1" fill-rule="nonzero"/></g><g clip-path="url(#492f4ff7e5)"><path fill="#d81e06" d="M 192.171875 83.941406 C 228.375 83.632812 269.816406 89.476562 312.179688 107.925781 C 317.878906 97.777344 319.265625 93.320312 319.265625 93.320312 C 273.050781 75.023438 229.609375 68.722656 192.171875 68.566406 C 154.890625 68.722656 111.449219 75.023438 65.078125 93.320312 C 65.078125 93.320312 67.082031 98.855469 72.164062 107.925781 C 114.683594 89.476562 156.125 83.632812 192.171875 83.941406 Z M 192.171875 83.941406 " fill-opacity="1" fill-rule="nonzero"/></g></svg>