<svg xmlns="http://www.w3.org/2000/svg" xmlns:xlink="http://www.w3.org/1999/xlink" width="512" zoomAndPan="magnify" viewBox="0 0 384 383.999986" height="512" preserveAspectRatio="xMidYMid meet" version="1.0"><defs><clipPath id="3b5f0a6de3"><path d="M 62.515625 62.515625 L 321.265625 62.515625 L 321.265625 321.265625 L 62.515625 321.265625 Z M 62.515625 62.515625 " clip-rule="nonzero"/></clipPath></defs><g clip-path="url(#3b5f0a6de3)"><path fill="#ffffff" d="M 62.515625 62.515625 L 321.265625 62.515625 L 321.265625 321.265625 L 62.515625 321.265625 Z M 62.515625 62.515625 " fill-opacity="1" fill-rule="evenodd"/></g><path fill="#000000" d="M 202.570312 133.667969 L 202.570312 192.996094 L 210.5625 192.996094 L 210.5625 144.324219 C 210.5625 144.003906 210.59375 143.691406 210.65625 143.378906 C 210.71875 143.070312 210.808594 142.765625 210.929688 142.472656 C 211.050781 142.179688 211.199219 141.902344 211.375 141.640625 C 211.554688 141.375 211.753906 141.132812 211.976562 140.90625 C 212.203125 140.683594 212.445312 140.484375 212.710938 140.308594 C 212.972656 140.128906 213.25 139.980469 213.542969 139.859375 C 213.835938 139.738281 214.136719 139.648438 214.449219 139.585938 C 214.761719 139.523438 215.074219 139.492188 215.390625 139.492188 L 238.871094 139.535156 L 238.871094 130.597656 L 205.683594 130.550781 C 205.273438 130.550781 204.875 130.632812 204.492188 130.789062 C 204.113281 130.949219 203.777344 131.171875 203.484375 131.464844 C 203.191406 131.757812 202.96875 132.09375 202.808594 132.476562 C 202.652344 132.855469 202.570312 133.253906 202.570312 133.667969 Z M 182.386719 117.410156 L 142.109375 117.410156 L 142.109375 127.164062 L 175.296875 127.164062 C 178.863281 127.164062 181.800781 130.101562 181.800781 133.667969 L 181.800781 192.996094 L 188.796875 192.996094 L 188.796875 123.824219 C 188.800781 123.402344 188.761719 122.984375 188.679688 122.570312 C 188.601562 122.15625 188.480469 121.753906 188.320312 121.367188 C 188.160156 120.976562 187.960938 120.605469 187.726562 120.253906 C 187.492188 119.902344 187.226562 119.578125 186.929688 119.28125 C 186.632812 118.984375 186.308594 118.714844 185.957031 118.484375 C 185.605469 118.25 185.234375 118.050781 184.84375 117.890625 C 184.457031 117.730469 184.054688 117.609375 183.640625 117.53125 C 183.226562 117.449219 182.808594 117.410156 182.386719 117.410156 Z M 182.386719 117.410156 " fill-opacity="1" fill-rule="evenodd"/><path fill="#000000" d="M 198.597656 117.410156 C 198.175781 117.410156 197.757812 117.453125 197.34375 117.535156 C 196.933594 117.617188 196.53125 117.738281 196.140625 117.898438 C 195.753906 118.058594 195.382812 118.257812 195.03125 118.492188 C 194.683594 118.726562 194.359375 118.992188 194.0625 119.289062 C 193.761719 119.585938 193.496094 119.910156 193.265625 120.261719 C 193.03125 120.609375 192.832031 120.980469 192.671875 121.367188 C 192.511719 121.757812 192.390625 122.160156 192.308594 122.570312 C 192.226562 122.984375 192.183594 123.402344 192.183594 123.824219 L 192.183594 192.996094 L 199.183594 192.996094 L 199.226562 133.667969 C 199.226562 130.101562 202.074219 127.164062 205.6875 127.164062 L 238.875 127.164062 L 238.875 117.410156 Z M 175.296875 130.550781 L 142.109375 130.550781 L 142.109375 139.492188 L 165.589844 139.492188 C 168.253906 139.492188 170.375 141.660156 170.375 144.324219 L 170.375 192.996094 L 178.410156 192.996094 L 178.410156 133.667969 C 178.410156 133.253906 178.332031 132.855469 178.171875 132.476562 C 178.015625 132.09375 177.789062 131.757812 177.5 131.464844 C 177.207031 131.171875 176.871094 130.949219 176.488281 130.789062 C 176.109375 130.632812 175.710938 130.550781 175.296875 130.550781 Z M 238.871094 104.722656 L 142.109375 104.722656 L 142.109375 114.433594 L 238.871094 114.476562 Z M 128.746094 215.164062 L 124.816406 227.628906 L 107.164062 227.628906 L 93.03125 270.886719 L 77.453125 270.886719 L 91.585938 227.628906 L 73.929688 227.628906 L 77.859375 215.121094 Z M 128.746094 215.164062 " fill-opacity="1" fill-rule="evenodd"/><path fill="#000000" d="M 144.550781 226.589844 C 145.980469 226.164062 147.4375 225.953125 148.929688 225.957031 C 156.199219 225.957031 159.449219 230.246094 158.636719 238.824219 C 158.1875 243.835938 156.378906 248.488281 153.265625 252.734375 C 150.734375 256.253906 147.800781 258.511719 144.550781 259.503906 L 144.550781 271.558594 C 152.496094 270.433594 159.3125 267.269531 164.957031 262.125 C 171.867188 255.847656 175.886719 247.632812 176.925781 237.5625 C 177.871094 228.667969 175.253906 222.253906 169.023438 218.28125 C 164.550781 215.4375 158.636719 213.992188 151.234375 213.992188 C 148.929688 213.992188 146.671875 214.128906 144.550781 214.445312 Z M 135.699219 233.273438 C 138.226562 229.839844 141.164062 227.582031 144.550781 226.589844 L 144.550781 214.445312 C 136.785156 215.527344 130.011719 218.640625 124.320312 223.742188 C 117.277344 230.019531 113.261719 237.921875 112.265625 247.359375 C 112.132812 248.488281 112.085938 249.527344 112.042969 250.566406 L 112.042969 251.152344 C 112.132812 257.113281 113.980469 261.902344 117.640625 265.511719 C 122.066406 269.847656 128.703125 272.058594 137.507812 272.058594 C 139.867188 272.058594 142.214844 271.890625 144.550781 271.5625 L 144.550781 259.507812 C 143.242188 259.871094 141.929688 260.09375 140.53125 260.09375 C 136.785156 260.09375 134.03125 258.832031 132.269531 256.394531 C 130.6875 254.226562 130.058594 251.242188 130.417969 247.453125 C 130.914062 242.167969 132.675781 237.429688 135.699219 233.273438 Z M 135.699219 233.273438 " fill-opacity="1" fill-rule="evenodd"/><path fill="#000000" d="M 161.480469 270.886719 L 179.542969 215.164062 L 221.261719 215.164062 L 217.246094 227.675781 L 191.144531 227.675781 L 187.714844 238.238281 L 212.59375 238.238281 L 208.980469 249.480469 L 184.054688 249.480469 L 177.058594 270.886719 Z M 161.480469 270.886719 " fill-opacity="1" fill-rule="evenodd"/><path fill="#000000" d="M 234.851562 228.847656 L 236.523438 248.941406 L 228.894531 248.941406 L 228.894531 259.011719 L 236.929688 259.054688 L 238.191406 270.882812 L 254.042969 270.882812 L 249.707031 215.164062 L 228.890625 215.164062 L 228.890625 237.515625 L 234.671875 228.84375 L 234.851562 228.84375 Z M 228.894531 248.941406 L 221.308594 248.941406 L 228.894531 237.515625 L 228.894531 215.164062 L 228.53125 215.164062 L 191.371094 270.886719 L 208.210938 270.886719 L 215.300781 258.917969 L 228.890625 259.011719 L 228.890625 248.941406 Z M 228.894531 248.941406 " fill-opacity="1" fill-rule="evenodd"/><path fill="#000000" d="M 309.625 230.746094 C 310.53125 224.285156 308.722656 219.546875 304.253906 216.476562 C 300.414062 213.855469 294.859375 212.5 287.636719 212.5 C 280.773438 212.5 274.859375 213.945312 269.984375 216.835938 C 264.382812 220.085938 261.269531 224.738281 260.679688 230.746094 C 260.003906 237.378906 264.15625 242.210938 273.140625 245.238281 C 276.4375 246.1875 279.78125 247.132812 283.164062 248.039062 C 286.640625 249.300781 288.316406 251.152344 288.042969 253.5 C 287.679688 257.246094 284.433594 259.097656 278.289062 259.097656 C 274.359375 259.097656 271.605469 258.511719 269.980469 257.339844 C 268.21875 256.117188 267.453125 254 267.769531 251.0625 L 251.695312 251.0625 C 250.972656 257.519531 252.734375 262.574219 256.980469 266.144531 C 259.191406 267.949219 261.945312 269.304688 265.195312 270.117188 L 262.53125 279.054688 L 276.890625 279.054688 L 279.328125 270.972656 C 285.828125 270.386719 291.292969 268.671875 295.71875 265.738281 C 300.820312 262.351562 303.664062 258.015625 304.207031 252.734375 C 305.066406 244.335938 299.511719 238.601562 287.503906 235.578125 C 282.667969 234.3125 279.824219 233.453125 278.96875 233.046875 C 277.386719 232.371094 276.710938 231.238281 276.84375 229.660156 C 277.027344 228.035156 278.019531 226.769531 279.871094 225.824219 C 281.453125 225.011719 283.304688 224.605469 285.515625 224.605469 C 291.292969 224.605469 293.957031 226.636719 293.550781 230.746094 Z M 309.625 230.746094 " fill-opacity="1" fill-rule="evenodd"/></svg>