<svg xmlns="http://www.w3.org/2000/svg" xmlns:xlink="http://www.w3.org/1999/xlink" width="512" zoomAndPan="magnify" viewBox="0 0 384 383.999986" height="512" preserveAspectRatio="xMidYMid meet" version="1.0"><defs><clipPath id="ab7a781e64"><path d="M 62.515625 160.6875 L 127 160.6875 L 127 222.9375 L 62.515625 222.9375 Z M 62.515625 160.6875 " clip-rule="nonzero"/></clipPath><clipPath id="6eaafe2e99"><path d="M 126 160.6875 L 191 160.6875 L 191 222.9375 L 126 222.9375 Z M 126 160.6875 " clip-rule="nonzero"/></clipPath></defs><g clip-path="url(#ab7a781e64)"><path fill="#00c1e6" d="M 126.710938 160.6875 L 62.785156 191.839844 L 126.746094 222.9375 L 95.402344 191.824219 Z M 126.710938 160.6875 " fill-opacity="1" fill-rule="nonzero"/></g><g clip-path="url(#6eaafe2e99)"><path fill="#00c1e6" d="M 126.710938 160.6875 L 190.671875 191.785156 L 126.746094 222.9375 L 158.054688 191.804688 Z M 126.710938 160.6875 " fill-opacity="1" fill-rule="nonzero"/></g><path fill="#000000" d="M 283.074219 190.71875 C 283.082031 191.078125 283.074219 191.4375 283.042969 191.800781 C 283.011719 192.160156 282.960938 192.515625 282.890625 192.871094 C 282.820312 193.226562 282.730469 193.574219 282.621094 193.917969 C 282.511719 194.261719 282.382812 194.601562 282.234375 194.929688 C 282.089844 195.261719 281.921875 195.582031 281.742188 195.894531 C 281.558594 196.207031 281.359375 196.507812 281.140625 196.796875 C 280.925781 197.085938 280.691406 197.363281 280.445312 197.625 C 280.199219 197.890625 279.9375 198.140625 279.660156 198.375 C 279.386719 198.613281 279.097656 198.832031 278.796875 199.035156 C 278.496094 199.238281 278.1875 199.425781 277.867188 199.59375 C 277.546875 199.761719 277.214844 199.914062 276.878906 200.046875 C 276.542969 200.179688 276.199219 200.292969 275.847656 200.386719 C 275.496094 200.480469 275.140625 200.558594 274.785156 200.613281 C 274.425781 200.667969 274.066406 200.703125 273.703125 200.71875 C 273.339844 200.734375 272.976562 200.730469 272.613281 200.707031 C 272.253906 200.683594 271.894531 200.636719 271.535156 200.574219 C 270.578125 200.402344 269.664062 200.09375 268.796875 199.652344 C 267.929688 199.210938 267.148438 198.652344 266.449219 197.976562 C 265.75 197.300781 265.164062 196.539062 264.691406 195.691406 C 264.222656 194.84375 263.882812 193.945312 263.683594 192.996094 C 263.480469 192.050781 263.421875 191.09375 263.507812 190.128906 C 263.59375 189.164062 263.820312 188.230469 264.1875 187.332031 C 264.550781 186.433594 265.042969 185.609375 265.65625 184.855469 C 266.265625 184.101562 266.976562 183.457031 267.785156 182.914062 C 269.4375 181.804688 271.257812 181.246094 273.253906 181.242188 C 274.535156 181.230469 275.769531 181.464844 276.957031 181.9375 C 278.144531 182.414062 279.199219 183.09375 280.117188 183.980469 C 281.035156 184.867188 281.75 185.894531 282.261719 187.058594 C 282.773438 188.226562 283.046875 189.445312 283.074219 190.71875 Z M 282.96875 177.964844 L 282.96875 181.367188 C 281.667969 180.082031 280.167969 179.089844 278.472656 178.394531 C 276.777344 177.703125 275.015625 177.355469 273.179688 177.359375 C 271.414062 177.359375 269.71875 177.695312 268.085938 178.367188 C 266.453125 179.039062 265.015625 179.996094 263.765625 181.234375 C 262.519531 182.476562 261.558594 183.90625 260.882812 185.527344 C 260.207031 187.148438 259.867188 188.839844 259.867188 190.59375 C 259.867188 192.347656 260.203125 194.035156 260.878906 195.660156 C 261.554688 197.28125 262.515625 198.710938 263.765625 199.949219 C 265.015625 201.191406 266.453125 202.148438 268.085938 202.820312 C 269.71875 203.492188 271.414062 203.828125 273.179688 203.824219 C 275.011719 203.847656 276.777344 203.519531 278.476562 202.839844 C 280.171875 202.160156 281.675781 201.183594 282.984375 199.910156 C 282.984375 202.132812 282.984375 209.953125 273.359375 209.953125 C 271.691406 209.964844 270.058594 209.710938 268.46875 209.199219 C 266.878906 208.6875 265.410156 207.941406 264.058594 206.960938 L 263.84375 211.433594 C 266.8125 213.039062 269.984375 213.839844 273.359375 213.835938 C 275.195312 213.925781 276.972656 213.664062 278.699219 213.046875 C 280.429688 212.429688 281.96875 211.503906 283.324219 210.273438 C 284.550781 208.960938 285.476562 207.460938 286.097656 205.777344 C 286.71875 204.097656 286.988281 202.359375 286.910156 200.566406 L 286.910156 177.964844 Z M 317.035156 190.699219 C 317.046875 191.0625 317.035156 191.421875 317.007812 191.78125 C 316.976562 192.144531 316.925781 192.5 316.855469 192.855469 C 316.789062 193.210938 316.699219 193.558594 316.589844 193.902344 C 316.480469 194.25 316.351562 194.585938 316.207031 194.917969 C 316.058594 195.246094 315.894531 195.570312 315.710938 195.882812 C 315.53125 196.195312 315.332031 196.496094 315.113281 196.785156 C 314.898438 197.074219 314.667969 197.351562 314.417969 197.617188 C 314.171875 197.882812 313.910156 198.132812 313.636719 198.367188 C 313.359375 198.605469 313.074219 198.824219 312.773438 199.027344 C 312.472656 199.234375 312.164062 199.417969 311.839844 199.589844 C 311.519531 199.757812 311.191406 199.910156 310.855469 200.042969 C 310.515625 200.175781 310.171875 200.289062 309.820312 200.386719 C 309.472656 200.480469 309.117188 200.554688 308.757812 200.613281 C 308.398438 200.667969 308.039062 200.703125 307.675781 200.71875 C 307.3125 200.734375 306.949219 200.730469 306.589844 200.707031 C 306.226562 200.683594 305.867188 200.640625 305.507812 200.574219 C 304.550781 200.40625 303.636719 200.097656 302.769531 199.65625 C 301.902344 199.214844 301.117188 198.65625 300.417969 197.984375 C 299.714844 197.308594 299.128906 196.546875 298.65625 195.699219 C 298.1875 194.851562 297.847656 193.953125 297.644531 193.003906 C 297.445312 192.054688 297.386719 191.097656 297.46875 190.132812 C 297.554688 189.167969 297.78125 188.234375 298.144531 187.335938 C 298.511719 186.4375 299 185.609375 299.613281 184.859375 C 300.226562 184.105469 300.9375 183.457031 301.746094 182.914062 C 303.398438 181.804688 305.222656 181.246094 307.214844 181.242188 C 308.496094 181.230469 309.726562 181.460938 310.917969 181.933594 C 312.105469 182.402344 313.160156 183.082031 314.078125 183.96875 C 314.996094 184.851562 315.710938 185.878906 316.226562 187.042969 C 316.738281 188.210938 317.007812 189.429688 317.035156 190.699219 Z M 316.925781 177.945312 L 316.925781 181.347656 C 315.628906 180.066406 314.128906 179.078125 312.433594 178.386719 C 310.738281 177.695312 308.976562 177.351562 307.144531 177.359375 C 305.335938 177.292969 303.589844 177.582031 301.898438 178.222656 C 300.210938 178.863281 298.714844 179.808594 297.414062 181.054688 C 296.113281 182.304688 295.109375 183.753906 294.402344 185.40625 C 293.695312 187.0625 293.339844 188.785156 293.339844 190.582031 C 293.339844 191.472656 293.429688 192.355469 293.605469 193.226562 C 293.785156 194.097656 294.050781 194.945312 294.398438 195.765625 C 294.75 196.582031 295.179688 197.359375 295.6875 198.089844 C 296.195312 198.824219 296.769531 199.5 297.414062 200.117188 C 298.058594 200.734375 298.757812 201.28125 299.515625 201.757812 C 300.269531 202.234375 301.066406 202.632812 301.902344 202.949219 C 302.738281 203.265625 303.59375 203.496094 304.476562 203.640625 C 305.359375 203.785156 306.25 203.84375 307.144531 203.808594 C 308.972656 203.8125 310.734375 203.46875 312.429688 202.773438 C 314.121094 202.078125 315.613281 201.089844 316.910156 199.800781 C 316.910156 202.027344 316.910156 209.847656 307.285156 209.847656 C 305.613281 209.863281 303.980469 209.617188 302.390625 209.105469 C 300.800781 208.59375 299.332031 207.84375 297.984375 206.855469 L 297.769531 211.34375 C 300.742188 212.933594 303.914062 213.726562 307.285156 213.730469 C 309.121094 213.820312 310.898438 213.558594 312.625 212.941406 C 314.355469 212.320312 315.894531 211.398438 317.25 210.167969 C 318.480469 208.855469 319.402344 207.355469 320.023438 205.671875 C 320.644531 203.988281 320.917969 202.253906 320.835938 200.460938 L 320.835938 177.945312 Z M 197.769531 168.6875 L 197.769531 172.515625 L 210.582031 172.515625 L 210.582031 205.554688 L 214.542969 205.554688 L 214.527344 172.515625 L 227.320312 172.5 L 227.320312 168.6875 Z M 240.367188 202.386719 C 239.316406 202.402344 238.285156 202.269531 237.273438 201.984375 C 236.261719 201.699219 235.3125 201.273438 234.425781 200.707031 C 233.542969 200.140625 232.757812 199.460938 232.078125 198.664062 C 231.394531 197.867188 230.84375 196.988281 230.425781 196.027344 C 230.003906 195.070312 229.734375 194.070312 229.617188 193.03125 C 229.496094 191.992188 229.527344 190.957031 229.71875 189.929688 C 229.90625 188.902344 230.242188 187.921875 230.722656 186.992188 C 231.203125 186.0625 231.8125 185.222656 232.542969 184.472656 C 233.277344 183.71875 234.105469 183.089844 235.023438 182.582031 C 235.945312 182.078125 236.921875 181.714844 237.949219 181.496094 C 238.976562 181.277344 240.015625 181.210938 241.066406 181.296875 C 242.113281 181.386719 243.128906 181.625 244.105469 182.011719 C 245.082031 182.398438 245.980469 182.917969 246.804688 183.570312 C 247.625 184.222656 248.335938 184.980469 248.929688 185.84375 C 249.527344 186.707031 249.984375 187.636719 250.300781 188.632812 C 250.621094 189.628906 250.785156 190.652344 250.800781 191.699219 C 250.855469 193.105469 250.632812 194.464844 250.125 195.777344 C 249.621094 197.09375 248.875 198.253906 247.886719 199.261719 C 246.902344 200.273438 245.757812 201.050781 244.453125 201.59375 C 243.144531 202.136719 241.785156 202.398438 240.367188 202.386719 Z M 240.367188 177.449219 C 239.652344 177.445312 238.9375 177.492188 238.230469 177.59375 C 237.519531 177.695312 236.824219 177.847656 236.136719 178.050781 C 235.449219 178.253906 234.78125 178.503906 234.132812 178.804688 C 233.484375 179.109375 232.859375 179.457031 232.261719 179.847656 C 231.664062 180.242188 231.097656 180.675781 230.566406 181.152344 C 230.03125 181.628906 229.539062 182.140625 229.082031 182.691406 C 228.625 183.238281 228.210938 183.816406 227.839844 184.429688 C 227.46875 185.039062 227.144531 185.671875 226.867188 186.328125 C 226.589844 186.988281 226.363281 187.660156 226.1875 188.351562 C 226.011719 189.042969 225.890625 189.742188 225.816406 190.449219 C 225.746094 191.160156 225.726562 191.871094 225.761719 192.582031 C 225.796875 193.292969 225.882812 194 226.019531 194.699219 C 226.160156 195.398438 226.351562 196.082031 226.589844 196.753906 C 226.832031 197.421875 227.121094 198.074219 227.460938 198.703125 C 227.796875 199.328125 228.179688 199.929688 228.605469 200.5 C 229.035156 201.074219 229.5 201.609375 230.007812 202.113281 C 230.386719 202.492188 230.789062 202.847656 231.207031 203.179688 C 231.628906 203.511719 232.066406 203.824219 232.519531 204.109375 C 232.972656 204.394531 233.441406 204.652344 233.925781 204.886719 C 234.410156 205.121094 234.902344 205.324219 235.410156 205.503906 C 235.914062 205.683594 236.429688 205.832031 236.953125 205.957031 C 237.476562 206.078125 238.003906 206.171875 238.535156 206.234375 C 239.070312 206.300781 239.605469 206.335938 240.140625 206.339844 C 240.679688 206.34375 241.214844 206.320312 241.75 206.265625 C 242.28125 206.210938 242.8125 206.128906 243.335938 206.015625 C 243.863281 205.902344 244.378906 205.761719 244.890625 205.59375 C 245.398438 205.425781 245.898438 205.226562 246.382812 205.003906 C 246.871094 204.777344 247.34375 204.527344 247.804688 204.25 C 248.265625 203.976562 248.707031 203.675781 249.132812 203.347656 C 249.558594 203.023438 249.964844 202.675781 250.351562 202.304688 C 250.742188 201.933594 251.105469 201.542969 251.449219 201.132812 C 251.792969 200.722656 252.113281 200.296875 252.410156 199.851562 C 254.035156 197.40625 254.835938 194.71875 254.8125 191.785156 C 254.828125 191.078125 254.789062 190.371094 254.699219 189.664062 C 254.605469 188.960938 254.460938 188.269531 254.261719 187.585938 C 254.0625 186.902344 253.8125 186.238281 253.515625 185.59375 C 253.214844 184.949219 252.867188 184.332031 252.472656 183.738281 C 252.078125 183.148438 251.644531 182.585938 251.164062 182.0625 C 250.683594 181.535156 250.167969 181.046875 249.613281 180.597656 C 249.0625 180.148438 248.476562 179.746094 247.863281 179.386719 C 247.246094 179.027344 246.605469 178.714844 245.945312 178.449219 C 244.15625 177.738281 242.296875 177.40625 240.367188 177.449219 Z M 240.367188 177.449219 " fill-opacity="1" fill-rule="nonzero"/></svg>