<svg xmlns="http://www.w3.org/2000/svg" xmlns:xlink="http://www.w3.org/1999/xlink" width="512" zoomAndPan="magnify" viewBox="0 0 384 383.999986" height="512" preserveAspectRatio="xMidYMid meet" version="1.0"><defs><clipPath id="a989841c16"><path d="M 62.632812 108 L 321.382812 108 L 321.382812 276 L 62.632812 276 Z M 62.632812 108 " clip-rule="nonzero"/></clipPath></defs><g clip-path="url(#a989841c16)"><path fill="#000000" d="M 192.007812 108.183594 C 120.558594 108.183594 62.632812 145.660156 62.632812 191.867188 C 62.632812 238.109375 120.558594 275.597656 192.007812 275.597656 C 263.453125 275.597656 321.382812 238.121094 321.382812 191.867188 C 321.382812 145.617188 263.453125 108.183594 192.007812 108.183594 Z M 192.007812 239.671875 C 181.375 239.671875 172.707031 218.734375 172.167969 192.398438 C 185.394531 193.554688 198.617188 193.554688 211.84375 192.398438 C 211.304688 218.726562 202.636719 239.671875 192.007812 239.671875 Z M 173.472656 171.492188 C 176.363281 152.875 183.574219 139.65625 192.007812 139.65625 C 200.4375 139.65625 207.640625 152.875 210.539062 171.492188 C 198.183594 172.589844 185.828125 172.589844 173.472656 171.492188 Z M 192.007812 120.28125 C 178.132812 120.28125 166.292969 141.066406 161.925781 170.082031 C 135.621094 165.984375 117.261719 156.625 117.261719 145.757812 C 117.261719 131.09375 150.726562 119.226562 192.007812 119.226562 C 233.296875 119.226562 266.753906 131.105469 266.753906 145.757812 C 266.753906 156.625 248.390625 165.984375 222.085938 170.082031 C 217.71875 141.078125 205.882812 120.292969 192.007812 120.292969 Z M 81.175781 188.742188 C 81.175781 174.566406 86.640625 161.25 96.140625 149.820312 C 96.042969 150.621094 95.976562 151.4375 95.976562 152.257812 C 95.976562 170.125 122.769531 185.355469 160.160156 190.964844 C 160.125 192.257812 160.125 193.574219 160.125 194.886719 C 160.125 228.203125 169.464844 256.394531 182.367188 265.96875 C 125.660156 262.550781 81.1875 229.28125 81.1875 188.742188 Z M 201.644531 265.96875 C 214.550781 256.394531 223.886719 228.191406 223.886719 194.886719 C 223.886719 193.5625 223.863281 192.269531 223.855469 190.972656 C 261.222656 185.367188 288.035156 170.144531 288.035156 152.257812 C 288.035156 151.4375 287.96875 150.621094 287.875 149.820312 C 297.371094 161.28125 302.828125 174.566406 302.828125 188.742188 C 302.828125 229.28125 258.355469 262.550781 201.644531 265.96875 Z M 201.644531 265.96875 Z M 201.644531 265.96875 " fill-opacity="1" fill-rule="nonzero"/></g></svg>